%TF.GenerationSoftware,KiCad,Pcbnew,5.99.0-unknown-64afa3a42e~128~ubuntu20.04.1*%
%TF.CreationDate,2021-05-12T23:24:30+01:00*%
%TF.ProjectId,E73-nRF52840-BBoard,4537332d-6e52-4463-9532-3834302d4242,rev?*%
%TF.SameCoordinates,Original*%
%TF.FileFunction,Copper,L2,Inr*%
%TF.FilePolarity,Positive*%
%FSLAX46Y46*%
G04 Gerber Fmt 4.6, Leading zero omitted, Abs format (unit mm)*
G04 Created by KiCad (PCBNEW 5.99.0-unknown-64afa3a42e~128~ubuntu20.04.1) date 2021-05-12 23:24:30*
%MOMM*%
%LPD*%
G01*
G04 APERTURE LIST*
%TA.AperFunction,ComponentPad*%
%ADD10R,1.000000X0.650000*%
%TD*%
%TA.AperFunction,ComponentPad*%
%ADD11R,0.650000X1.000000*%
%TD*%
%TA.AperFunction,ComponentPad*%
%ADD12O,2.250000X1.250000*%
%TD*%
%TA.AperFunction,ComponentPad*%
%ADD13O,1.750000X1.250000*%
%TD*%
%TA.AperFunction,ComponentPad*%
%ADD14R,1.700000X1.700000*%
%TD*%
%TA.AperFunction,ComponentPad*%
%ADD15O,1.700000X1.700000*%
%TD*%
%TA.AperFunction,ViaPad*%
%ADD16C,0.800000*%
%TD*%
%TA.AperFunction,Conductor*%
%ADD17C,0.150000*%
%TD*%
%TA.AperFunction,Conductor*%
%ADD18C,0.250000*%
%TD*%
G04 APERTURE END LIST*
D10*
%TO.N,/P0.26*%
%TO.C,U1*%
X118912500Y-57167000D03*
%TO.N,/P0.06*%
X118912500Y-58437000D03*
%TO.N,/P0.08*%
X118912500Y-59707000D03*
%TO.N,BATTERY_PIN*%
X118912500Y-60977000D03*
%TO.N,/P0.12*%
X118912500Y-62247000D03*
%TO.N,/LED1*%
X118912500Y-63517000D03*
%TO.N,GND*%
X118912500Y-64787000D03*
D11*
%TO.N,/P0.15*%
X121452500Y-65041000D03*
%TO.N,/P0.17*%
X122722500Y-65041000D03*
%TO.N,/P0.20*%
X123992500Y-65041000D03*
%TO.N,/P0.22*%
X125262500Y-65041000D03*
%TO.N,/P1.00*%
X126532500Y-65041000D03*
%TO.N,/P1.02*%
X127802500Y-65041000D03*
%TO.N,/P1.04*%
X129072500Y-65041000D03*
%TO.N,/P1.06*%
X130342500Y-65041000D03*
%TD*%
D12*
%TO.N,GND*%
%TO.C,J2*%
X77125000Y-66550000D03*
D13*
X81125000Y-66600000D03*
X81125000Y-55424400D03*
D12*
X77125000Y-55400000D03*
%TD*%
D14*
%TO.N,VBAT*%
%TO.C,J5*%
X90850000Y-51750000D03*
D15*
%TO.N,GND*%
X93390000Y-51750000D03*
%TO.N,VCC*%
X95930000Y-51750000D03*
%TO.N,VUSB*%
X98470000Y-51750000D03*
%TO.N,GND*%
X101010000Y-51750000D03*
%TO.N,/P0.06*%
X103550000Y-51750000D03*
%TO.N,/P0.26*%
X106090000Y-51750000D03*
%TO.N,/P0.30*%
X108630000Y-51750000D03*
%TO.N,/P0.31*%
X111170000Y-51750000D03*
%TO.N,/P0.29*%
X113710000Y-51750000D03*
%TO.N,/P0.02*%
X116250000Y-51750000D03*
%TO.N,/P1.13*%
X118790000Y-51750000D03*
%TO.N,/P0.28*%
X121330000Y-51750000D03*
%TO.N,/P0.03*%
X123870000Y-51750000D03*
%TO.N,/P1.10*%
X126410000Y-51750000D03*
%TO.N,/P1.11*%
X128950000Y-51750000D03*
%TD*%
D14*
%TO.N,RESET*%
%TO.C,J4*%
X80750000Y-70225000D03*
D15*
%TO.N,VCC*%
X83290000Y-70225000D03*
%TO.N,GND*%
X85830000Y-70225000D03*
%TO.N,/P0.05*%
X88370000Y-70225000D03*
%TO.N,/P0.08*%
X90910000Y-70225000D03*
%TO.N,/P1.09*%
X93450000Y-70225000D03*
%TO.N,/P0.12*%
X95990000Y-70225000D03*
%TO.N,/P0.15*%
X98530000Y-70225000D03*
%TO.N,/P0.17*%
X101070000Y-70225000D03*
%TO.N,/P0.20*%
X103610000Y-70225000D03*
%TO.N,/P0.22*%
X106150000Y-70225000D03*
%TO.N,/P1.00*%
X108690000Y-70225000D03*
%TO.N,GND*%
X111230000Y-70225000D03*
%TO.N,/P0.13*%
X113770000Y-70225000D03*
%TO.N,/P0.24*%
X116310000Y-70225000D03*
%TO.N,/P1.02*%
X118850000Y-70225000D03*
%TO.N,/P1.04*%
X121390000Y-70225000D03*
%TO.N,/P0.09*%
X123930000Y-70225000D03*
%TO.N,/P1.06*%
X126470000Y-70225000D03*
%TO.N,/P0.10*%
X129010000Y-70225000D03*
%TD*%
D16*
%TO.N,RESET*%
X103925000Y-62200000D03*
X105000000Y-59675000D03*
%TO.N,GND*%
X103225000Y-57925000D03*
X93650000Y-59550000D03*
X92025000Y-63225000D03*
X106650000Y-59750000D03*
X99075000Y-54925000D03*
X101800000Y-62800000D03*
X125775000Y-56000000D03*
X88525000Y-54950000D03*
X83300000Y-65225000D03*
X86850000Y-59750000D03*
X86525000Y-67550000D03*
X96150000Y-63225000D03*
X83225000Y-57800000D03*
X120525000Y-62900000D03*
%TO.N,VBAT*%
X100700000Y-59050000D03*
X91800000Y-54950000D03*
%TO.N,VCC*%
X94875000Y-62000000D03*
X106950000Y-58450000D03*
X83275000Y-67675000D03*
%TO.N,VUSB*%
X83040803Y-58782383D03*
X93525000Y-57225000D03*
X96525000Y-58075000D03*
X83038766Y-63275000D03*
X101850000Y-57900000D03*
%TO.N,SWDIO*%
X126425000Y-68350000D03*
X127050000Y-60425000D03*
X112650000Y-58475000D03*
%TO.N,SWDCLK*%
X112650000Y-59675000D03*
X127773769Y-68348769D03*
%TO.N,D+*%
X123225000Y-68225000D03*
X85025000Y-63750000D03*
X99875000Y-67650000D03*
X86200000Y-65050000D03*
X85125000Y-61925000D03*
%TO.N,D-*%
X102600000Y-67500000D03*
X122000000Y-68225000D03*
X87325000Y-65075000D03*
%TO.N,RESET*%
X80750000Y-68400000D03*
X89775000Y-68400000D03*
%TO.N,/P0.02*%
X123250000Y-55975000D03*
%TO.N,/P0.29*%
X121975000Y-55975000D03*
%TO.N,/P0.31*%
X120700000Y-55975000D03*
%TO.N,/P0.30*%
X119425000Y-55975000D03*
%TO.N,/P0.05*%
X115675000Y-58500000D03*
%TO.N,/LED1*%
X103300000Y-66600000D03*
%TO.N,BATTERY_PIN*%
X104175000Y-56525000D03*
%TO.N,Net-(R6-Pad1)*%
X96274799Y-61274799D03*
X92325000Y-59925000D03*
%TO.N,/P1.09*%
X115425000Y-60225000D03*
%TO.N,/P0.13*%
X124475000Y-68250000D03*
%TD*%
D17*
%TO.N,SWDIO*%
X117700489Y-60899511D02*
X117700489Y-60869891D01*
X117700489Y-60869891D02*
X118192891Y-60377489D01*
X112650000Y-58475000D02*
X112676723Y-58475000D01*
X112676723Y-58475000D02*
X115101234Y-60899511D01*
X118192891Y-60377489D02*
X127002489Y-60377489D01*
X115101234Y-60899511D02*
X117700489Y-60899511D01*
X127002489Y-60377489D02*
X127050000Y-60425000D01*
%TO.N,SWDCLK*%
X128402011Y-67720527D02*
X127773769Y-68348769D01*
X128402011Y-64250413D02*
X128402011Y-67720527D01*
X114622489Y-61647489D02*
X125799087Y-61647489D01*
X112650000Y-59675000D02*
X114622489Y-61647489D01*
X125799087Y-61647489D02*
X128402011Y-64250413D01*
%TO.N,D+*%
X123225000Y-68225000D02*
X122475489Y-68974511D01*
X122475489Y-68974511D02*
X101199511Y-68974511D01*
X101199511Y-68974511D02*
X99875000Y-67650000D01*
%TO.N,D-*%
X121250000Y-67500000D02*
X122000000Y-68250000D01*
X102600000Y-67500000D02*
X121250000Y-67500000D01*
D18*
%TO.N,/P0.02*%
X118500000Y-54000000D02*
X123250000Y-54000000D01*
X123250000Y-54000000D02*
X123250000Y-55975000D01*
X116250000Y-51750000D02*
X118500000Y-54000000D01*
%TO.N,/P0.29*%
X116460000Y-54500000D02*
X122000000Y-54500000D01*
X122000000Y-55950000D02*
X122000000Y-54500000D01*
X113710000Y-51750000D02*
X116460000Y-54500000D01*
X121975000Y-55975000D02*
X122000000Y-55950000D01*
%TO.N,/P0.31*%
X114370000Y-54950000D02*
X120700000Y-54950000D01*
X111170000Y-51750000D02*
X114370000Y-54950000D01*
X120700000Y-55975000D02*
X120700000Y-54950000D01*
%TO.N,/P0.30*%
X108630000Y-51750000D02*
X109431723Y-51750000D01*
X113081243Y-55399520D02*
X118849520Y-55399520D01*
X109431723Y-51750000D02*
X113081243Y-55399520D01*
X118849520Y-55399520D02*
X119425000Y-55975000D01*
%TO.N,/P0.26*%
X110189040Y-55849040D02*
X109145000Y-54805000D01*
X118912500Y-57167000D02*
X118912500Y-56534777D01*
X118912500Y-56534777D02*
X118226763Y-55849040D01*
X106090000Y-51750000D02*
X109145000Y-54805000D01*
X118226763Y-55849040D02*
X110189040Y-55849040D01*
%TO.N,/P0.06*%
X108098560Y-56298560D02*
X103550000Y-51750000D01*
X116523560Y-56298560D02*
X108098560Y-56298560D01*
X118662000Y-58437000D02*
X116523560Y-56298560D01*
X118737500Y-58437000D02*
X118912500Y-58437000D01*
X118912500Y-58437000D02*
X118662000Y-58437000D01*
D17*
%TO.N,/P0.05*%
X110574520Y-56950480D02*
X103525488Y-63999512D01*
X114125480Y-56950480D02*
X114099520Y-56950480D01*
X114125480Y-56950480D02*
X110574520Y-56950480D01*
D18*
X115675000Y-58500000D02*
X115550000Y-58500000D01*
D17*
X89494511Y-69100489D02*
X88370000Y-70225000D01*
X103525488Y-63999512D02*
X96625489Y-63999511D01*
X115675000Y-58500000D02*
X114125480Y-56950480D01*
X96625489Y-63999511D02*
X91524511Y-69100489D01*
X91524511Y-69100489D02*
X89494511Y-69100489D01*
%TO.N,/P0.08*%
X96785969Y-64349031D02*
X103688252Y-64349031D01*
X118912500Y-59707000D02*
X115883723Y-59707000D01*
X115883723Y-59707000D02*
X113476723Y-57300000D01*
X90910000Y-70225000D02*
X96785969Y-64349031D01*
X103688252Y-64349031D02*
X110737283Y-57300000D01*
X110737283Y-57300000D02*
X113476723Y-57300000D01*
%TO.N,/P0.12*%
X106803000Y-62247000D02*
X106828000Y-62247000D01*
X101140000Y-65075000D02*
X103975000Y-65075000D01*
X106803000Y-62247000D02*
X118912500Y-62247000D01*
X95990000Y-70225000D02*
X101140000Y-65075000D01*
X103975000Y-65075000D02*
X106803000Y-62247000D01*
D18*
%TO.N,/P1.04*%
X121797277Y-70225000D02*
X121390000Y-70225000D01*
%TO.N,/LED1*%
X118912500Y-63517000D02*
X106383000Y-63517000D01*
X106383000Y-63517000D02*
X103300000Y-66600000D01*
D17*
%TO.N,/P1.09*%
X113300000Y-57650000D02*
X110881579Y-57650000D01*
X115425000Y-60225000D02*
X115425000Y-59775000D01*
X115425000Y-59775000D02*
X113300000Y-57650000D01*
X98975000Y-64700000D02*
X93450000Y-70225000D01*
X103831579Y-64700000D02*
X98975000Y-64700000D01*
X110881579Y-57650000D02*
X103831579Y-64700000D01*
%TD*%
M02*
