%FSLAX45Y45*%
G04 Gerber Fmt 4.5, Leading zero omitted, Abs format (unit mm)*
G04 Created by KiCad (PCBNEW 5.99.0-unknown-64afa3a42e~128~ubuntu20.04.1) date 2021-05-12 23:24:23*
%MOMM*%
%LPD*%
G01*
G04 APERTURE LIST*
%TA.AperFunction,Profile*%
%ADD10C,0.100000*%
%TD*%
%ADD11C,0.200000*%
%ADD12C,0.040000*%
%ADD13C,0.075000*%
%ADD14C,0.100000*%
G04 APERTURE END LIST*
D10*
X13490000Y-7010000D02*
G75*
G02*
X13290000Y-7210000I-200000J0D01*
G01*
X8150000Y-5647500D02*
X8150000Y-6547500D01*
X7490000Y-5645000D02*
X8150000Y-5647500D01*
X8150000Y-6547500D02*
X7490000Y-6547500D01*
X7690000Y-4990000D02*
X13290000Y-4990000D01*
X13290000Y-7210000D02*
X7690000Y-7210000D01*
X13490000Y-5190000D02*
X13490000Y-7010000D01*
X7690000Y-4990000D02*
G75*
G03*
X7490000Y-5190000I0J-200000D01*
G01*
X13290000Y-4990000D02*
G75*
G02*
X13490000Y-5190000I0J-200000D01*
G01*
X7490000Y-5645000D02*
X7490000Y-5190000D01*
X7490000Y-6547500D02*
X7490000Y-7010000D01*
X7490000Y-7010000D02*
G75*
G03*
X7690000Y-7210000I200000J0D01*
G01*
D11*
D12*
X8055000Y-6820000D02*
X8095000Y-6860000D01*
X8095000Y-6820000D02*
X8055000Y-6860000D01*
X8283877Y-6307500D02*
X8323877Y-6347500D01*
X8323877Y-6307500D02*
X8283877Y-6347500D01*
X8284080Y-5858238D02*
X8324080Y-5898238D01*
X8324080Y-5858238D02*
X8284080Y-5898238D01*
X8302500Y-5760000D02*
X8342500Y-5800000D01*
X8342500Y-5760000D02*
X8302500Y-5800000D01*
X8307500Y-6747500D02*
X8347500Y-6787500D01*
X8347500Y-6747500D02*
X8307500Y-6787500D01*
X8310000Y-6502500D02*
X8350000Y-6542500D01*
X8350000Y-6502500D02*
X8310000Y-6542500D01*
X8482500Y-6355000D02*
X8522500Y-6395000D01*
X8522500Y-6355000D02*
X8482500Y-6395000D01*
X8492500Y-6172500D02*
X8532500Y-6212500D01*
X8532500Y-6172500D02*
X8492500Y-6212500D01*
X8600000Y-6485000D02*
X8640000Y-6525000D01*
X8640000Y-6485000D02*
X8600000Y-6525000D01*
X8632500Y-6735000D02*
X8672500Y-6775000D01*
X8672500Y-6735000D02*
X8632500Y-6775000D01*
X8665000Y-5955000D02*
X8705000Y-5995000D01*
X8705000Y-5955000D02*
X8665000Y-5995000D01*
X8712500Y-6487500D02*
X8752500Y-6527500D01*
X8752500Y-6487500D02*
X8712500Y-6527500D01*
X8832500Y-5475000D02*
X8872500Y-5515000D01*
X8872500Y-5475000D02*
X8832500Y-5515000D01*
X8957500Y-6820000D02*
X8997500Y-6860000D01*
X8997500Y-6820000D02*
X8957500Y-6860000D01*
X9160000Y-5475000D02*
X9200000Y-5515000D01*
X9200000Y-5475000D02*
X9160000Y-5515000D01*
X9182500Y-6302500D02*
X9222500Y-6342500D01*
X9222500Y-6302500D02*
X9182500Y-6342500D01*
X9212500Y-5972500D02*
X9252500Y-6012500D01*
X9252500Y-5972500D02*
X9212500Y-6012500D01*
X9332500Y-5702500D02*
X9372500Y-5742500D01*
X9372500Y-5702500D02*
X9332500Y-5742500D01*
X9345000Y-5935000D02*
X9385000Y-5975000D01*
X9385000Y-5935000D02*
X9345000Y-5975000D01*
X9467500Y-6180000D02*
X9507500Y-6220000D01*
X9507500Y-6180000D02*
X9467500Y-6220000D01*
X9595000Y-6302500D02*
X9635000Y-6342500D01*
X9635000Y-6302500D02*
X9595000Y-6342500D01*
X9607480Y-6107480D02*
X9647480Y-6147480D01*
X9647480Y-6107480D02*
X9607480Y-6147480D01*
X9632500Y-5787500D02*
X9672500Y-5827500D01*
X9672500Y-5787500D02*
X9632500Y-5827500D01*
X9887500Y-5472500D02*
X9927500Y-5512500D01*
X9927500Y-5472500D02*
X9887500Y-5512500D01*
X9967500Y-6745000D02*
X10007500Y-6785000D01*
X10007500Y-6745000D02*
X9967500Y-6785000D01*
X10050000Y-5885000D02*
X10090000Y-5925000D01*
X10090000Y-5885000D02*
X10050000Y-5925000D01*
X10160000Y-6260000D02*
X10200000Y-6300000D01*
X10200000Y-6260000D02*
X10160000Y-6300000D01*
X10165000Y-5770000D02*
X10205000Y-5810000D01*
X10205000Y-5770000D02*
X10165000Y-5810000D01*
X10240000Y-6730000D02*
X10280000Y-6770000D01*
X10280000Y-6730000D02*
X10240000Y-6770000D01*
X10302500Y-5772500D02*
X10342500Y-5812500D01*
X10342500Y-5772500D02*
X10302500Y-5812500D01*
X10310000Y-6640000D02*
X10350000Y-6680000D01*
X10350000Y-6640000D02*
X10310000Y-6680000D01*
X10372500Y-6200000D02*
X10412500Y-6240000D01*
X10412500Y-6200000D02*
X10372500Y-6240000D01*
X10397500Y-5632500D02*
X10437500Y-5672500D01*
X10437500Y-5632500D02*
X10397500Y-5672500D01*
X10480000Y-5947500D02*
X10520000Y-5987500D01*
X10520000Y-5947500D02*
X10480000Y-5987500D01*
X10645000Y-5955000D02*
X10685000Y-5995000D01*
X10685000Y-5955000D02*
X10645000Y-5995000D01*
X10675000Y-5825000D02*
X10715000Y-5865000D01*
X10715000Y-5825000D02*
X10675000Y-5865000D01*
X11245000Y-5827500D02*
X11285000Y-5867500D01*
X11285000Y-5827500D02*
X11245000Y-5867500D01*
X11245000Y-5947500D02*
X11285000Y-5987500D01*
X11285000Y-5947500D02*
X11245000Y-5987500D01*
X11522500Y-6002500D02*
X11562500Y-6042500D01*
X11562500Y-6002500D02*
X11522500Y-6042500D01*
X11547500Y-5830000D02*
X11587500Y-5870000D01*
X11587500Y-5830000D02*
X11547500Y-5870000D01*
X11922500Y-5577500D02*
X11962500Y-5617500D01*
X11962500Y-5577500D02*
X11922500Y-5617500D01*
X12032500Y-6270000D02*
X12072500Y-6310000D01*
X12072500Y-6270000D02*
X12032500Y-6310000D01*
X12050000Y-5577500D02*
X12090000Y-5617500D01*
X12090000Y-5577500D02*
X12050000Y-5617500D01*
X12177500Y-5577500D02*
X12217500Y-5617500D01*
X12217500Y-5577500D02*
X12177500Y-5617500D01*
X12180000Y-6802500D02*
X12220000Y-6842500D01*
X12220000Y-6802500D02*
X12180000Y-6842500D01*
X12302500Y-6802500D02*
X12342500Y-6842500D01*
X12342500Y-6802500D02*
X12302500Y-6842500D01*
X12305000Y-5577500D02*
X12345000Y-5617500D01*
X12345000Y-5577500D02*
X12305000Y-5617500D01*
X12427500Y-6805000D02*
X12467500Y-6845000D01*
X12467500Y-6805000D02*
X12427500Y-6845000D01*
X12557500Y-5580000D02*
X12597500Y-5620000D01*
X12597500Y-5580000D02*
X12557500Y-5620000D01*
X12622500Y-6815000D02*
X12662500Y-6855000D01*
X12662500Y-6815000D02*
X12622500Y-6855000D01*
X12685000Y-6022500D02*
X12725000Y-6062500D01*
X12725000Y-6022500D02*
X12685000Y-6062500D01*
X12757377Y-6814877D02*
X12797377Y-6854877D01*
X12797377Y-6814877D02*
X12757377Y-6854877D01*
X11911250Y-5716700D02*
G75*
G03*
X11911250Y-5716700I-20000J0D01*
G01*
X11911250Y-5843700D02*
G75*
G03*
X11911250Y-5843700I-20000J0D01*
G01*
X11911250Y-5970700D02*
G75*
G03*
X11911250Y-5970700I-20000J0D01*
G01*
X11911250Y-6097700D02*
G75*
G03*
X11911250Y-6097700I-20000J0D01*
G01*
X11911250Y-6224700D02*
G75*
G03*
X11911250Y-6224700I-20000J0D01*
G01*
X11911250Y-6351700D02*
G75*
G03*
X11911250Y-6351700I-20000J0D01*
G01*
X11911250Y-6478700D02*
G75*
G03*
X11911250Y-6478700I-20000J0D01*
G01*
X12165250Y-6504100D02*
G75*
G03*
X12165250Y-6504100I-20000J0D01*
G01*
X12292250Y-6504100D02*
G75*
G03*
X12292250Y-6504100I-20000J0D01*
G01*
X12419250Y-6504100D02*
G75*
G03*
X12419250Y-6504100I-20000J0D01*
G01*
X12546250Y-6504100D02*
G75*
G03*
X12546250Y-6504100I-20000J0D01*
G01*
X12673250Y-6504100D02*
G75*
G03*
X12673250Y-6504100I-20000J0D01*
G01*
X12800250Y-6504100D02*
G75*
G03*
X12800250Y-6504100I-20000J0D01*
G01*
X12927250Y-6504100D02*
G75*
G03*
X12927250Y-6504100I-20000J0D01*
G01*
X13054250Y-6504100D02*
G75*
G03*
X13054250Y-6504100I-20000J0D01*
G01*
D13*
X7712500Y-5502500D02*
X7712500Y-5577500D01*
X7675000Y-5540000D02*
X7750000Y-5540000D01*
D11*
X7662500Y-5567500D02*
X7762500Y-5567500D01*
X7662500Y-5512500D02*
X7762500Y-5512500D01*
X7762500Y-5567500D02*
G75*
G03*
X7762500Y-5512500I0J27500D01*
G01*
X7662500Y-5512500D02*
G75*
G03*
X7662500Y-5567500I0J-27500D01*
G01*
D13*
X7712500Y-6617500D02*
X7712500Y-6692500D01*
X7675000Y-6655000D02*
X7750000Y-6655000D01*
D11*
X7662500Y-6682500D02*
X7762500Y-6682500D01*
X7662500Y-6627500D02*
X7762500Y-6627500D01*
X7762500Y-6682500D02*
G75*
G03*
X7762500Y-6627500I0J27500D01*
G01*
X7662500Y-6627500D02*
G75*
G03*
X7662500Y-6682500I0J-27500D01*
G01*
D13*
X8112500Y-5504940D02*
X8112500Y-5579940D01*
X8075000Y-5542440D02*
X8150000Y-5542440D01*
D11*
X8085000Y-5569940D02*
X8140000Y-5569940D01*
X8085000Y-5514940D02*
X8140000Y-5514940D01*
X8140000Y-5569940D02*
G75*
G03*
X8140000Y-5514940I0J27500D01*
G01*
X8085000Y-5514940D02*
G75*
G03*
X8085000Y-5569940I0J-27500D01*
G01*
D13*
X8112500Y-6622500D02*
X8112500Y-6697500D01*
X8075000Y-6660000D02*
X8150000Y-6660000D01*
D11*
X8085000Y-6687500D02*
X8140000Y-6687500D01*
X8085000Y-6632500D02*
X8140000Y-6632500D01*
X8140000Y-6687500D02*
G75*
G03*
X8140000Y-6632500I0J27500D01*
G01*
X8085000Y-6632500D02*
G75*
G03*
X8085000Y-6687500I0J-27500D01*
G01*
D14*
X8110356Y-7057856D02*
X8110356Y-6987144D01*
X8039644Y-6987144D01*
X8039644Y-7057856D01*
X8110356Y-7057856D01*
X8364356Y-7057856D02*
X8364356Y-6987144D01*
X8293644Y-6987144D01*
X8293644Y-7057856D01*
X8364356Y-7057856D01*
X8618356Y-7057856D02*
X8618356Y-6987144D01*
X8547644Y-6987144D01*
X8547644Y-7057856D01*
X8618356Y-7057856D01*
X8872356Y-7057856D02*
X8872356Y-6987144D01*
X8801644Y-6987144D01*
X8801644Y-7057856D01*
X8872356Y-7057856D01*
X9120356Y-5210356D02*
X9120356Y-5139644D01*
X9049644Y-5139644D01*
X9049644Y-5210356D01*
X9120356Y-5210356D01*
X9126356Y-7057856D02*
X9126356Y-6987144D01*
X9055644Y-6987144D01*
X9055644Y-7057856D01*
X9126356Y-7057856D01*
X9374356Y-5210356D02*
X9374356Y-5139644D01*
X9303644Y-5139644D01*
X9303644Y-5210356D01*
X9374356Y-5210356D01*
X9380356Y-7057856D02*
X9380356Y-6987144D01*
X9309644Y-6987144D01*
X9309644Y-7057856D01*
X9380356Y-7057856D01*
X9628356Y-5210356D02*
X9628356Y-5139644D01*
X9557644Y-5139644D01*
X9557644Y-5210356D01*
X9628356Y-5210356D01*
X9634356Y-7057856D02*
X9634356Y-6987144D01*
X9563644Y-6987144D01*
X9563644Y-7057856D01*
X9634356Y-7057856D01*
X9882356Y-5210356D02*
X9882356Y-5139644D01*
X9811644Y-5139644D01*
X9811644Y-5210356D01*
X9882356Y-5210356D01*
X9888356Y-7057856D02*
X9888356Y-6987144D01*
X9817644Y-6987144D01*
X9817644Y-7057856D01*
X9888356Y-7057856D01*
X10136356Y-5210356D02*
X10136356Y-5139644D01*
X10065644Y-5139644D01*
X10065644Y-5210356D01*
X10136356Y-5210356D01*
X10142356Y-7057856D02*
X10142356Y-6987144D01*
X10071644Y-6987144D01*
X10071644Y-7057856D01*
X10142356Y-7057856D01*
X10390356Y-5210356D02*
X10390356Y-5139644D01*
X10319644Y-5139644D01*
X10319644Y-5210356D01*
X10390356Y-5210356D01*
X10396356Y-7057856D02*
X10396356Y-6987144D01*
X10325644Y-6987144D01*
X10325644Y-7057856D01*
X10396356Y-7057856D01*
X10644356Y-5210356D02*
X10644356Y-5139644D01*
X10573644Y-5139644D01*
X10573644Y-5210356D01*
X10644356Y-5210356D01*
X10650356Y-7057856D02*
X10650356Y-6987144D01*
X10579644Y-6987144D01*
X10579644Y-7057856D01*
X10650356Y-7057856D01*
X10898356Y-5210356D02*
X10898356Y-5139644D01*
X10827644Y-5139644D01*
X10827644Y-5210356D01*
X10898356Y-5210356D01*
X10904356Y-7057856D02*
X10904356Y-6987144D01*
X10833644Y-6987144D01*
X10833644Y-7057856D01*
X10904356Y-7057856D01*
X11152356Y-5210356D02*
X11152356Y-5139644D01*
X11081644Y-5139644D01*
X11081644Y-5210356D01*
X11152356Y-5210356D01*
X11158356Y-7057856D02*
X11158356Y-6987144D01*
X11087644Y-6987144D01*
X11087644Y-7057856D01*
X11158356Y-7057856D01*
X11406356Y-5210356D02*
X11406356Y-5139644D01*
X11335644Y-5139644D01*
X11335644Y-5210356D01*
X11406356Y-5210356D01*
X11412356Y-7057856D02*
X11412356Y-6987144D01*
X11341644Y-6987144D01*
X11341644Y-7057856D01*
X11412356Y-7057856D01*
X11660356Y-5210356D02*
X11660356Y-5139644D01*
X11589644Y-5139644D01*
X11589644Y-5210356D01*
X11660356Y-5210356D01*
X11666356Y-7057856D02*
X11666356Y-6987144D01*
X11595644Y-6987144D01*
X11595644Y-7057856D01*
X11666356Y-7057856D01*
X11914356Y-5210356D02*
X11914356Y-5139644D01*
X11843644Y-5139644D01*
X11843644Y-5210356D01*
X11914356Y-5210356D01*
X11920356Y-7057856D02*
X11920356Y-6987144D01*
X11849644Y-6987144D01*
X11849644Y-7057856D01*
X11920356Y-7057856D01*
X12168356Y-5210356D02*
X12168356Y-5139644D01*
X12097644Y-5139644D01*
X12097644Y-5210356D01*
X12168356Y-5210356D01*
X12174356Y-7057856D02*
X12174356Y-6987144D01*
X12103644Y-6987144D01*
X12103644Y-7057856D01*
X12174356Y-7057856D01*
X12422356Y-5210356D02*
X12422356Y-5139644D01*
X12351644Y-5139644D01*
X12351644Y-5210356D01*
X12422356Y-5210356D01*
X12428356Y-7057856D02*
X12428356Y-6987144D01*
X12357644Y-6987144D01*
X12357644Y-7057856D01*
X12428356Y-7057856D01*
X12676356Y-5210356D02*
X12676356Y-5139644D01*
X12605644Y-5139644D01*
X12605644Y-5210356D01*
X12676356Y-5210356D01*
X12682356Y-7057856D02*
X12682356Y-6987144D01*
X12611644Y-6987144D01*
X12611644Y-7057856D01*
X12682356Y-7057856D01*
X12930356Y-5210356D02*
X12930356Y-5139644D01*
X12859644Y-5139644D01*
X12859644Y-5210356D01*
X12930356Y-5210356D01*
X12936356Y-7057856D02*
X12936356Y-6987144D01*
X12865644Y-6987144D01*
X12865644Y-7057856D01*
X12936356Y-7057856D01*
D11*
X7732619Y-7535476D02*
X7732619Y-7335476D01*
X7780238Y-7335476D01*
X7808809Y-7345000D01*
X7827857Y-7364048D01*
X7837381Y-7383095D01*
X7846905Y-7421190D01*
X7846905Y-7449762D01*
X7837381Y-7487857D01*
X7827857Y-7506905D01*
X7808809Y-7525952D01*
X7780238Y-7535476D01*
X7732619Y-7535476D01*
X7932619Y-7535476D02*
X7932619Y-7402143D01*
X7932619Y-7440238D02*
X7942143Y-7421190D01*
X7951667Y-7411667D01*
X7970714Y-7402143D01*
X7989762Y-7402143D01*
X8056428Y-7535476D02*
X8056428Y-7402143D01*
X8056428Y-7335476D02*
X8046905Y-7345000D01*
X8056428Y-7354524D01*
X8065952Y-7345000D01*
X8056428Y-7335476D01*
X8056428Y-7354524D01*
X8180238Y-7535476D02*
X8161190Y-7525952D01*
X8151667Y-7506905D01*
X8151667Y-7335476D01*
X8285000Y-7535476D02*
X8265952Y-7525952D01*
X8256428Y-7506905D01*
X8256428Y-7335476D01*
X8513571Y-7535476D02*
X8513571Y-7335476D01*
X8580238Y-7478333D01*
X8646905Y-7335476D01*
X8646905Y-7535476D01*
X8827857Y-7535476D02*
X8827857Y-7430714D01*
X8818333Y-7411667D01*
X8799286Y-7402143D01*
X8761190Y-7402143D01*
X8742143Y-7411667D01*
X8827857Y-7525952D02*
X8808810Y-7535476D01*
X8761190Y-7535476D01*
X8742143Y-7525952D01*
X8732619Y-7506905D01*
X8732619Y-7487857D01*
X8742143Y-7468809D01*
X8761190Y-7459286D01*
X8808810Y-7459286D01*
X8827857Y-7449762D01*
X8923095Y-7402143D02*
X8923095Y-7602143D01*
X8923095Y-7411667D02*
X8942143Y-7402143D01*
X8980238Y-7402143D01*
X8999286Y-7411667D01*
X9008810Y-7421190D01*
X9018333Y-7440238D01*
X9018333Y-7497381D01*
X9008810Y-7516428D01*
X8999286Y-7525952D01*
X8980238Y-7535476D01*
X8942143Y-7535476D01*
X8923095Y-7525952D01*
X9104048Y-7516428D02*
X9113571Y-7525952D01*
X9104048Y-7535476D01*
X9094524Y-7525952D01*
X9104048Y-7516428D01*
X9104048Y-7535476D01*
X9104048Y-7411667D02*
X9113571Y-7421190D01*
X9104048Y-7430714D01*
X9094524Y-7421190D01*
X9104048Y-7411667D01*
X9104048Y-7430714D01*
D12*
X7435000Y-7845000D02*
X7475000Y-7885000D01*
X7475000Y-7845000D02*
X7435000Y-7885000D01*
D11*
X7770714Y-7755476D02*
X7789762Y-7755476D01*
X7808809Y-7765000D01*
X7818333Y-7774524D01*
X7827857Y-7793571D01*
X7837381Y-7831667D01*
X7837381Y-7879286D01*
X7827857Y-7917381D01*
X7818333Y-7936428D01*
X7808809Y-7945952D01*
X7789762Y-7955476D01*
X7770714Y-7955476D01*
X7751667Y-7945952D01*
X7742143Y-7936428D01*
X7732619Y-7917381D01*
X7723095Y-7879286D01*
X7723095Y-7831667D01*
X7732619Y-7793571D01*
X7742143Y-7774524D01*
X7751667Y-7765000D01*
X7770714Y-7755476D01*
X7923095Y-7936428D02*
X7932619Y-7945952D01*
X7923095Y-7955476D01*
X7913571Y-7945952D01*
X7923095Y-7936428D01*
X7923095Y-7955476D01*
X8104048Y-7822143D02*
X8104048Y-7955476D01*
X8056428Y-7745952D02*
X8008809Y-7888809D01*
X8132619Y-7888809D01*
X8246905Y-7755476D02*
X8265952Y-7755476D01*
X8285000Y-7765000D01*
X8294524Y-7774524D01*
X8304048Y-7793571D01*
X8313571Y-7831667D01*
X8313571Y-7879286D01*
X8304048Y-7917381D01*
X8294524Y-7936428D01*
X8285000Y-7945952D01*
X8265952Y-7955476D01*
X8246905Y-7955476D01*
X8227857Y-7945952D01*
X8218333Y-7936428D01*
X8208809Y-7917381D01*
X8199286Y-7879286D01*
X8199286Y-7831667D01*
X8208809Y-7793571D01*
X8218333Y-7774524D01*
X8227857Y-7765000D01*
X8246905Y-7755476D01*
X8437381Y-7755476D02*
X8456429Y-7755476D01*
X8475476Y-7765000D01*
X8485000Y-7774524D01*
X8494524Y-7793571D01*
X8504048Y-7831667D01*
X8504048Y-7879286D01*
X8494524Y-7917381D01*
X8485000Y-7936428D01*
X8475476Y-7945952D01*
X8456429Y-7955476D01*
X8437381Y-7955476D01*
X8418333Y-7945952D01*
X8408810Y-7936428D01*
X8399286Y-7917381D01*
X8389762Y-7879286D01*
X8389762Y-7831667D01*
X8399286Y-7793571D01*
X8408810Y-7774524D01*
X8418333Y-7765000D01*
X8437381Y-7755476D01*
X8589762Y-7955476D02*
X8589762Y-7822143D01*
X8589762Y-7841190D02*
X8599286Y-7831667D01*
X8618333Y-7822143D01*
X8646905Y-7822143D01*
X8665952Y-7831667D01*
X8675476Y-7850714D01*
X8675476Y-7955476D01*
X8675476Y-7850714D02*
X8685000Y-7831667D01*
X8704048Y-7822143D01*
X8732619Y-7822143D01*
X8751667Y-7831667D01*
X8761190Y-7850714D01*
X8761190Y-7955476D01*
X8856429Y-7955476D02*
X8856429Y-7822143D01*
X8856429Y-7841190D02*
X8865952Y-7831667D01*
X8885000Y-7822143D01*
X8913571Y-7822143D01*
X8932619Y-7831667D01*
X8942143Y-7850714D01*
X8942143Y-7955476D01*
X8942143Y-7850714D02*
X8951667Y-7831667D01*
X8970714Y-7822143D01*
X8999286Y-7822143D01*
X9018333Y-7831667D01*
X9027857Y-7850714D01*
X9027857Y-7955476D01*
X9418333Y-7745952D02*
X9246905Y-8003095D01*
X9675476Y-7755476D02*
X9694524Y-7755476D01*
X9713571Y-7765000D01*
X9723095Y-7774524D01*
X9732619Y-7793571D01*
X9742143Y-7831667D01*
X9742143Y-7879286D01*
X9732619Y-7917381D01*
X9723095Y-7936428D01*
X9713571Y-7945952D01*
X9694524Y-7955476D01*
X9675476Y-7955476D01*
X9656429Y-7945952D01*
X9646905Y-7936428D01*
X9637381Y-7917381D01*
X9627857Y-7879286D01*
X9627857Y-7831667D01*
X9637381Y-7793571D01*
X9646905Y-7774524D01*
X9656429Y-7765000D01*
X9675476Y-7755476D01*
X9827857Y-7936428D02*
X9837381Y-7945952D01*
X9827857Y-7955476D01*
X9818333Y-7945952D01*
X9827857Y-7936428D01*
X9827857Y-7955476D01*
X9961190Y-7755476D02*
X9980238Y-7755476D01*
X9999286Y-7765000D01*
X10008810Y-7774524D01*
X10018333Y-7793571D01*
X10027857Y-7831667D01*
X10027857Y-7879286D01*
X10018333Y-7917381D01*
X10008810Y-7936428D01*
X9999286Y-7945952D01*
X9980238Y-7955476D01*
X9961190Y-7955476D01*
X9942143Y-7945952D01*
X9932619Y-7936428D01*
X9923095Y-7917381D01*
X9913571Y-7879286D01*
X9913571Y-7831667D01*
X9923095Y-7793571D01*
X9932619Y-7774524D01*
X9942143Y-7765000D01*
X9961190Y-7755476D01*
X10218333Y-7955476D02*
X10104048Y-7955476D01*
X10161190Y-7955476D02*
X10161190Y-7755476D01*
X10142143Y-7784048D01*
X10123095Y-7803095D01*
X10104048Y-7812619D01*
X10399286Y-7755476D02*
X10304048Y-7755476D01*
X10294524Y-7850714D01*
X10304048Y-7841190D01*
X10323095Y-7831667D01*
X10370714Y-7831667D01*
X10389762Y-7841190D01*
X10399286Y-7850714D01*
X10408810Y-7869762D01*
X10408810Y-7917381D01*
X10399286Y-7936428D01*
X10389762Y-7945952D01*
X10370714Y-7955476D01*
X10323095Y-7955476D01*
X10304048Y-7945952D01*
X10294524Y-7936428D01*
X10475476Y-7755476D02*
X10608810Y-7755476D01*
X10523095Y-7955476D01*
X10675476Y-7755476D02*
X10675476Y-7793571D01*
X10751667Y-7755476D02*
X10751667Y-7793571D01*
X11046905Y-8031667D02*
X11037381Y-8022143D01*
X11018333Y-7993571D01*
X11008810Y-7974524D01*
X10999286Y-7945952D01*
X10989762Y-7898333D01*
X10989762Y-7860238D01*
X10999286Y-7812619D01*
X11008810Y-7784048D01*
X11018333Y-7765000D01*
X11037381Y-7736428D01*
X11046905Y-7726905D01*
X11218333Y-7755476D02*
X11123095Y-7755476D01*
X11113571Y-7850714D01*
X11123095Y-7841190D01*
X11142143Y-7831667D01*
X11189762Y-7831667D01*
X11208809Y-7841190D01*
X11218333Y-7850714D01*
X11227857Y-7869762D01*
X11227857Y-7917381D01*
X11218333Y-7936428D01*
X11208809Y-7945952D01*
X11189762Y-7955476D01*
X11142143Y-7955476D01*
X11123095Y-7945952D01*
X11113571Y-7936428D01*
X11304048Y-7774524D02*
X11313571Y-7765000D01*
X11332619Y-7755476D01*
X11380238Y-7755476D01*
X11399286Y-7765000D01*
X11408809Y-7774524D01*
X11418333Y-7793571D01*
X11418333Y-7812619D01*
X11408809Y-7841190D01*
X11294524Y-7955476D01*
X11418333Y-7955476D01*
X11656428Y-7955476D02*
X11656428Y-7755476D01*
X11742143Y-7955476D02*
X11742143Y-7850714D01*
X11732619Y-7831667D01*
X11713571Y-7822143D01*
X11685000Y-7822143D01*
X11665952Y-7831667D01*
X11656428Y-7841190D01*
X11865952Y-7955476D02*
X11846905Y-7945952D01*
X11837381Y-7936428D01*
X11827857Y-7917381D01*
X11827857Y-7860238D01*
X11837381Y-7841190D01*
X11846905Y-7831667D01*
X11865952Y-7822143D01*
X11894524Y-7822143D01*
X11913571Y-7831667D01*
X11923095Y-7841190D01*
X11932619Y-7860238D01*
X11932619Y-7917381D01*
X11923095Y-7936428D01*
X11913571Y-7945952D01*
X11894524Y-7955476D01*
X11865952Y-7955476D01*
X12046905Y-7955476D02*
X12027857Y-7945952D01*
X12018333Y-7926905D01*
X12018333Y-7755476D01*
X12199286Y-7945952D02*
X12180238Y-7955476D01*
X12142143Y-7955476D01*
X12123095Y-7945952D01*
X12113571Y-7926905D01*
X12113571Y-7850714D01*
X12123095Y-7831667D01*
X12142143Y-7822143D01*
X12180238Y-7822143D01*
X12199286Y-7831667D01*
X12208809Y-7850714D01*
X12208809Y-7869762D01*
X12113571Y-7888809D01*
X12285000Y-7945952D02*
X12304048Y-7955476D01*
X12342143Y-7955476D01*
X12361190Y-7945952D01*
X12370714Y-7926905D01*
X12370714Y-7917381D01*
X12361190Y-7898333D01*
X12342143Y-7888809D01*
X12313571Y-7888809D01*
X12294524Y-7879286D01*
X12285000Y-7860238D01*
X12285000Y-7850714D01*
X12294524Y-7831667D01*
X12313571Y-7822143D01*
X12342143Y-7822143D01*
X12361190Y-7831667D01*
X12437381Y-8031667D02*
X12446905Y-8022143D01*
X12465952Y-7993571D01*
X12475476Y-7974524D01*
X12485000Y-7945952D01*
X12494524Y-7898333D01*
X12494524Y-7860238D01*
X12485000Y-7812619D01*
X12475476Y-7784048D01*
X12465952Y-7765000D01*
X12446905Y-7736428D01*
X12437381Y-7726905D01*
D12*
X7475000Y-8129000D02*
G75*
G03*
X7475000Y-8129000I-20000J0D01*
G01*
D11*
X7770714Y-8019476D02*
X7789762Y-8019476D01*
X7808809Y-8029000D01*
X7818333Y-8038524D01*
X7827857Y-8057571D01*
X7837381Y-8095667D01*
X7837381Y-8143286D01*
X7827857Y-8181381D01*
X7818333Y-8200428D01*
X7808809Y-8209952D01*
X7789762Y-8219476D01*
X7770714Y-8219476D01*
X7751667Y-8209952D01*
X7742143Y-8200428D01*
X7732619Y-8181381D01*
X7723095Y-8143286D01*
X7723095Y-8095667D01*
X7732619Y-8057571D01*
X7742143Y-8038524D01*
X7751667Y-8029000D01*
X7770714Y-8019476D01*
X7923095Y-8200428D02*
X7932619Y-8209952D01*
X7923095Y-8219476D01*
X7913571Y-8209952D01*
X7923095Y-8200428D01*
X7923095Y-8219476D01*
X8104048Y-8086143D02*
X8104048Y-8219476D01*
X8056428Y-8009952D02*
X8008809Y-8152809D01*
X8132619Y-8152809D01*
X8246905Y-8019476D02*
X8265952Y-8019476D01*
X8285000Y-8029000D01*
X8294524Y-8038524D01*
X8304048Y-8057571D01*
X8313571Y-8095667D01*
X8313571Y-8143286D01*
X8304048Y-8181381D01*
X8294524Y-8200428D01*
X8285000Y-8209952D01*
X8265952Y-8219476D01*
X8246905Y-8219476D01*
X8227857Y-8209952D01*
X8218333Y-8200428D01*
X8208809Y-8181381D01*
X8199286Y-8143286D01*
X8199286Y-8095667D01*
X8208809Y-8057571D01*
X8218333Y-8038524D01*
X8227857Y-8029000D01*
X8246905Y-8019476D01*
X8437381Y-8019476D02*
X8456429Y-8019476D01*
X8475476Y-8029000D01*
X8485000Y-8038524D01*
X8494524Y-8057571D01*
X8504048Y-8095667D01*
X8504048Y-8143286D01*
X8494524Y-8181381D01*
X8485000Y-8200428D01*
X8475476Y-8209952D01*
X8456429Y-8219476D01*
X8437381Y-8219476D01*
X8418333Y-8209952D01*
X8408810Y-8200428D01*
X8399286Y-8181381D01*
X8389762Y-8143286D01*
X8389762Y-8095667D01*
X8399286Y-8057571D01*
X8408810Y-8038524D01*
X8418333Y-8029000D01*
X8437381Y-8019476D01*
X8589762Y-8219476D02*
X8589762Y-8086143D01*
X8589762Y-8105190D02*
X8599286Y-8095667D01*
X8618333Y-8086143D01*
X8646905Y-8086143D01*
X8665952Y-8095667D01*
X8675476Y-8114714D01*
X8675476Y-8219476D01*
X8675476Y-8114714D02*
X8685000Y-8095667D01*
X8704048Y-8086143D01*
X8732619Y-8086143D01*
X8751667Y-8095667D01*
X8761190Y-8114714D01*
X8761190Y-8219476D01*
X8856429Y-8219476D02*
X8856429Y-8086143D01*
X8856429Y-8105190D02*
X8865952Y-8095667D01*
X8885000Y-8086143D01*
X8913571Y-8086143D01*
X8932619Y-8095667D01*
X8942143Y-8114714D01*
X8942143Y-8219476D01*
X8942143Y-8114714D02*
X8951667Y-8095667D01*
X8970714Y-8086143D01*
X8999286Y-8086143D01*
X9018333Y-8095667D01*
X9027857Y-8114714D01*
X9027857Y-8219476D01*
X9418333Y-8009952D02*
X9246905Y-8267095D01*
X9675476Y-8019476D02*
X9694524Y-8019476D01*
X9713571Y-8029000D01*
X9723095Y-8038524D01*
X9732619Y-8057571D01*
X9742143Y-8095667D01*
X9742143Y-8143286D01*
X9732619Y-8181381D01*
X9723095Y-8200428D01*
X9713571Y-8209952D01*
X9694524Y-8219476D01*
X9675476Y-8219476D01*
X9656429Y-8209952D01*
X9646905Y-8200428D01*
X9637381Y-8181381D01*
X9627857Y-8143286D01*
X9627857Y-8095667D01*
X9637381Y-8057571D01*
X9646905Y-8038524D01*
X9656429Y-8029000D01*
X9675476Y-8019476D01*
X9827857Y-8200428D02*
X9837381Y-8209952D01*
X9827857Y-8219476D01*
X9818333Y-8209952D01*
X9827857Y-8200428D01*
X9827857Y-8219476D01*
X9961190Y-8019476D02*
X9980238Y-8019476D01*
X9999286Y-8029000D01*
X10008810Y-8038524D01*
X10018333Y-8057571D01*
X10027857Y-8095667D01*
X10027857Y-8143286D01*
X10018333Y-8181381D01*
X10008810Y-8200428D01*
X9999286Y-8209952D01*
X9980238Y-8219476D01*
X9961190Y-8219476D01*
X9942143Y-8209952D01*
X9932619Y-8200428D01*
X9923095Y-8181381D01*
X9913571Y-8143286D01*
X9913571Y-8095667D01*
X9923095Y-8057571D01*
X9932619Y-8038524D01*
X9942143Y-8029000D01*
X9961190Y-8019476D01*
X10218333Y-8219476D02*
X10104048Y-8219476D01*
X10161190Y-8219476D02*
X10161190Y-8019476D01*
X10142143Y-8048048D01*
X10123095Y-8067095D01*
X10104048Y-8076619D01*
X10399286Y-8019476D02*
X10304048Y-8019476D01*
X10294524Y-8114714D01*
X10304048Y-8105190D01*
X10323095Y-8095667D01*
X10370714Y-8095667D01*
X10389762Y-8105190D01*
X10399286Y-8114714D01*
X10408810Y-8133762D01*
X10408810Y-8181381D01*
X10399286Y-8200428D01*
X10389762Y-8209952D01*
X10370714Y-8219476D01*
X10323095Y-8219476D01*
X10304048Y-8209952D01*
X10294524Y-8200428D01*
X10475476Y-8019476D02*
X10608810Y-8019476D01*
X10523095Y-8219476D01*
X10675476Y-8019476D02*
X10675476Y-8057571D01*
X10751667Y-8019476D02*
X10751667Y-8057571D01*
X11046905Y-8295667D02*
X11037381Y-8286143D01*
X11018333Y-8257571D01*
X11008810Y-8238524D01*
X10999286Y-8209952D01*
X10989762Y-8162333D01*
X10989762Y-8124238D01*
X10999286Y-8076619D01*
X11008810Y-8048048D01*
X11018333Y-8029000D01*
X11037381Y-8000428D01*
X11046905Y-7990905D01*
X11227857Y-8219476D02*
X11113571Y-8219476D01*
X11170714Y-8219476D02*
X11170714Y-8019476D01*
X11151667Y-8048048D01*
X11132619Y-8067095D01*
X11113571Y-8076619D01*
X11408809Y-8019476D02*
X11313571Y-8019476D01*
X11304048Y-8114714D01*
X11313571Y-8105190D01*
X11332619Y-8095667D01*
X11380238Y-8095667D01*
X11399286Y-8105190D01*
X11408809Y-8114714D01*
X11418333Y-8133762D01*
X11418333Y-8181381D01*
X11408809Y-8200428D01*
X11399286Y-8209952D01*
X11380238Y-8219476D01*
X11332619Y-8219476D01*
X11313571Y-8209952D01*
X11304048Y-8200428D01*
X11656428Y-8219476D02*
X11656428Y-8019476D01*
X11742143Y-8219476D02*
X11742143Y-8114714D01*
X11732619Y-8095667D01*
X11713571Y-8086143D01*
X11685000Y-8086143D01*
X11665952Y-8095667D01*
X11656428Y-8105190D01*
X11865952Y-8219476D02*
X11846905Y-8209952D01*
X11837381Y-8200428D01*
X11827857Y-8181381D01*
X11827857Y-8124238D01*
X11837381Y-8105190D01*
X11846905Y-8095667D01*
X11865952Y-8086143D01*
X11894524Y-8086143D01*
X11913571Y-8095667D01*
X11923095Y-8105190D01*
X11932619Y-8124238D01*
X11932619Y-8181381D01*
X11923095Y-8200428D01*
X11913571Y-8209952D01*
X11894524Y-8219476D01*
X11865952Y-8219476D01*
X12046905Y-8219476D02*
X12027857Y-8209952D01*
X12018333Y-8190905D01*
X12018333Y-8019476D01*
X12199286Y-8209952D02*
X12180238Y-8219476D01*
X12142143Y-8219476D01*
X12123095Y-8209952D01*
X12113571Y-8190905D01*
X12113571Y-8114714D01*
X12123095Y-8095667D01*
X12142143Y-8086143D01*
X12180238Y-8086143D01*
X12199286Y-8095667D01*
X12208809Y-8114714D01*
X12208809Y-8133762D01*
X12113571Y-8152809D01*
X12285000Y-8209952D02*
X12304048Y-8219476D01*
X12342143Y-8219476D01*
X12361190Y-8209952D01*
X12370714Y-8190905D01*
X12370714Y-8181381D01*
X12361190Y-8162333D01*
X12342143Y-8152809D01*
X12313571Y-8152809D01*
X12294524Y-8143286D01*
X12285000Y-8124238D01*
X12285000Y-8114714D01*
X12294524Y-8095667D01*
X12313571Y-8086143D01*
X12342143Y-8086143D01*
X12361190Y-8095667D01*
X12437381Y-8295667D02*
X12446905Y-8286143D01*
X12465952Y-8257571D01*
X12475476Y-8238524D01*
X12485000Y-8209952D01*
X12494524Y-8162333D01*
X12494524Y-8124238D01*
X12485000Y-8076619D01*
X12475476Y-8048048D01*
X12465952Y-8029000D01*
X12446905Y-8000428D01*
X12437381Y-7990905D01*
D13*
X7437500Y-8355500D02*
X7437500Y-8430500D01*
X7400000Y-8393000D02*
X7475000Y-8393000D01*
D11*
X7770714Y-8283476D02*
X7789762Y-8283476D01*
X7808809Y-8293000D01*
X7818333Y-8302524D01*
X7827857Y-8321571D01*
X7837381Y-8359667D01*
X7837381Y-8407286D01*
X7827857Y-8445381D01*
X7818333Y-8464429D01*
X7808809Y-8473952D01*
X7789762Y-8483476D01*
X7770714Y-8483476D01*
X7751667Y-8473952D01*
X7742143Y-8464429D01*
X7732619Y-8445381D01*
X7723095Y-8407286D01*
X7723095Y-8359667D01*
X7732619Y-8321571D01*
X7742143Y-8302524D01*
X7751667Y-8293000D01*
X7770714Y-8283476D01*
X7923095Y-8464429D02*
X7932619Y-8473952D01*
X7923095Y-8483476D01*
X7913571Y-8473952D01*
X7923095Y-8464429D01*
X7923095Y-8483476D01*
X7999286Y-8283476D02*
X8132619Y-8283476D01*
X8046905Y-8483476D01*
X8304048Y-8283476D02*
X8208809Y-8283476D01*
X8199286Y-8378714D01*
X8208809Y-8369190D01*
X8227857Y-8359667D01*
X8275476Y-8359667D01*
X8294524Y-8369190D01*
X8304048Y-8378714D01*
X8313571Y-8397762D01*
X8313571Y-8445381D01*
X8304048Y-8464429D01*
X8294524Y-8473952D01*
X8275476Y-8483476D01*
X8227857Y-8483476D01*
X8208809Y-8473952D01*
X8199286Y-8464429D01*
X8437381Y-8283476D02*
X8456429Y-8283476D01*
X8475476Y-8293000D01*
X8485000Y-8302524D01*
X8494524Y-8321571D01*
X8504048Y-8359667D01*
X8504048Y-8407286D01*
X8494524Y-8445381D01*
X8485000Y-8464429D01*
X8475476Y-8473952D01*
X8456429Y-8483476D01*
X8437381Y-8483476D01*
X8418333Y-8473952D01*
X8408810Y-8464429D01*
X8399286Y-8445381D01*
X8389762Y-8407286D01*
X8389762Y-8359667D01*
X8399286Y-8321571D01*
X8408810Y-8302524D01*
X8418333Y-8293000D01*
X8437381Y-8283476D01*
X8589762Y-8483476D02*
X8589762Y-8350143D01*
X8589762Y-8369190D02*
X8599286Y-8359667D01*
X8618333Y-8350143D01*
X8646905Y-8350143D01*
X8665952Y-8359667D01*
X8675476Y-8378714D01*
X8675476Y-8483476D01*
X8675476Y-8378714D02*
X8685000Y-8359667D01*
X8704048Y-8350143D01*
X8732619Y-8350143D01*
X8751667Y-8359667D01*
X8761190Y-8378714D01*
X8761190Y-8483476D01*
X8856429Y-8483476D02*
X8856429Y-8350143D01*
X8856429Y-8369190D02*
X8865952Y-8359667D01*
X8885000Y-8350143D01*
X8913571Y-8350143D01*
X8932619Y-8359667D01*
X8942143Y-8378714D01*
X8942143Y-8483476D01*
X8942143Y-8378714D02*
X8951667Y-8359667D01*
X8970714Y-8350143D01*
X8999286Y-8350143D01*
X9018333Y-8359667D01*
X9027857Y-8378714D01*
X9027857Y-8483476D01*
X9418333Y-8273952D02*
X9246905Y-8531095D01*
X9675476Y-8283476D02*
X9694524Y-8283476D01*
X9713571Y-8293000D01*
X9723095Y-8302524D01*
X9732619Y-8321571D01*
X9742143Y-8359667D01*
X9742143Y-8407286D01*
X9732619Y-8445381D01*
X9723095Y-8464429D01*
X9713571Y-8473952D01*
X9694524Y-8483476D01*
X9675476Y-8483476D01*
X9656429Y-8473952D01*
X9646905Y-8464429D01*
X9637381Y-8445381D01*
X9627857Y-8407286D01*
X9627857Y-8359667D01*
X9637381Y-8321571D01*
X9646905Y-8302524D01*
X9656429Y-8293000D01*
X9675476Y-8283476D01*
X9827857Y-8464429D02*
X9837381Y-8473952D01*
X9827857Y-8483476D01*
X9818333Y-8473952D01*
X9827857Y-8464429D01*
X9827857Y-8483476D01*
X9961190Y-8283476D02*
X9980238Y-8283476D01*
X9999286Y-8293000D01*
X10008810Y-8302524D01*
X10018333Y-8321571D01*
X10027857Y-8359667D01*
X10027857Y-8407286D01*
X10018333Y-8445381D01*
X10008810Y-8464429D01*
X9999286Y-8473952D01*
X9980238Y-8483476D01*
X9961190Y-8483476D01*
X9942143Y-8473952D01*
X9932619Y-8464429D01*
X9923095Y-8445381D01*
X9913571Y-8407286D01*
X9913571Y-8359667D01*
X9923095Y-8321571D01*
X9932619Y-8302524D01*
X9942143Y-8293000D01*
X9961190Y-8283476D01*
X10104048Y-8302524D02*
X10113571Y-8293000D01*
X10132619Y-8283476D01*
X10180238Y-8283476D01*
X10199286Y-8293000D01*
X10208810Y-8302524D01*
X10218333Y-8321571D01*
X10218333Y-8340619D01*
X10208810Y-8369190D01*
X10094524Y-8483476D01*
X10218333Y-8483476D01*
X10313571Y-8483476D02*
X10351667Y-8483476D01*
X10370714Y-8473952D01*
X10380238Y-8464429D01*
X10399286Y-8435857D01*
X10408810Y-8397762D01*
X10408810Y-8321571D01*
X10399286Y-8302524D01*
X10389762Y-8293000D01*
X10370714Y-8283476D01*
X10332619Y-8283476D01*
X10313571Y-8293000D01*
X10304048Y-8302524D01*
X10294524Y-8321571D01*
X10294524Y-8369190D01*
X10304048Y-8388238D01*
X10313571Y-8397762D01*
X10332619Y-8407286D01*
X10370714Y-8407286D01*
X10389762Y-8397762D01*
X10399286Y-8388238D01*
X10408810Y-8369190D01*
X10589762Y-8283476D02*
X10494524Y-8283476D01*
X10485000Y-8378714D01*
X10494524Y-8369190D01*
X10513571Y-8359667D01*
X10561190Y-8359667D01*
X10580238Y-8369190D01*
X10589762Y-8378714D01*
X10599286Y-8397762D01*
X10599286Y-8445381D01*
X10589762Y-8464429D01*
X10580238Y-8473952D01*
X10561190Y-8483476D01*
X10513571Y-8483476D01*
X10494524Y-8473952D01*
X10485000Y-8464429D01*
X10675476Y-8283476D02*
X10675476Y-8321571D01*
X10751667Y-8283476D02*
X10751667Y-8321571D01*
X11046905Y-8559667D02*
X11037381Y-8550143D01*
X11018333Y-8521571D01*
X11008810Y-8502524D01*
X10999286Y-8473952D01*
X10989762Y-8426333D01*
X10989762Y-8388238D01*
X10999286Y-8340619D01*
X11008810Y-8312048D01*
X11018333Y-8293000D01*
X11037381Y-8264428D01*
X11046905Y-8254905D01*
X11161190Y-8283476D02*
X11180238Y-8283476D01*
X11199286Y-8293000D01*
X11208809Y-8302524D01*
X11218333Y-8321571D01*
X11227857Y-8359667D01*
X11227857Y-8407286D01*
X11218333Y-8445381D01*
X11208809Y-8464429D01*
X11199286Y-8473952D01*
X11180238Y-8483476D01*
X11161190Y-8483476D01*
X11142143Y-8473952D01*
X11132619Y-8464429D01*
X11123095Y-8445381D01*
X11113571Y-8407286D01*
X11113571Y-8359667D01*
X11123095Y-8321571D01*
X11132619Y-8302524D01*
X11142143Y-8293000D01*
X11161190Y-8283476D01*
X11465952Y-8483476D02*
X11465952Y-8283476D01*
X11551667Y-8483476D02*
X11551667Y-8378714D01*
X11542143Y-8359667D01*
X11523095Y-8350143D01*
X11494524Y-8350143D01*
X11475476Y-8359667D01*
X11465952Y-8369190D01*
X11675476Y-8483476D02*
X11656428Y-8473952D01*
X11646905Y-8464429D01*
X11637381Y-8445381D01*
X11637381Y-8388238D01*
X11646905Y-8369190D01*
X11656428Y-8359667D01*
X11675476Y-8350143D01*
X11704048Y-8350143D01*
X11723095Y-8359667D01*
X11732619Y-8369190D01*
X11742143Y-8388238D01*
X11742143Y-8445381D01*
X11732619Y-8464429D01*
X11723095Y-8473952D01*
X11704048Y-8483476D01*
X11675476Y-8483476D01*
X11856428Y-8483476D02*
X11837381Y-8473952D01*
X11827857Y-8454905D01*
X11827857Y-8283476D01*
X12008809Y-8473952D02*
X11989762Y-8483476D01*
X11951667Y-8483476D01*
X11932619Y-8473952D01*
X11923095Y-8454905D01*
X11923095Y-8378714D01*
X11932619Y-8359667D01*
X11951667Y-8350143D01*
X11989762Y-8350143D01*
X12008809Y-8359667D01*
X12018333Y-8378714D01*
X12018333Y-8397762D01*
X11923095Y-8416810D01*
X12094524Y-8473952D02*
X12113571Y-8483476D01*
X12151667Y-8483476D01*
X12170714Y-8473952D01*
X12180238Y-8454905D01*
X12180238Y-8445381D01*
X12170714Y-8426333D01*
X12151667Y-8416810D01*
X12123095Y-8416810D01*
X12104048Y-8407286D01*
X12094524Y-8388238D01*
X12094524Y-8378714D01*
X12104048Y-8359667D01*
X12123095Y-8350143D01*
X12151667Y-8350143D01*
X12170714Y-8359667D01*
X12418333Y-8407286D02*
X12570714Y-8407286D01*
X12494524Y-8483476D02*
X12494524Y-8331095D01*
X12904048Y-8350143D02*
X12904048Y-8483476D01*
X12856428Y-8273952D02*
X12808809Y-8416810D01*
X12932619Y-8416810D01*
X13151667Y-8473952D02*
X13170714Y-8483476D01*
X13208809Y-8483476D01*
X13227857Y-8473952D01*
X13237381Y-8454905D01*
X13237381Y-8445381D01*
X13227857Y-8426333D01*
X13208809Y-8416810D01*
X13180238Y-8416810D01*
X13161190Y-8407286D01*
X13151667Y-8388238D01*
X13151667Y-8378714D01*
X13161190Y-8359667D01*
X13180238Y-8350143D01*
X13208809Y-8350143D01*
X13227857Y-8359667D01*
X13351667Y-8483476D02*
X13332619Y-8473952D01*
X13323095Y-8454905D01*
X13323095Y-8283476D01*
X13456428Y-8483476D02*
X13437381Y-8473952D01*
X13427857Y-8464429D01*
X13418333Y-8445381D01*
X13418333Y-8388238D01*
X13427857Y-8369190D01*
X13437381Y-8359667D01*
X13456428Y-8350143D01*
X13485000Y-8350143D01*
X13504048Y-8359667D01*
X13513571Y-8369190D01*
X13523095Y-8388238D01*
X13523095Y-8445381D01*
X13513571Y-8464429D01*
X13504048Y-8473952D01*
X13485000Y-8483476D01*
X13456428Y-8483476D01*
X13580238Y-8350143D02*
X13656428Y-8350143D01*
X13608809Y-8283476D02*
X13608809Y-8454905D01*
X13618333Y-8473952D01*
X13637381Y-8483476D01*
X13656428Y-8483476D01*
X13713571Y-8473952D02*
X13732619Y-8483476D01*
X13770714Y-8483476D01*
X13789762Y-8473952D01*
X13799286Y-8454905D01*
X13799286Y-8445381D01*
X13789762Y-8426333D01*
X13770714Y-8416810D01*
X13742143Y-8416810D01*
X13723095Y-8407286D01*
X13713571Y-8388238D01*
X13713571Y-8378714D01*
X13723095Y-8359667D01*
X13742143Y-8350143D01*
X13770714Y-8350143D01*
X13789762Y-8359667D01*
X13865952Y-8559667D02*
X13875476Y-8550143D01*
X13894524Y-8521571D01*
X13904048Y-8502524D01*
X13913571Y-8473952D01*
X13923095Y-8426333D01*
X13923095Y-8388238D01*
X13913571Y-8340619D01*
X13904048Y-8312048D01*
X13894524Y-8293000D01*
X13875476Y-8264428D01*
X13865952Y-8254905D01*
D14*
X7460356Y-8692356D02*
X7460356Y-8621644D01*
X7389644Y-8621644D01*
X7389644Y-8692356D01*
X7460356Y-8692356D01*
D11*
X7837381Y-8747476D02*
X7723095Y-8747476D01*
X7780238Y-8747476D02*
X7780238Y-8547476D01*
X7761190Y-8576048D01*
X7742143Y-8595095D01*
X7723095Y-8604619D01*
X7923095Y-8728429D02*
X7932619Y-8737952D01*
X7923095Y-8747476D01*
X7913571Y-8737952D01*
X7923095Y-8728429D01*
X7923095Y-8747476D01*
X8056428Y-8547476D02*
X8075476Y-8547476D01*
X8094524Y-8557000D01*
X8104048Y-8566524D01*
X8113571Y-8585571D01*
X8123095Y-8623667D01*
X8123095Y-8671286D01*
X8113571Y-8709381D01*
X8104048Y-8728429D01*
X8094524Y-8737952D01*
X8075476Y-8747476D01*
X8056428Y-8747476D01*
X8037381Y-8737952D01*
X8027857Y-8728429D01*
X8018333Y-8709381D01*
X8008809Y-8671286D01*
X8008809Y-8623667D01*
X8018333Y-8585571D01*
X8027857Y-8566524D01*
X8037381Y-8557000D01*
X8056428Y-8547476D01*
X8246905Y-8547476D02*
X8265952Y-8547476D01*
X8285000Y-8557000D01*
X8294524Y-8566524D01*
X8304048Y-8585571D01*
X8313571Y-8623667D01*
X8313571Y-8671286D01*
X8304048Y-8709381D01*
X8294524Y-8728429D01*
X8285000Y-8737952D01*
X8265952Y-8747476D01*
X8246905Y-8747476D01*
X8227857Y-8737952D01*
X8218333Y-8728429D01*
X8208809Y-8709381D01*
X8199286Y-8671286D01*
X8199286Y-8623667D01*
X8208809Y-8585571D01*
X8218333Y-8566524D01*
X8227857Y-8557000D01*
X8246905Y-8547476D01*
X8437381Y-8547476D02*
X8456429Y-8547476D01*
X8475476Y-8557000D01*
X8485000Y-8566524D01*
X8494524Y-8585571D01*
X8504048Y-8623667D01*
X8504048Y-8671286D01*
X8494524Y-8709381D01*
X8485000Y-8728429D01*
X8475476Y-8737952D01*
X8456429Y-8747476D01*
X8437381Y-8747476D01*
X8418333Y-8737952D01*
X8408810Y-8728429D01*
X8399286Y-8709381D01*
X8389762Y-8671286D01*
X8389762Y-8623667D01*
X8399286Y-8585571D01*
X8408810Y-8566524D01*
X8418333Y-8557000D01*
X8437381Y-8547476D01*
X8589762Y-8747476D02*
X8589762Y-8614143D01*
X8589762Y-8633190D02*
X8599286Y-8623667D01*
X8618333Y-8614143D01*
X8646905Y-8614143D01*
X8665952Y-8623667D01*
X8675476Y-8642714D01*
X8675476Y-8747476D01*
X8675476Y-8642714D02*
X8685000Y-8623667D01*
X8704048Y-8614143D01*
X8732619Y-8614143D01*
X8751667Y-8623667D01*
X8761190Y-8642714D01*
X8761190Y-8747476D01*
X8856429Y-8747476D02*
X8856429Y-8614143D01*
X8856429Y-8633190D02*
X8865952Y-8623667D01*
X8885000Y-8614143D01*
X8913571Y-8614143D01*
X8932619Y-8623667D01*
X8942143Y-8642714D01*
X8942143Y-8747476D01*
X8942143Y-8642714D02*
X8951667Y-8623667D01*
X8970714Y-8614143D01*
X8999286Y-8614143D01*
X9018333Y-8623667D01*
X9027857Y-8642714D01*
X9027857Y-8747476D01*
X9418333Y-8537952D02*
X9246905Y-8795095D01*
X9675476Y-8547476D02*
X9694524Y-8547476D01*
X9713571Y-8557000D01*
X9723095Y-8566524D01*
X9732619Y-8585571D01*
X9742143Y-8623667D01*
X9742143Y-8671286D01*
X9732619Y-8709381D01*
X9723095Y-8728429D01*
X9713571Y-8737952D01*
X9694524Y-8747476D01*
X9675476Y-8747476D01*
X9656429Y-8737952D01*
X9646905Y-8728429D01*
X9637381Y-8709381D01*
X9627857Y-8671286D01*
X9627857Y-8623667D01*
X9637381Y-8585571D01*
X9646905Y-8566524D01*
X9656429Y-8557000D01*
X9675476Y-8547476D01*
X9827857Y-8728429D02*
X9837381Y-8737952D01*
X9827857Y-8747476D01*
X9818333Y-8737952D01*
X9827857Y-8728429D01*
X9827857Y-8747476D01*
X9961190Y-8547476D02*
X9980238Y-8547476D01*
X9999286Y-8557000D01*
X10008810Y-8566524D01*
X10018333Y-8585571D01*
X10027857Y-8623667D01*
X10027857Y-8671286D01*
X10018333Y-8709381D01*
X10008810Y-8728429D01*
X9999286Y-8737952D01*
X9980238Y-8747476D01*
X9961190Y-8747476D01*
X9942143Y-8737952D01*
X9932619Y-8728429D01*
X9923095Y-8709381D01*
X9913571Y-8671286D01*
X9913571Y-8623667D01*
X9923095Y-8585571D01*
X9932619Y-8566524D01*
X9942143Y-8557000D01*
X9961190Y-8547476D01*
X10094524Y-8547476D02*
X10218333Y-8547476D01*
X10151667Y-8623667D01*
X10180238Y-8623667D01*
X10199286Y-8633190D01*
X10208810Y-8642714D01*
X10218333Y-8661762D01*
X10218333Y-8709381D01*
X10208810Y-8728429D01*
X10199286Y-8737952D01*
X10180238Y-8747476D01*
X10123095Y-8747476D01*
X10104048Y-8737952D01*
X10094524Y-8728429D01*
X10313571Y-8747476D02*
X10351667Y-8747476D01*
X10370714Y-8737952D01*
X10380238Y-8728429D01*
X10399286Y-8699857D01*
X10408810Y-8661762D01*
X10408810Y-8585571D01*
X10399286Y-8566524D01*
X10389762Y-8557000D01*
X10370714Y-8547476D01*
X10332619Y-8547476D01*
X10313571Y-8557000D01*
X10304048Y-8566524D01*
X10294524Y-8585571D01*
X10294524Y-8633190D01*
X10304048Y-8652238D01*
X10313571Y-8661762D01*
X10332619Y-8671286D01*
X10370714Y-8671286D01*
X10389762Y-8661762D01*
X10399286Y-8652238D01*
X10408810Y-8633190D01*
X10580238Y-8614143D02*
X10580238Y-8747476D01*
X10532619Y-8537952D02*
X10485000Y-8680810D01*
X10608810Y-8680810D01*
X10675476Y-8547476D02*
X10675476Y-8585571D01*
X10751667Y-8547476D02*
X10751667Y-8585571D01*
X11046905Y-8823667D02*
X11037381Y-8814143D01*
X11018333Y-8785571D01*
X11008810Y-8766524D01*
X10999286Y-8737952D01*
X10989762Y-8690333D01*
X10989762Y-8652238D01*
X10999286Y-8604619D01*
X11008810Y-8576048D01*
X11018333Y-8557000D01*
X11037381Y-8528429D01*
X11046905Y-8518905D01*
X11104048Y-8547476D02*
X11227857Y-8547476D01*
X11161190Y-8623667D01*
X11189762Y-8623667D01*
X11208809Y-8633190D01*
X11218333Y-8642714D01*
X11227857Y-8661762D01*
X11227857Y-8709381D01*
X11218333Y-8728429D01*
X11208809Y-8737952D01*
X11189762Y-8747476D01*
X11132619Y-8747476D01*
X11113571Y-8737952D01*
X11104048Y-8728429D01*
X11399286Y-8547476D02*
X11361190Y-8547476D01*
X11342143Y-8557000D01*
X11332619Y-8566524D01*
X11313571Y-8595095D01*
X11304048Y-8633190D01*
X11304048Y-8709381D01*
X11313571Y-8728429D01*
X11323095Y-8737952D01*
X11342143Y-8747476D01*
X11380238Y-8747476D01*
X11399286Y-8737952D01*
X11408809Y-8728429D01*
X11418333Y-8709381D01*
X11418333Y-8661762D01*
X11408809Y-8642714D01*
X11399286Y-8633190D01*
X11380238Y-8623667D01*
X11342143Y-8623667D01*
X11323095Y-8633190D01*
X11313571Y-8642714D01*
X11304048Y-8661762D01*
X11656428Y-8747476D02*
X11656428Y-8547476D01*
X11742143Y-8747476D02*
X11742143Y-8642714D01*
X11732619Y-8623667D01*
X11713571Y-8614143D01*
X11685000Y-8614143D01*
X11665952Y-8623667D01*
X11656428Y-8633190D01*
X11865952Y-8747476D02*
X11846905Y-8737952D01*
X11837381Y-8728429D01*
X11827857Y-8709381D01*
X11827857Y-8652238D01*
X11837381Y-8633190D01*
X11846905Y-8623667D01*
X11865952Y-8614143D01*
X11894524Y-8614143D01*
X11913571Y-8623667D01*
X11923095Y-8633190D01*
X11932619Y-8652238D01*
X11932619Y-8709381D01*
X11923095Y-8728429D01*
X11913571Y-8737952D01*
X11894524Y-8747476D01*
X11865952Y-8747476D01*
X12046905Y-8747476D02*
X12027857Y-8737952D01*
X12018333Y-8718905D01*
X12018333Y-8547476D01*
X12199286Y-8737952D02*
X12180238Y-8747476D01*
X12142143Y-8747476D01*
X12123095Y-8737952D01*
X12113571Y-8718905D01*
X12113571Y-8642714D01*
X12123095Y-8623667D01*
X12142143Y-8614143D01*
X12180238Y-8614143D01*
X12199286Y-8623667D01*
X12208809Y-8642714D01*
X12208809Y-8661762D01*
X12113571Y-8680810D01*
X12285000Y-8737952D02*
X12304048Y-8747476D01*
X12342143Y-8747476D01*
X12361190Y-8737952D01*
X12370714Y-8718905D01*
X12370714Y-8709381D01*
X12361190Y-8690333D01*
X12342143Y-8680810D01*
X12313571Y-8680810D01*
X12294524Y-8671286D01*
X12285000Y-8652238D01*
X12285000Y-8642714D01*
X12294524Y-8623667D01*
X12313571Y-8614143D01*
X12342143Y-8614143D01*
X12361190Y-8623667D01*
X12437381Y-8823667D02*
X12446905Y-8814143D01*
X12465952Y-8785571D01*
X12475476Y-8766524D01*
X12485000Y-8737952D01*
X12494524Y-8690333D01*
X12494524Y-8652238D01*
X12485000Y-8604619D01*
X12475476Y-8576048D01*
X12465952Y-8557000D01*
X12446905Y-8528429D01*
X12437381Y-8518905D01*
M02*
