%TF.GenerationSoftware,KiCad,Pcbnew,5.99.0-unknown-64afa3a42e~128~ubuntu20.04.1*%
%TF.CreationDate,2021-05-12T23:24:30+01:00*%
%TF.ProjectId,E73-nRF52840-BBoard,4537332d-6e52-4463-9532-3834302d4242,rev?*%
%TF.SameCoordinates,Original*%
%TF.FileFunction,Legend,Top*%
%TF.FilePolarity,Positive*%
%FSLAX46Y46*%
G04 Gerber Fmt 4.6, Leading zero omitted, Abs format (unit mm)*
G04 Created by KiCad (PCBNEW 5.99.0-unknown-64afa3a42e~128~ubuntu20.04.1) date 2021-05-12 23:24:30*
%MOMM*%
%LPD*%
G01*
G04 APERTURE LIST*
%ADD10C,0.150000*%
%ADD11C,0.120000*%
G04 APERTURE END LIST*
D10*
%TO.C,SW1*%
X102686666Y-61384761D02*
X102829523Y-61432380D01*
X103067619Y-61432380D01*
X103162857Y-61384761D01*
X103210476Y-61337142D01*
X103258095Y-61241904D01*
X103258095Y-61146666D01*
X103210476Y-61051428D01*
X103162857Y-61003809D01*
X103067619Y-60956190D01*
X102877142Y-60908571D01*
X102781904Y-60860952D01*
X102734285Y-60813333D01*
X102686666Y-60718095D01*
X102686666Y-60622857D01*
X102734285Y-60527619D01*
X102781904Y-60480000D01*
X102877142Y-60432380D01*
X103115238Y-60432380D01*
X103258095Y-60480000D01*
X103591428Y-60432380D02*
X103829523Y-61432380D01*
X104020000Y-60718095D01*
X104210476Y-61432380D01*
X104448571Y-60432380D01*
X105353333Y-61432380D02*
X104781904Y-61432380D01*
X105067619Y-61432380D02*
X105067619Y-60432380D01*
X104972380Y-60575238D01*
X104877142Y-60670476D01*
X104781904Y-60718095D01*
%TO.C,R4*%
X83125000Y-65739285D02*
X82875000Y-65382142D01*
X82696428Y-65739285D02*
X82696428Y-64989285D01*
X82982142Y-64989285D01*
X83053571Y-65025000D01*
X83089285Y-65060714D01*
X83125000Y-65132142D01*
X83125000Y-65239285D01*
X83089285Y-65310714D01*
X83053571Y-65346428D01*
X82982142Y-65382142D01*
X82696428Y-65382142D01*
X83767857Y-65239285D02*
X83767857Y-65739285D01*
X83589285Y-64953571D02*
X83410714Y-65489285D01*
X83875000Y-65489285D01*
%TO.C,L1*%
X112239285Y-66975000D02*
X112239285Y-67332142D01*
X111489285Y-67332142D01*
X112239285Y-66332142D02*
X112239285Y-66760714D01*
X112239285Y-66546428D02*
X111489285Y-66546428D01*
X111596428Y-66617857D01*
X111667857Y-66689285D01*
X111703571Y-66760714D01*
%TO.C,R5*%
X94114285Y-66700000D02*
X93757142Y-66950000D01*
X94114285Y-67128571D02*
X93364285Y-67128571D01*
X93364285Y-66842857D01*
X93400000Y-66771428D01*
X93435714Y-66735714D01*
X93507142Y-66700000D01*
X93614285Y-66700000D01*
X93685714Y-66735714D01*
X93721428Y-66771428D01*
X93757142Y-66842857D01*
X93757142Y-67128571D01*
X93364285Y-66021428D02*
X93364285Y-66378571D01*
X93721428Y-66414285D01*
X93685714Y-66378571D01*
X93650000Y-66307142D01*
X93650000Y-66128571D01*
X93685714Y-66057142D01*
X93721428Y-66021428D01*
X93792857Y-65985714D01*
X93971428Y-65985714D01*
X94042857Y-66021428D01*
X94078571Y-66057142D01*
X94114285Y-66128571D01*
X94114285Y-66307142D01*
X94078571Y-66378571D01*
X94042857Y-66414285D01*
%TO.C,D3*%
X87189285Y-60978571D02*
X86439285Y-60978571D01*
X86439285Y-60800000D01*
X86475000Y-60692857D01*
X86546428Y-60621428D01*
X86617857Y-60585714D01*
X86760714Y-60550000D01*
X86867857Y-60550000D01*
X87010714Y-60585714D01*
X87082142Y-60621428D01*
X87153571Y-60692857D01*
X87189285Y-60800000D01*
X87189285Y-60978571D01*
X86439285Y-60300000D02*
X86439285Y-59835714D01*
X86725000Y-60085714D01*
X86725000Y-59978571D01*
X86760714Y-59907142D01*
X86796428Y-59871428D01*
X86867857Y-59835714D01*
X87046428Y-59835714D01*
X87117857Y-59871428D01*
X87153571Y-59907142D01*
X87189285Y-59978571D01*
X87189285Y-60192857D01*
X87153571Y-60264285D01*
X87117857Y-60300000D01*
%TO.C,Y1*%
X112182142Y-55582142D02*
X112539285Y-55582142D01*
X111789285Y-55832142D02*
X112182142Y-55582142D01*
X111789285Y-55332142D01*
X112539285Y-54689285D02*
X112539285Y-55117857D01*
X112539285Y-54903571D02*
X111789285Y-54903571D01*
X111896428Y-54975000D01*
X111967857Y-55046428D01*
X112003571Y-55117857D01*
%TO.C,R6*%
X94064285Y-58975000D02*
X93707142Y-59225000D01*
X94064285Y-59403571D02*
X93314285Y-59403571D01*
X93314285Y-59117857D01*
X93350000Y-59046428D01*
X93385714Y-59010714D01*
X93457142Y-58975000D01*
X93564285Y-58975000D01*
X93635714Y-59010714D01*
X93671428Y-59046428D01*
X93707142Y-59117857D01*
X93707142Y-59403571D01*
X93314285Y-58332142D02*
X93314285Y-58475000D01*
X93350000Y-58546428D01*
X93385714Y-58582142D01*
X93492857Y-58653571D01*
X93635714Y-58689285D01*
X93921428Y-58689285D01*
X93992857Y-58653571D01*
X94028571Y-58617857D01*
X94064285Y-58546428D01*
X94064285Y-58403571D01*
X94028571Y-58332142D01*
X93992857Y-58296428D01*
X93921428Y-58260714D01*
X93742857Y-58260714D01*
X93671428Y-58296428D01*
X93635714Y-58332142D01*
X93600000Y-58403571D01*
X93600000Y-58546428D01*
X93635714Y-58617857D01*
X93671428Y-58653571D01*
X93742857Y-58689285D01*
%TO.C,R3*%
X104264285Y-55250000D02*
X103907142Y-55500000D01*
X104264285Y-55678571D02*
X103514285Y-55678571D01*
X103514285Y-55392857D01*
X103550000Y-55321428D01*
X103585714Y-55285714D01*
X103657142Y-55250000D01*
X103764285Y-55250000D01*
X103835714Y-55285714D01*
X103871428Y-55321428D01*
X103907142Y-55392857D01*
X103907142Y-55678571D01*
X103514285Y-55000000D02*
X103514285Y-54535714D01*
X103800000Y-54785714D01*
X103800000Y-54678571D01*
X103835714Y-54607142D01*
X103871428Y-54571428D01*
X103942857Y-54535714D01*
X104121428Y-54535714D01*
X104192857Y-54571428D01*
X104228571Y-54607142D01*
X104264285Y-54678571D01*
X104264285Y-54892857D01*
X104228571Y-54964285D01*
X104192857Y-55000000D01*
%TO.C,U1*%
X124019655Y-61761437D02*
X124829179Y-61761437D01*
X124924417Y-61713818D01*
X124972036Y-61666199D01*
X125019655Y-61570961D01*
X125019655Y-61380485D01*
X124972036Y-61285247D01*
X124924417Y-61237628D01*
X124829179Y-61190009D01*
X124019655Y-61190009D01*
X125019655Y-60190009D02*
X125019655Y-60761437D01*
X125019655Y-60475723D02*
X124019655Y-60475723D01*
X124162513Y-60570961D01*
X124257751Y-60666199D01*
X124305370Y-60761437D01*
X132624071Y-67214285D02*
X132624071Y-66880952D01*
X133147880Y-66738095D02*
X133147880Y-67214285D01*
X132147880Y-67214285D01*
X132147880Y-66738095D01*
X132147880Y-66404761D02*
X132147880Y-65738095D01*
X133147880Y-66166666D01*
X132147880Y-65452380D02*
X132147880Y-64833333D01*
X132528833Y-65166666D01*
X132528833Y-65023809D01*
X132576452Y-64928571D01*
X132624071Y-64880952D01*
X132719309Y-64833333D01*
X132957404Y-64833333D01*
X133052642Y-64880952D01*
X133100261Y-64928571D01*
X133147880Y-65023809D01*
X133147880Y-65309523D01*
X133100261Y-65404761D01*
X133052642Y-65452380D01*
X132766928Y-64404761D02*
X132766928Y-63642857D01*
X132243119Y-63214285D02*
X132195500Y-63166666D01*
X132147880Y-63071428D01*
X132147880Y-62833333D01*
X132195500Y-62738095D01*
X132243119Y-62690476D01*
X132338357Y-62642857D01*
X132433595Y-62642857D01*
X132576452Y-62690476D01*
X133147880Y-63261904D01*
X133147880Y-62642857D01*
X132195500Y-61690476D02*
X132147880Y-61785714D01*
X132147880Y-61928571D01*
X132195500Y-62071428D01*
X132290738Y-62166666D01*
X132385976Y-62214285D01*
X132576452Y-62261904D01*
X132719309Y-62261904D01*
X132909785Y-62214285D01*
X133005023Y-62166666D01*
X133100261Y-62071428D01*
X133147880Y-61928571D01*
X133147880Y-61833333D01*
X133100261Y-61690476D01*
X133052642Y-61642857D01*
X132719309Y-61642857D01*
X132719309Y-61833333D01*
X132481214Y-60785714D02*
X133147880Y-60785714D01*
X132100261Y-61023809D02*
X132814547Y-61261904D01*
X132814547Y-60642857D01*
X133147880Y-60261904D02*
X132147880Y-60261904D01*
X132862166Y-59928571D01*
X132147880Y-59595238D01*
X133147880Y-59595238D01*
X132147880Y-58928571D02*
X132147880Y-58833333D01*
X132195500Y-58738095D01*
X132243119Y-58690476D01*
X132338357Y-58642857D01*
X132528833Y-58595238D01*
X132766928Y-58595238D01*
X132957404Y-58642857D01*
X133052642Y-58690476D01*
X133100261Y-58738095D01*
X133147880Y-58833333D01*
X133147880Y-58928571D01*
X133100261Y-59023809D01*
X133052642Y-59071428D01*
X132957404Y-59119047D01*
X132766928Y-59166666D01*
X132528833Y-59166666D01*
X132338357Y-59119047D01*
X132243119Y-59071428D01*
X132195500Y-59023809D01*
X132147880Y-58928571D01*
X132576452Y-58023809D02*
X132528833Y-58119047D01*
X132481214Y-58166666D01*
X132385976Y-58214285D01*
X132338357Y-58214285D01*
X132243119Y-58166666D01*
X132195500Y-58119047D01*
X132147880Y-58023809D01*
X132147880Y-57833333D01*
X132195500Y-57738095D01*
X132243119Y-57690476D01*
X132338357Y-57642857D01*
X132385976Y-57642857D01*
X132481214Y-57690476D01*
X132528833Y-57738095D01*
X132576452Y-57833333D01*
X132576452Y-58023809D01*
X132624071Y-58119047D01*
X132671690Y-58166666D01*
X132766928Y-58214285D01*
X132957404Y-58214285D01*
X133052642Y-58166666D01*
X133100261Y-58119047D01*
X133147880Y-58023809D01*
X133147880Y-57833333D01*
X133100261Y-57738095D01*
X133052642Y-57690476D01*
X132957404Y-57642857D01*
X132766928Y-57642857D01*
X132671690Y-57690476D01*
X132624071Y-57738095D01*
X132576452Y-57833333D01*
X133100261Y-57261904D02*
X133147880Y-57119047D01*
X133147880Y-56880952D01*
X133100261Y-56785714D01*
X133052642Y-56738095D01*
X132957404Y-56690476D01*
X132862166Y-56690476D01*
X132766928Y-56738095D01*
X132719309Y-56785714D01*
X132671690Y-56880952D01*
X132624071Y-57071428D01*
X132576452Y-57166666D01*
X132528833Y-57214285D01*
X132433595Y-57261904D01*
X132338357Y-57261904D01*
X132243119Y-57214285D01*
X132195500Y-57166666D01*
X132147880Y-57071428D01*
X132147880Y-56833333D01*
X132195500Y-56690476D01*
X133147880Y-55738095D02*
X133147880Y-56309523D01*
X133147880Y-56023809D02*
X132147880Y-56023809D01*
X132290738Y-56119047D01*
X132385976Y-56214285D01*
X132433595Y-56309523D01*
X133052642Y-54738095D02*
X133100261Y-54785714D01*
X133147880Y-54928571D01*
X133147880Y-55023809D01*
X133100261Y-55166666D01*
X133005023Y-55261904D01*
X132909785Y-55309523D01*
X132719309Y-55357142D01*
X132576452Y-55357142D01*
X132385976Y-55309523D01*
X132290738Y-55261904D01*
X132195500Y-55166666D01*
X132147880Y-55023809D01*
X132147880Y-54928571D01*
X132195500Y-54785714D01*
X132243119Y-54738095D01*
%TO.C,C1*%
X92367857Y-55100000D02*
X92403571Y-55135714D01*
X92439285Y-55242857D01*
X92439285Y-55314285D01*
X92403571Y-55421428D01*
X92332142Y-55492857D01*
X92260714Y-55528571D01*
X92117857Y-55564285D01*
X92010714Y-55564285D01*
X91867857Y-55528571D01*
X91796428Y-55492857D01*
X91725000Y-55421428D01*
X91689285Y-55314285D01*
X91689285Y-55242857D01*
X91725000Y-55135714D01*
X91760714Y-55100000D01*
X92439285Y-54385714D02*
X92439285Y-54814285D01*
X92439285Y-54600000D02*
X91689285Y-54600000D01*
X91796428Y-54671428D01*
X91867857Y-54742857D01*
X91903571Y-54814285D01*
%TO.C,R8*%
X88950000Y-65514285D02*
X88700000Y-65157142D01*
X88521428Y-65514285D02*
X88521428Y-64764285D01*
X88807142Y-64764285D01*
X88878571Y-64800000D01*
X88914285Y-64835714D01*
X88950000Y-64907142D01*
X88950000Y-65014285D01*
X88914285Y-65085714D01*
X88878571Y-65121428D01*
X88807142Y-65157142D01*
X88521428Y-65157142D01*
X89378571Y-65085714D02*
X89307142Y-65050000D01*
X89271428Y-65014285D01*
X89235714Y-64942857D01*
X89235714Y-64907142D01*
X89271428Y-64835714D01*
X89307142Y-64800000D01*
X89378571Y-64764285D01*
X89521428Y-64764285D01*
X89592857Y-64800000D01*
X89628571Y-64835714D01*
X89664285Y-64907142D01*
X89664285Y-64942857D01*
X89628571Y-65014285D01*
X89592857Y-65050000D01*
X89521428Y-65085714D01*
X89378571Y-65085714D01*
X89307142Y-65121428D01*
X89271428Y-65157142D01*
X89235714Y-65228571D01*
X89235714Y-65371428D01*
X89271428Y-65442857D01*
X89307142Y-65478571D01*
X89378571Y-65514285D01*
X89521428Y-65514285D01*
X89592857Y-65478571D01*
X89628571Y-65442857D01*
X89664285Y-65371428D01*
X89664285Y-65228571D01*
X89628571Y-65157142D01*
X89592857Y-65121428D01*
X89521428Y-65085714D01*
%TO.C,Q1*%
X96635714Y-59121428D02*
X96600000Y-59192857D01*
X96528571Y-59264285D01*
X96421428Y-59371428D01*
X96385714Y-59442857D01*
X96385714Y-59514285D01*
X96564285Y-59478571D02*
X96528571Y-59550000D01*
X96457142Y-59621428D01*
X96314285Y-59657142D01*
X96064285Y-59657142D01*
X95921428Y-59621428D01*
X95850000Y-59550000D01*
X95814285Y-59478571D01*
X95814285Y-59335714D01*
X95850000Y-59264285D01*
X95921428Y-59192857D01*
X96064285Y-59157142D01*
X96314285Y-59157142D01*
X96457142Y-59192857D01*
X96528571Y-59264285D01*
X96564285Y-59335714D01*
X96564285Y-59478571D01*
X96564285Y-58442857D02*
X96564285Y-58871428D01*
X96564285Y-58657142D02*
X95814285Y-58657142D01*
X95921428Y-58728571D01*
X95992857Y-58800000D01*
X96028571Y-58871428D01*
%TO.C,D1*%
X89964285Y-67053571D02*
X89214285Y-67053571D01*
X89214285Y-66875000D01*
X89250000Y-66767857D01*
X89321428Y-66696428D01*
X89392857Y-66660714D01*
X89535714Y-66625000D01*
X89642857Y-66625000D01*
X89785714Y-66660714D01*
X89857142Y-66696428D01*
X89928571Y-66767857D01*
X89964285Y-66875000D01*
X89964285Y-67053571D01*
X89964285Y-65910714D02*
X89964285Y-66339285D01*
X89964285Y-66125000D02*
X89214285Y-66125000D01*
X89321428Y-66196428D01*
X89392857Y-66267857D01*
X89428571Y-66339285D01*
%TO.C,R1*%
X100314285Y-56625000D02*
X99957142Y-56875000D01*
X100314285Y-57053571D02*
X99564285Y-57053571D01*
X99564285Y-56767857D01*
X99600000Y-56696428D01*
X99635714Y-56660714D01*
X99707142Y-56625000D01*
X99814285Y-56625000D01*
X99885714Y-56660714D01*
X99921428Y-56696428D01*
X99957142Y-56767857D01*
X99957142Y-57053571D01*
X100314285Y-55910714D02*
X100314285Y-56339285D01*
X100314285Y-56125000D02*
X99564285Y-56125000D01*
X99671428Y-56196428D01*
X99742857Y-56267857D01*
X99778571Y-56339285D01*
%TO.C,R2*%
X83439285Y-59875000D02*
X83082142Y-60125000D01*
X83439285Y-60303571D02*
X82689285Y-60303571D01*
X82689285Y-60017857D01*
X82725000Y-59946428D01*
X82760714Y-59910714D01*
X82832142Y-59875000D01*
X82939285Y-59875000D01*
X83010714Y-59910714D01*
X83046428Y-59946428D01*
X83082142Y-60017857D01*
X83082142Y-60303571D01*
X82760714Y-59589285D02*
X82725000Y-59553571D01*
X82689285Y-59482142D01*
X82689285Y-59303571D01*
X82725000Y-59232142D01*
X82760714Y-59196428D01*
X82832142Y-59160714D01*
X82903571Y-59160714D01*
X83010714Y-59196428D01*
X83439285Y-59625000D01*
X83439285Y-59160714D01*
%TO.C,U2*%
X98528571Y-64689285D02*
X98528571Y-65296428D01*
X98564285Y-65367857D01*
X98600000Y-65403571D01*
X98671428Y-65439285D01*
X98814285Y-65439285D01*
X98885714Y-65403571D01*
X98921428Y-65367857D01*
X98957142Y-65296428D01*
X98957142Y-64689285D01*
X99278571Y-64760714D02*
X99314285Y-64725000D01*
X99385714Y-64689285D01*
X99564285Y-64689285D01*
X99635714Y-64725000D01*
X99671428Y-64760714D01*
X99707142Y-64832142D01*
X99707142Y-64903571D01*
X99671428Y-65010714D01*
X99242857Y-65439285D01*
X99707142Y-65439285D01*
%TO.C,C3*%
X94800000Y-59342857D02*
X94764285Y-59378571D01*
X94657142Y-59414285D01*
X94585714Y-59414285D01*
X94478571Y-59378571D01*
X94407142Y-59307142D01*
X94371428Y-59235714D01*
X94335714Y-59092857D01*
X94335714Y-58985714D01*
X94371428Y-58842857D01*
X94407142Y-58771428D01*
X94478571Y-58700000D01*
X94585714Y-58664285D01*
X94657142Y-58664285D01*
X94764285Y-58700000D01*
X94800000Y-58735714D01*
X95050000Y-58664285D02*
X95514285Y-58664285D01*
X95264285Y-58950000D01*
X95371428Y-58950000D01*
X95442857Y-58985714D01*
X95478571Y-59021428D01*
X95514285Y-59092857D01*
X95514285Y-59271428D01*
X95478571Y-59342857D01*
X95442857Y-59378571D01*
X95371428Y-59414285D01*
X95157142Y-59414285D01*
X95085714Y-59378571D01*
X95050000Y-59342857D01*
%TO.C,U3*%
X91403571Y-59889285D02*
X91403571Y-60496428D01*
X91439285Y-60567857D01*
X91475000Y-60603571D01*
X91546428Y-60639285D01*
X91689285Y-60639285D01*
X91760714Y-60603571D01*
X91796428Y-60567857D01*
X91832142Y-60496428D01*
X91832142Y-59889285D01*
X92117857Y-59889285D02*
X92582142Y-59889285D01*
X92332142Y-60175000D01*
X92439285Y-60175000D01*
X92510714Y-60210714D01*
X92546428Y-60246428D01*
X92582142Y-60317857D01*
X92582142Y-60496428D01*
X92546428Y-60567857D01*
X92510714Y-60603571D01*
X92439285Y-60639285D01*
X92225000Y-60639285D01*
X92153571Y-60603571D01*
X92117857Y-60567857D01*
%TO.C,C2*%
X96850000Y-56292857D02*
X96814285Y-56328571D01*
X96707142Y-56364285D01*
X96635714Y-56364285D01*
X96528571Y-56328571D01*
X96457142Y-56257142D01*
X96421428Y-56185714D01*
X96385714Y-56042857D01*
X96385714Y-55935714D01*
X96421428Y-55792857D01*
X96457142Y-55721428D01*
X96528571Y-55650000D01*
X96635714Y-55614285D01*
X96707142Y-55614285D01*
X96814285Y-55650000D01*
X96850000Y-55685714D01*
X97135714Y-55685714D02*
X97171428Y-55650000D01*
X97242857Y-55614285D01*
X97421428Y-55614285D01*
X97492857Y-55650000D01*
X97528571Y-55685714D01*
X97564285Y-55757142D01*
X97564285Y-55828571D01*
X97528571Y-55935714D01*
X97100000Y-56364285D01*
X97564285Y-56364285D01*
%TO.C,R7*%
X96757380Y-64216666D02*
X96281190Y-64550000D01*
X96757380Y-64788095D02*
X95757380Y-64788095D01*
X95757380Y-64407142D01*
X95805000Y-64311904D01*
X95852619Y-64264285D01*
X95947857Y-64216666D01*
X96090714Y-64216666D01*
X96185952Y-64264285D01*
X96233571Y-64311904D01*
X96281190Y-64407142D01*
X96281190Y-64788095D01*
X95757380Y-63883333D02*
X95757380Y-63216666D01*
X96757380Y-63645238D01*
%TO.C,R9*%
X83989285Y-57925000D02*
X83632142Y-58175000D01*
X83989285Y-58353571D02*
X83239285Y-58353571D01*
X83239285Y-58067857D01*
X83275000Y-57996428D01*
X83310714Y-57960714D01*
X83382142Y-57925000D01*
X83489285Y-57925000D01*
X83560714Y-57960714D01*
X83596428Y-57996428D01*
X83632142Y-58067857D01*
X83632142Y-58353571D01*
X83989285Y-57567857D02*
X83989285Y-57425000D01*
X83953571Y-57353571D01*
X83917857Y-57317857D01*
X83810714Y-57246428D01*
X83667857Y-57210714D01*
X83382142Y-57210714D01*
X83310714Y-57246428D01*
X83275000Y-57282142D01*
X83239285Y-57353571D01*
X83239285Y-57496428D01*
X83275000Y-57567857D01*
X83310714Y-57603571D01*
X83382142Y-57639285D01*
X83560714Y-57639285D01*
X83632142Y-57603571D01*
X83667857Y-57567857D01*
X83703571Y-57496428D01*
X83703571Y-57353571D01*
X83667857Y-57282142D01*
X83632142Y-57246428D01*
X83560714Y-57210714D01*
D11*
%TO.C,R4*%
X84337258Y-67122500D02*
X83862742Y-67122500D01*
X84337258Y-66077500D02*
X83862742Y-66077500D01*
%TO.C,L1*%
X114196267Y-66340000D02*
X113853733Y-66340000D01*
X114196267Y-67360000D02*
X113853733Y-67360000D01*
%TO.C,R5*%
X91962258Y-66077500D02*
X91487742Y-66077500D01*
X91962258Y-67122500D02*
X91487742Y-67122500D01*
%TO.C,D3*%
X87425000Y-60950000D02*
X89125000Y-60950000D01*
X87425000Y-60950000D02*
X87425000Y-57800000D01*
X89125000Y-60950000D02*
X89125000Y-57800000D01*
%TO.C,Y1*%
X112950000Y-56025000D02*
X115350000Y-56025000D01*
X112950000Y-54425000D02*
X112950000Y-56025000D01*
X115350000Y-54425000D02*
X112950000Y-54425000D01*
%TO.C,R6*%
X91737258Y-58302500D02*
X91262742Y-58302500D01*
X91737258Y-59347500D02*
X91262742Y-59347500D01*
%TO.C,R3*%
X102137258Y-54402500D02*
X101662742Y-54402500D01*
X102137258Y-55447500D02*
X101662742Y-55447500D01*
%TO.C,C1*%
X90259165Y-54590000D02*
X90490835Y-54590000D01*
X90259165Y-55310000D02*
X90490835Y-55310000D01*
%TO.C,R8*%
X89572500Y-62912742D02*
X89572500Y-63387258D01*
X88527500Y-62912742D02*
X88527500Y-63387258D01*
%TO.C,Q1*%
X99360000Y-60630000D02*
X97900000Y-60630000D01*
X99360000Y-60630000D02*
X99360000Y-59700000D01*
X99360000Y-57470000D02*
X99360000Y-58400000D01*
X99360000Y-57470000D02*
X97200000Y-57470000D01*
%TO.C,D1*%
X88200000Y-65865000D02*
X85740000Y-65865000D01*
X85740000Y-65865000D02*
X85740000Y-67335000D01*
X85740000Y-67335000D02*
X88200000Y-67335000D01*
%TO.C,R1*%
X101662742Y-57047500D02*
X102137258Y-57047500D01*
X101662742Y-56002500D02*
X102137258Y-56002500D01*
%TO.C,R2*%
X84862742Y-60272500D02*
X85337258Y-60272500D01*
X84862742Y-59227500D02*
X85337258Y-59227500D01*
%TO.C,J3*%
X82765000Y-53410000D02*
X82765000Y-54860000D01*
X82765000Y-54860000D02*
X84565000Y-54860000D01*
X88735000Y-53410000D02*
X88735000Y-54860000D01*
X88735000Y-54860000D02*
X86935000Y-54860000D01*
X86935000Y-54860000D02*
X86935000Y-55850000D01*
X87465000Y-50590000D02*
X84035000Y-50590000D01*
%TO.C,U2*%
X99980000Y-61240000D02*
X98220000Y-61240000D01*
X98220000Y-64310000D02*
X100650000Y-64310000D01*
%TO.C,D2*%
X89840000Y-56490000D02*
X89840000Y-57960000D01*
X92300000Y-56490000D02*
X89840000Y-56490000D01*
X89840000Y-57960000D02*
X92300000Y-57960000D01*
%TO.C,C3*%
X95040835Y-59640000D02*
X94809165Y-59640000D01*
X95040835Y-60360000D02*
X94809165Y-60360000D01*
%TO.C,U3*%
X92875000Y-61590000D02*
X90425000Y-61590000D01*
X91075000Y-64810000D02*
X92875000Y-64810000D01*
%TO.C,J1*%
X108935000Y-57765000D02*
X112465000Y-57765000D01*
X112465000Y-57765000D02*
X112465000Y-57830000D01*
X108935000Y-64170000D02*
X108935000Y-64235000D01*
X108935000Y-57765000D02*
X108935000Y-57830000D01*
X112465000Y-64170000D02*
X112465000Y-64235000D01*
X107610000Y-57830000D02*
X108935000Y-57830000D01*
X108935000Y-64235000D02*
X112465000Y-64235000D01*
%TO.C,C2*%
X96859165Y-54565000D02*
X97090835Y-54565000D01*
X96859165Y-55285000D02*
X97090835Y-55285000D01*
%TO.C,R7*%
X94352500Y-63812742D02*
X94352500Y-64287258D01*
X95397500Y-63812742D02*
X95397500Y-64287258D01*
%TO.C,J5*%
X89520000Y-53080000D02*
X89520000Y-51750000D01*
X92120000Y-53080000D02*
X92120000Y-50420000D01*
X90850000Y-53080000D02*
X89520000Y-53080000D01*
X92120000Y-50420000D02*
X130280000Y-50420000D01*
X92120000Y-53080000D02*
X130280000Y-53080000D01*
X130280000Y-53080000D02*
X130280000Y-50420000D01*
%TO.C,J4*%
X80750000Y-71555000D02*
X79420000Y-71555000D01*
X82020000Y-68895000D02*
X130340000Y-68895000D01*
X79420000Y-71555000D02*
X79420000Y-70225000D01*
X130340000Y-71555000D02*
X130340000Y-68895000D01*
X82020000Y-71555000D02*
X130340000Y-71555000D01*
X82020000Y-71555000D02*
X82020000Y-68895000D01*
%TO.C,R9*%
X85862258Y-57277500D02*
X85387742Y-57277500D01*
X85862258Y-58322500D02*
X85387742Y-58322500D01*
%TD*%
M02*
