%TF.GenerationSoftware,KiCad,Pcbnew,5.99.0-unknown-ed66c0f14d~128~ubuntu20.04.1*%
%TF.CreationDate,2021-06-03T22:12:58+01:00*%
%TF.ProjectId,nRF52840-BBoard,6e524635-3238-4343-902d-42426f617264,v2*%
%TF.SameCoordinates,Original*%
%TF.FileFunction,Copper,L1,Top*%
%TF.FilePolarity,Positive*%
%FSLAX46Y46*%
G04 Gerber Fmt 4.6, Leading zero omitted, Abs format (unit mm)*
G04 Created by KiCad (PCBNEW 5.99.0-unknown-ed66c0f14d~128~ubuntu20.04.1) date 2021-06-03 22:12:58*
%MOMM*%
%LPD*%
G01*
G04 APERTURE LIST*
G04 Aperture macros list*
%AMRoundRect*
0 Rectangle with rounded corners*
0 $1 Rounding radius*
0 $2 $3 $4 $5 $6 $7 $8 $9 X,Y pos of 4 corners*
0 Add a 4 corners polygon primitive as box body*
4,1,4,$2,$3,$4,$5,$6,$7,$8,$9,$2,$3,0*
0 Add four circle primitives for the rounded corners*
1,1,$1+$1,$2,$3*
1,1,$1+$1,$4,$5*
1,1,$1+$1,$6,$7*
1,1,$1+$1,$8,$9*
0 Add four rect primitives between the rounded corners*
20,1,$1+$1,$2,$3,$4,$5,0*
20,1,$1+$1,$4,$5,$6,$7,0*
20,1,$1+$1,$6,$7,$8,$9,0*
20,1,$1+$1,$8,$9,$2,$3,0*%
G04 Aperture macros list end*
%TA.AperFunction,SMDPad,CuDef*%
%ADD10RoundRect,0.200000X0.200000X0.275000X-0.200000X0.275000X-0.200000X-0.275000X0.200000X-0.275000X0*%
%TD*%
%TA.AperFunction,SMDPad,CuDef*%
%ADD11RoundRect,0.237500X0.287500X0.237500X-0.287500X0.237500X-0.287500X-0.237500X0.287500X-0.237500X0*%
%TD*%
%TA.AperFunction,SMDPad,CuDef*%
%ADD12R,1.000000X1.000000*%
%TD*%
%TA.AperFunction,SMDPad,CuDef*%
%ADD13R,0.600000X1.100000*%
%TD*%
%TA.AperFunction,SMDPad,CuDef*%
%ADD14R,0.650000X1.000000*%
%TD*%
%TA.AperFunction,ComponentPad*%
%ADD15R,0.650000X1.000000*%
%TD*%
%TA.AperFunction,SMDPad,CuDef*%
%ADD16R,1.000000X0.650000*%
%TD*%
%TA.AperFunction,ComponentPad*%
%ADD17R,1.000000X0.650000*%
%TD*%
%TA.AperFunction,SMDPad,CuDef*%
%ADD18RoundRect,0.155000X-0.212500X-0.155000X0.212500X-0.155000X0.212500X0.155000X-0.212500X0.155000X0*%
%TD*%
%TA.AperFunction,SMDPad,CuDef*%
%ADD19RoundRect,0.200000X-0.275000X0.200000X-0.275000X-0.200000X0.275000X-0.200000X0.275000X0.200000X0*%
%TD*%
%TA.AperFunction,SMDPad,CuDef*%
%ADD20R,0.900000X0.800000*%
%TD*%
%TA.AperFunction,SMDPad,CuDef*%
%ADD21R,0.850000X1.200000*%
%TD*%
%TA.AperFunction,SMDPad,CuDef*%
%ADD22RoundRect,0.237500X-0.287500X-0.237500X0.287500X-0.237500X0.287500X0.237500X-0.287500X0.237500X0*%
%TD*%
%TA.AperFunction,SMDPad,CuDef*%
%ADD23RoundRect,0.200000X-0.200000X-0.275000X0.200000X-0.275000X0.200000X0.275000X-0.200000X0.275000X0*%
%TD*%
%TA.AperFunction,SMDPad,CuDef*%
%ADD24RoundRect,0.150000X0.150000X0.700000X-0.150000X0.700000X-0.150000X-0.700000X0.150000X-0.700000X0*%
%TD*%
%TA.AperFunction,SMDPad,CuDef*%
%ADD25RoundRect,0.250000X0.250000X1.100000X-0.250000X1.100000X-0.250000X-1.100000X0.250000X-1.100000X0*%
%TD*%
%TA.AperFunction,SMDPad,CuDef*%
%ADD26R,1.220000X0.650000*%
%TD*%
%TA.AperFunction,SMDPad,CuDef*%
%ADD27RoundRect,0.155000X0.212500X0.155000X-0.212500X0.155000X-0.212500X-0.155000X0.212500X-0.155000X0*%
%TD*%
%TA.AperFunction,SMDPad,CuDef*%
%ADD28R,1.060000X0.650000*%
%TD*%
%TA.AperFunction,ComponentPad*%
%ADD29O,2.250000X1.250000*%
%TD*%
%TA.AperFunction,ComponentPad*%
%ADD30O,1.750000X1.250000*%
%TD*%
%TA.AperFunction,SMDPad,CuDef*%
%ADD31R,0.800000X0.300000*%
%TD*%
%TA.AperFunction,SMDPad,CuDef*%
%ADD32R,0.800000X0.540000*%
%TD*%
%TA.AperFunction,SMDPad,CuDef*%
%ADD33R,2.400000X0.740000*%
%TD*%
%TA.AperFunction,ComponentPad*%
%ADD34R,1.700000X1.700000*%
%TD*%
%TA.AperFunction,ComponentPad*%
%ADD35O,1.700000X1.700000*%
%TD*%
%TA.AperFunction,ViaPad*%
%ADD36C,0.800000*%
%TD*%
%TA.AperFunction,Conductor*%
%ADD37C,0.250000*%
%TD*%
%TA.AperFunction,Conductor*%
%ADD38C,0.150000*%
%TD*%
%TA.AperFunction,Conductor*%
%ADD39C,0.200000*%
%TD*%
G04 APERTURE END LIST*
D10*
%TO.P,R4,2*%
%TO.N,GND*%
X83275000Y-66600000D03*
%TO.P,R4,1*%
%TO.N,CC2*%
X84925000Y-66600000D03*
%TD*%
D11*
%TO.P,L1,2*%
%TO.N,VCC*%
X113150000Y-66850000D03*
%TO.P,L1,1*%
%TO.N,Net-(L1-Pad1)*%
X114900000Y-66850000D03*
%TD*%
D10*
%TO.P,R5,2*%
%TO.N,Net-(D1-Pad2)*%
X90900000Y-66600000D03*
%TO.P,R5,1*%
%TO.N,/LED1*%
X92550000Y-66600000D03*
%TD*%
D12*
%TO.P,D3,2,A*%
%TO.N,VUSB*%
X88275000Y-57800000D03*
%TO.P,D3,1,K*%
%TO.N,Net-(C3-Pad1)*%
X88275000Y-60300000D03*
%TD*%
D13*
%TO.P,Y1,2,2*%
%TO.N,Net-(U1-Pad11)*%
X114850000Y-55225000D03*
%TO.P,Y1,1,1*%
%TO.N,Net-(U1-Pad13)*%
X113450000Y-55225000D03*
%TD*%
D10*
%TO.P,R6,2*%
%TO.N,Net-(D2-Pad1)*%
X90675000Y-58825000D03*
%TO.P,R6,1*%
%TO.N,Net-(R6-Pad1)*%
X92325000Y-58825000D03*
%TD*%
%TO.P,R3,2*%
%TO.N,GND*%
X101075000Y-54925000D03*
%TO.P,R3,1*%
%TO.N,BATTERY_PIN*%
X102725000Y-54925000D03*
%TD*%
D14*
%TO.P,U1,43,P0.10/NFC2*%
%TO.N,/P0.10*%
X130850500Y-67119000D03*
D15*
%TO.P,U1,42,P1.06*%
%TO.N,/P1.06*%
X130342500Y-65041000D03*
D14*
%TO.P,U1,41,P0.09/NFC1*%
%TO.N,/P0.09*%
X129580500Y-67119000D03*
D15*
%TO.P,U1,40,P1.04*%
%TO.N,/P1.04*%
X129072500Y-65041000D03*
D14*
%TO.P,U1,39,SWDCLK*%
%TO.N,SWDCLK*%
X128310500Y-67119000D03*
D15*
%TO.P,U1,38,P1.02*%
%TO.N,/P1.02*%
X127802500Y-65041000D03*
D14*
%TO.P,U1,37,SWDIO*%
%TO.N,SWDIO*%
X127040500Y-67119000D03*
D15*
%TO.P,U1,36,P1.00*%
%TO.N,/P1.00*%
X126532500Y-65041000D03*
D14*
%TO.P,U1,35,P0.24*%
%TO.N,/P0.24*%
X125770500Y-67119000D03*
D15*
%TO.P,U1,34,P0.22*%
%TO.N,/P0.22*%
X125262500Y-65041000D03*
D14*
%TO.P,U1,33,P0.13*%
%TO.N,/P0.13*%
X124500500Y-67119000D03*
D15*
%TO.P,U1,32,P0.20*%
%TO.N,/P0.20*%
X123992500Y-65041000D03*
D14*
%TO.P,U1,31,USB_D+*%
%TO.N,D+*%
X123230500Y-67119000D03*
D15*
%TO.P,U1,30,P0.17*%
%TO.N,/P0.17*%
X122722500Y-65041000D03*
D14*
%TO.P,U1,29,USB_D-*%
%TO.N,D-*%
X121960500Y-67119000D03*
D15*
%TO.P,U1,28,P0.15*%
%TO.N,/P0.15*%
X121452500Y-65041000D03*
D14*
%TO.P,U1,27,VBUS*%
%TO.N,VUSB*%
X120690500Y-67119000D03*
%TO.P,U1,26,P0.18/RESET*%
%TO.N,RESET*%
X119420500Y-67119000D03*
D16*
%TO.P,U1,25,DCCH*%
%TO.N,Net-(L1-Pad1)*%
X117201500Y-65420000D03*
D17*
%TO.P,U1,24,GND*%
%TO.N,GND*%
X118912500Y-64787000D03*
D16*
%TO.P,U1,23,VDDH*%
%TO.N,VCC*%
X117201500Y-64150000D03*
D17*
%TO.P,U1,22,P0.07*%
%TO.N,/LED1*%
X118912500Y-63517000D03*
D16*
%TO.P,U1,21,GND*%
%TO.N,GND*%
X117201500Y-62880000D03*
D17*
%TO.P,U1,20,P0.12*%
%TO.N,/P0.12*%
X118912500Y-62247000D03*
D16*
%TO.P,U1,19,VDD*%
%TO.N,VCC*%
X117201500Y-61610000D03*
D17*
%TO.P,U1,18,P0.04/AIN2*%
%TO.N,BATTERY_PIN*%
X118912500Y-60977000D03*
D16*
%TO.P,U1,17,P1.09*%
%TO.N,/P1.09*%
X117201500Y-60340000D03*
D17*
%TO.P,U1,16,P0.08*%
%TO.N,/P0.08*%
X118912500Y-59707000D03*
D16*
%TO.P,U1,15,P0.05/AIN3*%
%TO.N,/P0.05*%
X117201500Y-59070000D03*
D17*
%TO.P,U1,14,P0.06*%
%TO.N,/P0.06*%
X118912500Y-58437000D03*
D16*
%TO.P,U1,13,P0.01/XL2*%
%TO.N,Net-(U1-Pad13)*%
X117201500Y-57800000D03*
D17*
%TO.P,U1,12,P0.26*%
%TO.N,/P0.26*%
X118912500Y-57167000D03*
D16*
%TO.P,U1,11,P0.00/XL1*%
%TO.N,Net-(U1-Pad11)*%
X117201500Y-56530000D03*
D14*
%TO.P,U1,10,P0.30/AIN6*%
%TO.N,/P0.30*%
X119420500Y-54881000D03*
%TO.P,U1,9,P0.31/AIN7*%
%TO.N,/P0.31*%
X120690500Y-54881000D03*
%TO.P,U1,8,P0.29/AIN5*%
%TO.N,/P0.29*%
X121960500Y-54881000D03*
%TO.P,U1,7,P0.02/AIN0*%
%TO.N,/P0.02*%
X123230500Y-54881000D03*
%TO.P,U1,6,P1.13*%
%TO.N,/P1.13*%
X124500500Y-54881000D03*
%TO.P,U1,5,GND*%
%TO.N,GND*%
X125770500Y-54881000D03*
%TO.P,U1,4,P0.28/AIN4*%
%TO.N,/P0.28*%
X127040500Y-54881000D03*
%TO.P,U1,3,P0.03/AIN1*%
%TO.N,/P0.03*%
X128310500Y-54881000D03*
%TO.P,U1,2,P1.10*%
%TO.N,/P1.10*%
X129580500Y-54881000D03*
%TO.P,U1,1,P1.11*%
%TO.N,/P1.11*%
X130850500Y-54881000D03*
%TD*%
D18*
%TO.P,C1,2*%
%TO.N,VBAT*%
X90942500Y-54950000D03*
%TO.P,C1,1*%
%TO.N,GND*%
X89807500Y-54950000D03*
%TD*%
D19*
%TO.P,R8,2*%
%TO.N,Net-(R8-Pad2)*%
X89050000Y-63975000D03*
%TO.P,R8,1*%
%TO.N,Net-(C3-Pad1)*%
X89050000Y-62325000D03*
%TD*%
D20*
%TO.P,Q1,3,D*%
%TO.N,VBAT*%
X99600000Y-59050000D03*
%TO.P,Q1,2,S*%
%TO.N,Net-(C3-Pad1)*%
X97600000Y-60000000D03*
%TO.P,Q1,1,G*%
%TO.N,VUSB*%
X97600000Y-58100000D03*
%TD*%
D21*
%TO.P,SW1,2,2*%
%TO.N,RESET*%
X104980000Y-58835000D03*
X104980000Y-63175000D03*
%TO.P,SW1,1,1*%
%TO.N,GND*%
X102840000Y-58775000D03*
X102840000Y-63175000D03*
%TD*%
D22*
%TO.P,D1,2,A*%
%TO.N,Net-(D1-Pad2)*%
X88275000Y-66600000D03*
%TO.P,D1,1,K*%
%TO.N,GND*%
X86525000Y-66600000D03*
%TD*%
D23*
%TO.P,R1,2*%
%TO.N,BATTERY_PIN*%
X102725000Y-56525000D03*
%TO.P,R1,1*%
%TO.N,VBAT*%
X101075000Y-56525000D03*
%TD*%
%TO.P,R2,2*%
%TO.N,GND*%
X85925000Y-59750000D03*
%TO.P,R2,1*%
%TO.N,CC1*%
X84275000Y-59750000D03*
%TD*%
D24*
%TO.P,J3,1,Pin_1*%
%TO.N,VBAT*%
X86375000Y-55000000D03*
%TO.P,J3,2,Pin_2*%
%TO.N,GND*%
X85125000Y-55000000D03*
D25*
%TO.P,J3,MP*%
%TO.N,N/C*%
X83275000Y-51800000D03*
X88225000Y-51800000D03*
%TD*%
D26*
%TO.P,U2,5,PROG*%
%TO.N,Net-(R7-Pad2)*%
X97790000Y-63750000D03*
%TO.P,U2,4,VCC*%
%TO.N,VUSB*%
X97790000Y-61850000D03*
%TO.P,U2,3,BAT*%
%TO.N,VBAT*%
X100410000Y-61850000D03*
%TO.P,U2,2,GND*%
%TO.N,GND*%
X100410000Y-62800000D03*
%TO.P,U2,1,~CHRG*%
%TO.N,Net-(R6-Pad1)*%
X100410000Y-63750000D03*
%TD*%
D22*
%TO.P,D2,2,A*%
%TO.N,VUSB*%
X92375000Y-57225000D03*
%TO.P,D2,1,K*%
%TO.N,Net-(D2-Pad1)*%
X90625000Y-57225000D03*
%TD*%
D27*
%TO.P,C3,2*%
%TO.N,GND*%
X94357500Y-60000000D03*
%TO.P,C3,1*%
%TO.N,Net-(C3-Pad1)*%
X95492500Y-60000000D03*
%TD*%
D28*
%TO.P,U3,5,VOUT*%
%TO.N,VCC*%
X93075000Y-62250000D03*
%TO.P,U3,4,NC*%
%TO.N,N/C*%
X93075000Y-64150000D03*
%TO.P,U3,3,EN*%
%TO.N,Net-(R8-Pad2)*%
X90875000Y-64150000D03*
%TO.P,U3,2,GND*%
%TO.N,GND*%
X90875000Y-63200000D03*
%TO.P,U3,1,VIN*%
%TO.N,Net-(C3-Pad1)*%
X90875000Y-62250000D03*
%TD*%
D29*
%TO.P,J2,S1,SHIELD*%
%TO.N,GND*%
X77125000Y-55400000D03*
D30*
X81125000Y-55424400D03*
X81125000Y-66600000D03*
D29*
X77125000Y-66550000D03*
D31*
%TO.P,J2,B8*%
%TO.N,N/C*%
X82025000Y-59242000D03*
%TO.P,J2,B7,D-*%
%TO.N,D-*%
X82025000Y-60250000D03*
%TO.P,J2,B6,D+*%
%TO.N,D+*%
X82025000Y-61750000D03*
%TO.P,J2,B5,CC2*%
%TO.N,CC2*%
X82025000Y-62750000D03*
%TO.P,J2,A8*%
%TO.N,N/C*%
X82025000Y-62250000D03*
%TO.P,J2,A7,D-*%
%TO.N,D-*%
X82025000Y-61250000D03*
%TO.P,J2,A6,D+*%
%TO.N,D+*%
X82025000Y-60750000D03*
%TO.P,J2,A5,CC1*%
%TO.N,CC1*%
X82025000Y-59750000D03*
D32*
%TO.P,J2,A4,VBUS*%
%TO.N,VUSB*%
X82025000Y-63400000D03*
X82025000Y-58600000D03*
%TO.P,J2,A1,GND*%
%TO.N,GND*%
X82025000Y-64200000D03*
X82025000Y-57800000D03*
%TD*%
D33*
%TO.P,J1,10,Pin_10*%
%TO.N,N/C*%
X112650000Y-63540000D03*
%TO.P,J1,9,Pin_9*%
%TO.N,GND*%
X108750000Y-63540000D03*
%TO.P,J1,8,Pin_8*%
%TO.N,N/C*%
X112650000Y-62270000D03*
%TO.P,J1,7,Pin_7*%
X108750000Y-62270000D03*
%TO.P,J1,6,Pin_6*%
X112650000Y-61000000D03*
%TO.P,J1,5,Pin_5*%
%TO.N,GND*%
X108750000Y-61000000D03*
%TO.P,J1,4,Pin_4*%
%TO.N,SWDCLK*%
X112650000Y-59730000D03*
%TO.P,J1,3,Pin_3*%
%TO.N,GND*%
X108750000Y-59730000D03*
%TO.P,J1,2,Pin_2*%
%TO.N,SWDIO*%
X112650000Y-58460000D03*
%TO.P,J1,1,Pin_1*%
%TO.N,VCC*%
X108750000Y-58460000D03*
%TD*%
D18*
%TO.P,C2,2*%
%TO.N,GND*%
X97542500Y-54925000D03*
%TO.P,C2,1*%
%TO.N,VCC*%
X96407500Y-54925000D03*
%TD*%
D19*
%TO.P,R7,2*%
%TO.N,Net-(R7-Pad2)*%
X94875000Y-64875000D03*
%TO.P,R7,1*%
%TO.N,GND*%
X94875000Y-63225000D03*
%TD*%
D34*
%TO.P,J5,1,Pin_1*%
%TO.N,VBAT*%
X90850000Y-51750000D03*
D35*
%TO.P,J5,2,Pin_2*%
%TO.N,GND*%
X93390000Y-51750000D03*
%TO.P,J5,3,Pin_3*%
%TO.N,VCC*%
X95930000Y-51750000D03*
%TO.P,J5,4,Pin_4*%
%TO.N,VUSB*%
X98470000Y-51750000D03*
%TO.P,J5,5,Pin_5*%
%TO.N,GND*%
X101010000Y-51750000D03*
%TO.P,J5,6,Pin_6*%
%TO.N,/P0.06*%
X103550000Y-51750000D03*
%TO.P,J5,7,Pin_7*%
%TO.N,/P0.26*%
X106090000Y-51750000D03*
%TO.P,J5,8,Pin_8*%
%TO.N,/P0.30*%
X108630000Y-51750000D03*
%TO.P,J5,9,Pin_9*%
%TO.N,/P0.31*%
X111170000Y-51750000D03*
%TO.P,J5,10,Pin_10*%
%TO.N,/P0.29*%
X113710000Y-51750000D03*
%TO.P,J5,11,Pin_11*%
%TO.N,/P0.02*%
X116250000Y-51750000D03*
%TO.P,J5,12,Pin_12*%
%TO.N,/P1.13*%
X118790000Y-51750000D03*
%TO.P,J5,13,Pin_13*%
%TO.N,/P0.28*%
X121330000Y-51750000D03*
%TO.P,J5,14,Pin_14*%
%TO.N,/P0.03*%
X123870000Y-51750000D03*
%TO.P,J5,15,Pin_15*%
%TO.N,/P1.10*%
X126410000Y-51750000D03*
%TO.P,J5,16,Pin_16*%
%TO.N,/P1.11*%
X128950000Y-51750000D03*
%TD*%
%TO.P,J4,20,Pin_20*%
%TO.N,/P0.10*%
X129010000Y-70225000D03*
%TO.P,J4,19,Pin_19*%
%TO.N,/P1.06*%
X126470000Y-70225000D03*
%TO.P,J4,18,Pin_18*%
%TO.N,/P0.09*%
X123930000Y-70225000D03*
%TO.P,J4,17,Pin_17*%
%TO.N,/P1.04*%
X121390000Y-70225000D03*
%TO.P,J4,16,Pin_16*%
%TO.N,/P1.02*%
X118850000Y-70225000D03*
%TO.P,J4,15,Pin_15*%
%TO.N,/P0.24*%
X116310000Y-70225000D03*
%TO.P,J4,14,Pin_14*%
%TO.N,/P0.13*%
X113770000Y-70225000D03*
%TO.P,J4,13,Pin_13*%
%TO.N,GND*%
X111230000Y-70225000D03*
%TO.P,J4,12,Pin_12*%
%TO.N,/P1.00*%
X108690000Y-70225000D03*
%TO.P,J4,11,Pin_11*%
%TO.N,/P0.22*%
X106150000Y-70225000D03*
%TO.P,J4,10,Pin_10*%
%TO.N,/P0.20*%
X103610000Y-70225000D03*
%TO.P,J4,9,Pin_9*%
%TO.N,/P0.17*%
X101070000Y-70225000D03*
%TO.P,J4,8,Pin_8*%
%TO.N,/P0.15*%
X98530000Y-70225000D03*
%TO.P,J4,7,Pin_7*%
%TO.N,/P0.12*%
X95990000Y-70225000D03*
%TO.P,J4,6,Pin_6*%
%TO.N,/P1.09*%
X93450000Y-70225000D03*
%TO.P,J4,5,Pin_5*%
%TO.N,/P0.08*%
X90910000Y-70225000D03*
%TO.P,J4,4,Pin_4*%
%TO.N,/P0.05*%
X88370000Y-70225000D03*
%TO.P,J4,3,Pin_3*%
%TO.N,GND*%
X85830000Y-70225000D03*
%TO.P,J4,2,Pin_2*%
%TO.N,VCC*%
X83290000Y-70225000D03*
D34*
%TO.P,J4,1,Pin_1*%
%TO.N,RESET*%
X80750000Y-70225000D03*
%TD*%
D10*
%TO.P,R9,2*%
%TO.N,GND*%
X84800000Y-57800000D03*
%TO.P,R9,1*%
%TO.N,VUSB*%
X86450000Y-57800000D03*
%TD*%
D36*
%TO.N,GND*%
X93650000Y-59550000D03*
X92025000Y-63225000D03*
X106650000Y-59750000D03*
X99075000Y-54925000D03*
X101800000Y-62800000D03*
X125775000Y-56000000D03*
X88525000Y-54950000D03*
X83300000Y-65225000D03*
X86850000Y-59750000D03*
X103225000Y-57925000D03*
X86525000Y-67550000D03*
X96150000Y-63225000D03*
X83225000Y-57800000D03*
X120525000Y-62900000D03*
%TO.N,VBAT*%
X100700000Y-59050000D03*
X91800000Y-54950000D03*
%TO.N,VCC*%
X94875000Y-62000000D03*
X106950000Y-58450000D03*
X83275000Y-67675000D03*
%TO.N,VUSB*%
X83040803Y-58782383D03*
X93525000Y-57225000D03*
X96525000Y-58075000D03*
X83038766Y-63275000D03*
X101850000Y-57900000D03*
%TO.N,SWDIO*%
X126425000Y-68350000D03*
X127050000Y-60425000D03*
X112650000Y-58475000D03*
%TO.N,SWDCLK*%
X112650000Y-59675000D03*
X127773769Y-68348769D03*
%TO.N,D+*%
X123225000Y-68225000D03*
X85025000Y-63750000D03*
X99875000Y-67650000D03*
X86200000Y-65050000D03*
X85125000Y-61925000D03*
%TO.N,D-*%
X102600000Y-67500000D03*
X122000000Y-68225000D03*
X87325000Y-65075000D03*
%TO.N,RESET*%
X80750000Y-68400000D03*
X89775000Y-68400000D03*
X105000000Y-59675000D03*
X103925000Y-62200000D03*
%TO.N,/P0.02*%
X123250000Y-55975000D03*
%TO.N,/P0.29*%
X121975000Y-55975000D03*
%TO.N,/P0.31*%
X120700000Y-55975000D03*
%TO.N,/P0.30*%
X119425000Y-55975000D03*
%TO.N,/P0.05*%
X115675000Y-58500000D03*
%TO.N,/LED1*%
X103300000Y-66600000D03*
%TO.N,BATTERY_PIN*%
X104175000Y-56525000D03*
%TO.N,Net-(R6-Pad1)*%
X96274799Y-61274799D03*
X92325000Y-59925000D03*
%TO.N,/P1.09*%
X115425000Y-60225000D03*
%TO.N,/P0.13*%
X124475000Y-68250000D03*
%TD*%
D37*
%TO.N,GND*%
X99075000Y-54925000D02*
X101075000Y-54925000D01*
X97542500Y-54925000D02*
X99075000Y-54925000D01*
X106650000Y-62270000D02*
X106650000Y-61000000D01*
X83275000Y-66600000D02*
X84920000Y-68245000D01*
D38*
X120505000Y-62880000D02*
X120525000Y-62900000D01*
D37*
X108750000Y-63540000D02*
X107920000Y-63540000D01*
X108750000Y-59730000D02*
X106670000Y-59730000D01*
X83275000Y-65250000D02*
X83300000Y-65225000D01*
X92000000Y-63200000D02*
X92025000Y-63225000D01*
X85830000Y-68245000D02*
X85830000Y-70225000D01*
X86525000Y-67550000D02*
X85830000Y-68245000D01*
X94357500Y-60000000D02*
X94100000Y-60000000D01*
X106650000Y-61000000D02*
X106650000Y-59750000D01*
D38*
X125775000Y-56000000D02*
X125775000Y-54885500D01*
D37*
X102175000Y-63175000D02*
X101800000Y-62800000D01*
X85125000Y-55000000D02*
X85125000Y-57475000D01*
X86525000Y-66600000D02*
X86525000Y-67550000D01*
X106670000Y-59730000D02*
X106650000Y-59750000D01*
X101800000Y-62800000D02*
X100410000Y-62800000D01*
X88525000Y-54950000D02*
X89807500Y-54950000D01*
X102840000Y-58310000D02*
X103225000Y-57925000D01*
X90875000Y-63200000D02*
X92000000Y-63200000D01*
D38*
X125775000Y-54885500D02*
X125770500Y-54881000D01*
D37*
X82275000Y-64200000D02*
X83300000Y-65225000D01*
X84920000Y-68245000D02*
X85830000Y-68245000D01*
X92025000Y-63225000D02*
X94875000Y-63225000D01*
X83275000Y-66600000D02*
X83275000Y-65250000D01*
X85125000Y-57475000D02*
X84800000Y-57800000D01*
X94100000Y-60000000D02*
X93650000Y-59550000D01*
X102840000Y-63175000D02*
X102175000Y-63175000D01*
X81125000Y-66600000D02*
X83275000Y-66600000D01*
X86850000Y-59750000D02*
X85925000Y-59750000D01*
X102840000Y-58775000D02*
X102840000Y-58310000D01*
X94875000Y-63225000D02*
X96150000Y-63225000D01*
X83225000Y-57800000D02*
X84800000Y-57800000D01*
D38*
X117201500Y-62880000D02*
X120505000Y-62880000D01*
D37*
X82025000Y-64200000D02*
X82275000Y-64200000D01*
X108750000Y-61000000D02*
X106650000Y-61000000D01*
X82025000Y-57800000D02*
X83225000Y-57800000D01*
X107920000Y-63540000D02*
X106650000Y-62270000D01*
%TO.N,VBAT*%
X101075000Y-56525000D02*
X101075000Y-58675000D01*
X100410000Y-59340000D02*
X100700000Y-59050000D01*
X90942500Y-54950000D02*
X91800000Y-54950000D01*
X90850000Y-54000000D02*
X90850000Y-53900000D01*
X90850000Y-53900000D02*
X87475000Y-53900000D01*
X101075000Y-58675000D02*
X100700000Y-59050000D01*
X100410000Y-61850000D02*
X100410000Y-59340000D01*
X100700000Y-59050000D02*
X99600000Y-59050000D01*
X91800000Y-54950000D02*
X90850000Y-54000000D01*
X90850000Y-51750000D02*
X90850000Y-53900000D01*
X87475000Y-53900000D02*
X86375000Y-55000000D01*
%TO.N,VCC*%
X106950000Y-58450000D02*
X108740000Y-58450000D01*
X94625000Y-62250000D02*
X94875000Y-62000000D01*
X93075000Y-62250000D02*
X94625000Y-62250000D01*
X83275000Y-67600000D02*
X83290000Y-67615000D01*
X83290000Y-67690000D02*
X83290000Y-70225000D01*
X83290000Y-67815000D02*
X83275000Y-67800000D01*
X108740000Y-58450000D02*
X108750000Y-58460000D01*
X83275000Y-67675000D02*
X83290000Y-67690000D01*
%TO.N,Net-(C3-Pad1)*%
X89050000Y-62325000D02*
X90800000Y-62325000D01*
X95249511Y-61275489D02*
X96525000Y-60000000D01*
X95492500Y-60000000D02*
X96525000Y-60000000D01*
X92174511Y-61275489D02*
X95249511Y-61275489D01*
X96525000Y-60000000D02*
X97600000Y-60000000D01*
X90875000Y-62250000D02*
X91200000Y-62250000D01*
X91775000Y-61675000D02*
X92174511Y-61275489D01*
X91200000Y-62250000D02*
X91775000Y-61675000D01*
X88275000Y-61550000D02*
X89050000Y-62325000D01*
X90800000Y-62325000D02*
X90875000Y-62250000D01*
X88275000Y-60300000D02*
X88275000Y-61550000D01*
%TO.N,Net-(D1-Pad2)*%
X88275000Y-66600000D02*
X90900000Y-66600000D01*
%TO.N,Net-(D2-Pad1)*%
X90675000Y-58825000D02*
X90675000Y-57275000D01*
X90675000Y-57275000D02*
X90625000Y-57225000D01*
%TO.N,VUSB*%
X120425000Y-66000000D02*
X118500480Y-66000000D01*
X116550480Y-67950000D02*
X109300000Y-67950000D01*
X98600000Y-61040000D02*
X97790000Y-61850000D01*
X97600000Y-58100000D02*
X96550000Y-58100000D01*
X101850000Y-59394120D02*
X101850000Y-57900000D01*
X92375000Y-56150000D02*
X92375000Y-57225000D01*
X82025000Y-58600000D02*
X85650000Y-58600000D01*
X97650000Y-58100000D02*
X98600000Y-59050000D01*
X106075000Y-62375000D02*
X104500000Y-60800000D01*
X106075000Y-64725000D02*
X106075000Y-62375000D01*
X82025000Y-63400000D02*
X82867582Y-63400000D01*
X93525000Y-57225000D02*
X92375000Y-57225000D01*
X104500000Y-60800000D02*
X103255880Y-60800000D01*
X85650000Y-58600000D02*
X86450000Y-57800000D01*
X82025000Y-58600000D02*
X82858420Y-58600000D01*
X96550000Y-58100000D02*
X96525000Y-58075000D01*
X82858420Y-58600000D02*
X83040803Y-58782383D01*
X120690500Y-66265500D02*
X120425000Y-66000000D01*
X97600000Y-58100000D02*
X97650000Y-58100000D01*
X88275000Y-57800000D02*
X86450000Y-57800000D01*
X103255880Y-60800000D02*
X101850000Y-59394120D01*
X89925000Y-56150000D02*
X92375000Y-56150000D01*
X82867582Y-63400000D02*
X83038766Y-63228816D01*
X118500480Y-66000000D02*
X116550480Y-67950000D01*
X120690500Y-67119000D02*
X120690500Y-66265500D01*
X98600000Y-59050000D02*
X98600000Y-61040000D01*
X109300000Y-67950000D02*
X106075000Y-64725000D01*
X88275000Y-57800000D02*
X89925000Y-56150000D01*
D38*
%TO.N,SWDIO*%
X127040500Y-67119000D02*
X127040500Y-67734500D01*
D37*
X112650000Y-58460000D02*
X112650000Y-58475000D01*
D38*
X127040500Y-67734500D02*
X126425000Y-68350000D01*
D37*
X127050000Y-67109500D02*
X127040500Y-67119000D01*
D38*
%TO.N,SWDCLK*%
X128310500Y-67119000D02*
X128310500Y-67812038D01*
D37*
X128325000Y-67104500D02*
X128310500Y-67119000D01*
D38*
X128310500Y-67812038D02*
X127773769Y-68348769D01*
D37*
X112650000Y-59730000D02*
X112650000Y-59675000D01*
D39*
%TO.N,D+*%
X82025000Y-61750000D02*
X83025000Y-61750000D01*
D38*
X123230500Y-67119000D02*
X123230500Y-68219500D01*
D39*
X83450782Y-60750000D02*
X84625783Y-61925000D01*
X84625783Y-61925000D02*
X85125000Y-61925000D01*
D38*
X123230500Y-68219500D02*
X123225000Y-68225000D01*
D39*
X86200000Y-65050000D02*
X86025000Y-65050000D01*
X82025000Y-60750000D02*
X83450782Y-60750000D01*
X83025000Y-61750000D02*
X85025000Y-63750000D01*
X86200000Y-65050000D02*
X86200000Y-64925000D01*
X86200000Y-64925000D02*
X85025000Y-63750000D01*
X85025000Y-64025000D02*
X85175000Y-64025000D01*
X85000000Y-64025000D02*
X85025000Y-64025000D01*
D38*
%TO.N,D-*%
X121960500Y-68210500D02*
X122000000Y-68250000D01*
D39*
X87325000Y-65225000D02*
X87325000Y-65065723D01*
X87325000Y-63015723D02*
X85967139Y-61657861D01*
X85134277Y-60825000D02*
X84161500Y-60825000D01*
X87325000Y-65075000D02*
X87325000Y-63015723D01*
X87325000Y-63015723D02*
X85134277Y-60825000D01*
X85967139Y-62192138D02*
X85967139Y-61657861D01*
X83586500Y-60250000D02*
X82025000Y-60250000D01*
X84709465Y-62674511D02*
X85484766Y-62674511D01*
X82025000Y-61250000D02*
X83284954Y-61250000D01*
X84161500Y-60825000D02*
X83586500Y-60250000D01*
X83284954Y-61250000D02*
X84709465Y-62674511D01*
X85967139Y-61657861D02*
X85874511Y-61565234D01*
X85484766Y-62674511D02*
X85967139Y-62192138D01*
D38*
X121960500Y-67119000D02*
X121960500Y-68210500D01*
D37*
%TO.N,CC1*%
X82025000Y-59750000D02*
X84275000Y-59750000D01*
D38*
%TO.N,CC2*%
X84250000Y-65925000D02*
X84925000Y-66600000D01*
X82575000Y-62750000D02*
X82850000Y-62475000D01*
X83220348Y-62475000D02*
X84250000Y-63504652D01*
X82850000Y-62475000D02*
X83220348Y-62475000D01*
X84250000Y-63504652D02*
X84250000Y-65925000D01*
X82025000Y-62750000D02*
X82575000Y-62750000D01*
%TO.N,RESET*%
X89825480Y-68349520D02*
X89775000Y-68400000D01*
D37*
X104980000Y-58835000D02*
X104980000Y-59655000D01*
X104005000Y-62200000D02*
X104980000Y-63175000D01*
X103925000Y-62200000D02*
X104005000Y-62200000D01*
D38*
X116715966Y-68349520D02*
X117946486Y-67119000D01*
X119420500Y-67119000D02*
X119420500Y-66944000D01*
X117946486Y-67119000D02*
X119420500Y-67119000D01*
X116715966Y-68349520D02*
X89825480Y-68349520D01*
D37*
X80750000Y-68400000D02*
X80750000Y-70225000D01*
X104980000Y-59655000D02*
X105000000Y-59675000D01*
%TO.N,/P1.11*%
X128950000Y-52350000D02*
X128950000Y-51750000D01*
X130850500Y-54881000D02*
X130850500Y-54250500D01*
X130850500Y-54250500D02*
X128950000Y-52350000D01*
%TO.N,/P1.10*%
X126624500Y-51750000D02*
X129580500Y-54706000D01*
X129580500Y-54706000D02*
X129580500Y-54881000D01*
X126410000Y-51750000D02*
X126624500Y-51750000D01*
%TO.N,/P0.03*%
X128310500Y-54135500D02*
X128310500Y-54881000D01*
X127325000Y-53150000D02*
X128310500Y-54135500D01*
X125425000Y-53150000D02*
X127325000Y-53150000D01*
X123870000Y-51750000D02*
X125270000Y-53150000D01*
X125270000Y-53150000D02*
X127325000Y-53150000D01*
%TO.N,/P0.28*%
X127040500Y-54265500D02*
X126374520Y-53599520D01*
X122655000Y-53075000D02*
X121330000Y-51750000D01*
X124550000Y-53075000D02*
X122655000Y-53075000D01*
X127040500Y-54881000D02*
X127040500Y-54265500D01*
X126374520Y-53599520D02*
X125074520Y-53599520D01*
X122655000Y-53075000D02*
X122225000Y-52645000D01*
X125074520Y-53599520D02*
X124550000Y-53075000D01*
%TO.N,/P1.13*%
X124500500Y-54881000D02*
X124500500Y-54150500D01*
X123874520Y-53524520D02*
X120564520Y-53524520D01*
X120564520Y-53524520D02*
X118790000Y-51750000D01*
X124500500Y-54150500D02*
X123874520Y-53524520D01*
%TO.N,/P0.02*%
X123250000Y-54900500D02*
X123230500Y-54881000D01*
X123250000Y-55975000D02*
X123250000Y-54900500D01*
%TO.N,/P0.29*%
X121960500Y-54881000D02*
X121960500Y-55960500D01*
X121960500Y-55960500D02*
X121975000Y-55975000D01*
%TO.N,/P0.31*%
X120690500Y-55965500D02*
X120700000Y-55975000D01*
X120690500Y-54881000D02*
X120690500Y-55965500D01*
%TO.N,/P0.30*%
X119425000Y-55975000D02*
X119425000Y-54885500D01*
X119425000Y-54885500D02*
X119420500Y-54881000D01*
%TO.N,/P0.05*%
X117201500Y-59070000D02*
X116245000Y-59070000D01*
X116245000Y-59070000D02*
X115675000Y-58500000D01*
%TO.N,/P0.10*%
X130850500Y-68384500D02*
X129010000Y-70225000D01*
X130850500Y-67119000D02*
X130850500Y-68384500D01*
D38*
%TO.N,/P1.06*%
X130342500Y-66236902D02*
X130342500Y-65041000D01*
X127345723Y-70225000D02*
X128670723Y-68900000D01*
X130234913Y-66344489D02*
X130342500Y-66236902D01*
X130234913Y-68415087D02*
X130234913Y-67965087D01*
X128670723Y-68900000D02*
X129750000Y-68900000D01*
X130234913Y-68415087D02*
X130234913Y-66344489D01*
X129750000Y-68900000D02*
X130234913Y-68415087D01*
X126470000Y-70225000D02*
X127345723Y-70225000D01*
%TO.N,/P0.09*%
X129580500Y-67495927D02*
X129580500Y-67119000D01*
X124805723Y-70225000D02*
X125930723Y-69100000D01*
X127976427Y-69100000D02*
X129580500Y-67495927D01*
X125930723Y-69100000D02*
X127976427Y-69100000D01*
X123930000Y-70225000D02*
X124805723Y-70225000D01*
D37*
%TO.N,/LED1*%
X103300000Y-66600000D02*
X92550000Y-66600000D01*
%TO.N,Net-(L1-Pad1)*%
X117201500Y-65420000D02*
X116330000Y-65420000D01*
X116330000Y-65420000D02*
X114900000Y-66850000D01*
%TO.N,BATTERY_PIN*%
X102725000Y-56525000D02*
X104175000Y-56525000D01*
X102725000Y-54925000D02*
X102725000Y-56525000D01*
%TO.N,Net-(R6-Pad1)*%
X99840880Y-63750000D02*
X100410000Y-63750000D01*
X98590391Y-62499511D02*
X99840880Y-63750000D01*
X96920391Y-62499511D02*
X96274799Y-61853919D01*
X92325000Y-59925000D02*
X92325000Y-58825000D01*
X92325000Y-58825000D02*
X92325000Y-59300000D01*
X98590391Y-62499511D02*
X96920391Y-62499511D01*
X96274799Y-61853919D02*
X96274799Y-61274799D01*
%TO.N,Net-(R7-Pad2)*%
X96665000Y-64875000D02*
X97790000Y-63750000D01*
X94875000Y-64875000D02*
X96665000Y-64875000D01*
%TO.N,Net-(R8-Pad2)*%
X90700000Y-63975000D02*
X90875000Y-64150000D01*
X89050000Y-63975000D02*
X90700000Y-63975000D01*
%TO.N,Net-(U1-Pad11)*%
X117201500Y-56530000D02*
X116155000Y-56530000D01*
X116155000Y-56530000D02*
X114850000Y-55225000D01*
%TO.N,Net-(U1-Pad13)*%
X115990880Y-57800000D02*
X113450000Y-55259120D01*
X113450000Y-55259120D02*
X113450000Y-55225000D01*
X117201500Y-57800000D02*
X115990880Y-57800000D01*
D38*
%TO.N,/P1.09*%
X117201500Y-60340000D02*
X115540000Y-60340000D01*
X115540000Y-60340000D02*
X115425000Y-60225000D01*
%TO.N,/P0.13*%
X124500500Y-68224500D02*
X124475000Y-68250000D01*
X124500500Y-67119000D02*
X124500500Y-68224500D01*
%TO.N,/P0.24*%
X124875000Y-68975000D02*
X117560000Y-68975000D01*
X125770500Y-67119000D02*
X125770500Y-68079500D01*
X117560000Y-68975000D02*
X116310000Y-70225000D01*
X125770500Y-68079500D02*
X124875000Y-68975000D01*
%TD*%
%TA.AperFunction,Conductor*%
%TO.N,VCC*%
G36*
X82463724Y-67253502D02*
G01*
X82499442Y-67288132D01*
X82531596Y-67334915D01*
X82539796Y-67346846D01*
X82545466Y-67351898D01*
X82545467Y-67351899D01*
X82662123Y-67455836D01*
X82662125Y-67455838D01*
X82667796Y-67460890D01*
X82674505Y-67464442D01*
X82674509Y-67464445D01*
X82812589Y-67537555D01*
X82812592Y-67537556D01*
X82819304Y-67541110D01*
X82826673Y-67542961D01*
X82868588Y-67553489D01*
X82985575Y-67582874D01*
X82991338Y-67583237D01*
X82991341Y-67583237D01*
X82993530Y-67583375D01*
X82993546Y-67583376D01*
X82995525Y-67583500D01*
X83310406Y-67583500D01*
X83378527Y-67603502D01*
X83399501Y-67620405D01*
X84416609Y-68637513D01*
X84423969Y-68645601D01*
X84428027Y-68651995D01*
X84433804Y-68657420D01*
X84476878Y-68697869D01*
X84479720Y-68700624D01*
X84500034Y-68720938D01*
X84503445Y-68723583D01*
X84512465Y-68731287D01*
X84544699Y-68761557D01*
X84551643Y-68765374D01*
X84551645Y-68765376D01*
X84562453Y-68771318D01*
X84578977Y-68782172D01*
X84594977Y-68794583D01*
X84602248Y-68797730D01*
X84602249Y-68797730D01*
X84635551Y-68812141D01*
X84646207Y-68817362D01*
X84684952Y-68838662D01*
X84692635Y-68840634D01*
X84692636Y-68840635D01*
X84704568Y-68843699D01*
X84723272Y-68850103D01*
X84734585Y-68854999D01*
X84734592Y-68855001D01*
X84741864Y-68858148D01*
X84749688Y-68859387D01*
X84749691Y-68859388D01*
X84785535Y-68865065D01*
X84797156Y-68867472D01*
X84834218Y-68876987D01*
X84839975Y-68878465D01*
X84840531Y-68878500D01*
X84860452Y-68878500D01*
X84880162Y-68880051D01*
X84892114Y-68881944D01*
X84892115Y-68881944D01*
X84899944Y-68883184D01*
X84907836Y-68882438D01*
X84943582Y-68879059D01*
X84955440Y-68878500D01*
X84979537Y-68878500D01*
X85047658Y-68898502D01*
X85094151Y-68952158D01*
X85104255Y-69022432D01*
X85074761Y-69087012D01*
X85044902Y-69112219D01*
X85026631Y-69123306D01*
X85022601Y-69126803D01*
X84912739Y-69222136D01*
X84852492Y-69274415D01*
X84849109Y-69278541D01*
X84849105Y-69278545D01*
X84796903Y-69342211D01*
X84706304Y-69452705D01*
X84669842Y-69516760D01*
X84618760Y-69566066D01*
X84549130Y-69579928D01*
X84483059Y-69553945D01*
X84455820Y-69524795D01*
X84355218Y-69375366D01*
X84348557Y-69367080D01*
X84196830Y-69208030D01*
X84188873Y-69200990D01*
X84012523Y-69069782D01*
X84003486Y-69064178D01*
X83807550Y-68964559D01*
X83797699Y-68960559D01*
X83587778Y-68895378D01*
X83577396Y-68893095D01*
X83561959Y-68891049D01*
X83547792Y-68893246D01*
X83544000Y-68906430D01*
X83544000Y-70353000D01*
X83523998Y-70421121D01*
X83470342Y-70467614D01*
X83418000Y-70479000D01*
X83162000Y-70479000D01*
X83093879Y-70458998D01*
X83047386Y-70405342D01*
X83036000Y-70353000D01*
X83036000Y-68908717D01*
X83032027Y-68895186D01*
X83021420Y-68893661D01*
X82903554Y-68918391D01*
X82893358Y-68921451D01*
X82688932Y-69002182D01*
X82679396Y-69006916D01*
X82491486Y-69120942D01*
X82482896Y-69127206D01*
X82316884Y-69271264D01*
X82309472Y-69278886D01*
X82307513Y-69281276D01*
X82306431Y-69282014D01*
X82305749Y-69282715D01*
X82305606Y-69282576D01*
X82248855Y-69321273D01*
X82177885Y-69323209D01*
X82117135Y-69286468D01*
X82089178Y-69236888D01*
X82069635Y-69170330D01*
X82069634Y-69170328D01*
X82067096Y-69161684D01*
X82005713Y-69066171D01*
X81992949Y-69046309D01*
X81992947Y-69046306D01*
X81988077Y-69038729D01*
X81981267Y-69032828D01*
X81884431Y-68948918D01*
X81884428Y-68948916D01*
X81877619Y-68943016D01*
X81855731Y-68933020D01*
X81752864Y-68886042D01*
X81752863Y-68886042D01*
X81744670Y-68882300D01*
X81735755Y-68881018D01*
X81735754Y-68881018D01*
X81710262Y-68877353D01*
X81705449Y-68876661D01*
X81640868Y-68847168D01*
X81602484Y-68787442D01*
X81603547Y-68713007D01*
X81641498Y-68596206D01*
X81641498Y-68596205D01*
X81643538Y-68589927D01*
X81652122Y-68508260D01*
X81662810Y-68406565D01*
X81663500Y-68400000D01*
X81662081Y-68386500D01*
X81644228Y-68216637D01*
X81644228Y-68216636D01*
X81643538Y-68210073D01*
X81618126Y-68131861D01*
X81594677Y-68059695D01*
X81584524Y-68028446D01*
X81511962Y-67902765D01*
X81495224Y-67833770D01*
X81518444Y-67766678D01*
X81574252Y-67722791D01*
X81590319Y-67718075D01*
X81590285Y-67717960D01*
X81792049Y-67658769D01*
X81792051Y-67658768D01*
X81797802Y-67657081D01*
X81811846Y-67649848D01*
X81984733Y-67560806D01*
X81984736Y-67560804D01*
X81990064Y-67558060D01*
X82057616Y-67504997D01*
X82155415Y-67428176D01*
X82155420Y-67428172D01*
X82160132Y-67424470D01*
X82166048Y-67417653D01*
X82282911Y-67282979D01*
X82288169Y-67276920D01*
X82347923Y-67238579D01*
X82383335Y-67233500D01*
X82395603Y-67233500D01*
X82463724Y-67253502D01*
G37*
%TD.AperFunction*%
%TA.AperFunction,Conductor*%
G36*
X96126121Y-51516002D02*
G01*
X96172614Y-51569658D01*
X96184000Y-51622000D01*
X96184000Y-53069941D01*
X96188151Y-53084079D01*
X96198798Y-53085774D01*
X96202192Y-53085096D01*
X96413333Y-53023954D01*
X96423259Y-53020143D01*
X96621065Y-52924307D01*
X96630212Y-52918876D01*
X96809041Y-52791083D01*
X96817149Y-52784182D01*
X96971893Y-52628082D01*
X96978706Y-52619934D01*
X97097368Y-52450781D01*
X97152864Y-52406501D01*
X97223489Y-52399254D01*
X97286822Y-52431340D01*
X97311196Y-52462923D01*
X97329133Y-52495890D01*
X97331685Y-52500580D01*
X97474424Y-52681644D01*
X97478389Y-52685220D01*
X97641659Y-52832489D01*
X97641665Y-52832494D01*
X97645629Y-52836069D01*
X97650142Y-52838928D01*
X97650144Y-52838929D01*
X97711228Y-52877619D01*
X97840406Y-52959439D01*
X98053184Y-53048228D01*
X98058387Y-53049425D01*
X98058392Y-53049426D01*
X98272678Y-53098701D01*
X98272683Y-53098702D01*
X98277881Y-53099897D01*
X98283209Y-53100200D01*
X98283212Y-53100200D01*
X98433877Y-53108755D01*
X98508071Y-53112968D01*
X98513378Y-53112368D01*
X98513380Y-53112368D01*
X98687354Y-53092700D01*
X98737173Y-53087068D01*
X98742288Y-53085587D01*
X98742292Y-53085586D01*
X98867161Y-53049426D01*
X98958635Y-53022937D01*
X99166125Y-52922409D01*
X99170463Y-52919309D01*
X99170468Y-52919306D01*
X99349370Y-52791459D01*
X99353711Y-52788357D01*
X99516030Y-52624617D01*
X99519090Y-52620255D01*
X99519095Y-52620249D01*
X99637634Y-52451271D01*
X99693130Y-52406990D01*
X99763755Y-52399743D01*
X99827088Y-52431829D01*
X99851461Y-52463410D01*
X99871685Y-52500580D01*
X100014424Y-52681644D01*
X100018389Y-52685220D01*
X100181659Y-52832489D01*
X100181665Y-52832494D01*
X100185629Y-52836069D01*
X100190142Y-52838928D01*
X100190144Y-52838929D01*
X100251228Y-52877619D01*
X100380406Y-52959439D01*
X100593184Y-53048228D01*
X100598387Y-53049425D01*
X100598392Y-53049426D01*
X100812678Y-53098701D01*
X100812683Y-53098702D01*
X100817881Y-53099897D01*
X100823209Y-53100200D01*
X100823212Y-53100200D01*
X100973877Y-53108755D01*
X101048071Y-53112968D01*
X101053378Y-53112368D01*
X101053380Y-53112368D01*
X101227354Y-53092700D01*
X101277173Y-53087068D01*
X101282288Y-53085587D01*
X101282292Y-53085586D01*
X101407161Y-53049426D01*
X101498635Y-53022937D01*
X101706125Y-52922409D01*
X101710463Y-52919309D01*
X101710468Y-52919306D01*
X101889370Y-52791459D01*
X101893711Y-52788357D01*
X102056030Y-52624617D01*
X102059090Y-52620255D01*
X102059095Y-52620249D01*
X102177634Y-52451271D01*
X102233130Y-52406990D01*
X102303755Y-52399743D01*
X102367088Y-52431829D01*
X102391461Y-52463410D01*
X102411685Y-52500580D01*
X102554424Y-52681644D01*
X102558389Y-52685220D01*
X102721659Y-52832489D01*
X102721665Y-52832494D01*
X102725629Y-52836069D01*
X102730142Y-52838928D01*
X102730144Y-52838929D01*
X102791228Y-52877619D01*
X102920406Y-52959439D01*
X103133184Y-53048228D01*
X103138387Y-53049425D01*
X103138392Y-53049426D01*
X103352678Y-53098701D01*
X103352683Y-53098702D01*
X103357881Y-53099897D01*
X103363209Y-53100200D01*
X103363212Y-53100200D01*
X103513877Y-53108755D01*
X103588071Y-53112968D01*
X103593378Y-53112368D01*
X103593380Y-53112368D01*
X103767354Y-53092700D01*
X103817173Y-53087068D01*
X103822288Y-53085587D01*
X103822292Y-53085586D01*
X103947161Y-53049426D01*
X104038635Y-53022937D01*
X104246125Y-52922409D01*
X104250463Y-52919309D01*
X104250468Y-52919306D01*
X104429370Y-52791459D01*
X104433711Y-52788357D01*
X104596030Y-52624617D01*
X104599090Y-52620255D01*
X104599095Y-52620249D01*
X104717634Y-52451271D01*
X104773130Y-52406990D01*
X104843755Y-52399743D01*
X104907088Y-52431829D01*
X104931461Y-52463410D01*
X104951685Y-52500580D01*
X105094424Y-52681644D01*
X105098389Y-52685220D01*
X105261659Y-52832489D01*
X105261665Y-52832494D01*
X105265629Y-52836069D01*
X105270142Y-52838928D01*
X105270144Y-52838929D01*
X105331228Y-52877619D01*
X105460406Y-52959439D01*
X105673184Y-53048228D01*
X105678387Y-53049425D01*
X105678392Y-53049426D01*
X105892678Y-53098701D01*
X105892683Y-53098702D01*
X105897881Y-53099897D01*
X105903209Y-53100200D01*
X105903212Y-53100200D01*
X106053877Y-53108755D01*
X106128071Y-53112968D01*
X106133378Y-53112368D01*
X106133380Y-53112368D01*
X106307354Y-53092700D01*
X106357173Y-53087068D01*
X106362288Y-53085587D01*
X106362292Y-53085586D01*
X106487161Y-53049426D01*
X106578635Y-53022937D01*
X106786125Y-52922409D01*
X106790463Y-52919309D01*
X106790468Y-52919306D01*
X106969370Y-52791459D01*
X106973711Y-52788357D01*
X107136030Y-52624617D01*
X107139090Y-52620255D01*
X107139095Y-52620249D01*
X107257634Y-52451271D01*
X107313130Y-52406990D01*
X107383755Y-52399743D01*
X107447088Y-52431829D01*
X107471461Y-52463410D01*
X107491685Y-52500580D01*
X107634424Y-52681644D01*
X107638389Y-52685220D01*
X107801659Y-52832489D01*
X107801665Y-52832494D01*
X107805629Y-52836069D01*
X107810142Y-52838928D01*
X107810144Y-52838929D01*
X107871228Y-52877619D01*
X108000406Y-52959439D01*
X108213184Y-53048228D01*
X108218387Y-53049425D01*
X108218392Y-53049426D01*
X108432678Y-53098701D01*
X108432683Y-53098702D01*
X108437881Y-53099897D01*
X108443209Y-53100200D01*
X108443212Y-53100200D01*
X108593877Y-53108755D01*
X108668071Y-53112968D01*
X108673378Y-53112368D01*
X108673380Y-53112368D01*
X108847354Y-53092700D01*
X108897173Y-53087068D01*
X108902288Y-53085587D01*
X108902292Y-53085586D01*
X109027161Y-53049426D01*
X109118635Y-53022937D01*
X109326125Y-52922409D01*
X109330463Y-52919309D01*
X109330468Y-52919306D01*
X109509370Y-52791459D01*
X109513711Y-52788357D01*
X109676030Y-52624617D01*
X109679090Y-52620255D01*
X109679095Y-52620249D01*
X109797634Y-52451271D01*
X109853130Y-52406990D01*
X109923755Y-52399743D01*
X109987088Y-52431829D01*
X110011461Y-52463410D01*
X110031685Y-52500580D01*
X110174424Y-52681644D01*
X110178389Y-52685220D01*
X110341659Y-52832489D01*
X110341665Y-52832494D01*
X110345629Y-52836069D01*
X110350142Y-52838928D01*
X110350144Y-52838929D01*
X110411228Y-52877619D01*
X110540406Y-52959439D01*
X110753184Y-53048228D01*
X110758387Y-53049425D01*
X110758392Y-53049426D01*
X110972678Y-53098701D01*
X110972683Y-53098702D01*
X110977881Y-53099897D01*
X110983209Y-53100200D01*
X110983212Y-53100200D01*
X111133877Y-53108755D01*
X111208071Y-53112968D01*
X111213378Y-53112368D01*
X111213380Y-53112368D01*
X111387354Y-53092700D01*
X111437173Y-53087068D01*
X111442288Y-53085587D01*
X111442292Y-53085586D01*
X111567161Y-53049426D01*
X111658635Y-53022937D01*
X111866125Y-52922409D01*
X111870463Y-52919309D01*
X111870468Y-52919306D01*
X112049370Y-52791459D01*
X112053711Y-52788357D01*
X112216030Y-52624617D01*
X112219090Y-52620255D01*
X112219095Y-52620249D01*
X112337634Y-52451271D01*
X112393130Y-52406990D01*
X112463755Y-52399743D01*
X112527088Y-52431829D01*
X112551461Y-52463410D01*
X112571685Y-52500580D01*
X112714424Y-52681644D01*
X112718389Y-52685220D01*
X112881659Y-52832489D01*
X112881665Y-52832494D01*
X112885629Y-52836069D01*
X112890142Y-52838928D01*
X112890144Y-52838929D01*
X112951228Y-52877619D01*
X113080406Y-52959439D01*
X113293184Y-53048228D01*
X113298387Y-53049425D01*
X113298392Y-53049426D01*
X113512678Y-53098701D01*
X113512683Y-53098702D01*
X113517881Y-53099897D01*
X113523209Y-53100200D01*
X113523212Y-53100200D01*
X113673877Y-53108755D01*
X113748071Y-53112968D01*
X113753378Y-53112368D01*
X113753380Y-53112368D01*
X113927354Y-53092700D01*
X113977173Y-53087068D01*
X113982288Y-53085587D01*
X113982292Y-53085586D01*
X114107161Y-53049426D01*
X114198635Y-53022937D01*
X114406125Y-52922409D01*
X114410463Y-52919309D01*
X114410468Y-52919306D01*
X114589370Y-52791459D01*
X114593711Y-52788357D01*
X114756030Y-52624617D01*
X114759090Y-52620255D01*
X114759095Y-52620249D01*
X114877634Y-52451271D01*
X114933130Y-52406990D01*
X115003755Y-52399743D01*
X115067088Y-52431829D01*
X115091461Y-52463410D01*
X115111685Y-52500580D01*
X115254424Y-52681644D01*
X115258389Y-52685220D01*
X115421659Y-52832489D01*
X115421665Y-52832494D01*
X115425629Y-52836069D01*
X115430142Y-52838928D01*
X115430144Y-52838929D01*
X115491228Y-52877619D01*
X115620406Y-52959439D01*
X115833184Y-53048228D01*
X115838387Y-53049425D01*
X115838392Y-53049426D01*
X116052678Y-53098701D01*
X116052683Y-53098702D01*
X116057881Y-53099897D01*
X116063209Y-53100200D01*
X116063212Y-53100200D01*
X116213877Y-53108755D01*
X116288071Y-53112968D01*
X116293378Y-53112368D01*
X116293380Y-53112368D01*
X116467354Y-53092700D01*
X116517173Y-53087068D01*
X116522288Y-53085587D01*
X116522292Y-53085586D01*
X116647161Y-53049426D01*
X116738635Y-53022937D01*
X116946125Y-52922409D01*
X116950463Y-52919309D01*
X116950468Y-52919306D01*
X117129370Y-52791459D01*
X117133711Y-52788357D01*
X117296030Y-52624617D01*
X117299090Y-52620255D01*
X117299095Y-52620249D01*
X117417634Y-52451271D01*
X117473130Y-52406990D01*
X117543755Y-52399743D01*
X117607088Y-52431829D01*
X117631461Y-52463410D01*
X117651685Y-52500580D01*
X117794424Y-52681644D01*
X117798389Y-52685220D01*
X117961659Y-52832489D01*
X117961665Y-52832494D01*
X117965629Y-52836069D01*
X117970142Y-52838928D01*
X117970144Y-52838929D01*
X118031228Y-52877619D01*
X118160406Y-52959439D01*
X118373184Y-53048228D01*
X118378387Y-53049425D01*
X118378392Y-53049426D01*
X118592678Y-53098701D01*
X118592683Y-53098702D01*
X118597881Y-53099897D01*
X118603209Y-53100200D01*
X118603212Y-53100200D01*
X118753877Y-53108755D01*
X118828071Y-53112968D01*
X118833378Y-53112368D01*
X118833380Y-53112368D01*
X119007354Y-53092700D01*
X119057173Y-53087068D01*
X119062290Y-53085586D01*
X119062296Y-53085585D01*
X119120592Y-53068704D01*
X119191588Y-53068969D01*
X119244733Y-53100637D01*
X119796501Y-53652405D01*
X119830527Y-53714717D01*
X119825462Y-53785532D01*
X119782915Y-53842368D01*
X119716395Y-53867179D01*
X119707406Y-53867500D01*
X119095500Y-53867500D01*
X119022421Y-53872727D01*
X118969384Y-53888300D01*
X118890830Y-53911365D01*
X118890828Y-53911366D01*
X118882184Y-53913904D01*
X118874605Y-53918775D01*
X118766809Y-53988051D01*
X118766806Y-53988053D01*
X118759229Y-53992923D01*
X118753328Y-53999733D01*
X118669418Y-54096569D01*
X118669416Y-54096572D01*
X118663516Y-54103381D01*
X118659772Y-54111579D01*
X118624857Y-54188033D01*
X118602800Y-54236330D01*
X118601518Y-54245245D01*
X118601518Y-54245246D01*
X118582639Y-54376552D01*
X118582638Y-54376559D01*
X118582000Y-54381000D01*
X118582000Y-55381000D01*
X118587227Y-55454079D01*
X118598318Y-55491850D01*
X118602199Y-55505069D01*
X118602199Y-55576065D01*
X118596410Y-55591815D01*
X118593777Y-55597728D01*
X118590476Y-55603446D01*
X118588436Y-55609725D01*
X118588435Y-55609727D01*
X118534735Y-55775000D01*
X118531462Y-55785073D01*
X118530772Y-55791636D01*
X118530772Y-55791637D01*
X118516068Y-55931539D01*
X118511500Y-55975000D01*
X118512190Y-55981565D01*
X118527444Y-56126694D01*
X118531462Y-56164927D01*
X118533502Y-56171206D01*
X118534594Y-56176342D01*
X118529194Y-56247133D01*
X118486378Y-56303766D01*
X118415847Y-56328461D01*
X118414755Y-56328500D01*
X118412500Y-56328500D01*
X118410249Y-56328661D01*
X118349989Y-56332971D01*
X118280615Y-56317880D01*
X118230413Y-56267678D01*
X118215558Y-56209480D01*
X118215080Y-56209497D01*
X118215001Y-56207298D01*
X118215000Y-56207292D01*
X118215000Y-56205000D01*
X118209773Y-56131921D01*
X118168596Y-55991684D01*
X118118994Y-55914502D01*
X118094449Y-55876309D01*
X118094447Y-55876306D01*
X118089577Y-55868729D01*
X118073228Y-55854562D01*
X117985931Y-55778918D01*
X117985928Y-55778916D01*
X117979119Y-55773016D01*
X117913490Y-55743044D01*
X117854364Y-55716042D01*
X117854363Y-55716042D01*
X117846170Y-55712300D01*
X117837255Y-55711018D01*
X117837254Y-55711018D01*
X117705948Y-55692139D01*
X117705941Y-55692138D01*
X117701500Y-55691500D01*
X116701500Y-55691500D01*
X116628421Y-55696727D01*
X116553250Y-55718799D01*
X116496830Y-55735365D01*
X116496828Y-55735366D01*
X116488184Y-55737904D01*
X116480603Y-55742776D01*
X116480601Y-55742777D01*
X116433964Y-55772748D01*
X116365843Y-55792750D01*
X116297723Y-55772748D01*
X116276749Y-55755845D01*
X115700405Y-55179501D01*
X115666379Y-55117189D01*
X115663500Y-55090406D01*
X115663500Y-54675000D01*
X115658273Y-54601921D01*
X115631482Y-54510677D01*
X115619635Y-54470330D01*
X115619634Y-54470328D01*
X115617096Y-54461684D01*
X115592574Y-54423528D01*
X115542949Y-54346309D01*
X115542947Y-54346306D01*
X115538077Y-54338729D01*
X115529889Y-54331634D01*
X115434431Y-54248918D01*
X115434428Y-54248916D01*
X115427619Y-54243016D01*
X115415707Y-54237576D01*
X115302864Y-54186042D01*
X115302863Y-54186042D01*
X115294670Y-54182300D01*
X115285755Y-54181018D01*
X115285754Y-54181018D01*
X115154448Y-54162139D01*
X115154441Y-54162138D01*
X115150000Y-54161500D01*
X114550000Y-54161500D01*
X114476921Y-54166727D01*
X114423884Y-54182300D01*
X114345330Y-54205365D01*
X114345328Y-54205366D01*
X114336684Y-54207904D01*
X114329106Y-54212774D01*
X114329104Y-54212775D01*
X114215314Y-54285904D01*
X114147193Y-54305906D01*
X114079072Y-54285904D01*
X114064680Y-54275130D01*
X114060489Y-54271498D01*
X114027619Y-54243016D01*
X114015707Y-54237576D01*
X113902864Y-54186042D01*
X113902863Y-54186042D01*
X113894670Y-54182300D01*
X113885755Y-54181018D01*
X113885754Y-54181018D01*
X113754448Y-54162139D01*
X113754441Y-54162138D01*
X113750000Y-54161500D01*
X113150000Y-54161500D01*
X113076921Y-54166727D01*
X113023884Y-54182300D01*
X112945330Y-54205365D01*
X112945328Y-54205366D01*
X112936684Y-54207904D01*
X112929105Y-54212775D01*
X112821309Y-54282051D01*
X112821306Y-54282053D01*
X112813729Y-54286923D01*
X112807828Y-54293733D01*
X112723918Y-54390569D01*
X112723916Y-54390572D01*
X112718016Y-54397381D01*
X112714272Y-54405579D01*
X112697667Y-54441940D01*
X112657300Y-54530330D01*
X112656018Y-54539245D01*
X112656018Y-54539246D01*
X112637139Y-54670552D01*
X112637138Y-54670559D01*
X112636500Y-54675000D01*
X112636500Y-55775000D01*
X112641727Y-55848079D01*
X112656164Y-55897246D01*
X112674619Y-55960098D01*
X112682904Y-55988316D01*
X112698302Y-56012275D01*
X112757051Y-56103691D01*
X112757053Y-56103694D01*
X112761923Y-56111271D01*
X112768733Y-56117172D01*
X112865569Y-56201082D01*
X112865572Y-56201084D01*
X112872381Y-56206984D01*
X112880579Y-56210728D01*
X112988934Y-56260212D01*
X113005330Y-56267700D01*
X113014245Y-56268982D01*
X113014246Y-56268982D01*
X113145552Y-56287861D01*
X113145559Y-56287862D01*
X113150000Y-56288500D01*
X113531286Y-56288500D01*
X113599407Y-56308502D01*
X113620381Y-56325405D01*
X115004011Y-57709035D01*
X115038037Y-57771347D01*
X115032972Y-57842162D01*
X115008555Y-57882437D01*
X114935963Y-57963058D01*
X114888273Y-58045660D01*
X114859693Y-58095162D01*
X114840476Y-58128446D01*
X114829885Y-58161043D01*
X114786586Y-58294304D01*
X114781462Y-58310073D01*
X114761500Y-58500000D01*
X114762190Y-58506565D01*
X114776373Y-58641504D01*
X114781462Y-58689927D01*
X114783502Y-58696205D01*
X114783502Y-58696206D01*
X114800289Y-58747870D01*
X114840476Y-58871554D01*
X114843779Y-58877276D01*
X114843780Y-58877277D01*
X114858677Y-58903079D01*
X114935963Y-59036942D01*
X114940381Y-59041849D01*
X114940382Y-59041850D01*
X115054584Y-59168684D01*
X115063749Y-59178863D01*
X115069093Y-59182746D01*
X115074000Y-59187164D01*
X115073062Y-59188206D01*
X115111897Y-59238568D01*
X115117973Y-59309304D01*
X115084841Y-59372096D01*
X115045731Y-59399389D01*
X114974280Y-59431201D01*
X114974278Y-59431202D01*
X114968250Y-59433886D01*
X114962909Y-59437766D01*
X114962908Y-59437767D01*
X114819093Y-59542254D01*
X114819091Y-59542256D01*
X114813749Y-59546137D01*
X114809328Y-59551047D01*
X114809327Y-59551048D01*
X114734740Y-59633886D01*
X114685963Y-59688058D01*
X114610306Y-59819099D01*
X114598619Y-59839342D01*
X114547236Y-59888335D01*
X114477523Y-59901771D01*
X114411612Y-59875385D01*
X114370430Y-59817552D01*
X114363500Y-59776342D01*
X114363500Y-59360000D01*
X114358273Y-59286921D01*
X114317096Y-59146684D01*
X114313631Y-59141293D01*
X114303716Y-59072317D01*
X114313819Y-59037911D01*
X114338958Y-58982864D01*
X114342700Y-58974670D01*
X114345114Y-58957883D01*
X114362861Y-58834448D01*
X114362862Y-58834441D01*
X114363500Y-58830000D01*
X114363500Y-58090000D01*
X114358273Y-58016921D01*
X114326217Y-57907746D01*
X114319635Y-57885330D01*
X114319634Y-57885328D01*
X114317096Y-57876684D01*
X114269752Y-57803016D01*
X114242949Y-57761309D01*
X114242947Y-57761306D01*
X114238077Y-57753729D01*
X114216547Y-57735073D01*
X114134431Y-57663918D01*
X114134428Y-57663916D01*
X114127619Y-57658016D01*
X114077806Y-57635267D01*
X114002864Y-57601042D01*
X114002863Y-57601042D01*
X113994670Y-57597300D01*
X113985755Y-57596018D01*
X113985754Y-57596018D01*
X113854448Y-57577139D01*
X113854441Y-57577138D01*
X113850000Y-57576500D01*
X112805759Y-57576500D01*
X112779562Y-57573746D01*
X112751953Y-57567877D01*
X112751940Y-57567876D01*
X112745487Y-57566504D01*
X112554513Y-57566504D01*
X112548060Y-57567876D01*
X112548047Y-57567877D01*
X112520438Y-57573746D01*
X112494241Y-57576500D01*
X111450000Y-57576500D01*
X111376921Y-57581727D01*
X111326425Y-57596554D01*
X111245330Y-57620365D01*
X111245328Y-57620366D01*
X111236684Y-57622904D01*
X111217508Y-57635228D01*
X111121309Y-57697051D01*
X111121306Y-57697053D01*
X111113729Y-57701923D01*
X111107828Y-57708733D01*
X111023918Y-57805569D01*
X111023916Y-57805572D01*
X111018016Y-57812381D01*
X111014272Y-57820579D01*
X110965693Y-57926953D01*
X110957300Y-57945330D01*
X110956018Y-57954245D01*
X110956018Y-57954246D01*
X110937139Y-58085552D01*
X110937139Y-58085554D01*
X110936500Y-58090000D01*
X110936500Y-58830000D01*
X110941727Y-58903079D01*
X110982904Y-59043316D01*
X110986369Y-59048707D01*
X110996284Y-59117683D01*
X110986181Y-59152089D01*
X110972647Y-59181725D01*
X110957300Y-59215330D01*
X110956018Y-59224245D01*
X110956018Y-59224246D01*
X110937139Y-59355552D01*
X110937138Y-59355559D01*
X110936500Y-59360000D01*
X110936500Y-60100000D01*
X110941727Y-60173079D01*
X110982904Y-60313316D01*
X110986369Y-60318707D01*
X110996284Y-60387683D01*
X110986181Y-60422089D01*
X110964849Y-60468799D01*
X110957300Y-60485330D01*
X110956018Y-60494245D01*
X110956018Y-60494246D01*
X110937139Y-60625552D01*
X110937138Y-60625559D01*
X110936500Y-60630000D01*
X110936500Y-61370000D01*
X110941727Y-61443079D01*
X110982904Y-61583316D01*
X110986369Y-61588707D01*
X110996284Y-61657683D01*
X110986181Y-61692089D01*
X110978555Y-61708788D01*
X110957300Y-61755330D01*
X110956018Y-61764245D01*
X110956018Y-61764246D01*
X110937139Y-61895552D01*
X110937138Y-61895559D01*
X110936500Y-61900000D01*
X110936500Y-62640000D01*
X110941727Y-62713079D01*
X110982904Y-62853316D01*
X110986369Y-62858707D01*
X110996284Y-62927683D01*
X110986181Y-62962089D01*
X110965428Y-63007533D01*
X110957300Y-63025330D01*
X110956018Y-63034245D01*
X110956018Y-63034246D01*
X110937139Y-63165552D01*
X110937138Y-63165559D01*
X110936500Y-63170000D01*
X110936500Y-63910000D01*
X110941727Y-63983079D01*
X110961976Y-64052042D01*
X110978071Y-64106855D01*
X110982904Y-64123316D01*
X111006308Y-64159733D01*
X111057051Y-64238691D01*
X111057053Y-64238694D01*
X111061923Y-64246271D01*
X111068733Y-64252172D01*
X111165569Y-64336082D01*
X111165572Y-64336084D01*
X111172381Y-64341984D01*
X111180579Y-64345728D01*
X111289915Y-64395660D01*
X111305330Y-64402700D01*
X111314245Y-64403982D01*
X111314246Y-64403982D01*
X111445552Y-64422861D01*
X111445559Y-64422862D01*
X111450000Y-64423500D01*
X113850000Y-64423500D01*
X113923079Y-64418273D01*
X114010466Y-64392614D01*
X114054670Y-64379635D01*
X114054672Y-64379634D01*
X114063316Y-64377096D01*
X114135649Y-64330610D01*
X114178691Y-64302949D01*
X114178694Y-64302947D01*
X114186271Y-64298077D01*
X114212593Y-64267700D01*
X114276082Y-64194431D01*
X114276084Y-64194428D01*
X114281984Y-64187619D01*
X114297845Y-64152889D01*
X114338958Y-64062864D01*
X114338958Y-64062863D01*
X114342700Y-64054670D01*
X114346583Y-64027661D01*
X114362861Y-63914448D01*
X114362862Y-63914441D01*
X114363500Y-63910000D01*
X114363500Y-63170000D01*
X114358273Y-63096921D01*
X114317096Y-62956684D01*
X114313631Y-62951293D01*
X114303716Y-62882317D01*
X114313819Y-62847911D01*
X114338958Y-62792864D01*
X114342700Y-62784670D01*
X114351093Y-62726293D01*
X114362861Y-62644448D01*
X114362862Y-62644441D01*
X114363500Y-62640000D01*
X114363500Y-61900000D01*
X114358273Y-61826921D01*
X114317096Y-61686684D01*
X114313631Y-61681293D01*
X114303716Y-61612317D01*
X114313819Y-61577911D01*
X114338958Y-61522864D01*
X114342700Y-61514670D01*
X114347441Y-61481694D01*
X114362861Y-61374448D01*
X114362862Y-61374441D01*
X114363500Y-61370000D01*
X114363500Y-60673658D01*
X114383502Y-60605537D01*
X114437158Y-60559044D01*
X114507432Y-60548940D01*
X114572012Y-60578434D01*
X114598619Y-60610658D01*
X114685963Y-60761942D01*
X114690381Y-60766849D01*
X114690382Y-60766850D01*
X114727753Y-60808355D01*
X114813749Y-60903863D01*
X114819091Y-60907744D01*
X114819093Y-60907746D01*
X114960528Y-61010504D01*
X114968250Y-61016114D01*
X114974278Y-61018798D01*
X114974280Y-61018799D01*
X115136682Y-61091105D01*
X115142713Y-61093790D01*
X115210050Y-61108103D01*
X115323056Y-61132124D01*
X115323061Y-61132124D01*
X115329513Y-61133496D01*
X115520487Y-61133496D01*
X115526939Y-61132124D01*
X115526944Y-61132124D01*
X115639950Y-61108103D01*
X115707287Y-61093790D01*
X115713318Y-61091105D01*
X115875720Y-61018799D01*
X115875722Y-61018798D01*
X115881750Y-61016114D01*
X115976103Y-60947563D01*
X116050163Y-60923500D01*
X116112307Y-60923500D01*
X116180428Y-60943502D01*
X116226921Y-60997158D01*
X116237025Y-61067432D01*
X116226921Y-61101842D01*
X116213023Y-61132275D01*
X116207998Y-61149388D01*
X116189139Y-61280554D01*
X116188500Y-61289495D01*
X116188500Y-61337885D01*
X116192975Y-61353124D01*
X116194365Y-61354329D01*
X116202048Y-61356000D01*
X117329500Y-61356000D01*
X117397621Y-61376002D01*
X117444114Y-61429658D01*
X117455500Y-61482000D01*
X117455500Y-61738000D01*
X117435498Y-61806121D01*
X117381842Y-61852614D01*
X117329500Y-61864000D01*
X116206615Y-61864000D01*
X116191376Y-61868475D01*
X116190171Y-61869865D01*
X116188500Y-61877548D01*
X116188500Y-61932743D01*
X116188661Y-61937250D01*
X116193240Y-62001269D01*
X116195626Y-62014491D01*
X116232319Y-62139458D01*
X116239732Y-62155691D01*
X116252435Y-62175457D01*
X116272436Y-62243578D01*
X116261050Y-62295918D01*
X116233516Y-62356210D01*
X116208800Y-62410330D01*
X116207518Y-62419245D01*
X116207518Y-62419246D01*
X116188639Y-62550552D01*
X116188638Y-62550559D01*
X116188000Y-62555000D01*
X116188000Y-63205000D01*
X116193227Y-63278079D01*
X116195131Y-63284562D01*
X116224543Y-63384731D01*
X116234404Y-63418316D01*
X116239275Y-63425895D01*
X116252508Y-63446486D01*
X116272510Y-63514606D01*
X116261124Y-63566949D01*
X116213023Y-63672275D01*
X116207998Y-63689388D01*
X116189139Y-63820554D01*
X116188500Y-63829495D01*
X116188500Y-63877885D01*
X116192975Y-63893124D01*
X116194365Y-63894329D01*
X116202048Y-63896000D01*
X117329500Y-63896000D01*
X117397621Y-63916002D01*
X117444114Y-63969658D01*
X117455500Y-64022000D01*
X117455500Y-64278000D01*
X117435498Y-64346121D01*
X117381842Y-64392614D01*
X117329500Y-64404000D01*
X116206615Y-64404000D01*
X116191376Y-64408475D01*
X116190171Y-64409865D01*
X116188500Y-64417548D01*
X116188500Y-64472743D01*
X116188661Y-64477250D01*
X116193240Y-64541269D01*
X116195625Y-64554488D01*
X116225680Y-64656845D01*
X116225680Y-64727842D01*
X116187297Y-64787568D01*
X116151168Y-64809496D01*
X116130104Y-64817836D01*
X116118878Y-64821679D01*
X116084034Y-64831802D01*
X116084032Y-64831803D01*
X116076421Y-64834014D01*
X116064422Y-64841110D01*
X116058989Y-64844323D01*
X116041236Y-64853020D01*
X116022400Y-64860478D01*
X116012179Y-64867904D01*
X115986626Y-64886469D01*
X115976707Y-64892984D01*
X115943758Y-64912471D01*
X115943755Y-64912473D01*
X115938659Y-64915487D01*
X115938241Y-64915855D01*
X115924158Y-64929938D01*
X115909133Y-64942772D01*
X115892917Y-64954554D01*
X115879340Y-64970966D01*
X115864971Y-64988335D01*
X115856981Y-64997115D01*
X115024501Y-65829595D01*
X114962189Y-65863621D01*
X114935406Y-65866500D01*
X114569615Y-65866500D01*
X114565981Y-65866924D01*
X114565976Y-65866924D01*
X114447212Y-65880771D01*
X114439733Y-65881643D01*
X114432851Y-65884141D01*
X114397461Y-65896987D01*
X114276233Y-65940990D01*
X114130771Y-66036359D01*
X114125742Y-66041667D01*
X114125738Y-66041671D01*
X114114546Y-66053486D01*
X114053176Y-66089183D01*
X113982249Y-66086035D01*
X113936421Y-66058304D01*
X113892387Y-66016590D01*
X113880736Y-66007874D01*
X113743090Y-65927922D01*
X113729753Y-65922123D01*
X113576593Y-65875736D01*
X113563961Y-65873286D01*
X113496318Y-65867249D01*
X113490723Y-65867000D01*
X113422115Y-65867000D01*
X113406876Y-65871475D01*
X113405671Y-65872865D01*
X113404000Y-65880548D01*
X113404000Y-66978000D01*
X113383998Y-67046121D01*
X113330342Y-67092614D01*
X113278000Y-67104000D01*
X112135115Y-67104000D01*
X112119876Y-67108475D01*
X112118671Y-67109865D01*
X112117000Y-67117548D01*
X112117000Y-67126723D01*
X112117425Y-67134030D01*
X112122307Y-67175910D01*
X112110328Y-67245889D01*
X112062417Y-67298282D01*
X111997155Y-67316500D01*
X109614594Y-67316500D01*
X109546473Y-67296498D01*
X109525499Y-67279595D01*
X108805181Y-66559277D01*
X112117000Y-66559277D01*
X112117000Y-66577885D01*
X112121475Y-66593124D01*
X112122865Y-66594329D01*
X112130548Y-66596000D01*
X112877885Y-66596000D01*
X112893124Y-66591525D01*
X112894329Y-66590135D01*
X112896000Y-66582452D01*
X112896000Y-65885115D01*
X112891525Y-65869876D01*
X112890135Y-65868671D01*
X112882452Y-65867000D01*
X112823277Y-65867000D01*
X112815973Y-65867425D01*
X112697120Y-65881281D01*
X112682968Y-65884626D01*
X112533336Y-65938940D01*
X112520337Y-65945450D01*
X112387212Y-66032731D01*
X112376060Y-66042055D01*
X112266587Y-66157617D01*
X112257874Y-66169264D01*
X112177922Y-66306910D01*
X112172123Y-66320247D01*
X112125736Y-66473407D01*
X112123286Y-66486039D01*
X112117249Y-66553682D01*
X112117000Y-66559277D01*
X108805181Y-66559277D01*
X106745405Y-64499501D01*
X106711379Y-64437189D01*
X106708500Y-64410406D01*
X106708500Y-63528594D01*
X106728502Y-63460473D01*
X106782158Y-63413980D01*
X106852432Y-63403876D01*
X106917012Y-63433370D01*
X106923595Y-63439499D01*
X106999595Y-63515499D01*
X107033621Y-63577811D01*
X107036500Y-63604594D01*
X107036500Y-63910000D01*
X107041727Y-63983079D01*
X107061976Y-64052042D01*
X107078071Y-64106855D01*
X107082904Y-64123316D01*
X107106308Y-64159733D01*
X107157051Y-64238691D01*
X107157053Y-64238694D01*
X107161923Y-64246271D01*
X107168733Y-64252172D01*
X107265569Y-64336082D01*
X107265572Y-64336084D01*
X107272381Y-64341984D01*
X107280579Y-64345728D01*
X107389915Y-64395660D01*
X107405330Y-64402700D01*
X107414245Y-64403982D01*
X107414246Y-64403982D01*
X107545552Y-64422861D01*
X107545559Y-64422862D01*
X107550000Y-64423500D01*
X109950000Y-64423500D01*
X110023079Y-64418273D01*
X110110466Y-64392614D01*
X110154670Y-64379635D01*
X110154672Y-64379634D01*
X110163316Y-64377096D01*
X110235649Y-64330610D01*
X110278691Y-64302949D01*
X110278694Y-64302947D01*
X110286271Y-64298077D01*
X110312593Y-64267700D01*
X110376082Y-64194431D01*
X110376084Y-64194428D01*
X110381984Y-64187619D01*
X110397845Y-64152889D01*
X110438958Y-64062864D01*
X110438958Y-64062863D01*
X110442700Y-64054670D01*
X110446583Y-64027661D01*
X110462861Y-63914448D01*
X110462862Y-63914441D01*
X110463500Y-63910000D01*
X110463500Y-63170000D01*
X110458273Y-63096921D01*
X110417096Y-62956684D01*
X110413631Y-62951293D01*
X110403716Y-62882317D01*
X110413819Y-62847911D01*
X110438958Y-62792864D01*
X110442700Y-62784670D01*
X110451093Y-62726293D01*
X110462861Y-62644448D01*
X110462862Y-62644441D01*
X110463500Y-62640000D01*
X110463500Y-61900000D01*
X110458273Y-61826921D01*
X110417096Y-61686684D01*
X110413631Y-61681293D01*
X110403716Y-61612317D01*
X110413819Y-61577911D01*
X110438958Y-61522864D01*
X110442700Y-61514670D01*
X110447441Y-61481694D01*
X110462861Y-61374448D01*
X110462862Y-61374441D01*
X110463500Y-61370000D01*
X110463500Y-60630000D01*
X110458273Y-60556921D01*
X110417096Y-60416684D01*
X110413631Y-60411293D01*
X110403716Y-60342317D01*
X110413819Y-60307911D01*
X110438958Y-60252864D01*
X110442700Y-60244670D01*
X110446550Y-60217892D01*
X110462861Y-60104448D01*
X110462862Y-60104441D01*
X110463500Y-60100000D01*
X110463500Y-59360000D01*
X110458273Y-59286921D01*
X110417096Y-59146684D01*
X110413391Y-59140919D01*
X110403442Y-59071729D01*
X110413546Y-59037316D01*
X110438477Y-58982725D01*
X110443502Y-58965612D01*
X110462361Y-58834446D01*
X110463000Y-58825503D01*
X110463000Y-58732115D01*
X110458525Y-58716876D01*
X110457135Y-58715671D01*
X110449452Y-58714000D01*
X107055115Y-58714000D01*
X107039876Y-58718475D01*
X107038671Y-58719865D01*
X107037000Y-58727548D01*
X107037000Y-58747870D01*
X107016998Y-58815991D01*
X106963342Y-58862484D01*
X106893068Y-58872588D01*
X106884807Y-58871118D01*
X106843008Y-58862233D01*
X106751944Y-58842876D01*
X106751939Y-58842876D01*
X106745487Y-58841504D01*
X106554513Y-58841504D01*
X106548061Y-58842876D01*
X106548056Y-58842876D01*
X106461113Y-58861357D01*
X106367713Y-58881210D01*
X106361683Y-58883895D01*
X106361682Y-58883895D01*
X106199280Y-58956201D01*
X106199278Y-58956202D01*
X106193250Y-58958886D01*
X106160438Y-58982725D01*
X106118560Y-59013151D01*
X106051692Y-59037009D01*
X105982541Y-59020928D01*
X105933061Y-58970013D01*
X105918500Y-58911214D01*
X105918500Y-58235000D01*
X105913273Y-58161921D01*
X105893475Y-58094495D01*
X107037000Y-58094495D01*
X107037000Y-58187885D01*
X107041475Y-58203124D01*
X107042865Y-58204329D01*
X107050548Y-58206000D01*
X108477885Y-58206000D01*
X108493124Y-58201525D01*
X108494329Y-58200135D01*
X108496000Y-58192452D01*
X108496000Y-57595115D01*
X108494659Y-57590548D01*
X109004000Y-57590548D01*
X109004000Y-58187885D01*
X109008475Y-58203124D01*
X109009865Y-58204329D01*
X109017548Y-58206000D01*
X110444885Y-58206000D01*
X110460124Y-58201525D01*
X110461329Y-58200135D01*
X110463000Y-58192452D01*
X110463000Y-58092257D01*
X110462839Y-58087750D01*
X110458260Y-58023731D01*
X110455874Y-58010509D01*
X110419181Y-57885542D01*
X110411767Y-57869308D01*
X110342574Y-57761640D01*
X110330888Y-57748153D01*
X110234160Y-57664338D01*
X110219152Y-57654693D01*
X110102725Y-57601523D01*
X110085612Y-57596498D01*
X109954446Y-57577639D01*
X109945505Y-57577000D01*
X109022115Y-57577000D01*
X109006876Y-57581475D01*
X109005671Y-57582865D01*
X109004000Y-57590548D01*
X108494659Y-57590548D01*
X108491525Y-57579876D01*
X108490135Y-57578671D01*
X108482452Y-57577000D01*
X107552257Y-57577000D01*
X107547750Y-57577161D01*
X107483731Y-57581740D01*
X107470509Y-57584126D01*
X107345542Y-57620819D01*
X107329308Y-57628233D01*
X107221640Y-57697426D01*
X107208153Y-57709112D01*
X107124338Y-57805840D01*
X107114693Y-57820848D01*
X107061523Y-57937275D01*
X107056498Y-57954388D01*
X107037639Y-58085554D01*
X107037000Y-58094495D01*
X105893475Y-58094495D01*
X105872096Y-58021684D01*
X105823026Y-57945330D01*
X105797949Y-57906309D01*
X105797947Y-57906306D01*
X105793077Y-57898729D01*
X105786267Y-57892828D01*
X105689431Y-57808918D01*
X105689428Y-57808916D01*
X105682619Y-57803016D01*
X105673315Y-57798767D01*
X105557864Y-57746042D01*
X105557863Y-57746042D01*
X105549670Y-57742300D01*
X105540755Y-57741018D01*
X105540754Y-57741018D01*
X105409448Y-57722139D01*
X105409441Y-57722138D01*
X105405000Y-57721500D01*
X104555000Y-57721500D01*
X104481921Y-57726727D01*
X104428884Y-57742300D01*
X104350330Y-57765365D01*
X104350328Y-57765366D01*
X104341684Y-57767904D01*
X104334105Y-57772775D01*
X104303370Y-57792527D01*
X104235249Y-57812529D01*
X104167128Y-57792527D01*
X104120635Y-57738871D01*
X104115416Y-57725465D01*
X104114336Y-57722139D01*
X104086109Y-57635267D01*
X104074141Y-57598432D01*
X104072114Y-57527464D01*
X104108776Y-57466666D01*
X104172489Y-57435341D01*
X104193974Y-57433496D01*
X104270487Y-57433496D01*
X104276939Y-57432124D01*
X104276944Y-57432124D01*
X104388727Y-57408363D01*
X104457287Y-57393790D01*
X104476740Y-57385129D01*
X104625720Y-57318799D01*
X104625722Y-57318798D01*
X104631750Y-57316114D01*
X104637092Y-57312233D01*
X104780907Y-57207746D01*
X104780909Y-57207744D01*
X104786251Y-57203863D01*
X104822594Y-57163500D01*
X104909618Y-57066850D01*
X104909619Y-57066849D01*
X104914037Y-57061942D01*
X104982036Y-56944164D01*
X105006220Y-56902277D01*
X105006221Y-56902276D01*
X105009524Y-56896554D01*
X105068538Y-56714927D01*
X105072329Y-56678863D01*
X105087810Y-56531565D01*
X105088500Y-56525000D01*
X105075915Y-56405262D01*
X105069228Y-56341637D01*
X105069228Y-56341636D01*
X105068538Y-56335073D01*
X105062951Y-56317876D01*
X105027730Y-56209480D01*
X105009524Y-56153446D01*
X104914037Y-55988058D01*
X104906485Y-55979670D01*
X104790673Y-55851048D01*
X104790672Y-55851047D01*
X104786251Y-55846137D01*
X104780909Y-55842256D01*
X104780907Y-55842254D01*
X104637092Y-55737767D01*
X104637091Y-55737766D01*
X104631750Y-55733886D01*
X104625722Y-55731202D01*
X104625720Y-55731201D01*
X104463318Y-55658895D01*
X104463317Y-55658895D01*
X104457287Y-55656210D01*
X104332235Y-55629629D01*
X104276944Y-55617876D01*
X104276939Y-55617876D01*
X104270487Y-55616504D01*
X104079513Y-55616504D01*
X104073061Y-55617876D01*
X104073056Y-55617876D01*
X104017765Y-55629629D01*
X103892713Y-55656210D01*
X103886683Y-55658895D01*
X103886682Y-55658895D01*
X103724280Y-55731201D01*
X103724278Y-55731202D01*
X103718250Y-55733886D01*
X103712909Y-55737766D01*
X103712908Y-55737767D01*
X103712026Y-55738408D01*
X103711429Y-55738621D01*
X103707191Y-55741068D01*
X103706743Y-55740293D01*
X103645158Y-55762267D01*
X103576007Y-55746186D01*
X103526526Y-55695272D01*
X103512427Y-55625690D01*
X103526611Y-55577512D01*
X103529545Y-55571972D01*
X103553457Y-55526809D01*
X103587555Y-55462411D01*
X103587556Y-55462408D01*
X103591110Y-55455696D01*
X103632874Y-55289425D01*
X103633237Y-55283659D01*
X103633375Y-55281470D01*
X103633376Y-55281454D01*
X103633500Y-55279475D01*
X103633500Y-54608683D01*
X103617904Y-54479806D01*
X103557306Y-54319438D01*
X103522332Y-54268551D01*
X103464506Y-54184413D01*
X103464505Y-54184411D01*
X103460204Y-54178154D01*
X103442934Y-54162767D01*
X103337877Y-54069164D01*
X103337875Y-54069162D01*
X103332204Y-54064110D01*
X103325495Y-54060558D01*
X103325491Y-54060555D01*
X103187411Y-53987445D01*
X103187408Y-53987444D01*
X103180696Y-53983890D01*
X103014425Y-53942126D01*
X103008662Y-53941763D01*
X103008659Y-53941763D01*
X103006470Y-53941625D01*
X103006454Y-53941624D01*
X103004475Y-53941500D01*
X102483683Y-53941500D01*
X102354806Y-53957096D01*
X102194438Y-54017694D01*
X102188180Y-54021995D01*
X102064435Y-54107043D01*
X102053154Y-54114796D01*
X102048102Y-54120466D01*
X102048101Y-54120467D01*
X101996924Y-54177907D01*
X101936674Y-54215463D01*
X101865684Y-54214483D01*
X101810782Y-54178996D01*
X101810204Y-54178154D01*
X101796838Y-54166245D01*
X101687877Y-54069164D01*
X101687875Y-54069162D01*
X101682204Y-54064110D01*
X101675495Y-54060558D01*
X101675491Y-54060555D01*
X101537411Y-53987445D01*
X101537408Y-53987444D01*
X101530696Y-53983890D01*
X101364425Y-53942126D01*
X101358662Y-53941763D01*
X101358659Y-53941763D01*
X101356470Y-53941625D01*
X101356454Y-53941624D01*
X101354475Y-53941500D01*
X100833683Y-53941500D01*
X100704806Y-53957096D01*
X100544438Y-54017694D01*
X100538180Y-54021995D01*
X100414435Y-54107043D01*
X100403154Y-54114796D01*
X100398102Y-54120466D01*
X100398101Y-54120467D01*
X100375440Y-54145901D01*
X100289110Y-54242796D01*
X100288240Y-54242021D01*
X100238658Y-54281934D01*
X100190500Y-54291500D01*
X99783194Y-54291500D01*
X99715073Y-54271498D01*
X99695849Y-54255158D01*
X99695575Y-54255462D01*
X99690672Y-54251047D01*
X99686251Y-54246137D01*
X99680909Y-54242256D01*
X99680907Y-54242254D01*
X99537092Y-54137767D01*
X99537091Y-54137766D01*
X99531750Y-54133886D01*
X99525722Y-54131202D01*
X99525720Y-54131201D01*
X99363318Y-54058895D01*
X99363317Y-54058895D01*
X99357287Y-54056210D01*
X99263887Y-54036357D01*
X99176944Y-54017876D01*
X99176939Y-54017876D01*
X99170487Y-54016504D01*
X98979513Y-54016504D01*
X98973061Y-54017876D01*
X98973056Y-54017876D01*
X98886113Y-54036357D01*
X98792713Y-54056210D01*
X98786683Y-54058895D01*
X98786682Y-54058895D01*
X98624280Y-54131201D01*
X98624278Y-54131202D01*
X98618250Y-54133886D01*
X98612909Y-54137766D01*
X98612908Y-54137767D01*
X98469093Y-54242254D01*
X98469091Y-54242256D01*
X98463749Y-54246137D01*
X98459328Y-54251047D01*
X98454425Y-54255462D01*
X98453299Y-54254211D01*
X98400000Y-54287049D01*
X98366806Y-54291500D01*
X98263568Y-54291500D01*
X98195447Y-54271498D01*
X98179749Y-54259576D01*
X98174791Y-54255158D01*
X98160916Y-54242796D01*
X98142195Y-54226116D01*
X98142193Y-54226114D01*
X98136522Y-54221062D01*
X98129813Y-54217510D01*
X98129809Y-54217507D01*
X98001284Y-54149456D01*
X98001281Y-54149455D01*
X97994569Y-54145901D01*
X97838785Y-54106771D01*
X97834477Y-54106500D01*
X97288683Y-54106500D01*
X97170540Y-54120797D01*
X97163437Y-54123481D01*
X97159055Y-54125137D01*
X97020287Y-54177573D01*
X97019690Y-54175993D01*
X96959065Y-54188033D01*
X96911374Y-54173893D01*
X96866098Y-54149921D01*
X96852024Y-54144518D01*
X96709320Y-54108673D01*
X96698850Y-54107043D01*
X96697485Y-54107000D01*
X96679615Y-54107000D01*
X96664376Y-54111475D01*
X96663171Y-54112865D01*
X96661500Y-54120548D01*
X96661500Y-55724863D01*
X96665605Y-55738845D01*
X96678771Y-55740888D01*
X96771800Y-55729630D01*
X96786443Y-55726034D01*
X96929482Y-55671984D01*
X96930175Y-55673819D01*
X96989853Y-55661961D01*
X97037555Y-55676103D01*
X97090431Y-55704099D01*
X97246215Y-55743229D01*
X97250523Y-55743500D01*
X97796317Y-55743500D01*
X97914460Y-55729203D01*
X97922847Y-55726034D01*
X98057610Y-55675111D01*
X98064713Y-55672427D01*
X98197087Y-55581449D01*
X98198840Y-55583999D01*
X98250353Y-55559940D01*
X98269349Y-55558500D01*
X98366806Y-55558500D01*
X98434927Y-55578502D01*
X98454151Y-55594842D01*
X98454425Y-55594538D01*
X98459328Y-55598953D01*
X98463749Y-55603863D01*
X98469091Y-55607744D01*
X98469093Y-55607746D01*
X98603615Y-55705481D01*
X98618250Y-55716114D01*
X98624278Y-55718798D01*
X98624280Y-55718799D01*
X98786682Y-55791105D01*
X98792713Y-55793790D01*
X98883013Y-55812984D01*
X98973056Y-55832124D01*
X98973061Y-55832124D01*
X98979513Y-55833496D01*
X99170487Y-55833496D01*
X99176939Y-55832124D01*
X99176944Y-55832124D01*
X99266987Y-55812984D01*
X99357287Y-55793790D01*
X99363318Y-55791105D01*
X99525720Y-55718799D01*
X99525722Y-55718798D01*
X99531750Y-55716114D01*
X99546385Y-55705481D01*
X99680907Y-55607746D01*
X99680909Y-55607744D01*
X99686251Y-55603863D01*
X99690672Y-55598953D01*
X99695575Y-55594538D01*
X99696701Y-55595789D01*
X99750000Y-55562951D01*
X99783194Y-55558500D01*
X100195603Y-55558500D01*
X100263724Y-55578502D01*
X100299442Y-55613132D01*
X100328091Y-55654816D01*
X100350192Y-55722285D01*
X100332307Y-55790992D01*
X100318334Y-55809996D01*
X100289110Y-55842796D01*
X100285558Y-55849505D01*
X100285555Y-55849509D01*
X100214431Y-55983839D01*
X100208890Y-55994304D01*
X100167126Y-56160575D01*
X100166763Y-56166338D01*
X100166763Y-56166341D01*
X100166625Y-56168530D01*
X100166624Y-56168546D01*
X100166500Y-56170525D01*
X100166500Y-56841317D01*
X100182096Y-56970194D01*
X100242694Y-57130562D01*
X100246995Y-57136820D01*
X100334591Y-57264272D01*
X100339796Y-57271846D01*
X100345466Y-57276898D01*
X100345467Y-57276899D01*
X100399319Y-57324879D01*
X100436875Y-57385129D01*
X100441500Y-57418955D01*
X100441500Y-58073964D01*
X100421498Y-58142085D01*
X100367842Y-58188578D01*
X100297568Y-58198682D01*
X100263157Y-58188577D01*
X100202867Y-58161043D01*
X100202864Y-58161042D01*
X100194670Y-58157300D01*
X100185755Y-58156018D01*
X100185754Y-58156018D01*
X100054448Y-58137139D01*
X100054441Y-58137138D01*
X100050000Y-58136500D01*
X99150000Y-58136500D01*
X99076921Y-58141727D01*
X99008146Y-58161921D01*
X98945330Y-58180365D01*
X98945328Y-58180366D01*
X98936684Y-58182904D01*
X98929106Y-58187774D01*
X98929104Y-58187775D01*
X98834677Y-58248460D01*
X98766556Y-58268462D01*
X98698435Y-58248460D01*
X98677461Y-58231557D01*
X98600405Y-58154501D01*
X98566379Y-58092189D01*
X98563500Y-58065406D01*
X98563500Y-57700000D01*
X98558273Y-57626921D01*
X98517096Y-57486684D01*
X98458278Y-57395162D01*
X98442949Y-57371309D01*
X98442947Y-57371306D01*
X98438077Y-57363729D01*
X98393242Y-57324879D01*
X98334431Y-57273918D01*
X98334428Y-57273916D01*
X98327619Y-57268016D01*
X98250735Y-57232904D01*
X98202864Y-57211042D01*
X98202863Y-57211042D01*
X98194670Y-57207300D01*
X98185755Y-57206018D01*
X98185754Y-57206018D01*
X98054448Y-57187139D01*
X98054441Y-57187138D01*
X98050000Y-57186500D01*
X97150000Y-57186500D01*
X97076921Y-57191727D01*
X96939276Y-57232143D01*
X96868281Y-57232143D01*
X96852529Y-57226353D01*
X96813322Y-57208896D01*
X96813314Y-57208893D01*
X96807287Y-57206210D01*
X96713887Y-57186357D01*
X96626944Y-57167876D01*
X96626939Y-57167876D01*
X96620487Y-57166504D01*
X96429513Y-57166504D01*
X96423061Y-57167876D01*
X96423056Y-57167876D01*
X96336113Y-57186357D01*
X96242713Y-57206210D01*
X96236683Y-57208895D01*
X96236682Y-57208895D01*
X96074280Y-57281201D01*
X96074278Y-57281202D01*
X96068250Y-57283886D01*
X96062909Y-57287766D01*
X96062908Y-57287767D01*
X95919093Y-57392254D01*
X95919091Y-57392256D01*
X95913749Y-57396137D01*
X95909328Y-57401047D01*
X95909327Y-57401048D01*
X95850245Y-57466666D01*
X95785963Y-57538058D01*
X95748886Y-57602277D01*
X95693952Y-57697426D01*
X95690476Y-57703446D01*
X95675950Y-57748153D01*
X95645405Y-57842162D01*
X95631462Y-57885073D01*
X95630772Y-57891636D01*
X95630772Y-57891637D01*
X95618286Y-58010438D01*
X95611500Y-58075000D01*
X95612190Y-58081565D01*
X95628317Y-58235000D01*
X95631462Y-58264927D01*
X95633502Y-58271205D01*
X95633502Y-58271206D01*
X95665957Y-58371093D01*
X95690476Y-58446554D01*
X95693779Y-58452276D01*
X95693780Y-58452277D01*
X95717543Y-58493435D01*
X95785963Y-58611942D01*
X95790381Y-58616849D01*
X95790382Y-58616850D01*
X95908353Y-58747870D01*
X95913749Y-58753863D01*
X95919091Y-58757744D01*
X95919093Y-58757746D01*
X96048448Y-58851727D01*
X96068250Y-58866114D01*
X96074278Y-58868798D01*
X96074280Y-58868799D01*
X96207284Y-58928016D01*
X96242713Y-58943790D01*
X96331987Y-58962766D01*
X96423056Y-58982124D01*
X96423061Y-58982124D01*
X96429513Y-58983496D01*
X96620487Y-58983496D01*
X96626942Y-58982124D01*
X96626951Y-58982123D01*
X96766396Y-58952482D01*
X96837187Y-58957883D01*
X96893820Y-59000699D01*
X96918314Y-59067337D01*
X96902893Y-59136638D01*
X96860716Y-59181725D01*
X96824988Y-59204687D01*
X96813729Y-59211923D01*
X96718016Y-59322381D01*
X96715257Y-59319991D01*
X96674749Y-59355104D01*
X96622386Y-59366500D01*
X96603384Y-59366500D01*
X96592480Y-59365986D01*
X96585089Y-59364334D01*
X96577163Y-59364583D01*
X96577162Y-59364583D01*
X96518134Y-59366438D01*
X96514177Y-59366500D01*
X96213568Y-59366500D01*
X96145447Y-59346498D01*
X96129749Y-59334576D01*
X96092195Y-59301116D01*
X96092193Y-59301114D01*
X96086522Y-59296062D01*
X96079813Y-59292510D01*
X96079809Y-59292507D01*
X95951284Y-59224456D01*
X95951281Y-59224455D01*
X95944569Y-59220901D01*
X95788785Y-59181771D01*
X95784477Y-59181500D01*
X95238683Y-59181500D01*
X95120540Y-59195797D01*
X94970287Y-59252573D01*
X94969629Y-59250832D01*
X94909602Y-59262754D01*
X94861907Y-59248613D01*
X94816283Y-59224456D01*
X94816284Y-59224456D01*
X94809569Y-59220901D01*
X94653785Y-59181771D01*
X94649477Y-59181500D01*
X94559033Y-59181500D01*
X94490912Y-59161498D01*
X94449914Y-59118500D01*
X94425404Y-59076048D01*
X94389037Y-59013058D01*
X94354473Y-58974670D01*
X94265673Y-58876048D01*
X94265672Y-58876047D01*
X94261251Y-58871137D01*
X94255909Y-58867256D01*
X94255907Y-58867254D01*
X94112092Y-58762767D01*
X94112091Y-58762766D01*
X94106750Y-58758886D01*
X94100722Y-58756202D01*
X94100720Y-58756201D01*
X93938318Y-58683895D01*
X93938317Y-58683895D01*
X93932287Y-58681210D01*
X93838887Y-58661357D01*
X93751944Y-58642876D01*
X93751939Y-58642876D01*
X93745487Y-58641504D01*
X93554513Y-58641504D01*
X93548061Y-58642876D01*
X93548056Y-58642876D01*
X93385697Y-58677387D01*
X93314906Y-58671985D01*
X93258274Y-58629168D01*
X93233780Y-58562530D01*
X93233500Y-58554140D01*
X93233500Y-58508683D01*
X93217904Y-58379806D01*
X93179741Y-58278810D01*
X93174373Y-58208019D01*
X93208130Y-58145561D01*
X93270296Y-58111269D01*
X93323804Y-58111027D01*
X93423056Y-58132124D01*
X93423061Y-58132124D01*
X93429513Y-58133496D01*
X93620487Y-58133496D01*
X93626939Y-58132124D01*
X93626944Y-58132124D01*
X93713887Y-58113643D01*
X93807287Y-58093790D01*
X93813318Y-58091105D01*
X93975720Y-58018799D01*
X93975722Y-58018798D01*
X93981750Y-58016114D01*
X93989465Y-58010509D01*
X94130907Y-57907746D01*
X94130909Y-57907744D01*
X94136251Y-57903863D01*
X94153170Y-57885073D01*
X94259618Y-57766850D01*
X94259619Y-57766849D01*
X94264037Y-57761942D01*
X94359524Y-57596554D01*
X94412505Y-57433496D01*
X94416498Y-57421206D01*
X94416498Y-57421205D01*
X94418538Y-57414927D01*
X94422272Y-57379405D01*
X94437810Y-57231565D01*
X94438500Y-57225000D01*
X94427584Y-57121137D01*
X94419228Y-57041637D01*
X94419228Y-57041636D01*
X94418538Y-57035073D01*
X94413604Y-57019886D01*
X94372842Y-56894434D01*
X94359524Y-56853446D01*
X94351511Y-56839566D01*
X94319210Y-56783621D01*
X94264037Y-56688058D01*
X94207215Y-56624950D01*
X94140673Y-56551048D01*
X94140672Y-56551047D01*
X94136251Y-56546137D01*
X94130909Y-56542256D01*
X94130907Y-56542254D01*
X93987092Y-56437767D01*
X93987091Y-56437766D01*
X93981750Y-56433886D01*
X93975722Y-56431202D01*
X93975720Y-56431201D01*
X93813318Y-56358895D01*
X93813317Y-56358895D01*
X93807287Y-56356210D01*
X93701514Y-56333727D01*
X93626944Y-56317876D01*
X93626939Y-56317876D01*
X93620487Y-56316504D01*
X93429513Y-56316504D01*
X93423061Y-56317876D01*
X93423056Y-56317876D01*
X93348486Y-56333727D01*
X93242713Y-56356210D01*
X93236686Y-56358893D01*
X93236678Y-56358896D01*
X93198587Y-56375856D01*
X93128220Y-56385291D01*
X93084047Y-56369701D01*
X93071210Y-56362244D01*
X93022354Y-56310732D01*
X93008500Y-56253293D01*
X93008500Y-56221607D01*
X93010732Y-56197996D01*
X93010755Y-56197876D01*
X93012240Y-56190092D01*
X93008749Y-56134605D01*
X93008500Y-56126694D01*
X93008500Y-56110422D01*
X93006458Y-56094262D01*
X93005716Y-56086404D01*
X93005335Y-56080335D01*
X93002190Y-56030357D01*
X92999645Y-56022523D01*
X92994473Y-55999385D01*
X92993440Y-55991212D01*
X92990248Y-55983150D01*
X92972763Y-55938986D01*
X92970082Y-55931539D01*
X92964546Y-55914502D01*
X92952732Y-55878140D01*
X92948322Y-55871192D01*
X92937551Y-55850051D01*
X92934522Y-55842400D01*
X92912723Y-55812396D01*
X92901514Y-55796969D01*
X92897065Y-55790421D01*
X92871226Y-55749704D01*
X92871219Y-55749695D01*
X92866973Y-55743005D01*
X92860967Y-55737365D01*
X92845286Y-55719578D01*
X92845108Y-55719333D01*
X92845106Y-55719331D01*
X92840446Y-55712917D01*
X92834342Y-55707867D01*
X92834337Y-55707862D01*
X92797174Y-55677119D01*
X92791262Y-55671908D01*
X92750301Y-55633443D01*
X92743077Y-55629471D01*
X92723475Y-55616150D01*
X92717125Y-55610897D01*
X92666301Y-55586981D01*
X92659279Y-55583403D01*
X92638482Y-55571970D01*
X92588426Y-55521627D01*
X92573532Y-55452210D01*
X92590066Y-55398557D01*
X92631220Y-55327277D01*
X92631221Y-55327276D01*
X92634524Y-55321554D01*
X92675231Y-55196271D01*
X95541070Y-55196271D01*
X95545370Y-55231800D01*
X95548966Y-55246443D01*
X95600332Y-55382380D01*
X95607315Y-55395737D01*
X95689624Y-55515496D01*
X95699598Y-55526809D01*
X95808097Y-55623480D01*
X95820469Y-55632079D01*
X95948902Y-55700080D01*
X95962973Y-55705481D01*
X96105680Y-55741327D01*
X96116150Y-55742957D01*
X96117515Y-55743000D01*
X96135385Y-55743000D01*
X96150624Y-55738525D01*
X96151829Y-55737135D01*
X96153500Y-55729452D01*
X96153500Y-55197115D01*
X96149025Y-55181876D01*
X96147635Y-55180671D01*
X96139952Y-55179000D01*
X95557095Y-55179000D01*
X95543113Y-55183105D01*
X95541070Y-55196271D01*
X92675231Y-55196271D01*
X92680680Y-55179501D01*
X92691498Y-55146206D01*
X92691498Y-55146205D01*
X92693538Y-55139927D01*
X92702597Y-55053741D01*
X92712810Y-54956565D01*
X92713500Y-54950000D01*
X92693538Y-54760073D01*
X92658887Y-54653429D01*
X95540517Y-54653429D01*
X95541074Y-54667520D01*
X95549566Y-54671000D01*
X96135385Y-54671000D01*
X96150624Y-54666525D01*
X96151829Y-54665135D01*
X96153500Y-54657452D01*
X96153500Y-54125137D01*
X96149395Y-54111155D01*
X96136229Y-54109112D01*
X96043200Y-54120370D01*
X96028557Y-54123966D01*
X95892620Y-54175332D01*
X95879263Y-54182315D01*
X95759504Y-54264624D01*
X95748191Y-54274598D01*
X95651520Y-54383097D01*
X95642921Y-54395469D01*
X95574920Y-54523902D01*
X95569519Y-54537973D01*
X95540517Y-54653429D01*
X92658887Y-54653429D01*
X92634524Y-54578446D01*
X92606803Y-54530431D01*
X92567111Y-54461684D01*
X92539037Y-54413058D01*
X92524922Y-54397381D01*
X92415673Y-54276048D01*
X92415672Y-54276047D01*
X92411251Y-54271137D01*
X92405909Y-54267256D01*
X92405907Y-54267254D01*
X92262092Y-54162767D01*
X92262091Y-54162766D01*
X92256750Y-54158886D01*
X92250722Y-54156202D01*
X92250720Y-54156201D01*
X92088318Y-54083895D01*
X92088317Y-54083895D01*
X92082287Y-54081210D01*
X91985114Y-54060555D01*
X91901944Y-54042876D01*
X91901939Y-54042876D01*
X91895487Y-54041504D01*
X91839598Y-54041504D01*
X91771477Y-54021502D01*
X91750503Y-54004599D01*
X91520405Y-53774501D01*
X91486379Y-53712189D01*
X91483500Y-53685406D01*
X91483500Y-53239500D01*
X91503502Y-53171379D01*
X91557158Y-53124886D01*
X91609500Y-53113500D01*
X91700000Y-53113500D01*
X91773079Y-53108273D01*
X91865636Y-53081096D01*
X91904670Y-53069635D01*
X91904672Y-53069634D01*
X91913316Y-53067096D01*
X91980446Y-53023954D01*
X92028691Y-52992949D01*
X92028694Y-52992947D01*
X92036271Y-52988077D01*
X92061627Y-52958815D01*
X92126082Y-52884431D01*
X92126084Y-52884428D01*
X92131984Y-52877619D01*
X92192700Y-52744670D01*
X92193320Y-52740360D01*
X92230432Y-52682610D01*
X92295012Y-52653117D01*
X92365286Y-52663220D01*
X92397335Y-52684270D01*
X92565629Y-52836069D01*
X92570142Y-52838928D01*
X92570144Y-52838929D01*
X92631228Y-52877619D01*
X92760406Y-52959439D01*
X92973184Y-53048228D01*
X92978387Y-53049425D01*
X92978392Y-53049426D01*
X93192678Y-53098701D01*
X93192683Y-53098702D01*
X93197881Y-53099897D01*
X93203209Y-53100200D01*
X93203212Y-53100200D01*
X93353877Y-53108755D01*
X93428071Y-53112968D01*
X93433378Y-53112368D01*
X93433380Y-53112368D01*
X93607354Y-53092700D01*
X93657173Y-53087068D01*
X93662288Y-53085587D01*
X93662292Y-53085586D01*
X93787161Y-53049426D01*
X93878635Y-53022937D01*
X94086125Y-52922409D01*
X94090463Y-52919309D01*
X94090468Y-52919306D01*
X94269370Y-52791459D01*
X94273711Y-52788357D01*
X94436030Y-52624617D01*
X94526525Y-52495617D01*
X94557953Y-52450816D01*
X94613449Y-52406536D01*
X94684075Y-52399289D01*
X94747407Y-52431375D01*
X94771781Y-52462958D01*
X94789550Y-52495617D01*
X94795402Y-52504491D01*
X94931486Y-52677113D01*
X94938750Y-52684875D01*
X95101967Y-52832094D01*
X95110444Y-52838528D01*
X95296122Y-52956136D01*
X95305567Y-52961053D01*
X95508406Y-53045694D01*
X95518545Y-53048950D01*
X95658345Y-53081096D01*
X95672422Y-53080257D01*
X95676000Y-53070999D01*
X95676000Y-51622000D01*
X95696002Y-51553879D01*
X95749658Y-51507386D01*
X95802000Y-51496000D01*
X96058000Y-51496000D01*
X96126121Y-51516002D01*
G37*
%TD.AperFunction*%
%TA.AperFunction,Conductor*%
G36*
X95558685Y-61866150D02*
G01*
X95618302Y-61904703D01*
X95641439Y-61954593D01*
X95644160Y-61953802D01*
X95648407Y-61968418D01*
X95649811Y-61973252D01*
X95653821Y-61992615D01*
X95654249Y-61996000D01*
X95656359Y-62012707D01*
X95659275Y-62020072D01*
X95659276Y-62020076D01*
X95672636Y-62053820D01*
X95676480Y-62065047D01*
X95688813Y-62107497D01*
X95692851Y-62114325D01*
X95699122Y-62124930D01*
X95707818Y-62142681D01*
X95712357Y-62154145D01*
X95715277Y-62161519D01*
X95719938Y-62167934D01*
X95741264Y-62197286D01*
X95747783Y-62207210D01*
X95770285Y-62245260D01*
X95767952Y-62246639D01*
X95787928Y-62302616D01*
X95771851Y-62371768D01*
X95720940Y-62421251D01*
X95713384Y-62424921D01*
X95699290Y-62431196D01*
X95699284Y-62431200D01*
X95693250Y-62433886D01*
X95687903Y-62437771D01*
X95683836Y-62440119D01*
X95614841Y-62456858D01*
X95558026Y-62437558D01*
X95557204Y-62439110D01*
X95412411Y-62362445D01*
X95412408Y-62362444D01*
X95405696Y-62358890D01*
X95395027Y-62356210D01*
X95309709Y-62334780D01*
X95239425Y-62317126D01*
X95233662Y-62316763D01*
X95233659Y-62316763D01*
X95231470Y-62316625D01*
X95231454Y-62316624D01*
X95229475Y-62316500D01*
X94558683Y-62316500D01*
X94429806Y-62332096D01*
X94269438Y-62392694D01*
X94263180Y-62396995D01*
X94139730Y-62481840D01*
X94068363Y-62504000D01*
X92947000Y-62504000D01*
X92878879Y-62483998D01*
X92832386Y-62430342D01*
X92821000Y-62378000D01*
X92821000Y-62122000D01*
X92841002Y-62053879D01*
X92894658Y-62007386D01*
X92947000Y-61996000D01*
X94099885Y-61996000D01*
X94115124Y-61991525D01*
X94132383Y-61971607D01*
X94146425Y-61945892D01*
X94208738Y-61911868D01*
X94235519Y-61908989D01*
X95171127Y-61908989D01*
X95182031Y-61909503D01*
X95189422Y-61911155D01*
X95197348Y-61910906D01*
X95197349Y-61910906D01*
X95256377Y-61909051D01*
X95260334Y-61908989D01*
X95289089Y-61908989D01*
X95293356Y-61908450D01*
X95305198Y-61907517D01*
X95336846Y-61906522D01*
X95341471Y-61906377D01*
X95349394Y-61906128D01*
X95368845Y-61900477D01*
X95388206Y-61896467D01*
X95390931Y-61896123D01*
X95400441Y-61894922D01*
X95400444Y-61894921D01*
X95408299Y-61893929D01*
X95415664Y-61891013D01*
X95415668Y-61891012D01*
X95449412Y-61877652D01*
X95460640Y-61873808D01*
X95487689Y-61865949D01*
X95558685Y-61866150D01*
G37*
%TD.AperFunction*%
%TD*%
M02*
