%TF.GenerationSoftware,KiCad,Pcbnew,5.99.0-unknown-d946d6e68f~129~ubuntu20.04.1*%
%TF.CreationDate,2021-06-09T18:53:31+01:00*%
%TF.ProjectId,nRF52840-BBoard,6e524635-3238-4343-902d-42426f617264,v2*%
%TF.SameCoordinates,Original*%
%TF.FileFunction,Copper,L4,Bot*%
%TF.FilePolarity,Positive*%
%FSLAX46Y46*%
G04 Gerber Fmt 4.6, Leading zero omitted, Abs format (unit mm)*
G04 Created by KiCad (PCBNEW 5.99.0-unknown-d946d6e68f~129~ubuntu20.04.1) date 2021-06-09 18:53:31*
%MOMM*%
%LPD*%
G01*
G04 APERTURE LIST*
%TA.AperFunction,ComponentPad*%
%ADD10R,1.000000X0.650000*%
%TD*%
%TA.AperFunction,ComponentPad*%
%ADD11R,0.650000X1.000000*%
%TD*%
%TA.AperFunction,ComponentPad*%
%ADD12O,2.250000X1.250000*%
%TD*%
%TA.AperFunction,ComponentPad*%
%ADD13O,1.750000X1.250000*%
%TD*%
%TA.AperFunction,ComponentPad*%
%ADD14R,1.700000X1.700000*%
%TD*%
%TA.AperFunction,ComponentPad*%
%ADD15O,1.700000X1.700000*%
%TD*%
%TA.AperFunction,ViaPad*%
%ADD16C,0.800000*%
%TD*%
%TA.AperFunction,Conductor*%
%ADD17C,0.150000*%
%TD*%
%TA.AperFunction,Conductor*%
%ADD18C,0.250000*%
%TD*%
%TA.AperFunction,Conductor*%
%ADD19C,0.200000*%
%TD*%
G04 APERTURE END LIST*
D10*
%TO.P,U1,12,P0.26*%
%TO.N,/P0.26*%
X118912500Y-57167000D03*
%TO.P,U1,14,P0.06*%
%TO.N,/P0.06*%
X118912500Y-58437000D03*
%TO.P,U1,16,P0.08*%
%TO.N,/P0.08*%
X118912500Y-59707000D03*
%TO.P,U1,18,P0.04/AIN2*%
%TO.N,BATTERY_PIN*%
X118912500Y-60977000D03*
%TO.P,U1,20,P0.12*%
%TO.N,/P0.12*%
X118912500Y-62247000D03*
%TO.P,U1,22,P0.07*%
%TO.N,/LED1*%
X118912500Y-63517000D03*
%TO.P,U1,24,GND*%
%TO.N,GND*%
X118912500Y-64787000D03*
D11*
%TO.P,U1,28,P0.15*%
%TO.N,/P0.15*%
X121452500Y-65041000D03*
%TO.P,U1,30,P0.17*%
%TO.N,/P0.17*%
X122722500Y-65041000D03*
%TO.P,U1,32,P0.20*%
%TO.N,/P0.20*%
X123992500Y-65041000D03*
%TO.P,U1,34,P0.22*%
%TO.N,/P0.22*%
X125262500Y-65041000D03*
%TO.P,U1,36,P1.00*%
%TO.N,/P1.00*%
X126532500Y-65041000D03*
%TO.P,U1,38,P1.02*%
%TO.N,/P1.02*%
X127802500Y-65041000D03*
%TO.P,U1,40,P1.04*%
%TO.N,/P1.04*%
X129072500Y-65041000D03*
%TO.P,U1,42,P1.06*%
%TO.N,/P1.06*%
X130342500Y-65041000D03*
%TD*%
D12*
%TO.P,J2,S1,SHIELD*%
%TO.N,GND*%
X77125000Y-66550000D03*
D13*
X81125000Y-66600000D03*
X81125000Y-55424400D03*
D12*
X77125000Y-55400000D03*
%TD*%
D14*
%TO.P,J5,1,Pin_1*%
%TO.N,VBAT*%
X90850000Y-51750000D03*
D15*
%TO.P,J5,2,Pin_2*%
%TO.N,GND*%
X93390000Y-51750000D03*
%TO.P,J5,3,Pin_3*%
%TO.N,VCC*%
X95930000Y-51750000D03*
%TO.P,J5,4,Pin_4*%
%TO.N,VUSB*%
X98470000Y-51750000D03*
%TO.P,J5,5,Pin_5*%
%TO.N,GND*%
X101010000Y-51750000D03*
%TO.P,J5,6,Pin_6*%
%TO.N,/P0.06*%
X103550000Y-51750000D03*
%TO.P,J5,7,Pin_7*%
%TO.N,/P0.26*%
X106090000Y-51750000D03*
%TO.P,J5,8,Pin_8*%
%TO.N,/P0.30*%
X108630000Y-51750000D03*
%TO.P,J5,9,Pin_9*%
%TO.N,/P0.31*%
X111170000Y-51750000D03*
%TO.P,J5,10,Pin_10*%
%TO.N,/P0.29*%
X113710000Y-51750000D03*
%TO.P,J5,11,Pin_11*%
%TO.N,/P0.02*%
X116250000Y-51750000D03*
%TO.P,J5,12,Pin_12*%
%TO.N,/P1.13*%
X118790000Y-51750000D03*
%TO.P,J5,13,Pin_13*%
%TO.N,/P0.28*%
X121330000Y-51750000D03*
%TO.P,J5,14,Pin_14*%
%TO.N,/P0.03*%
X123870000Y-51750000D03*
%TO.P,J5,15,Pin_15*%
%TO.N,/P1.10*%
X126410000Y-51750000D03*
%TO.P,J5,16,Pin_16*%
%TO.N,/P1.11*%
X128950000Y-51750000D03*
%TD*%
D14*
%TO.P,J4,1,Pin_1*%
%TO.N,RESET*%
X80750000Y-70225000D03*
D15*
%TO.P,J4,2,Pin_2*%
%TO.N,VCC*%
X83290000Y-70225000D03*
%TO.P,J4,3,Pin_3*%
%TO.N,GND*%
X85830000Y-70225000D03*
%TO.P,J4,4,Pin_4*%
%TO.N,/P0.05*%
X88370000Y-70225000D03*
%TO.P,J4,5,Pin_5*%
%TO.N,/P0.08*%
X90910000Y-70225000D03*
%TO.P,J4,6,Pin_6*%
%TO.N,/P1.09*%
X93450000Y-70225000D03*
%TO.P,J4,7,Pin_7*%
%TO.N,/P0.12*%
X95990000Y-70225000D03*
%TO.P,J4,8,Pin_8*%
%TO.N,/P0.15*%
X98530000Y-70225000D03*
%TO.P,J4,9,Pin_9*%
%TO.N,/P0.17*%
X101070000Y-70225000D03*
%TO.P,J4,10,Pin_10*%
%TO.N,/P0.20*%
X103610000Y-70225000D03*
%TO.P,J4,11,Pin_11*%
%TO.N,/P0.22*%
X106150000Y-70225000D03*
%TO.P,J4,12,Pin_12*%
%TO.N,/P1.00*%
X108690000Y-70225000D03*
%TO.P,J4,13,Pin_13*%
%TO.N,GND*%
X111230000Y-70225000D03*
%TO.P,J4,14,Pin_14*%
%TO.N,/P0.13*%
X113770000Y-70225000D03*
%TO.P,J4,15,Pin_15*%
%TO.N,/P0.24*%
X116310000Y-70225000D03*
%TO.P,J4,16,Pin_16*%
%TO.N,/P1.02*%
X118850000Y-70225000D03*
%TO.P,J4,17,Pin_17*%
%TO.N,/P1.04*%
X121390000Y-70225000D03*
%TO.P,J4,18,Pin_18*%
%TO.N,/P0.09*%
X123930000Y-70225000D03*
%TO.P,J4,19,Pin_19*%
%TO.N,/P1.06*%
X126470000Y-70225000D03*
%TO.P,J4,20,Pin_20*%
%TO.N,/P0.10*%
X129010000Y-70225000D03*
%TD*%
D16*
%TO.N,GND*%
X93650000Y-59550000D03*
X92025000Y-63225000D03*
X106650000Y-59750000D03*
X99075000Y-54925000D03*
X101800000Y-62800000D03*
X125775000Y-56000000D03*
X88525000Y-54950000D03*
X83300000Y-65225000D03*
X86850000Y-59750000D03*
X103225000Y-57925000D03*
X86525000Y-67550000D03*
X96150000Y-63225000D03*
X83225000Y-57800000D03*
X120525000Y-62900000D03*
%TO.N,VBAT*%
X100700000Y-59050000D03*
X91800000Y-54950000D03*
%TO.N,VCC*%
X94875000Y-62000000D03*
X106950000Y-58450000D03*
X83275000Y-67675000D03*
%TO.N,VUSB*%
X83040803Y-58782383D03*
X93525000Y-57225000D03*
X96525000Y-58075000D03*
X83038766Y-63275000D03*
X101850000Y-57900000D03*
%TO.N,SWDIO*%
X126425000Y-68350000D03*
X127050000Y-60425000D03*
X112650000Y-58475000D03*
%TO.N,SWDCLK*%
X112650000Y-59675000D03*
X127773769Y-68348769D03*
%TO.N,D+*%
X123225000Y-68225000D03*
X85025000Y-63750000D03*
X99875000Y-67650000D03*
X86200000Y-65050000D03*
X85125000Y-61925000D03*
%TO.N,D-*%
X102600000Y-67500000D03*
X122000000Y-68225000D03*
X87325000Y-65075000D03*
%TO.N,RESET*%
X80750000Y-68400000D03*
X89775000Y-68400000D03*
X105000000Y-59675000D03*
X103925000Y-62200000D03*
%TO.N,/P0.02*%
X123250000Y-55975000D03*
%TO.N,/P0.29*%
X121975000Y-55975000D03*
%TO.N,/P0.31*%
X120700000Y-55975000D03*
%TO.N,/P0.30*%
X119425000Y-55975000D03*
%TO.N,/P0.05*%
X115675000Y-58500000D03*
%TO.N,/LED1*%
X103300000Y-66600000D03*
%TO.N,BATTERY_PIN*%
X104175000Y-56525000D03*
%TO.N,Net-(R6-Pad1)*%
X96274799Y-61274799D03*
X92325000Y-59925000D03*
%TO.N,/P1.09*%
X115425000Y-60225000D03*
%TO.N,/P0.13*%
X124475000Y-68250000D03*
%TD*%
D17*
%TO.N,GND*%
X120525000Y-62900000D02*
X125775000Y-57650000D01*
X120525000Y-62900000D02*
X120525000Y-63174500D01*
X120525000Y-63174500D02*
X118912500Y-64787000D01*
D18*
X86227723Y-59750000D02*
X84300489Y-61677234D01*
X84300489Y-61677234D02*
X84300489Y-64224511D01*
X96150000Y-63225000D02*
X101375000Y-63225000D01*
D17*
X125775000Y-57650000D02*
X125775000Y-56000000D01*
D18*
X101375000Y-63225000D02*
X101800000Y-62800000D01*
X84300489Y-64224511D02*
X83300000Y-65225000D01*
X86850000Y-59750000D02*
X86227723Y-59750000D01*
%TO.N,VBAT*%
X91800000Y-54950000D02*
X91800000Y-56572277D01*
X94277723Y-59050000D02*
X100700000Y-59050000D01*
X91800000Y-56572277D02*
X94277723Y-59050000D01*
%TO.N,VCC*%
X103375000Y-59025000D02*
X103950000Y-58450000D01*
X100375000Y-62000000D02*
X100400000Y-62000000D01*
X83275000Y-67675000D02*
X83275000Y-66877723D01*
X88152723Y-62000000D02*
X83275000Y-66877723D01*
X94875000Y-62000000D02*
X100375000Y-62000000D01*
X103950000Y-58450000D02*
X106950000Y-58450000D01*
X94875000Y-62000000D02*
X88152723Y-62000000D01*
X100400000Y-62000000D02*
X103375000Y-59025000D01*
%TO.N,VUSB*%
X83038766Y-58784420D02*
X83040803Y-58782383D01*
X96700000Y-57900000D02*
X96525000Y-58075000D01*
X96525000Y-58075000D02*
X96525000Y-53695000D01*
X101850000Y-57900000D02*
X96700000Y-57900000D01*
X94375000Y-58075000D02*
X93525000Y-57225000D01*
X96525000Y-58075000D02*
X94375000Y-58075000D01*
X83038766Y-63275000D02*
X83038766Y-58784420D01*
X96525000Y-53695000D02*
X98470000Y-51750000D01*
D19*
%TO.N,D+*%
X88800000Y-67650000D02*
X99875000Y-67650000D01*
X85025000Y-62025000D02*
X85125000Y-61925000D01*
X86200000Y-65050000D02*
X88800000Y-67650000D01*
X85025000Y-63750000D02*
X85025000Y-62025000D01*
%TO.N,D-*%
X87825000Y-65225000D02*
X89200860Y-66600860D01*
X87825000Y-65225000D02*
X87475000Y-65225000D01*
X101577609Y-66600860D02*
X89200860Y-66600860D01*
X87475000Y-65225000D02*
X87325000Y-65075000D01*
D17*
X101700860Y-66600860D02*
X102600000Y-67500000D01*
X101577609Y-66600860D02*
X101700860Y-66600860D01*
D18*
%TO.N,RESET*%
X89775000Y-68400000D02*
X80750000Y-68400000D01*
X105000000Y-59675000D02*
X105000000Y-61125000D01*
X105000000Y-61125000D02*
X103925000Y-62200000D01*
D17*
%TO.N,/P1.04*%
X127763500Y-66350000D02*
X122876723Y-66350000D01*
X129072500Y-65041000D02*
X127763500Y-66350000D01*
X122876723Y-66350000D02*
X120540000Y-68686723D01*
X120540000Y-68686723D02*
X120540000Y-69375000D01*
X120540000Y-69375000D02*
X121390000Y-70225000D01*
D18*
%TO.N,BATTERY_PIN*%
X110727000Y-60977000D02*
X106275000Y-56525000D01*
X106275000Y-56525000D02*
X104175000Y-56525000D01*
X118912500Y-60977000D02*
X110727000Y-60977000D01*
%TO.N,Net-(R6-Pad1)*%
X95750000Y-60750000D02*
X93150000Y-60750000D01*
X93150000Y-60750000D02*
X92325000Y-59925000D01*
X96274799Y-61274799D02*
X95750000Y-60750000D01*
D17*
%TO.N,/P1.02*%
X127802500Y-65041000D02*
X127802500Y-64252500D01*
X118850000Y-66324380D02*
X118850000Y-70225000D01*
X120921880Y-64252500D02*
X118850000Y-66324380D01*
X127802500Y-64252500D02*
X120921880Y-64252500D01*
%TD*%
%TA.AperFunction,Conductor*%
%TO.N,GND*%
G36*
X79781027Y-66003002D02*
G01*
X79827520Y-66056658D01*
X79837624Y-66126932D01*
X79831934Y-66150333D01*
X79771343Y-66324816D01*
X79770030Y-66330204D01*
X79771712Y-66342006D01*
X79785283Y-66346000D01*
X81253000Y-66346000D01*
X81321121Y-66366002D01*
X81367614Y-66419658D01*
X81379000Y-66472000D01*
X81379000Y-66728000D01*
X81358998Y-66796121D01*
X81305342Y-66842614D01*
X81253000Y-66854000D01*
X79789039Y-66854000D01*
X79775508Y-66857973D01*
X79774153Y-66867399D01*
X79797594Y-66964664D01*
X79801483Y-66975959D01*
X79885991Y-67161824D01*
X79891938Y-67172166D01*
X80010074Y-67338707D01*
X80017867Y-67347736D01*
X80165364Y-67488934D01*
X80175240Y-67496733D01*
X80216304Y-67554649D01*
X80219537Y-67625572D01*
X80183914Y-67686984D01*
X80171211Y-67697552D01*
X80144093Y-67717254D01*
X80144091Y-67717256D01*
X80138749Y-67721137D01*
X80134328Y-67726047D01*
X80134327Y-67726048D01*
X80026137Y-67846206D01*
X80010963Y-67863058D01*
X80007662Y-67868776D01*
X79921444Y-68018110D01*
X79915476Y-68028446D01*
X79911121Y-68041850D01*
X79865836Y-68181224D01*
X79856462Y-68210073D01*
X79855772Y-68216636D01*
X79855772Y-68216637D01*
X79837980Y-68385920D01*
X79836500Y-68400000D01*
X79837190Y-68406565D01*
X79850388Y-68532132D01*
X79856462Y-68589927D01*
X79858502Y-68596205D01*
X79858502Y-68596206D01*
X79895929Y-68711395D01*
X79897956Y-68782363D01*
X79861294Y-68843161D01*
X79811594Y-68871227D01*
X79695330Y-68905365D01*
X79695328Y-68905366D01*
X79686684Y-68907904D01*
X79669232Y-68919120D01*
X79571309Y-68982051D01*
X79571306Y-68982053D01*
X79563729Y-68986923D01*
X79557828Y-68993733D01*
X79473918Y-69090569D01*
X79473916Y-69090572D01*
X79468016Y-69097381D01*
X79464272Y-69105579D01*
X79426015Y-69189351D01*
X79407300Y-69230330D01*
X79406018Y-69239245D01*
X79406018Y-69239246D01*
X79387139Y-69370552D01*
X79387138Y-69370559D01*
X79386500Y-69375000D01*
X79386500Y-71075000D01*
X79391727Y-71148079D01*
X79400299Y-71177272D01*
X79424350Y-71259182D01*
X79432904Y-71288316D01*
X79437774Y-71295894D01*
X79437775Y-71295896D01*
X79503316Y-71397879D01*
X79523318Y-71466000D01*
X79503316Y-71534121D01*
X79449660Y-71580614D01*
X79397318Y-71592000D01*
X77509745Y-71592000D01*
X77441624Y-71571998D01*
X77395131Y-71518342D01*
X77385027Y-71448068D01*
X77414521Y-71383488D01*
X77474247Y-71345104D01*
X77486567Y-71342150D01*
X77516848Y-71336483D01*
X77516847Y-71336483D01*
X77521823Y-71335552D01*
X77582915Y-71313558D01*
X77669968Y-71282217D01*
X77750234Y-71253320D01*
X77962558Y-71135626D01*
X77966536Y-71132496D01*
X77966540Y-71132493D01*
X78149358Y-70988629D01*
X78149359Y-70988628D01*
X78153334Y-70985500D01*
X78157495Y-70980975D01*
X78314231Y-70810527D01*
X78314234Y-70810523D01*
X78317654Y-70806804D01*
X78451290Y-70604134D01*
X78473434Y-70554861D01*
X78548730Y-70387322D01*
X78548732Y-70387316D01*
X78550804Y-70382706D01*
X78571000Y-70307333D01*
X78612327Y-70153098D01*
X78612327Y-70153097D01*
X78613635Y-70148216D01*
X78638168Y-69906696D01*
X78638500Y-69875000D01*
X78619031Y-69633020D01*
X78611449Y-69602149D01*
X78562331Y-69402179D01*
X78561124Y-69397265D01*
X78556323Y-69385953D01*
X78468245Y-69178456D01*
X78468245Y-69178455D01*
X78466269Y-69173801D01*
X78336907Y-68968378D01*
X78176365Y-68786279D01*
X77988775Y-68632191D01*
X77778962Y-68510076D01*
X77774235Y-68508262D01*
X77774232Y-68508260D01*
X77557048Y-68424891D01*
X77557044Y-68424890D01*
X77552324Y-68423078D01*
X77547374Y-68422044D01*
X77547371Y-68422043D01*
X77319643Y-68374468D01*
X77319639Y-68374468D01*
X77314692Y-68373434D01*
X77072180Y-68362422D01*
X77067160Y-68363003D01*
X77067156Y-68363003D01*
X76869089Y-68385920D01*
X76831026Y-68390324D01*
X76826155Y-68391702D01*
X76826152Y-68391703D01*
X76766808Y-68408496D01*
X76597436Y-68456424D01*
X76487428Y-68507721D01*
X76382001Y-68556882D01*
X76381997Y-68556884D01*
X76377419Y-68559019D01*
X76176635Y-68695472D01*
X76000250Y-68862271D01*
X75997172Y-68866297D01*
X75997171Y-68866298D01*
X75855875Y-69051105D01*
X75855872Y-69051109D01*
X75852802Y-69055125D01*
X75850412Y-69059583D01*
X75850411Y-69059584D01*
X75814369Y-69126803D01*
X75738085Y-69269072D01*
X75736439Y-69273853D01*
X75736437Y-69273857D01*
X75673259Y-69457339D01*
X75659049Y-69498608D01*
X75658187Y-69503600D01*
X75658161Y-69503749D01*
X75658135Y-69503802D01*
X75656930Y-69508495D01*
X75655953Y-69508244D01*
X75626856Y-69567471D01*
X75566070Y-69604153D01*
X75495102Y-69602149D01*
X75436484Y-69562094D01*
X75408826Y-69496706D01*
X75408000Y-69482303D01*
X75408000Y-67187221D01*
X75428002Y-67119100D01*
X75481658Y-67072607D01*
X75551932Y-67062503D01*
X75616512Y-67091997D01*
X75637764Y-67117780D01*
X75638471Y-67117279D01*
X75760074Y-67288707D01*
X75767867Y-67297736D01*
X75915358Y-67438928D01*
X75924733Y-67446332D01*
X76096252Y-67557079D01*
X76106860Y-67562578D01*
X76296223Y-67638893D01*
X76307681Y-67642287D01*
X76509505Y-67681701D01*
X76518473Y-67682790D01*
X76521223Y-67682925D01*
X76524316Y-67683000D01*
X76852885Y-67683000D01*
X76868124Y-67678525D01*
X76869329Y-67677135D01*
X76871000Y-67669452D01*
X76871000Y-66817548D01*
X77379000Y-66817548D01*
X77379000Y-67664885D01*
X77383475Y-67680124D01*
X77384865Y-67681329D01*
X77392548Y-67683000D01*
X77674413Y-67683000D01*
X77680390Y-67682715D01*
X77834214Y-67668039D01*
X77845948Y-67665780D01*
X78041864Y-67608305D01*
X78052947Y-67603872D01*
X78234458Y-67510387D01*
X78244513Y-67503931D01*
X78405070Y-67377813D01*
X78413719Y-67369577D01*
X78547535Y-67215366D01*
X78554464Y-67205653D01*
X78656706Y-67028921D01*
X78661679Y-67018060D01*
X78728657Y-66825184D01*
X78729970Y-66819796D01*
X78728288Y-66807994D01*
X78714717Y-66804000D01*
X77397115Y-66804000D01*
X77381876Y-66808475D01*
X77380671Y-66809865D01*
X77379000Y-66817548D01*
X76871000Y-66817548D01*
X76871000Y-66422000D01*
X76891002Y-66353879D01*
X76944658Y-66307386D01*
X76997000Y-66296000D01*
X78710961Y-66296000D01*
X78724492Y-66292027D01*
X78725847Y-66282601D01*
X78702406Y-66185336D01*
X78698515Y-66174037D01*
X78692656Y-66161150D01*
X78682670Y-66090860D01*
X78712271Y-66026328D01*
X78772061Y-65988045D01*
X78807357Y-65983000D01*
X79712906Y-65983000D01*
X79781027Y-66003002D01*
G37*
%TD.AperFunction*%
%TA.AperFunction,Conductor*%
G36*
X107803639Y-58969742D02*
G01*
X107854941Y-59000845D01*
X110223609Y-61369513D01*
X110230969Y-61377601D01*
X110235027Y-61383995D01*
X110240804Y-61389420D01*
X110283878Y-61429869D01*
X110286720Y-61432624D01*
X110307034Y-61452938D01*
X110310445Y-61455583D01*
X110319465Y-61463287D01*
X110351699Y-61493557D01*
X110358643Y-61497374D01*
X110358645Y-61497376D01*
X110369453Y-61503318D01*
X110385977Y-61514172D01*
X110401977Y-61526583D01*
X110437234Y-61541840D01*
X110442551Y-61544141D01*
X110453207Y-61549362D01*
X110491952Y-61570662D01*
X110499635Y-61572634D01*
X110499636Y-61572635D01*
X110511568Y-61575699D01*
X110530272Y-61582103D01*
X110541583Y-61586998D01*
X110541590Y-61587000D01*
X110548864Y-61590148D01*
X110576663Y-61594551D01*
X110592538Y-61597065D01*
X110604163Y-61599473D01*
X110641218Y-61608987D01*
X110641220Y-61608987D01*
X110646975Y-61610465D01*
X110647531Y-61610500D01*
X110667446Y-61610500D01*
X110687156Y-61612051D01*
X110706944Y-61615185D01*
X110714835Y-61614439D01*
X110750590Y-61611059D01*
X110762448Y-61610500D01*
X117801806Y-61610500D01*
X117869927Y-61630502D01*
X117916420Y-61684158D01*
X117926524Y-61754432D01*
X117923128Y-61770043D01*
X117919800Y-61777330D01*
X117918518Y-61786248D01*
X117918517Y-61786251D01*
X117899639Y-61917552D01*
X117899638Y-61917559D01*
X117899000Y-61922000D01*
X117899000Y-62572000D01*
X117904227Y-62645079D01*
X117911776Y-62670789D01*
X117941820Y-62773109D01*
X117945404Y-62785316D01*
X117950276Y-62792897D01*
X117963189Y-62812990D01*
X117983192Y-62881111D01*
X117971805Y-62933455D01*
X117951150Y-62978684D01*
X117919800Y-63047330D01*
X117918518Y-63056245D01*
X117918518Y-63056246D01*
X117899639Y-63187552D01*
X117899638Y-63187559D01*
X117899000Y-63192000D01*
X117899000Y-63842000D01*
X117904227Y-63915079D01*
X117922630Y-63977754D01*
X117937237Y-64027500D01*
X117945404Y-64055316D01*
X117950275Y-64062895D01*
X117963508Y-64083486D01*
X117983510Y-64151606D01*
X117972124Y-64203949D01*
X117924023Y-64309275D01*
X117918998Y-64326388D01*
X117900139Y-64457554D01*
X117899500Y-64466495D01*
X117899500Y-64514885D01*
X117903975Y-64530124D01*
X117905365Y-64531329D01*
X117913048Y-64533000D01*
X119040500Y-64533000D01*
X119108621Y-64553002D01*
X119155114Y-64606658D01*
X119166500Y-64659000D01*
X119166500Y-64915000D01*
X119146498Y-64983121D01*
X119092842Y-65029614D01*
X119040500Y-65041000D01*
X117917615Y-65041000D01*
X117902376Y-65045475D01*
X117901171Y-65046865D01*
X117899500Y-65054548D01*
X117899500Y-65109743D01*
X117899661Y-65114250D01*
X117904240Y-65178269D01*
X117906626Y-65191491D01*
X117943319Y-65316458D01*
X117950733Y-65332692D01*
X118019926Y-65440360D01*
X118031612Y-65453847D01*
X118128340Y-65537662D01*
X118143348Y-65547307D01*
X118259775Y-65600477D01*
X118276888Y-65605502D01*
X118408054Y-65624361D01*
X118416995Y-65625000D01*
X118419997Y-65625000D01*
X118420963Y-65625284D01*
X118421485Y-65625321D01*
X118421477Y-65625435D01*
X118488118Y-65645002D01*
X118534611Y-65698658D01*
X118544715Y-65768932D01*
X118515221Y-65833512D01*
X118509092Y-65840095D01*
X118470100Y-65879087D01*
X118457709Y-65889954D01*
X118433868Y-65908248D01*
X118350143Y-66017360D01*
X118340344Y-66030130D01*
X118337185Y-66037756D01*
X118337184Y-66037758D01*
X118312963Y-66096233D01*
X118281553Y-66172065D01*
X118261500Y-66324380D01*
X118262578Y-66332568D01*
X118265422Y-66354170D01*
X118266500Y-66370617D01*
X118266500Y-68918961D01*
X118246498Y-68987082D01*
X118205865Y-69026680D01*
X118051196Y-69120535D01*
X118051191Y-69120539D01*
X118046631Y-69123306D01*
X118042601Y-69126803D01*
X117892256Y-69257265D01*
X117872492Y-69274415D01*
X117869109Y-69278541D01*
X117869105Y-69278545D01*
X117816903Y-69342211D01*
X117726304Y-69452705D01*
X117723667Y-69457338D01*
X117723666Y-69457339D01*
X117690116Y-69516278D01*
X117639033Y-69565584D01*
X117569402Y-69579445D01*
X117503332Y-69553461D01*
X117476094Y-69524312D01*
X117476094Y-69524311D01*
X117393209Y-69401197D01*
X117375607Y-69375052D01*
X117375605Y-69375050D01*
X117372627Y-69370626D01*
X117361576Y-69359041D01*
X117249935Y-69242012D01*
X117213482Y-69203799D01*
X117028504Y-69066171D01*
X117023753Y-69063755D01*
X117023749Y-69063753D01*
X116827740Y-68964097D01*
X116827739Y-68964097D01*
X116822982Y-68961678D01*
X116701485Y-68923952D01*
X116607895Y-68894891D01*
X116607889Y-68894890D01*
X116602792Y-68893307D01*
X116497798Y-68879391D01*
X116379515Y-68863714D01*
X116379510Y-68863714D01*
X116374230Y-68863014D01*
X116368900Y-68863214D01*
X116368899Y-68863214D01*
X116275320Y-68866727D01*
X116143831Y-68871663D01*
X116076727Y-68885743D01*
X115923411Y-68917912D01*
X115923408Y-68917913D01*
X115918184Y-68919009D01*
X115703740Y-69003697D01*
X115506631Y-69123306D01*
X115502601Y-69126803D01*
X115352256Y-69257265D01*
X115332492Y-69274415D01*
X115329109Y-69278541D01*
X115329105Y-69278545D01*
X115276903Y-69342211D01*
X115186304Y-69452705D01*
X115183667Y-69457338D01*
X115183666Y-69457339D01*
X115150116Y-69516278D01*
X115099033Y-69565584D01*
X115029402Y-69579445D01*
X114963332Y-69553461D01*
X114936094Y-69524312D01*
X114936094Y-69524311D01*
X114853209Y-69401197D01*
X114835607Y-69375052D01*
X114835605Y-69375050D01*
X114832627Y-69370626D01*
X114821576Y-69359041D01*
X114709935Y-69242012D01*
X114673482Y-69203799D01*
X114488504Y-69066171D01*
X114483753Y-69063755D01*
X114483749Y-69063753D01*
X114287740Y-68964097D01*
X114287739Y-68964097D01*
X114282982Y-68961678D01*
X114161485Y-68923952D01*
X114067895Y-68894891D01*
X114067889Y-68894890D01*
X114062792Y-68893307D01*
X113957798Y-68879391D01*
X113839515Y-68863714D01*
X113839510Y-68863714D01*
X113834230Y-68863014D01*
X113828900Y-68863214D01*
X113828899Y-68863214D01*
X113735320Y-68866727D01*
X113603831Y-68871663D01*
X113536727Y-68885743D01*
X113383411Y-68917912D01*
X113383408Y-68917913D01*
X113378184Y-68919009D01*
X113163740Y-69003697D01*
X112966631Y-69123306D01*
X112962601Y-69126803D01*
X112812256Y-69257265D01*
X112792492Y-69274415D01*
X112789109Y-69278541D01*
X112789105Y-69278545D01*
X112736903Y-69342211D01*
X112646304Y-69452705D01*
X112609854Y-69516739D01*
X112609842Y-69516760D01*
X112558760Y-69566066D01*
X112489130Y-69579928D01*
X112423059Y-69553945D01*
X112395820Y-69524795D01*
X112295218Y-69375366D01*
X112288557Y-69367080D01*
X112136830Y-69208030D01*
X112128873Y-69200990D01*
X111952523Y-69069782D01*
X111943486Y-69064178D01*
X111747550Y-68964559D01*
X111737699Y-68960559D01*
X111527778Y-68895378D01*
X111517396Y-68893095D01*
X111501959Y-68891049D01*
X111487792Y-68893246D01*
X111484000Y-68906430D01*
X111484000Y-70353000D01*
X111463998Y-70421121D01*
X111410342Y-70467614D01*
X111358000Y-70479000D01*
X111102000Y-70479000D01*
X111033879Y-70458998D01*
X110987386Y-70405342D01*
X110976000Y-70353000D01*
X110976000Y-68908717D01*
X110972027Y-68895186D01*
X110961420Y-68893661D01*
X110843554Y-68918391D01*
X110833358Y-68921451D01*
X110628932Y-69002182D01*
X110619396Y-69006916D01*
X110431486Y-69120942D01*
X110422896Y-69127206D01*
X110256884Y-69271264D01*
X110249464Y-69278895D01*
X110110100Y-69448860D01*
X110104079Y-69457622D01*
X110070427Y-69516739D01*
X110019344Y-69566045D01*
X109949714Y-69579906D01*
X109883643Y-69553922D01*
X109856405Y-69524773D01*
X109775338Y-69404360D01*
X109752627Y-69370626D01*
X109741576Y-69359041D01*
X109629935Y-69242012D01*
X109593482Y-69203799D01*
X109408504Y-69066171D01*
X109403753Y-69063755D01*
X109403749Y-69063753D01*
X109207740Y-68964097D01*
X109207739Y-68964097D01*
X109202982Y-68961678D01*
X109081485Y-68923952D01*
X108987895Y-68894891D01*
X108987889Y-68894890D01*
X108982792Y-68893307D01*
X108877798Y-68879391D01*
X108759515Y-68863714D01*
X108759510Y-68863714D01*
X108754230Y-68863014D01*
X108748900Y-68863214D01*
X108748899Y-68863214D01*
X108655320Y-68866727D01*
X108523831Y-68871663D01*
X108456727Y-68885743D01*
X108303411Y-68917912D01*
X108303408Y-68917913D01*
X108298184Y-68919009D01*
X108083740Y-69003697D01*
X107886631Y-69123306D01*
X107882601Y-69126803D01*
X107732256Y-69257265D01*
X107712492Y-69274415D01*
X107709109Y-69278541D01*
X107709105Y-69278545D01*
X107656903Y-69342211D01*
X107566304Y-69452705D01*
X107563667Y-69457338D01*
X107563666Y-69457339D01*
X107530116Y-69516278D01*
X107479033Y-69565584D01*
X107409402Y-69579445D01*
X107343332Y-69553461D01*
X107316094Y-69524312D01*
X107316094Y-69524311D01*
X107233209Y-69401197D01*
X107215607Y-69375052D01*
X107215605Y-69375050D01*
X107212627Y-69370626D01*
X107201576Y-69359041D01*
X107089935Y-69242012D01*
X107053482Y-69203799D01*
X106868504Y-69066171D01*
X106863753Y-69063755D01*
X106863749Y-69063753D01*
X106667740Y-68964097D01*
X106667739Y-68964097D01*
X106662982Y-68961678D01*
X106541485Y-68923952D01*
X106447895Y-68894891D01*
X106447889Y-68894890D01*
X106442792Y-68893307D01*
X106337798Y-68879391D01*
X106219515Y-68863714D01*
X106219510Y-68863714D01*
X106214230Y-68863014D01*
X106208900Y-68863214D01*
X106208899Y-68863214D01*
X106115320Y-68866727D01*
X105983831Y-68871663D01*
X105916727Y-68885743D01*
X105763411Y-68917912D01*
X105763408Y-68917913D01*
X105758184Y-68919009D01*
X105543740Y-69003697D01*
X105346631Y-69123306D01*
X105342601Y-69126803D01*
X105192256Y-69257265D01*
X105172492Y-69274415D01*
X105169109Y-69278541D01*
X105169105Y-69278545D01*
X105116903Y-69342211D01*
X105026304Y-69452705D01*
X105023667Y-69457338D01*
X105023666Y-69457339D01*
X104990116Y-69516278D01*
X104939033Y-69565584D01*
X104869402Y-69579445D01*
X104803332Y-69553461D01*
X104776094Y-69524312D01*
X104776094Y-69524311D01*
X104693209Y-69401197D01*
X104675607Y-69375052D01*
X104675605Y-69375050D01*
X104672627Y-69370626D01*
X104661576Y-69359041D01*
X104549935Y-69242012D01*
X104513482Y-69203799D01*
X104328504Y-69066171D01*
X104323753Y-69063755D01*
X104323749Y-69063753D01*
X104127740Y-68964097D01*
X104127739Y-68964097D01*
X104122982Y-68961678D01*
X104001485Y-68923952D01*
X103907895Y-68894891D01*
X103907889Y-68894890D01*
X103902792Y-68893307D01*
X103797798Y-68879391D01*
X103679515Y-68863714D01*
X103679510Y-68863714D01*
X103674230Y-68863014D01*
X103668900Y-68863214D01*
X103668899Y-68863214D01*
X103575320Y-68866727D01*
X103443831Y-68871663D01*
X103376727Y-68885743D01*
X103223411Y-68917912D01*
X103223408Y-68917913D01*
X103218184Y-68919009D01*
X103003740Y-69003697D01*
X102806631Y-69123306D01*
X102802601Y-69126803D01*
X102652256Y-69257265D01*
X102632492Y-69274415D01*
X102629109Y-69278541D01*
X102629105Y-69278545D01*
X102576903Y-69342211D01*
X102486304Y-69452705D01*
X102483667Y-69457338D01*
X102483666Y-69457339D01*
X102450116Y-69516278D01*
X102399033Y-69565584D01*
X102329402Y-69579445D01*
X102263332Y-69553461D01*
X102236094Y-69524312D01*
X102236094Y-69524311D01*
X102153209Y-69401197D01*
X102135607Y-69375052D01*
X102135605Y-69375050D01*
X102132627Y-69370626D01*
X102121576Y-69359041D01*
X102009935Y-69242012D01*
X101973482Y-69203799D01*
X101788504Y-69066171D01*
X101783753Y-69063755D01*
X101783749Y-69063753D01*
X101587740Y-68964097D01*
X101587739Y-68964097D01*
X101582982Y-68961678D01*
X101461485Y-68923952D01*
X101367895Y-68894891D01*
X101367889Y-68894890D01*
X101362792Y-68893307D01*
X101257798Y-68879391D01*
X101139515Y-68863714D01*
X101139510Y-68863714D01*
X101134230Y-68863014D01*
X101128900Y-68863214D01*
X101128899Y-68863214D01*
X101035320Y-68866727D01*
X100903831Y-68871663D01*
X100836727Y-68885743D01*
X100683411Y-68917912D01*
X100683408Y-68917913D01*
X100678184Y-68919009D01*
X100463740Y-69003697D01*
X100266631Y-69123306D01*
X100262601Y-69126803D01*
X100112256Y-69257265D01*
X100092492Y-69274415D01*
X100089109Y-69278541D01*
X100089105Y-69278545D01*
X100036903Y-69342211D01*
X99946304Y-69452705D01*
X99943667Y-69457338D01*
X99943666Y-69457339D01*
X99910116Y-69516278D01*
X99859033Y-69565584D01*
X99789402Y-69579445D01*
X99723332Y-69553461D01*
X99696094Y-69524312D01*
X99696094Y-69524311D01*
X99613209Y-69401197D01*
X99595607Y-69375052D01*
X99595605Y-69375050D01*
X99592627Y-69370626D01*
X99581576Y-69359041D01*
X99469935Y-69242012D01*
X99433482Y-69203799D01*
X99248504Y-69066171D01*
X99243753Y-69063755D01*
X99243749Y-69063753D01*
X99047740Y-68964097D01*
X99047739Y-68964097D01*
X99042982Y-68961678D01*
X98921485Y-68923952D01*
X98827895Y-68894891D01*
X98827889Y-68894890D01*
X98822792Y-68893307D01*
X98717798Y-68879391D01*
X98599515Y-68863714D01*
X98599510Y-68863714D01*
X98594230Y-68863014D01*
X98588900Y-68863214D01*
X98588899Y-68863214D01*
X98495320Y-68866727D01*
X98363831Y-68871663D01*
X98296727Y-68885743D01*
X98143411Y-68917912D01*
X98143408Y-68917913D01*
X98138184Y-68919009D01*
X97923740Y-69003697D01*
X97726631Y-69123306D01*
X97722601Y-69126803D01*
X97572256Y-69257265D01*
X97552492Y-69274415D01*
X97549109Y-69278541D01*
X97549105Y-69278545D01*
X97496903Y-69342211D01*
X97406304Y-69452705D01*
X97403667Y-69457338D01*
X97403666Y-69457339D01*
X97370116Y-69516278D01*
X97319033Y-69565584D01*
X97249402Y-69579445D01*
X97183332Y-69553461D01*
X97156094Y-69524312D01*
X97156094Y-69524311D01*
X97073209Y-69401197D01*
X97055607Y-69375052D01*
X97055605Y-69375050D01*
X97052627Y-69370626D01*
X97041576Y-69359041D01*
X96929935Y-69242012D01*
X96893482Y-69203799D01*
X96708504Y-69066171D01*
X96703753Y-69063755D01*
X96703749Y-69063753D01*
X96507740Y-68964097D01*
X96507739Y-68964097D01*
X96502982Y-68961678D01*
X96381485Y-68923952D01*
X96287895Y-68894891D01*
X96287889Y-68894890D01*
X96282792Y-68893307D01*
X96177798Y-68879391D01*
X96059515Y-68863714D01*
X96059510Y-68863714D01*
X96054230Y-68863014D01*
X96048900Y-68863214D01*
X96048899Y-68863214D01*
X95955320Y-68866727D01*
X95823831Y-68871663D01*
X95756727Y-68885743D01*
X95603411Y-68917912D01*
X95603408Y-68917913D01*
X95598184Y-68919009D01*
X95383740Y-69003697D01*
X95186631Y-69123306D01*
X95182601Y-69126803D01*
X95032256Y-69257265D01*
X95012492Y-69274415D01*
X95009109Y-69278541D01*
X95009105Y-69278545D01*
X94956903Y-69342211D01*
X94866304Y-69452705D01*
X94863667Y-69457338D01*
X94863666Y-69457339D01*
X94830116Y-69516278D01*
X94779033Y-69565584D01*
X94709402Y-69579445D01*
X94643332Y-69553461D01*
X94616094Y-69524312D01*
X94616094Y-69524311D01*
X94533209Y-69401197D01*
X94515607Y-69375052D01*
X94515605Y-69375050D01*
X94512627Y-69370626D01*
X94501576Y-69359041D01*
X94389935Y-69242012D01*
X94353482Y-69203799D01*
X94168504Y-69066171D01*
X94163753Y-69063755D01*
X94163749Y-69063753D01*
X93967740Y-68964097D01*
X93967739Y-68964097D01*
X93962982Y-68961678D01*
X93841485Y-68923952D01*
X93747895Y-68894891D01*
X93747889Y-68894890D01*
X93742792Y-68893307D01*
X93637798Y-68879391D01*
X93519515Y-68863714D01*
X93519510Y-68863714D01*
X93514230Y-68863014D01*
X93508900Y-68863214D01*
X93508899Y-68863214D01*
X93415320Y-68866727D01*
X93283831Y-68871663D01*
X93216727Y-68885743D01*
X93063411Y-68917912D01*
X93063408Y-68917913D01*
X93058184Y-68919009D01*
X92843740Y-69003697D01*
X92646631Y-69123306D01*
X92642601Y-69126803D01*
X92492256Y-69257265D01*
X92472492Y-69274415D01*
X92469109Y-69278541D01*
X92469105Y-69278545D01*
X92416903Y-69342211D01*
X92326304Y-69452705D01*
X92323667Y-69457338D01*
X92323666Y-69457339D01*
X92290116Y-69516278D01*
X92239033Y-69565584D01*
X92169402Y-69579445D01*
X92103332Y-69553461D01*
X92076094Y-69524312D01*
X92076094Y-69524311D01*
X91993209Y-69401197D01*
X91975607Y-69375052D01*
X91975605Y-69375050D01*
X91972627Y-69370626D01*
X91961576Y-69359041D01*
X91849935Y-69242012D01*
X91813482Y-69203799D01*
X91628504Y-69066171D01*
X91623753Y-69063755D01*
X91623749Y-69063753D01*
X91427740Y-68964097D01*
X91427739Y-68964097D01*
X91422982Y-68961678D01*
X91301485Y-68923952D01*
X91207895Y-68894891D01*
X91207889Y-68894890D01*
X91202792Y-68893307D01*
X91097798Y-68879391D01*
X90979515Y-68863714D01*
X90979510Y-68863714D01*
X90974230Y-68863014D01*
X90968900Y-68863214D01*
X90968899Y-68863214D01*
X90755258Y-68871234D01*
X90686434Y-68853802D01*
X90637962Y-68801928D01*
X90625229Y-68732082D01*
X90630698Y-68706387D01*
X90666498Y-68596206D01*
X90666498Y-68596205D01*
X90668538Y-68589927D01*
X90674613Y-68532132D01*
X90687810Y-68406565D01*
X90688500Y-68400000D01*
X90687810Y-68393435D01*
X90687810Y-68386830D01*
X90690239Y-68386830D01*
X90701025Y-68327837D01*
X90749524Y-68275988D01*
X90813565Y-68258500D01*
X99144296Y-68258500D01*
X99212417Y-68278502D01*
X99237928Y-68300186D01*
X99263749Y-68328863D01*
X99269091Y-68332744D01*
X99269093Y-68332746D01*
X99373355Y-68408496D01*
X99418250Y-68441114D01*
X99424278Y-68443798D01*
X99424280Y-68443799D01*
X99569062Y-68508260D01*
X99592713Y-68518790D01*
X99686113Y-68538643D01*
X99773056Y-68557124D01*
X99773061Y-68557124D01*
X99779513Y-68558496D01*
X99970487Y-68558496D01*
X99976939Y-68557124D01*
X99976944Y-68557124D01*
X100063887Y-68538643D01*
X100157287Y-68518790D01*
X100180938Y-68508260D01*
X100325720Y-68443799D01*
X100325722Y-68443798D01*
X100331750Y-68441114D01*
X100376645Y-68408496D01*
X100480907Y-68332746D01*
X100480909Y-68332744D01*
X100486251Y-68328863D01*
X100555191Y-68252297D01*
X100609618Y-68191850D01*
X100609619Y-68191849D01*
X100614037Y-68186942D01*
X100687285Y-68060073D01*
X100706220Y-68027277D01*
X100706221Y-68027276D01*
X100709524Y-68021554D01*
X100753980Y-67884731D01*
X100766498Y-67846206D01*
X100766498Y-67846205D01*
X100768538Y-67839927D01*
X100770891Y-67817545D01*
X100787810Y-67656565D01*
X100788500Y-67650000D01*
X100773826Y-67510387D01*
X100769228Y-67466637D01*
X100769228Y-67466636D01*
X100768538Y-67460073D01*
X100740667Y-67374294D01*
X100738639Y-67303329D01*
X100775302Y-67242531D01*
X100839014Y-67211205D01*
X100860500Y-67209360D01*
X101431977Y-67209360D01*
X101500098Y-67229362D01*
X101521072Y-67246265D01*
X101652402Y-67377595D01*
X101686428Y-67439907D01*
X101688617Y-67479860D01*
X101686500Y-67500000D01*
X101687190Y-67506565D01*
X101705118Y-67677135D01*
X101706462Y-67689927D01*
X101708502Y-67696205D01*
X101708502Y-67696206D01*
X101716603Y-67721137D01*
X101765476Y-67871554D01*
X101860963Y-68036942D01*
X101865381Y-68041849D01*
X101865382Y-68041850D01*
X101965068Y-68152563D01*
X101988749Y-68178863D01*
X101994091Y-68182744D01*
X101994093Y-68182746D01*
X102125891Y-68278502D01*
X102143250Y-68291114D01*
X102149278Y-68293798D01*
X102149280Y-68293799D01*
X102304715Y-68363003D01*
X102317713Y-68368790D01*
X102402584Y-68386830D01*
X102498056Y-68407124D01*
X102498061Y-68407124D01*
X102504513Y-68408496D01*
X102695487Y-68408496D01*
X102701939Y-68407124D01*
X102701944Y-68407124D01*
X102797416Y-68386830D01*
X102882287Y-68368790D01*
X102895285Y-68363003D01*
X103050720Y-68293799D01*
X103050722Y-68293798D01*
X103056750Y-68291114D01*
X103074109Y-68278502D01*
X103205907Y-68182746D01*
X103205909Y-68182744D01*
X103211251Y-68178863D01*
X103234932Y-68152563D01*
X103334618Y-68041850D01*
X103334619Y-68041849D01*
X103339037Y-68036942D01*
X103434524Y-67871554D01*
X103483397Y-67721137D01*
X103491498Y-67696206D01*
X103491498Y-67696205D01*
X103493538Y-67689927D01*
X103505990Y-67571453D01*
X103533003Y-67505796D01*
X103583298Y-67471061D01*
X103582287Y-67468790D01*
X103750720Y-67393799D01*
X103750722Y-67393798D01*
X103756750Y-67391114D01*
X103772270Y-67379838D01*
X103905907Y-67282746D01*
X103905909Y-67282744D01*
X103911251Y-67278863D01*
X103940602Y-67246265D01*
X104034618Y-67141850D01*
X104034619Y-67141849D01*
X104039037Y-67136942D01*
X104134524Y-66971554D01*
X104172516Y-66854627D01*
X104191498Y-66796206D01*
X104191498Y-66796205D01*
X104193538Y-66789927D01*
X104197827Y-66749125D01*
X104212810Y-66606565D01*
X104213500Y-66600000D01*
X104209934Y-66566073D01*
X104194228Y-66416637D01*
X104194228Y-66416636D01*
X104193538Y-66410073D01*
X104172720Y-66346000D01*
X104136566Y-66234731D01*
X104134524Y-66228446D01*
X104104881Y-66177102D01*
X104065551Y-66108981D01*
X104039037Y-66063058D01*
X104033275Y-66056658D01*
X103915673Y-65926048D01*
X103915672Y-65926047D01*
X103911251Y-65921137D01*
X103905909Y-65917256D01*
X103905907Y-65917254D01*
X103762092Y-65812767D01*
X103762091Y-65812766D01*
X103756750Y-65808886D01*
X103750722Y-65806202D01*
X103750720Y-65806201D01*
X103588318Y-65733895D01*
X103588317Y-65733895D01*
X103582287Y-65731210D01*
X103487546Y-65711072D01*
X103401944Y-65692876D01*
X103401939Y-65692876D01*
X103395487Y-65691504D01*
X103204513Y-65691504D01*
X103198061Y-65692876D01*
X103198056Y-65692876D01*
X103112454Y-65711072D01*
X103017713Y-65731210D01*
X103011683Y-65733895D01*
X103011682Y-65733895D01*
X102849280Y-65806201D01*
X102849278Y-65806202D01*
X102843250Y-65808886D01*
X102837909Y-65812766D01*
X102837908Y-65812767D01*
X102694093Y-65917254D01*
X102694091Y-65917256D01*
X102688749Y-65921137D01*
X102684328Y-65926047D01*
X102684327Y-65926048D01*
X102566726Y-66056658D01*
X102560963Y-66063058D01*
X102534449Y-66108981D01*
X102495120Y-66177102D01*
X102465476Y-66228446D01*
X102463434Y-66234731D01*
X102463433Y-66234733D01*
X102452540Y-66268259D01*
X102412467Y-66326865D01*
X102347071Y-66354503D01*
X102277114Y-66342397D01*
X102243612Y-66318419D01*
X102146153Y-66220960D01*
X102135286Y-66208569D01*
X102122018Y-66191278D01*
X102116992Y-66184728D01*
X101995110Y-66091204D01*
X101853175Y-66032413D01*
X101783888Y-66023291D01*
X101752120Y-66014779D01*
X101736394Y-66008265D01*
X101728214Y-66007188D01*
X101728210Y-66007187D01*
X101619673Y-65992898D01*
X101619674Y-65992898D01*
X101615587Y-65992360D01*
X89505099Y-65992360D01*
X89436978Y-65972358D01*
X89416004Y-65955455D01*
X88287974Y-64827425D01*
X88277106Y-64815034D01*
X88263837Y-64797741D01*
X88263836Y-64797740D01*
X88258810Y-64791190D01*
X88191389Y-64739456D01*
X88158975Y-64702494D01*
X88067339Y-64543776D01*
X88067336Y-64543771D01*
X88064037Y-64538058D01*
X88000886Y-64467921D01*
X87940673Y-64401048D01*
X87940672Y-64401047D01*
X87936251Y-64396137D01*
X87930909Y-64392256D01*
X87930907Y-64392254D01*
X87787092Y-64287767D01*
X87787091Y-64287766D01*
X87781750Y-64283886D01*
X87775722Y-64281202D01*
X87775720Y-64281201D01*
X87613318Y-64208895D01*
X87613317Y-64208895D01*
X87607287Y-64206210D01*
X87513887Y-64186357D01*
X87426944Y-64167876D01*
X87426939Y-64167876D01*
X87420487Y-64166504D01*
X87229513Y-64166504D01*
X87223058Y-64167876D01*
X87223049Y-64167877D01*
X87204425Y-64171836D01*
X87133634Y-64166435D01*
X87077001Y-64123619D01*
X87052507Y-64056981D01*
X87067928Y-63987680D01*
X87089132Y-63959495D01*
X88378222Y-62670405D01*
X88440534Y-62636379D01*
X88467317Y-62633500D01*
X94166806Y-62633500D01*
X94234927Y-62653502D01*
X94254151Y-62669842D01*
X94254425Y-62669538D01*
X94259328Y-62673953D01*
X94263749Y-62678863D01*
X94269091Y-62682744D01*
X94269093Y-62682746D01*
X94412908Y-62787233D01*
X94418250Y-62791114D01*
X94424278Y-62793798D01*
X94424280Y-62793799D01*
X94467384Y-62812990D01*
X94592713Y-62868790D01*
X94686113Y-62888643D01*
X94773056Y-62907124D01*
X94773061Y-62907124D01*
X94779513Y-62908496D01*
X94970487Y-62908496D01*
X94976939Y-62907124D01*
X94976944Y-62907124D01*
X95063887Y-62888643D01*
X95157287Y-62868790D01*
X95282616Y-62812990D01*
X95325720Y-62793799D01*
X95325722Y-62793798D01*
X95331750Y-62791114D01*
X95337092Y-62787233D01*
X95480907Y-62682746D01*
X95480909Y-62682744D01*
X95486251Y-62678863D01*
X95490672Y-62673953D01*
X95495575Y-62669538D01*
X95496701Y-62670789D01*
X95550000Y-62637951D01*
X95583194Y-62633500D01*
X100321616Y-62633500D01*
X100332520Y-62634014D01*
X100339911Y-62635666D01*
X100347837Y-62635417D01*
X100347838Y-62635417D01*
X100406866Y-62633562D01*
X100410823Y-62633500D01*
X100439578Y-62633500D01*
X100443845Y-62632961D01*
X100455687Y-62632028D01*
X100487335Y-62631033D01*
X100491960Y-62630888D01*
X100499883Y-62630639D01*
X100519334Y-62624988D01*
X100538695Y-62620978D01*
X100541420Y-62620634D01*
X100550930Y-62619433D01*
X100550933Y-62619432D01*
X100558788Y-62618440D01*
X100566153Y-62615524D01*
X100566157Y-62615523D01*
X100599901Y-62602163D01*
X100611130Y-62598318D01*
X100653578Y-62585986D01*
X100660406Y-62581948D01*
X100671011Y-62575677D01*
X100688762Y-62566981D01*
X100700226Y-62562442D01*
X100700229Y-62562440D01*
X100707600Y-62559522D01*
X100743368Y-62533535D01*
X100753291Y-62527016D01*
X100791341Y-62504514D01*
X100791759Y-62504145D01*
X100805842Y-62490062D01*
X100820867Y-62477228D01*
X100837083Y-62465446D01*
X100865030Y-62431664D01*
X100873019Y-62422885D01*
X103850938Y-59444967D01*
X103850941Y-59444963D01*
X103889586Y-59406318D01*
X103951898Y-59372292D01*
X104022713Y-59377357D01*
X104079549Y-59419904D01*
X104104360Y-59486424D01*
X104103991Y-59508583D01*
X104086500Y-59675000D01*
X104106462Y-59864927D01*
X104108502Y-59871205D01*
X104108502Y-59871206D01*
X104117952Y-59900290D01*
X104165476Y-60046554D01*
X104260963Y-60211942D01*
X104265381Y-60216849D01*
X104265382Y-60216850D01*
X104334136Y-60293209D01*
X104364854Y-60357216D01*
X104366500Y-60377519D01*
X104366500Y-60810404D01*
X104346498Y-60878525D01*
X104329596Y-60899499D01*
X103974497Y-61254599D01*
X103912184Y-61288624D01*
X103885401Y-61291504D01*
X103829513Y-61291504D01*
X103823061Y-61292876D01*
X103823056Y-61292876D01*
X103740559Y-61310412D01*
X103642713Y-61331210D01*
X103636683Y-61333895D01*
X103636682Y-61333895D01*
X103474280Y-61406201D01*
X103474278Y-61406202D01*
X103468250Y-61408886D01*
X103462909Y-61412766D01*
X103462908Y-61412767D01*
X103319093Y-61517254D01*
X103319091Y-61517256D01*
X103313749Y-61521137D01*
X103309328Y-61526047D01*
X103309327Y-61526048D01*
X103224371Y-61620402D01*
X103185963Y-61663058D01*
X103090476Y-61828446D01*
X103031462Y-62010073D01*
X103030772Y-62016636D01*
X103030772Y-62016637D01*
X103016883Y-62148786D01*
X103011500Y-62200000D01*
X103031462Y-62389927D01*
X103033502Y-62396205D01*
X103033502Y-62396206D01*
X103056456Y-62466850D01*
X103090476Y-62571554D01*
X103093779Y-62577276D01*
X103093780Y-62577277D01*
X103115862Y-62615523D01*
X103185963Y-62736942D01*
X103190381Y-62741849D01*
X103190382Y-62741850D01*
X103307706Y-62872152D01*
X103313749Y-62878863D01*
X103319091Y-62882744D01*
X103319093Y-62882746D01*
X103413051Y-62951010D01*
X103468250Y-62991114D01*
X103474278Y-62993798D01*
X103474280Y-62993799D01*
X103636682Y-63066105D01*
X103642713Y-63068790D01*
X103719318Y-63085073D01*
X103823056Y-63107124D01*
X103823061Y-63107124D01*
X103829513Y-63108496D01*
X104020487Y-63108496D01*
X104026939Y-63107124D01*
X104026944Y-63107124D01*
X104130682Y-63085073D01*
X104207287Y-63068790D01*
X104213318Y-63066105D01*
X104375720Y-62993799D01*
X104375722Y-62993798D01*
X104381750Y-62991114D01*
X104436949Y-62951010D01*
X104530907Y-62882746D01*
X104530909Y-62882744D01*
X104536251Y-62878863D01*
X104542294Y-62872152D01*
X104659618Y-62741850D01*
X104659619Y-62741849D01*
X104664037Y-62736942D01*
X104734138Y-62615523D01*
X104756220Y-62577277D01*
X104756221Y-62577276D01*
X104759524Y-62571554D01*
X104793544Y-62466850D01*
X104816498Y-62396206D01*
X104816498Y-62396205D01*
X104818538Y-62389927D01*
X104828352Y-62296554D01*
X104835903Y-62224710D01*
X104862916Y-62159054D01*
X104872118Y-62148786D01*
X105392513Y-61628391D01*
X105400601Y-61621031D01*
X105406995Y-61616973D01*
X105452870Y-61568121D01*
X105455624Y-61565280D01*
X105475938Y-61544966D01*
X105478583Y-61541555D01*
X105486289Y-61532533D01*
X105488764Y-61529898D01*
X105516557Y-61500301D01*
X105520872Y-61492452D01*
X105526318Y-61482547D01*
X105537172Y-61466023D01*
X105544723Y-61456289D01*
X105544724Y-61456287D01*
X105549583Y-61450023D01*
X105567146Y-61409439D01*
X105572353Y-61398810D01*
X105593662Y-61360048D01*
X105598701Y-61340422D01*
X105605102Y-61321728D01*
X105609999Y-61310412D01*
X105613148Y-61303135D01*
X105620064Y-61259469D01*
X105622471Y-61247844D01*
X105623906Y-61242254D01*
X105633465Y-61205025D01*
X105633500Y-61204469D01*
X105633500Y-61184553D01*
X105635051Y-61164842D01*
X105636945Y-61152884D01*
X105638185Y-61145055D01*
X105634059Y-61101406D01*
X105633500Y-61089549D01*
X105633500Y-60377519D01*
X105653502Y-60309398D01*
X105665864Y-60293209D01*
X105734618Y-60216850D01*
X105734619Y-60216849D01*
X105739037Y-60211942D01*
X105834524Y-60046554D01*
X105882048Y-59900290D01*
X105891498Y-59871206D01*
X105891498Y-59871205D01*
X105893538Y-59864927D01*
X105913500Y-59675000D01*
X105893538Y-59485073D01*
X105877033Y-59434274D01*
X105839683Y-59319325D01*
X105834524Y-59303446D01*
X105816656Y-59272498D01*
X105799919Y-59203506D01*
X105823139Y-59136414D01*
X105878946Y-59092526D01*
X105925776Y-59083500D01*
X106241806Y-59083500D01*
X106309927Y-59103502D01*
X106329151Y-59119842D01*
X106329425Y-59119538D01*
X106334327Y-59123952D01*
X106338749Y-59128863D01*
X106344091Y-59132744D01*
X106344093Y-59132746D01*
X106487908Y-59237233D01*
X106493250Y-59241114D01*
X106499278Y-59243798D01*
X106499280Y-59243799D01*
X106660683Y-59315660D01*
X106667713Y-59318790D01*
X106761113Y-59338643D01*
X106848056Y-59357124D01*
X106848061Y-59357124D01*
X106854513Y-59358496D01*
X107045487Y-59358496D01*
X107051939Y-59357124D01*
X107051944Y-59357124D01*
X107138887Y-59338643D01*
X107232287Y-59318790D01*
X107239317Y-59315660D01*
X107400720Y-59243799D01*
X107400722Y-59243798D01*
X107406750Y-59241114D01*
X107412092Y-59237233D01*
X107555907Y-59132746D01*
X107555909Y-59132744D01*
X107561251Y-59128863D01*
X107672211Y-59005630D01*
X107732656Y-58968390D01*
X107803639Y-58969742D01*
G37*
%TD.AperFunction*%
%TA.AperFunction,Conductor*%
G36*
X85500545Y-65652248D02*
G01*
X85550148Y-65685992D01*
X85588749Y-65728863D01*
X85594091Y-65732744D01*
X85594093Y-65732746D01*
X85737735Y-65837107D01*
X85743250Y-65841114D01*
X85749278Y-65843798D01*
X85749280Y-65843799D01*
X85891632Y-65907178D01*
X85917713Y-65918790D01*
X85989030Y-65933949D01*
X86098056Y-65957124D01*
X86098061Y-65957124D01*
X86104513Y-65958496D01*
X86195757Y-65958496D01*
X86263878Y-65978498D01*
X86284852Y-65995401D01*
X87840856Y-67551405D01*
X87874882Y-67613717D01*
X87869817Y-67684532D01*
X87827270Y-67741368D01*
X87760750Y-67766179D01*
X87751761Y-67766500D01*
X84311568Y-67766500D01*
X84243447Y-67746498D01*
X84196954Y-67692842D01*
X84186258Y-67653670D01*
X84177176Y-67567254D01*
X84168538Y-67485073D01*
X84161291Y-67462767D01*
X84123915Y-67347736D01*
X84109524Y-67303446D01*
X84101015Y-67288707D01*
X84076510Y-67246265D01*
X84024505Y-67156190D01*
X84007768Y-67087197D01*
X84030988Y-67020105D01*
X84044530Y-67004097D01*
X85367418Y-65681209D01*
X85429730Y-65647183D01*
X85500545Y-65652248D01*
G37*
%TD.AperFunction*%
%TA.AperFunction,Conductor*%
G36*
X84058220Y-63583367D02*
G01*
X84105221Y-63636578D01*
X84116421Y-63703180D01*
X84111500Y-63750000D01*
X84112190Y-63756565D01*
X84121170Y-63842000D01*
X84131462Y-63939927D01*
X84133502Y-63946205D01*
X84133502Y-63946206D01*
X84143753Y-63977754D01*
X84190476Y-64121554D01*
X84193779Y-64127276D01*
X84193780Y-64127277D01*
X84208875Y-64153422D01*
X84285963Y-64286942D01*
X84290381Y-64291849D01*
X84290382Y-64291850D01*
X84380786Y-64392254D01*
X84413749Y-64428863D01*
X84419094Y-64432746D01*
X84534303Y-64516451D01*
X84577657Y-64572673D01*
X84583732Y-64643410D01*
X84549337Y-64707482D01*
X82882487Y-66374332D01*
X82874399Y-66381692D01*
X82868005Y-66385750D01*
X82836164Y-66419658D01*
X82822138Y-66434594D01*
X82819382Y-66437437D01*
X82799062Y-66457757D01*
X82796417Y-66461168D01*
X82788713Y-66470188D01*
X82758443Y-66502422D01*
X82754626Y-66509366D01*
X82754624Y-66509368D01*
X82748682Y-66520176D01*
X82737829Y-66536698D01*
X82728799Y-66548340D01*
X82671244Y-66589908D01*
X82600352Y-66593760D01*
X82538631Y-66558674D01*
X82505677Y-66495789D01*
X82503373Y-66476942D01*
X82501924Y-66445643D01*
X82500243Y-66433827D01*
X82452406Y-66235336D01*
X82448517Y-66224041D01*
X82364009Y-66038176D01*
X82358062Y-66027834D01*
X82239926Y-65861293D01*
X82232133Y-65852264D01*
X82084642Y-65711072D01*
X82075267Y-65703669D01*
X82059520Y-65693501D01*
X82013142Y-65639747D01*
X82003188Y-65569451D01*
X82003519Y-65567956D01*
X82004794Y-65559422D01*
X82007365Y-65550826D01*
X82007566Y-65518002D01*
X82007684Y-65515162D01*
X82008000Y-65513135D01*
X82008000Y-65447378D01*
X82008002Y-65446608D01*
X82008239Y-65407817D01*
X82008254Y-65405378D01*
X82008016Y-65404546D01*
X82008000Y-65404308D01*
X82008000Y-63776891D01*
X82028002Y-63708770D01*
X82081658Y-63662277D01*
X82151932Y-63652173D01*
X82216512Y-63681667D01*
X82243119Y-63713891D01*
X82299729Y-63811942D01*
X82304147Y-63816849D01*
X82304148Y-63816850D01*
X82423093Y-63948952D01*
X82427515Y-63953863D01*
X82432857Y-63957744D01*
X82432859Y-63957746D01*
X82538683Y-64034631D01*
X82582016Y-64066114D01*
X82588044Y-64068798D01*
X82588046Y-64068799D01*
X82702190Y-64119619D01*
X82756479Y-64143790D01*
X82849879Y-64163643D01*
X82936822Y-64182124D01*
X82936827Y-64182124D01*
X82943279Y-64183496D01*
X83134253Y-64183496D01*
X83140705Y-64182124D01*
X83140710Y-64182124D01*
X83227653Y-64163643D01*
X83321053Y-64143790D01*
X83375342Y-64119619D01*
X83489486Y-64068799D01*
X83489488Y-64068798D01*
X83495516Y-64066114D01*
X83538849Y-64034631D01*
X83644673Y-63957746D01*
X83644675Y-63957744D01*
X83650017Y-63953863D01*
X83654439Y-63948952D01*
X83773384Y-63816850D01*
X83773385Y-63816849D01*
X83777803Y-63811942D01*
X83851640Y-63684053D01*
X83869986Y-63652277D01*
X83869987Y-63652276D01*
X83873290Y-63646554D01*
X83875332Y-63640269D01*
X83876004Y-63638760D01*
X83921984Y-63584664D01*
X83989912Y-63564015D01*
X84058220Y-63583367D01*
G37*
%TD.AperFunction*%
%TA.AperFunction,Conductor*%
G36*
X89545998Y-50428002D02*
G01*
X89592491Y-50481658D01*
X89602595Y-50551932D01*
X89577401Y-50607096D01*
X89578790Y-50607989D01*
X89573918Y-50615570D01*
X89568016Y-50622381D01*
X89564272Y-50630579D01*
X89530264Y-50705047D01*
X89507300Y-50755330D01*
X89506018Y-50764245D01*
X89506018Y-50764246D01*
X89487139Y-50895552D01*
X89487138Y-50895559D01*
X89486500Y-50900000D01*
X89486500Y-52600000D01*
X89491727Y-52673079D01*
X89500146Y-52701750D01*
X89524350Y-52784182D01*
X89532904Y-52813316D01*
X89537775Y-52820895D01*
X89607051Y-52928691D01*
X89607053Y-52928694D01*
X89611923Y-52936271D01*
X89618733Y-52942172D01*
X89715569Y-53026082D01*
X89715572Y-53026084D01*
X89722381Y-53031984D01*
X89730579Y-53035728D01*
X89842998Y-53087068D01*
X89855330Y-53092700D01*
X89864245Y-53093982D01*
X89864246Y-53093982D01*
X89995552Y-53112861D01*
X89995559Y-53112862D01*
X90000000Y-53113500D01*
X91700000Y-53113500D01*
X91773079Y-53108273D01*
X91865636Y-53081096D01*
X91904670Y-53069635D01*
X91904672Y-53069634D01*
X91913316Y-53067096D01*
X91980446Y-53023954D01*
X92028691Y-52992949D01*
X92028694Y-52992947D01*
X92036271Y-52988077D01*
X92061086Y-52959439D01*
X92126082Y-52884431D01*
X92126084Y-52884428D01*
X92131984Y-52877619D01*
X92192700Y-52744670D01*
X92193373Y-52739987D01*
X92230589Y-52682079D01*
X92295171Y-52652586D01*
X92365444Y-52662691D01*
X92397493Y-52683741D01*
X92561967Y-52832094D01*
X92570444Y-52838528D01*
X92756122Y-52956136D01*
X92765567Y-52961053D01*
X92968406Y-53045694D01*
X92978545Y-53048950D01*
X93118345Y-53081096D01*
X93132422Y-53080257D01*
X93136000Y-53070999D01*
X93136000Y-51622000D01*
X93156002Y-51553879D01*
X93209658Y-51507386D01*
X93262000Y-51496000D01*
X93518000Y-51496000D01*
X93586121Y-51516002D01*
X93632614Y-51569658D01*
X93644000Y-51622000D01*
X93644000Y-53069941D01*
X93648151Y-53084079D01*
X93658798Y-53085774D01*
X93662192Y-53085096D01*
X93873333Y-53023954D01*
X93883259Y-53020143D01*
X94081065Y-52924307D01*
X94090212Y-52918876D01*
X94269041Y-52791083D01*
X94277149Y-52784182D01*
X94431893Y-52628082D01*
X94438706Y-52619934D01*
X94557368Y-52450781D01*
X94612864Y-52406501D01*
X94683489Y-52399254D01*
X94746822Y-52431340D01*
X94771196Y-52462923D01*
X94789133Y-52495890D01*
X94791685Y-52500580D01*
X94934424Y-52681644D01*
X94938389Y-52685220D01*
X95101659Y-52832489D01*
X95101665Y-52832494D01*
X95105629Y-52836069D01*
X95110142Y-52838928D01*
X95110144Y-52838929D01*
X95171228Y-52877619D01*
X95300406Y-52959439D01*
X95513184Y-53048228D01*
X95518387Y-53049425D01*
X95518392Y-53049426D01*
X95732678Y-53098701D01*
X95732683Y-53098702D01*
X95737881Y-53099897D01*
X95743207Y-53100199D01*
X95743211Y-53100200D01*
X95921782Y-53110340D01*
X95988659Y-53134172D01*
X96032035Y-53190377D01*
X96038138Y-53261111D01*
X96016573Y-53310199D01*
X96013868Y-53313922D01*
X96008443Y-53319699D01*
X96004626Y-53326643D01*
X96004624Y-53326645D01*
X95998682Y-53337453D01*
X95987828Y-53353977D01*
X95975417Y-53369977D01*
X95972270Y-53377248D01*
X95972270Y-53377249D01*
X95957859Y-53410551D01*
X95952638Y-53421207D01*
X95931338Y-53459952D01*
X95929366Y-53467635D01*
X95929365Y-53467636D01*
X95926301Y-53479568D01*
X95919897Y-53498272D01*
X95915001Y-53509585D01*
X95914999Y-53509592D01*
X95911852Y-53516864D01*
X95910613Y-53524688D01*
X95910612Y-53524691D01*
X95904935Y-53560535D01*
X95902528Y-53572156D01*
X95899089Y-53585552D01*
X95891535Y-53614975D01*
X95891500Y-53615531D01*
X95891500Y-53635452D01*
X95889949Y-53655162D01*
X95886816Y-53674944D01*
X95887562Y-53682836D01*
X95890941Y-53718582D01*
X95891500Y-53730440D01*
X95891500Y-57315500D01*
X95871498Y-57383621D01*
X95817842Y-57430114D01*
X95765500Y-57441500D01*
X94689595Y-57441500D01*
X94621474Y-57421498D01*
X94600500Y-57404595D01*
X94472118Y-57276213D01*
X94438092Y-57213901D01*
X94435903Y-57200289D01*
X94419228Y-57041637D01*
X94419228Y-57041636D01*
X94418538Y-57035073D01*
X94404828Y-56992876D01*
X94361566Y-56859731D01*
X94359524Y-56853446D01*
X94355512Y-56846496D01*
X94319087Y-56783407D01*
X94264037Y-56688058D01*
X94249723Y-56672160D01*
X94140673Y-56551048D01*
X94140669Y-56551044D01*
X94136251Y-56546137D01*
X94130909Y-56542256D01*
X94130907Y-56542254D01*
X93987092Y-56437767D01*
X93987091Y-56437766D01*
X93981750Y-56433886D01*
X93975722Y-56431202D01*
X93975720Y-56431201D01*
X93813318Y-56358895D01*
X93813317Y-56358895D01*
X93807287Y-56356210D01*
X93713887Y-56336357D01*
X93626944Y-56317876D01*
X93626939Y-56317876D01*
X93620487Y-56316504D01*
X93429513Y-56316504D01*
X93423061Y-56317876D01*
X93423056Y-56317876D01*
X93336113Y-56336357D01*
X93242713Y-56356210D01*
X93236683Y-56358895D01*
X93236682Y-56358895D01*
X93074280Y-56431201D01*
X93074278Y-56431202D01*
X93068250Y-56433886D01*
X93062909Y-56437766D01*
X93062908Y-56437767D01*
X92919093Y-56542254D01*
X92919091Y-56542256D01*
X92913749Y-56546137D01*
X92889941Y-56572579D01*
X92886994Y-56575852D01*
X92826547Y-56613091D01*
X92755564Y-56611739D01*
X92704263Y-56580636D01*
X92470405Y-56346778D01*
X92436379Y-56284466D01*
X92433500Y-56257683D01*
X92433500Y-55652519D01*
X92453502Y-55584398D01*
X92465864Y-55568209D01*
X92534618Y-55491850D01*
X92534619Y-55491849D01*
X92539037Y-55486942D01*
X92634524Y-55321554D01*
X92684928Y-55166427D01*
X92691498Y-55146206D01*
X92691498Y-55146205D01*
X92693538Y-55139927D01*
X92713500Y-54950000D01*
X92704311Y-54862576D01*
X92694228Y-54766637D01*
X92694228Y-54766636D01*
X92693538Y-54760073D01*
X92685273Y-54734634D01*
X92636566Y-54584731D01*
X92634524Y-54578446D01*
X92630911Y-54572187D01*
X92558096Y-54446069D01*
X92539037Y-54413058D01*
X92496752Y-54366095D01*
X92415673Y-54276048D01*
X92415672Y-54276047D01*
X92411251Y-54271137D01*
X92405909Y-54267256D01*
X92405907Y-54267254D01*
X92262092Y-54162767D01*
X92262091Y-54162766D01*
X92256750Y-54158886D01*
X92250722Y-54156202D01*
X92250720Y-54156201D01*
X92088318Y-54083895D01*
X92088317Y-54083895D01*
X92082287Y-54081210D01*
X91988887Y-54061357D01*
X91901944Y-54042876D01*
X91901939Y-54042876D01*
X91895487Y-54041504D01*
X91704513Y-54041504D01*
X91698061Y-54042876D01*
X91698056Y-54042876D01*
X91611113Y-54061357D01*
X91517713Y-54081210D01*
X91511683Y-54083895D01*
X91511682Y-54083895D01*
X91349280Y-54156201D01*
X91349278Y-54156202D01*
X91343250Y-54158886D01*
X91337909Y-54162766D01*
X91337908Y-54162767D01*
X91194093Y-54267254D01*
X91194091Y-54267256D01*
X91188749Y-54271137D01*
X91184328Y-54276047D01*
X91184327Y-54276048D01*
X91103249Y-54366095D01*
X91060963Y-54413058D01*
X91041904Y-54446069D01*
X90969090Y-54572187D01*
X90965476Y-54578446D01*
X90963434Y-54584731D01*
X90914728Y-54734634D01*
X90906462Y-54760073D01*
X90905772Y-54766636D01*
X90905772Y-54766637D01*
X90895689Y-54862576D01*
X90886500Y-54950000D01*
X90906462Y-55139927D01*
X90908502Y-55146205D01*
X90908502Y-55146206D01*
X90915072Y-55166427D01*
X90965476Y-55321554D01*
X91060963Y-55486942D01*
X91065381Y-55491849D01*
X91065382Y-55491850D01*
X91134136Y-55568209D01*
X91164854Y-55632216D01*
X91166500Y-55652519D01*
X91166500Y-56493893D01*
X91165986Y-56504797D01*
X91164334Y-56512188D01*
X91164583Y-56520114D01*
X91164583Y-56520115D01*
X91166438Y-56579143D01*
X91166500Y-56583100D01*
X91166500Y-56611855D01*
X91166996Y-56615780D01*
X91166996Y-56615781D01*
X91167039Y-56616120D01*
X91167972Y-56627964D01*
X91169361Y-56672160D01*
X91174138Y-56688602D01*
X91175012Y-56691610D01*
X91179022Y-56710973D01*
X91180315Y-56721206D01*
X91181560Y-56731065D01*
X91184476Y-56738430D01*
X91184477Y-56738434D01*
X91197837Y-56772178D01*
X91201681Y-56783405D01*
X91214014Y-56825855D01*
X91218052Y-56832683D01*
X91224323Y-56843288D01*
X91233019Y-56861039D01*
X91237558Y-56872503D01*
X91240478Y-56879877D01*
X91251057Y-56894437D01*
X91266465Y-56915644D01*
X91272983Y-56925567D01*
X91295486Y-56963618D01*
X91295855Y-56964036D01*
X91309938Y-56978119D01*
X91322772Y-56993144D01*
X91334554Y-57009360D01*
X91358046Y-57028794D01*
X91368335Y-57037306D01*
X91377115Y-57045296D01*
X93774341Y-59442523D01*
X93781692Y-59450601D01*
X93785750Y-59456995D01*
X93791529Y-59462422D01*
X93791530Y-59462423D01*
X93834585Y-59502854D01*
X93837427Y-59505609D01*
X93857756Y-59525938D01*
X93861176Y-59528590D01*
X93870199Y-59536297D01*
X93902422Y-59566557D01*
X93909366Y-59570374D01*
X93909371Y-59570378D01*
X93920173Y-59576316D01*
X93936700Y-59587172D01*
X93952700Y-59599583D01*
X93959971Y-59602730D01*
X93959972Y-59602730D01*
X93993274Y-59617141D01*
X94003930Y-59622362D01*
X94042675Y-59643662D01*
X94050358Y-59645634D01*
X94050359Y-59645635D01*
X94062291Y-59648699D01*
X94080995Y-59655103D01*
X94092308Y-59659999D01*
X94092315Y-59660001D01*
X94099587Y-59663148D01*
X94107411Y-59664387D01*
X94107414Y-59664388D01*
X94143258Y-59670065D01*
X94154879Y-59672472D01*
X94191941Y-59681987D01*
X94197698Y-59683465D01*
X94198254Y-59683500D01*
X94218175Y-59683500D01*
X94237885Y-59685051D01*
X94249837Y-59686944D01*
X94249838Y-59686944D01*
X94257667Y-59688184D01*
X94265559Y-59687438D01*
X94301305Y-59684059D01*
X94313163Y-59683500D01*
X99991806Y-59683500D01*
X100059927Y-59703502D01*
X100079151Y-59719842D01*
X100079425Y-59719538D01*
X100084327Y-59723952D01*
X100088749Y-59728863D01*
X100094091Y-59732744D01*
X100094093Y-59732746D01*
X100119284Y-59751048D01*
X100243250Y-59841114D01*
X100249278Y-59843798D01*
X100249280Y-59843799D01*
X100376161Y-59900290D01*
X100417713Y-59918790D01*
X100511113Y-59938643D01*
X100598056Y-59957124D01*
X100598061Y-59957124D01*
X100604513Y-59958496D01*
X100795487Y-59958496D01*
X100801939Y-59957124D01*
X100801944Y-59957124D01*
X100888887Y-59938643D01*
X100982287Y-59918790D01*
X101023839Y-59900290D01*
X101150720Y-59843799D01*
X101150722Y-59843798D01*
X101156750Y-59841114D01*
X101280716Y-59751048D01*
X101305907Y-59732746D01*
X101305909Y-59732744D01*
X101311251Y-59728863D01*
X101334086Y-59703502D01*
X101434618Y-59591850D01*
X101434619Y-59591849D01*
X101439037Y-59586942D01*
X101518902Y-59448612D01*
X101531220Y-59427277D01*
X101531221Y-59427276D01*
X101534524Y-59421554D01*
X101571121Y-59308921D01*
X101591498Y-59246206D01*
X101591498Y-59246205D01*
X101593538Y-59239927D01*
X101594673Y-59229133D01*
X101612810Y-59056565D01*
X101613500Y-59050000D01*
X101612810Y-59043434D01*
X101602443Y-58944793D01*
X101615215Y-58874955D01*
X101663718Y-58823108D01*
X101732551Y-58805714D01*
X101741444Y-58806823D01*
X101741485Y-58806433D01*
X101748056Y-58807124D01*
X101754513Y-58808496D01*
X101945487Y-58808496D01*
X101951939Y-58807124D01*
X101951944Y-58807124D01*
X102038887Y-58788643D01*
X102132287Y-58768790D01*
X102157638Y-58757503D01*
X102300720Y-58693799D01*
X102300722Y-58693798D01*
X102306750Y-58691114D01*
X102312092Y-58687233D01*
X102455907Y-58582746D01*
X102455909Y-58582744D01*
X102461251Y-58578863D01*
X102526348Y-58506565D01*
X102584618Y-58441850D01*
X102584619Y-58441849D01*
X102589037Y-58436942D01*
X102684524Y-58271554D01*
X102728980Y-58134731D01*
X102741498Y-58096206D01*
X102741498Y-58096205D01*
X102743538Y-58089927D01*
X102758438Y-57948167D01*
X102762810Y-57906565D01*
X102763500Y-57900000D01*
X102749956Y-57771137D01*
X102744228Y-57716637D01*
X102744228Y-57716636D01*
X102743538Y-57710073D01*
X102736291Y-57687767D01*
X102709043Y-57603907D01*
X102684524Y-57528446D01*
X102660886Y-57487503D01*
X102622777Y-57421498D01*
X102589037Y-57363058D01*
X102479066Y-57240922D01*
X102465673Y-57226048D01*
X102465672Y-57226047D01*
X102461251Y-57221137D01*
X102455909Y-57217256D01*
X102455907Y-57217254D01*
X102312092Y-57112767D01*
X102312091Y-57112766D01*
X102306750Y-57108886D01*
X102300722Y-57106202D01*
X102300720Y-57106201D01*
X102138318Y-57033895D01*
X102138317Y-57033895D01*
X102132287Y-57031210D01*
X102029492Y-57009360D01*
X101951944Y-56992876D01*
X101951939Y-56992876D01*
X101945487Y-56991504D01*
X101754513Y-56991504D01*
X101748061Y-56992876D01*
X101748056Y-56992876D01*
X101670508Y-57009360D01*
X101567713Y-57031210D01*
X101561683Y-57033895D01*
X101561682Y-57033895D01*
X101399280Y-57106201D01*
X101399278Y-57106202D01*
X101393250Y-57108886D01*
X101387909Y-57112766D01*
X101387908Y-57112767D01*
X101244093Y-57217254D01*
X101244091Y-57217256D01*
X101238749Y-57221137D01*
X101234328Y-57226047D01*
X101229425Y-57230462D01*
X101228299Y-57229211D01*
X101175000Y-57262049D01*
X101141806Y-57266500D01*
X97284500Y-57266500D01*
X97216379Y-57246498D01*
X97169886Y-57192842D01*
X97158500Y-57140500D01*
X97158500Y-54009595D01*
X97178502Y-53941474D01*
X97195405Y-53920499D01*
X98015632Y-53100273D01*
X98077944Y-53066248D01*
X98132963Y-53066574D01*
X98272675Y-53098700D01*
X98277881Y-53099897D01*
X98283212Y-53100200D01*
X98283214Y-53100200D01*
X98414458Y-53107652D01*
X98508071Y-53112968D01*
X98513378Y-53112368D01*
X98513380Y-53112368D01*
X98634272Y-53098701D01*
X98737173Y-53087068D01*
X98742288Y-53085587D01*
X98742292Y-53085586D01*
X98856273Y-53052579D01*
X98958635Y-53022937D01*
X99166125Y-52922409D01*
X99170463Y-52919309D01*
X99170468Y-52919306D01*
X99349370Y-52791459D01*
X99353711Y-52788357D01*
X99474669Y-52666340D01*
X99512277Y-52628403D01*
X99512278Y-52628402D01*
X99516030Y-52624617D01*
X99606525Y-52495617D01*
X99637953Y-52450816D01*
X99693449Y-52406536D01*
X99764075Y-52399289D01*
X99827407Y-52431375D01*
X99851781Y-52462958D01*
X99869550Y-52495617D01*
X99875402Y-52504491D01*
X100011486Y-52677113D01*
X100018750Y-52684875D01*
X100181967Y-52832094D01*
X100190444Y-52838528D01*
X100376122Y-52956136D01*
X100385567Y-52961053D01*
X100588406Y-53045694D01*
X100598545Y-53048950D01*
X100738345Y-53081096D01*
X100752422Y-53080257D01*
X100756000Y-53070999D01*
X100756000Y-51622000D01*
X100776002Y-51553879D01*
X100829658Y-51507386D01*
X100882000Y-51496000D01*
X101138000Y-51496000D01*
X101206121Y-51516002D01*
X101252614Y-51569658D01*
X101264000Y-51622000D01*
X101264000Y-53069941D01*
X101268151Y-53084079D01*
X101278798Y-53085774D01*
X101282192Y-53085096D01*
X101493333Y-53023954D01*
X101503259Y-53020143D01*
X101701065Y-52924307D01*
X101710212Y-52918876D01*
X101889041Y-52791083D01*
X101897149Y-52784182D01*
X102051893Y-52628082D01*
X102058706Y-52619934D01*
X102177368Y-52450781D01*
X102232864Y-52406501D01*
X102303489Y-52399254D01*
X102366822Y-52431340D01*
X102391196Y-52462923D01*
X102409133Y-52495890D01*
X102411685Y-52500580D01*
X102554424Y-52681644D01*
X102558389Y-52685220D01*
X102721659Y-52832489D01*
X102721665Y-52832494D01*
X102725629Y-52836069D01*
X102730142Y-52838928D01*
X102730144Y-52838929D01*
X102791228Y-52877619D01*
X102920406Y-52959439D01*
X103133184Y-53048228D01*
X103138387Y-53049425D01*
X103138392Y-53049426D01*
X103352678Y-53098701D01*
X103352683Y-53098702D01*
X103357881Y-53099897D01*
X103363209Y-53100200D01*
X103363212Y-53100200D01*
X103513877Y-53108755D01*
X103588071Y-53112968D01*
X103593378Y-53112368D01*
X103593380Y-53112368D01*
X103714272Y-53098701D01*
X103817173Y-53087068D01*
X103822288Y-53085587D01*
X103822292Y-53085586D01*
X103936273Y-53052579D01*
X104038635Y-53022937D01*
X104246125Y-52922409D01*
X104250463Y-52919309D01*
X104250468Y-52919306D01*
X104429370Y-52791459D01*
X104433711Y-52788357D01*
X104554669Y-52666340D01*
X104592277Y-52628403D01*
X104592278Y-52628402D01*
X104596030Y-52624617D01*
X104599090Y-52620255D01*
X104599095Y-52620249D01*
X104717634Y-52451271D01*
X104773130Y-52406990D01*
X104843755Y-52399743D01*
X104907088Y-52431829D01*
X104931461Y-52463410D01*
X104951685Y-52500580D01*
X105094424Y-52681644D01*
X105098389Y-52685220D01*
X105261659Y-52832489D01*
X105261665Y-52832494D01*
X105265629Y-52836069D01*
X105270142Y-52838928D01*
X105270144Y-52838929D01*
X105331228Y-52877619D01*
X105460406Y-52959439D01*
X105673184Y-53048228D01*
X105678387Y-53049425D01*
X105678392Y-53049426D01*
X105892678Y-53098701D01*
X105892683Y-53098702D01*
X105897881Y-53099897D01*
X105903209Y-53100200D01*
X105903212Y-53100200D01*
X106053877Y-53108755D01*
X106128071Y-53112968D01*
X106133378Y-53112368D01*
X106133380Y-53112368D01*
X106254272Y-53098701D01*
X106357173Y-53087068D01*
X106362288Y-53085587D01*
X106362292Y-53085586D01*
X106476273Y-53052579D01*
X106578635Y-53022937D01*
X106786125Y-52922409D01*
X106790463Y-52919309D01*
X106790468Y-52919306D01*
X106969370Y-52791459D01*
X106973711Y-52788357D01*
X107094669Y-52666340D01*
X107132277Y-52628403D01*
X107132278Y-52628402D01*
X107136030Y-52624617D01*
X107139090Y-52620255D01*
X107139095Y-52620249D01*
X107257634Y-52451271D01*
X107313130Y-52406990D01*
X107383755Y-52399743D01*
X107447088Y-52431829D01*
X107471461Y-52463410D01*
X107491685Y-52500580D01*
X107634424Y-52681644D01*
X107638389Y-52685220D01*
X107801659Y-52832489D01*
X107801665Y-52832494D01*
X107805629Y-52836069D01*
X107810142Y-52838928D01*
X107810144Y-52838929D01*
X107871228Y-52877619D01*
X108000406Y-52959439D01*
X108213184Y-53048228D01*
X108218387Y-53049425D01*
X108218392Y-53049426D01*
X108432678Y-53098701D01*
X108432683Y-53098702D01*
X108437881Y-53099897D01*
X108443209Y-53100200D01*
X108443212Y-53100200D01*
X108593877Y-53108755D01*
X108668071Y-53112968D01*
X108673378Y-53112368D01*
X108673380Y-53112368D01*
X108794272Y-53098701D01*
X108897173Y-53087068D01*
X108902288Y-53085587D01*
X108902292Y-53085586D01*
X109016273Y-53052579D01*
X109118635Y-53022937D01*
X109326125Y-52922409D01*
X109330463Y-52919309D01*
X109330468Y-52919306D01*
X109509370Y-52791459D01*
X109513711Y-52788357D01*
X109634669Y-52666340D01*
X109672277Y-52628403D01*
X109672278Y-52628402D01*
X109676030Y-52624617D01*
X109679090Y-52620255D01*
X109679095Y-52620249D01*
X109797634Y-52451271D01*
X109853130Y-52406990D01*
X109923755Y-52399743D01*
X109987088Y-52431829D01*
X110011461Y-52463410D01*
X110031685Y-52500580D01*
X110174424Y-52681644D01*
X110178389Y-52685220D01*
X110341659Y-52832489D01*
X110341665Y-52832494D01*
X110345629Y-52836069D01*
X110350142Y-52838928D01*
X110350144Y-52838929D01*
X110411228Y-52877619D01*
X110540406Y-52959439D01*
X110753184Y-53048228D01*
X110758387Y-53049425D01*
X110758392Y-53049426D01*
X110972678Y-53098701D01*
X110972683Y-53098702D01*
X110977881Y-53099897D01*
X110983209Y-53100200D01*
X110983212Y-53100200D01*
X111133877Y-53108755D01*
X111208071Y-53112968D01*
X111213378Y-53112368D01*
X111213380Y-53112368D01*
X111334272Y-53098701D01*
X111437173Y-53087068D01*
X111442288Y-53085587D01*
X111442292Y-53085586D01*
X111556273Y-53052579D01*
X111658635Y-53022937D01*
X111866125Y-52922409D01*
X111870463Y-52919309D01*
X111870468Y-52919306D01*
X112049370Y-52791459D01*
X112053711Y-52788357D01*
X112174669Y-52666340D01*
X112212277Y-52628403D01*
X112212278Y-52628402D01*
X112216030Y-52624617D01*
X112219090Y-52620255D01*
X112219095Y-52620249D01*
X112337634Y-52451271D01*
X112393130Y-52406990D01*
X112463755Y-52399743D01*
X112527088Y-52431829D01*
X112551461Y-52463410D01*
X112571685Y-52500580D01*
X112714424Y-52681644D01*
X112718389Y-52685220D01*
X112881659Y-52832489D01*
X112881665Y-52832494D01*
X112885629Y-52836069D01*
X112890142Y-52838928D01*
X112890144Y-52838929D01*
X112951228Y-52877619D01*
X113080406Y-52959439D01*
X113293184Y-53048228D01*
X113298387Y-53049425D01*
X113298392Y-53049426D01*
X113512678Y-53098701D01*
X113512683Y-53098702D01*
X113517881Y-53099897D01*
X113523209Y-53100200D01*
X113523212Y-53100200D01*
X113673877Y-53108755D01*
X113748071Y-53112968D01*
X113753378Y-53112368D01*
X113753380Y-53112368D01*
X113874272Y-53098701D01*
X113977173Y-53087068D01*
X113982288Y-53085587D01*
X113982292Y-53085586D01*
X114096273Y-53052579D01*
X114198635Y-53022937D01*
X114406125Y-52922409D01*
X114410463Y-52919309D01*
X114410468Y-52919306D01*
X114589370Y-52791459D01*
X114593711Y-52788357D01*
X114714669Y-52666340D01*
X114752277Y-52628403D01*
X114752278Y-52628402D01*
X114756030Y-52624617D01*
X114759090Y-52620255D01*
X114759095Y-52620249D01*
X114877634Y-52451271D01*
X114933130Y-52406990D01*
X115003755Y-52399743D01*
X115067088Y-52431829D01*
X115091461Y-52463410D01*
X115111685Y-52500580D01*
X115254424Y-52681644D01*
X115258389Y-52685220D01*
X115421659Y-52832489D01*
X115421665Y-52832494D01*
X115425629Y-52836069D01*
X115430142Y-52838928D01*
X115430144Y-52838929D01*
X115491228Y-52877619D01*
X115620406Y-52959439D01*
X115833184Y-53048228D01*
X115838387Y-53049425D01*
X115838392Y-53049426D01*
X116052678Y-53098701D01*
X116052683Y-53098702D01*
X116057881Y-53099897D01*
X116063209Y-53100200D01*
X116063212Y-53100200D01*
X116213877Y-53108755D01*
X116288071Y-53112968D01*
X116293378Y-53112368D01*
X116293380Y-53112368D01*
X116414272Y-53098701D01*
X116517173Y-53087068D01*
X116522288Y-53085587D01*
X116522292Y-53085586D01*
X116636273Y-53052579D01*
X116738635Y-53022937D01*
X116946125Y-52922409D01*
X116950463Y-52919309D01*
X116950468Y-52919306D01*
X117129370Y-52791459D01*
X117133711Y-52788357D01*
X117254669Y-52666340D01*
X117292277Y-52628403D01*
X117292278Y-52628402D01*
X117296030Y-52624617D01*
X117299090Y-52620255D01*
X117299095Y-52620249D01*
X117417634Y-52451271D01*
X117473130Y-52406990D01*
X117543755Y-52399743D01*
X117607088Y-52431829D01*
X117631461Y-52463410D01*
X117651685Y-52500580D01*
X117794424Y-52681644D01*
X117798389Y-52685220D01*
X117961659Y-52832489D01*
X117961665Y-52832494D01*
X117965629Y-52836069D01*
X117970142Y-52838928D01*
X117970144Y-52838929D01*
X118031228Y-52877619D01*
X118160406Y-52959439D01*
X118373184Y-53048228D01*
X118378387Y-53049425D01*
X118378392Y-53049426D01*
X118592678Y-53098701D01*
X118592683Y-53098702D01*
X118597881Y-53099897D01*
X118603209Y-53100200D01*
X118603212Y-53100200D01*
X118753877Y-53108755D01*
X118828071Y-53112968D01*
X118833378Y-53112368D01*
X118833380Y-53112368D01*
X118954272Y-53098701D01*
X119057173Y-53087068D01*
X119062288Y-53085587D01*
X119062292Y-53085586D01*
X119176273Y-53052579D01*
X119278635Y-53022937D01*
X119486125Y-52922409D01*
X119490463Y-52919309D01*
X119490468Y-52919306D01*
X119669370Y-52791459D01*
X119673711Y-52788357D01*
X119794669Y-52666340D01*
X119832277Y-52628403D01*
X119832278Y-52628402D01*
X119836030Y-52624617D01*
X119839090Y-52620255D01*
X119839095Y-52620249D01*
X119957634Y-52451271D01*
X120013130Y-52406990D01*
X120083755Y-52399743D01*
X120147088Y-52431829D01*
X120171461Y-52463410D01*
X120191685Y-52500580D01*
X120334424Y-52681644D01*
X120338389Y-52685220D01*
X120501659Y-52832489D01*
X120501665Y-52832494D01*
X120505629Y-52836069D01*
X120510142Y-52838928D01*
X120510144Y-52838929D01*
X120571228Y-52877619D01*
X120700406Y-52959439D01*
X120913184Y-53048228D01*
X120918387Y-53049425D01*
X120918392Y-53049426D01*
X121132678Y-53098701D01*
X121132683Y-53098702D01*
X121137881Y-53099897D01*
X121143209Y-53100200D01*
X121143212Y-53100200D01*
X121293877Y-53108755D01*
X121368071Y-53112968D01*
X121373378Y-53112368D01*
X121373380Y-53112368D01*
X121494272Y-53098701D01*
X121597173Y-53087068D01*
X121602288Y-53085587D01*
X121602292Y-53085586D01*
X121716273Y-53052579D01*
X121818635Y-53022937D01*
X122026125Y-52922409D01*
X122030463Y-52919309D01*
X122030468Y-52919306D01*
X122209370Y-52791459D01*
X122213711Y-52788357D01*
X122334669Y-52666340D01*
X122372277Y-52628403D01*
X122372278Y-52628402D01*
X122376030Y-52624617D01*
X122379090Y-52620255D01*
X122379095Y-52620249D01*
X122497634Y-52451271D01*
X122553130Y-52406990D01*
X122623755Y-52399743D01*
X122687088Y-52431829D01*
X122711461Y-52463410D01*
X122731685Y-52500580D01*
X122874424Y-52681644D01*
X122878389Y-52685220D01*
X123041659Y-52832489D01*
X123041665Y-52832494D01*
X123045629Y-52836069D01*
X123050142Y-52838928D01*
X123050144Y-52838929D01*
X123111228Y-52877619D01*
X123240406Y-52959439D01*
X123453184Y-53048228D01*
X123458387Y-53049425D01*
X123458392Y-53049426D01*
X123672678Y-53098701D01*
X123672683Y-53098702D01*
X123677881Y-53099897D01*
X123683209Y-53100200D01*
X123683212Y-53100200D01*
X123833877Y-53108755D01*
X123908071Y-53112968D01*
X123913378Y-53112368D01*
X123913380Y-53112368D01*
X124034272Y-53098701D01*
X124137173Y-53087068D01*
X124142288Y-53085587D01*
X124142292Y-53085586D01*
X124256273Y-53052579D01*
X124358635Y-53022937D01*
X124566125Y-52922409D01*
X124570463Y-52919309D01*
X124570468Y-52919306D01*
X124749370Y-52791459D01*
X124753711Y-52788357D01*
X124874669Y-52666340D01*
X124912277Y-52628403D01*
X124912278Y-52628402D01*
X124916030Y-52624617D01*
X124919090Y-52620255D01*
X124919095Y-52620249D01*
X125037634Y-52451271D01*
X125093130Y-52406990D01*
X125163755Y-52399743D01*
X125227088Y-52431829D01*
X125251461Y-52463410D01*
X125271685Y-52500580D01*
X125414424Y-52681644D01*
X125418389Y-52685220D01*
X125581659Y-52832489D01*
X125581665Y-52832494D01*
X125585629Y-52836069D01*
X125590142Y-52838928D01*
X125590144Y-52838929D01*
X125651228Y-52877619D01*
X125780406Y-52959439D01*
X125993184Y-53048228D01*
X125998387Y-53049425D01*
X125998392Y-53049426D01*
X126212678Y-53098701D01*
X126212683Y-53098702D01*
X126217881Y-53099897D01*
X126223209Y-53100200D01*
X126223212Y-53100200D01*
X126373877Y-53108755D01*
X126448071Y-53112968D01*
X126453378Y-53112368D01*
X126453380Y-53112368D01*
X126574272Y-53098701D01*
X126677173Y-53087068D01*
X126682288Y-53085587D01*
X126682292Y-53085586D01*
X126796273Y-53052579D01*
X126898635Y-53022937D01*
X127106125Y-52922409D01*
X127110463Y-52919309D01*
X127110468Y-52919306D01*
X127289370Y-52791459D01*
X127293711Y-52788357D01*
X127414669Y-52666340D01*
X127452277Y-52628403D01*
X127452278Y-52628402D01*
X127456030Y-52624617D01*
X127459090Y-52620255D01*
X127459095Y-52620249D01*
X127577634Y-52451271D01*
X127633130Y-52406990D01*
X127703755Y-52399743D01*
X127767088Y-52431829D01*
X127791461Y-52463410D01*
X127811685Y-52500580D01*
X127954424Y-52681644D01*
X127958389Y-52685220D01*
X128121659Y-52832489D01*
X128121665Y-52832494D01*
X128125629Y-52836069D01*
X128130142Y-52838928D01*
X128130144Y-52838929D01*
X128191228Y-52877619D01*
X128320406Y-52959439D01*
X128533184Y-53048228D01*
X128538387Y-53049425D01*
X128538392Y-53049426D01*
X128752678Y-53098701D01*
X128752683Y-53098702D01*
X128757881Y-53099897D01*
X128763209Y-53100200D01*
X128763212Y-53100200D01*
X128913877Y-53108755D01*
X128988071Y-53112968D01*
X128993378Y-53112368D01*
X128993380Y-53112368D01*
X129114272Y-53098701D01*
X129217173Y-53087068D01*
X129222288Y-53085587D01*
X129222292Y-53085586D01*
X129336273Y-53052579D01*
X129438635Y-53022937D01*
X129646125Y-52922409D01*
X129650463Y-52919309D01*
X129650468Y-52919306D01*
X129829370Y-52791459D01*
X129833711Y-52788357D01*
X129954669Y-52666340D01*
X129992277Y-52628403D01*
X129992278Y-52628402D01*
X129996030Y-52624617D01*
X130080103Y-52504771D01*
X130125375Y-52440236D01*
X130125376Y-52440234D01*
X130128439Y-52435868D01*
X130145786Y-52399254D01*
X130224868Y-52232331D01*
X130227153Y-52227508D01*
X130289349Y-52005494D01*
X130313249Y-51776176D01*
X130313440Y-51756289D01*
X130313472Y-51752963D01*
X130313472Y-51752954D01*
X130313500Y-51750000D01*
X130310599Y-51715806D01*
X130294458Y-51525576D01*
X130294457Y-51525572D01*
X130294007Y-51520265D01*
X130290665Y-51507386D01*
X130237426Y-51302269D01*
X130236084Y-51297098D01*
X130195617Y-51207264D01*
X130143578Y-51091743D01*
X130143577Y-51091741D01*
X130141388Y-51086882D01*
X130012627Y-50895626D01*
X129967394Y-50848209D01*
X129928764Y-50807715D01*
X129853482Y-50728799D01*
X129786691Y-50679105D01*
X129727532Y-50635089D01*
X129684819Y-50578378D01*
X129679546Y-50507578D01*
X129713389Y-50445166D01*
X129775601Y-50410959D01*
X129802745Y-50408000D01*
X131249000Y-50408000D01*
X131317121Y-50428002D01*
X131363614Y-50481658D01*
X131375000Y-50534000D01*
X131375000Y-51325328D01*
X131360044Y-51384869D01*
X131288085Y-51519072D01*
X131286439Y-51523853D01*
X131286437Y-51523857D01*
X131228308Y-51692675D01*
X131209049Y-51748608D01*
X131167729Y-51987828D01*
X131165187Y-52230576D01*
X131165944Y-52235579D01*
X131165944Y-52235584D01*
X131198179Y-52448730D01*
X131201488Y-52470609D01*
X131203034Y-52475425D01*
X131203035Y-52475428D01*
X131270393Y-52685220D01*
X131275700Y-52701750D01*
X131353343Y-52854134D01*
X131361267Y-52869686D01*
X131375000Y-52926888D01*
X131375000Y-64277970D01*
X131354998Y-64346091D01*
X131301342Y-64392584D01*
X131231068Y-64402688D01*
X131166488Y-64373194D01*
X131136001Y-64332468D01*
X131134596Y-64327684D01*
X131090951Y-64259772D01*
X131060449Y-64212309D01*
X131060447Y-64212306D01*
X131055577Y-64204729D01*
X131013047Y-64167876D01*
X130951931Y-64114918D01*
X130951928Y-64114916D01*
X130945119Y-64109016D01*
X130862675Y-64071365D01*
X130820364Y-64052042D01*
X130820363Y-64052042D01*
X130812170Y-64048300D01*
X130803255Y-64047018D01*
X130803254Y-64047018D01*
X130671948Y-64028139D01*
X130671941Y-64028138D01*
X130667500Y-64027500D01*
X130017500Y-64027500D01*
X129944421Y-64032727D01*
X129867489Y-64055316D01*
X129812830Y-64071365D01*
X129812828Y-64071366D01*
X129804184Y-64073904D01*
X129796605Y-64078775D01*
X129796603Y-64078776D01*
X129776510Y-64091689D01*
X129708389Y-64111692D01*
X129656045Y-64100305D01*
X129550367Y-64052043D01*
X129550364Y-64052042D01*
X129542170Y-64048300D01*
X129533255Y-64047018D01*
X129533254Y-64047018D01*
X129401948Y-64028139D01*
X129401941Y-64028138D01*
X129397500Y-64027500D01*
X128747500Y-64027500D01*
X128674421Y-64032727D01*
X128597489Y-64055316D01*
X128542830Y-64071365D01*
X128542828Y-64071366D01*
X128534184Y-64073904D01*
X128526605Y-64078775D01*
X128523502Y-64080769D01*
X128519962Y-64081808D01*
X128518404Y-64082520D01*
X128518302Y-64082296D01*
X128455382Y-64100771D01*
X128387261Y-64080769D01*
X128338972Y-64022989D01*
X128315316Y-63965880D01*
X128312156Y-63958250D01*
X128218632Y-63836368D01*
X128096750Y-63742844D01*
X127954815Y-63684053D01*
X127840478Y-63669000D01*
X127802500Y-63664000D01*
X127794312Y-63665078D01*
X127772710Y-63667922D01*
X127756263Y-63669000D01*
X120968118Y-63669000D01*
X120951672Y-63667922D01*
X120930069Y-63665078D01*
X120930068Y-63665078D01*
X120921880Y-63664000D01*
X120891387Y-63668014D01*
X120777751Y-63682974D01*
X120777749Y-63682975D01*
X120769565Y-63684052D01*
X120627630Y-63742844D01*
X120505748Y-63836368D01*
X120500722Y-63842918D01*
X120487454Y-63860209D01*
X120476587Y-63872600D01*
X120075829Y-64273358D01*
X120013517Y-64307384D01*
X119942702Y-64302319D01*
X119885866Y-64259772D01*
X119879334Y-64248766D01*
X119879140Y-64248891D01*
X119861565Y-64221543D01*
X119841564Y-64153422D01*
X119852950Y-64101082D01*
X119901458Y-63994864D01*
X119901458Y-63994863D01*
X119905200Y-63986670D01*
X119911018Y-63946206D01*
X119925361Y-63846448D01*
X119925362Y-63846441D01*
X119926000Y-63842000D01*
X119926000Y-63192000D01*
X119920773Y-63118921D01*
X119879596Y-62978684D01*
X119861811Y-62951010D01*
X119841808Y-62882889D01*
X119853195Y-62830545D01*
X119901457Y-62724867D01*
X119901458Y-62724864D01*
X119905200Y-62716670D01*
X119906482Y-62707754D01*
X119925361Y-62576448D01*
X119925362Y-62576441D01*
X119926000Y-62572000D01*
X119926000Y-61922000D01*
X119920773Y-61848921D01*
X119889272Y-61741637D01*
X119882135Y-61717330D01*
X119882134Y-61717328D01*
X119879596Y-61708684D01*
X119861811Y-61681010D01*
X119841808Y-61612889D01*
X119853195Y-61560545D01*
X119901457Y-61454867D01*
X119901458Y-61454864D01*
X119905200Y-61446670D01*
X119907163Y-61433019D01*
X119925361Y-61306448D01*
X119925362Y-61306441D01*
X119926000Y-61302000D01*
X119926000Y-60652000D01*
X119920773Y-60578921D01*
X119879596Y-60438684D01*
X119870802Y-60425000D01*
X126136500Y-60425000D01*
X126156462Y-60614927D01*
X126215476Y-60796554D01*
X126218779Y-60802276D01*
X126218780Y-60802277D01*
X126248353Y-60853498D01*
X126310963Y-60961942D01*
X126315381Y-60966849D01*
X126315382Y-60966850D01*
X126431213Y-61095493D01*
X126438749Y-61103863D01*
X126444091Y-61107744D01*
X126444093Y-61107746D01*
X126572765Y-61201231D01*
X126593250Y-61216114D01*
X126599278Y-61218798D01*
X126599280Y-61218799D01*
X126739195Y-61281093D01*
X126767713Y-61293790D01*
X126827264Y-61306448D01*
X126948056Y-61332124D01*
X126948061Y-61332124D01*
X126954513Y-61333496D01*
X127145487Y-61333496D01*
X127151939Y-61332124D01*
X127151944Y-61332124D01*
X127272736Y-61306448D01*
X127332287Y-61293790D01*
X127360805Y-61281093D01*
X127500720Y-61218799D01*
X127500722Y-61218798D01*
X127506750Y-61216114D01*
X127527235Y-61201231D01*
X127655907Y-61107746D01*
X127655909Y-61107744D01*
X127661251Y-61103863D01*
X127668787Y-61095493D01*
X127784618Y-60966850D01*
X127784619Y-60966849D01*
X127789037Y-60961942D01*
X127851647Y-60853498D01*
X127881220Y-60802277D01*
X127881221Y-60802276D01*
X127884524Y-60796554D01*
X127943538Y-60614927D01*
X127963500Y-60425000D01*
X127955763Y-60351391D01*
X127944228Y-60241637D01*
X127944228Y-60241636D01*
X127943538Y-60235073D01*
X127938286Y-60218907D01*
X127903732Y-60112562D01*
X127884524Y-60053446D01*
X127789037Y-59888058D01*
X127773864Y-59871206D01*
X127665673Y-59751048D01*
X127665672Y-59751047D01*
X127661251Y-59746137D01*
X127655909Y-59742256D01*
X127655907Y-59742254D01*
X127512092Y-59637767D01*
X127512091Y-59637766D01*
X127506750Y-59633886D01*
X127500722Y-59631202D01*
X127500720Y-59631201D01*
X127338318Y-59558895D01*
X127338317Y-59558895D01*
X127332287Y-59556210D01*
X127219462Y-59532228D01*
X127151944Y-59517876D01*
X127151939Y-59517876D01*
X127145487Y-59516504D01*
X126954513Y-59516504D01*
X126948061Y-59517876D01*
X126948056Y-59517876D01*
X126880538Y-59532228D01*
X126767713Y-59556210D01*
X126761683Y-59558895D01*
X126761682Y-59558895D01*
X126599280Y-59631201D01*
X126599278Y-59631202D01*
X126593250Y-59633886D01*
X126587909Y-59637766D01*
X126587908Y-59637767D01*
X126444093Y-59742254D01*
X126444091Y-59742256D01*
X126438749Y-59746137D01*
X126434328Y-59751047D01*
X126434327Y-59751048D01*
X126326137Y-59871206D01*
X126310963Y-59888058D01*
X126215476Y-60053446D01*
X126196268Y-60112562D01*
X126161715Y-60218907D01*
X126156462Y-60235073D01*
X126155772Y-60241636D01*
X126155772Y-60241637D01*
X126144237Y-60351391D01*
X126136500Y-60425000D01*
X119870802Y-60425000D01*
X119861811Y-60411010D01*
X119841808Y-60342889D01*
X119853195Y-60290545D01*
X119901457Y-60184867D01*
X119901458Y-60184864D01*
X119905200Y-60176670D01*
X119908407Y-60154365D01*
X119925361Y-60036448D01*
X119925362Y-60036441D01*
X119926000Y-60032000D01*
X119926000Y-59382000D01*
X119920773Y-59308921D01*
X119879596Y-59168684D01*
X119861811Y-59141010D01*
X119841808Y-59072889D01*
X119853195Y-59020545D01*
X119901457Y-58914867D01*
X119901458Y-58914864D01*
X119905200Y-58906670D01*
X119910249Y-58871554D01*
X119925361Y-58766448D01*
X119925362Y-58766441D01*
X119926000Y-58762000D01*
X119926000Y-58112000D01*
X119920773Y-58038921D01*
X119886731Y-57922984D01*
X119882135Y-57907330D01*
X119882134Y-57907328D01*
X119879596Y-57898684D01*
X119861811Y-57871010D01*
X119841808Y-57802889D01*
X119853195Y-57750545D01*
X119901457Y-57644867D01*
X119901458Y-57644864D01*
X119905200Y-57636670D01*
X119906482Y-57627754D01*
X119925361Y-57496448D01*
X119925362Y-57496441D01*
X119926000Y-57492000D01*
X119926000Y-56842000D01*
X119925334Y-56832683D01*
X119923647Y-56809096D01*
X119938739Y-56739722D01*
X119975262Y-56698174D01*
X119976424Y-56697330D01*
X119988438Y-56688601D01*
X120055304Y-56664742D01*
X120124455Y-56680820D01*
X120136558Y-56688598D01*
X120243250Y-56766114D01*
X120249278Y-56768798D01*
X120249280Y-56768799D01*
X120403702Y-56837552D01*
X120417713Y-56843790D01*
X120511113Y-56863643D01*
X120598056Y-56882124D01*
X120598061Y-56882124D01*
X120604513Y-56883496D01*
X120795487Y-56883496D01*
X120801939Y-56882124D01*
X120801944Y-56882124D01*
X120888887Y-56863643D01*
X120982287Y-56843790D01*
X120996298Y-56837552D01*
X121150720Y-56768799D01*
X121150722Y-56768798D01*
X121156750Y-56766114D01*
X121263440Y-56688600D01*
X121330307Y-56664741D01*
X121399458Y-56680822D01*
X121411558Y-56688598D01*
X121518250Y-56766114D01*
X121524278Y-56768798D01*
X121524280Y-56768799D01*
X121678702Y-56837552D01*
X121692713Y-56843790D01*
X121786113Y-56863643D01*
X121873056Y-56882124D01*
X121873061Y-56882124D01*
X121879513Y-56883496D01*
X122070487Y-56883496D01*
X122076939Y-56882124D01*
X122076944Y-56882124D01*
X122163887Y-56863643D01*
X122257287Y-56843790D01*
X122271298Y-56837552D01*
X122425720Y-56768799D01*
X122425722Y-56768798D01*
X122431750Y-56766114D01*
X122538440Y-56688600D01*
X122605307Y-56664741D01*
X122674458Y-56680822D01*
X122686558Y-56688598D01*
X122793250Y-56766114D01*
X122799278Y-56768798D01*
X122799280Y-56768799D01*
X122953702Y-56837552D01*
X122967713Y-56843790D01*
X123061113Y-56863643D01*
X123148056Y-56882124D01*
X123148061Y-56882124D01*
X123154513Y-56883496D01*
X123345487Y-56883496D01*
X123351939Y-56882124D01*
X123351944Y-56882124D01*
X123438887Y-56863643D01*
X123532287Y-56843790D01*
X123546298Y-56837552D01*
X123700720Y-56768799D01*
X123700722Y-56768798D01*
X123706750Y-56766114D01*
X123743076Y-56739722D01*
X123855907Y-56657746D01*
X123855909Y-56657744D01*
X123861251Y-56653863D01*
X123887284Y-56624950D01*
X123984618Y-56516850D01*
X123984619Y-56516849D01*
X123989037Y-56511942D01*
X124084524Y-56346554D01*
X124121038Y-56234176D01*
X124141498Y-56171206D01*
X124141498Y-56171205D01*
X124143538Y-56164927D01*
X124163500Y-55975000D01*
X124158290Y-55925430D01*
X124144228Y-55791637D01*
X124144228Y-55791636D01*
X124143538Y-55785073D01*
X124084524Y-55603446D01*
X123989037Y-55438058D01*
X123887501Y-55325290D01*
X123865673Y-55301048D01*
X123865672Y-55301047D01*
X123861251Y-55296137D01*
X123855909Y-55292256D01*
X123855907Y-55292254D01*
X123712092Y-55187767D01*
X123712091Y-55187766D01*
X123706750Y-55183886D01*
X123700722Y-55181202D01*
X123700720Y-55181201D01*
X123538318Y-55108895D01*
X123538317Y-55108895D01*
X123532287Y-55106210D01*
X123438887Y-55086357D01*
X123351944Y-55067876D01*
X123351939Y-55067876D01*
X123345487Y-55066504D01*
X123154513Y-55066504D01*
X123148061Y-55067876D01*
X123148056Y-55067876D01*
X123061113Y-55086357D01*
X122967713Y-55106210D01*
X122961683Y-55108895D01*
X122961682Y-55108895D01*
X122799280Y-55181201D01*
X122799278Y-55181202D01*
X122793250Y-55183886D01*
X122787909Y-55187766D01*
X122787908Y-55187767D01*
X122686561Y-55261400D01*
X122619693Y-55285259D01*
X122550542Y-55269178D01*
X122538439Y-55261400D01*
X122437092Y-55187767D01*
X122437091Y-55187766D01*
X122431750Y-55183886D01*
X122425722Y-55181202D01*
X122425720Y-55181201D01*
X122263318Y-55108895D01*
X122263317Y-55108895D01*
X122257287Y-55106210D01*
X122163887Y-55086357D01*
X122076944Y-55067876D01*
X122076939Y-55067876D01*
X122070487Y-55066504D01*
X121879513Y-55066504D01*
X121873061Y-55067876D01*
X121873056Y-55067876D01*
X121786113Y-55086357D01*
X121692713Y-55106210D01*
X121686683Y-55108895D01*
X121686682Y-55108895D01*
X121524280Y-55181201D01*
X121524278Y-55181202D01*
X121518250Y-55183886D01*
X121512909Y-55187766D01*
X121512908Y-55187767D01*
X121411561Y-55261400D01*
X121344693Y-55285259D01*
X121275542Y-55269178D01*
X121263439Y-55261400D01*
X121162092Y-55187767D01*
X121162091Y-55187766D01*
X121156750Y-55183886D01*
X121150722Y-55181202D01*
X121150720Y-55181201D01*
X120988318Y-55108895D01*
X120988317Y-55108895D01*
X120982287Y-55106210D01*
X120888887Y-55086357D01*
X120801944Y-55067876D01*
X120801939Y-55067876D01*
X120795487Y-55066504D01*
X120604513Y-55066504D01*
X120598061Y-55067876D01*
X120598056Y-55067876D01*
X120511113Y-55086357D01*
X120417713Y-55106210D01*
X120411683Y-55108895D01*
X120411682Y-55108895D01*
X120249280Y-55181201D01*
X120249278Y-55181202D01*
X120243250Y-55183886D01*
X120237909Y-55187766D01*
X120237908Y-55187767D01*
X120136561Y-55261400D01*
X120069693Y-55285259D01*
X120000542Y-55269178D01*
X119988439Y-55261400D01*
X119887092Y-55187767D01*
X119887091Y-55187766D01*
X119881750Y-55183886D01*
X119875722Y-55181202D01*
X119875720Y-55181201D01*
X119713318Y-55108895D01*
X119713317Y-55108895D01*
X119707287Y-55106210D01*
X119613887Y-55086357D01*
X119526944Y-55067876D01*
X119526939Y-55067876D01*
X119520487Y-55066504D01*
X119329513Y-55066504D01*
X119323061Y-55067876D01*
X119323056Y-55067876D01*
X119236113Y-55086357D01*
X119142713Y-55106210D01*
X119136683Y-55108895D01*
X119136682Y-55108895D01*
X118974280Y-55181201D01*
X118974278Y-55181202D01*
X118968250Y-55183886D01*
X118962909Y-55187766D01*
X118962908Y-55187767D01*
X118819093Y-55292254D01*
X118819091Y-55292256D01*
X118813749Y-55296137D01*
X118809328Y-55301047D01*
X118809327Y-55301048D01*
X118787500Y-55325290D01*
X118685963Y-55438058D01*
X118590476Y-55603446D01*
X118531462Y-55785073D01*
X118530772Y-55791636D01*
X118530772Y-55791637D01*
X118516710Y-55925430D01*
X118511500Y-55975000D01*
X118531462Y-56164927D01*
X118533502Y-56171206D01*
X118534594Y-56176342D01*
X118529194Y-56247133D01*
X118486378Y-56303766D01*
X118415847Y-56328461D01*
X118414755Y-56328500D01*
X118412500Y-56328500D01*
X118339421Y-56333727D01*
X118276245Y-56352277D01*
X118207830Y-56372365D01*
X118207828Y-56372366D01*
X118199184Y-56374904D01*
X118191605Y-56379775D01*
X118083809Y-56449051D01*
X118083806Y-56449053D01*
X118076229Y-56453923D01*
X118070328Y-56460733D01*
X117986418Y-56557569D01*
X117986416Y-56557572D01*
X117980516Y-56564381D01*
X117976772Y-56572579D01*
X117941894Y-56648952D01*
X117919800Y-56697330D01*
X117918518Y-56706245D01*
X117918518Y-56706246D01*
X117899639Y-56837552D01*
X117899638Y-56837559D01*
X117899000Y-56842000D01*
X117899000Y-57492000D01*
X117904227Y-57565079D01*
X117922630Y-57627754D01*
X117939112Y-57683886D01*
X117945404Y-57705316D01*
X117950276Y-57712897D01*
X117963189Y-57732990D01*
X117983192Y-57801111D01*
X117971805Y-57853455D01*
X117929776Y-57945486D01*
X117919800Y-57967330D01*
X117918518Y-57976245D01*
X117918518Y-57976246D01*
X117899639Y-58107552D01*
X117899638Y-58107559D01*
X117899000Y-58112000D01*
X117899000Y-58762000D01*
X117904227Y-58835079D01*
X117945404Y-58975316D01*
X117950276Y-58982897D01*
X117963189Y-59002990D01*
X117983192Y-59071111D01*
X117971805Y-59123455D01*
X117928744Y-59217746D01*
X117919800Y-59237330D01*
X117918518Y-59246245D01*
X117918518Y-59246246D01*
X117899639Y-59377552D01*
X117899638Y-59377559D01*
X117899000Y-59382000D01*
X117899000Y-60032000D01*
X117904227Y-60105079D01*
X117906130Y-60111561D01*
X117906131Y-60111565D01*
X117926813Y-60182003D01*
X117926813Y-60252999D01*
X117888429Y-60312725D01*
X117823848Y-60342218D01*
X117805917Y-60343500D01*
X116463810Y-60343500D01*
X116395689Y-60323498D01*
X116349196Y-60269842D01*
X116339420Y-60224903D01*
X116338500Y-60225000D01*
X116319228Y-60041637D01*
X116319228Y-60041636D01*
X116318538Y-60035073D01*
X116316079Y-60027503D01*
X116269175Y-59883150D01*
X116259524Y-59853446D01*
X116250164Y-59837233D01*
X116184760Y-59723952D01*
X116164037Y-59688058D01*
X116146369Y-59668435D01*
X116040673Y-59551048D01*
X116040672Y-59551047D01*
X116036251Y-59546137D01*
X116030907Y-59542254D01*
X116026000Y-59537836D01*
X116026938Y-59536794D01*
X115988103Y-59486432D01*
X115982027Y-59415696D01*
X116015159Y-59352904D01*
X116054269Y-59325611D01*
X116125720Y-59293799D01*
X116125722Y-59293798D01*
X116131750Y-59291114D01*
X116137092Y-59287233D01*
X116280907Y-59182746D01*
X116280909Y-59182744D01*
X116286251Y-59178863D01*
X116302242Y-59161103D01*
X116409618Y-59041850D01*
X116409619Y-59041849D01*
X116414037Y-59036942D01*
X116489250Y-58906670D01*
X116506220Y-58877277D01*
X116506221Y-58877276D01*
X116509524Y-58871554D01*
X116542914Y-58768790D01*
X116566498Y-58696206D01*
X116566498Y-58696205D01*
X116568538Y-58689927D01*
X116571856Y-58658363D01*
X116587810Y-58506565D01*
X116588500Y-58500000D01*
X116568538Y-58310073D01*
X116556023Y-58271554D01*
X116511566Y-58134731D01*
X116509524Y-58128446D01*
X116414037Y-57963058D01*
X116398548Y-57945855D01*
X116290673Y-57826048D01*
X116290672Y-57826047D01*
X116286251Y-57821137D01*
X116280909Y-57817256D01*
X116280907Y-57817254D01*
X116137092Y-57712767D01*
X116137091Y-57712766D01*
X116131750Y-57708886D01*
X116125722Y-57706202D01*
X116125720Y-57706201D01*
X115963318Y-57633895D01*
X115963317Y-57633895D01*
X115957287Y-57631210D01*
X115863887Y-57611357D01*
X115776944Y-57592876D01*
X115776939Y-57592876D01*
X115770487Y-57591504D01*
X115579513Y-57591504D01*
X115573061Y-57592876D01*
X115573056Y-57592876D01*
X115486113Y-57611357D01*
X115392713Y-57631210D01*
X115386683Y-57633895D01*
X115386682Y-57633895D01*
X115224280Y-57706201D01*
X115224278Y-57706202D01*
X115218250Y-57708886D01*
X115212909Y-57712766D01*
X115212908Y-57712767D01*
X115069093Y-57817254D01*
X115069091Y-57817256D01*
X115063749Y-57821137D01*
X115059328Y-57826047D01*
X115059327Y-57826048D01*
X114951453Y-57945855D01*
X114935963Y-57963058D01*
X114840476Y-58128446D01*
X114838434Y-58134731D01*
X114793978Y-58271554D01*
X114781462Y-58310073D01*
X114761500Y-58500000D01*
X114762190Y-58506565D01*
X114778145Y-58658363D01*
X114781462Y-58689927D01*
X114783502Y-58696205D01*
X114783502Y-58696206D01*
X114807086Y-58768790D01*
X114840476Y-58871554D01*
X114843779Y-58877276D01*
X114843780Y-58877277D01*
X114860750Y-58906670D01*
X114935963Y-59036942D01*
X114940381Y-59041849D01*
X114940382Y-59041850D01*
X115047758Y-59161103D01*
X115063749Y-59178863D01*
X115069093Y-59182746D01*
X115074000Y-59187164D01*
X115073062Y-59188206D01*
X115111897Y-59238568D01*
X115117973Y-59309304D01*
X115084841Y-59372096D01*
X115045731Y-59399389D01*
X114974280Y-59431201D01*
X114974278Y-59431202D01*
X114968250Y-59433886D01*
X114962909Y-59437766D01*
X114962908Y-59437767D01*
X114819093Y-59542254D01*
X114819091Y-59542256D01*
X114813749Y-59546137D01*
X114809328Y-59551047D01*
X114809327Y-59551048D01*
X114703632Y-59668435D01*
X114685963Y-59688058D01*
X114665240Y-59723952D01*
X114599837Y-59837233D01*
X114590476Y-59853446D01*
X114580825Y-59883150D01*
X114533922Y-60027503D01*
X114531462Y-60035073D01*
X114511500Y-60225000D01*
X114510033Y-60224846D01*
X114492188Y-60285621D01*
X114438532Y-60332114D01*
X114386190Y-60343500D01*
X113531320Y-60343500D01*
X113463199Y-60323498D01*
X113416706Y-60269842D01*
X113406602Y-60199568D01*
X113422201Y-60154500D01*
X113427746Y-60144897D01*
X113484524Y-60046554D01*
X113532048Y-59900290D01*
X113541498Y-59871206D01*
X113541498Y-59871205D01*
X113543538Y-59864927D01*
X113563500Y-59675000D01*
X113543538Y-59485073D01*
X113527033Y-59434274D01*
X113489683Y-59319325D01*
X113484524Y-59303446D01*
X113475164Y-59287233D01*
X113389037Y-59138058D01*
X113391672Y-59136537D01*
X113372308Y-59081995D01*
X113388498Y-59012869D01*
X113389078Y-59011966D01*
X113389037Y-59011942D01*
X113481220Y-58852277D01*
X113481221Y-58852276D01*
X113484524Y-58846554D01*
X113535415Y-58689927D01*
X113541498Y-58671206D01*
X113541498Y-58671205D01*
X113543538Y-58664927D01*
X113563500Y-58475000D01*
X113547759Y-58325230D01*
X113544228Y-58291637D01*
X113544228Y-58291636D01*
X113543538Y-58285073D01*
X113539146Y-58271554D01*
X113486566Y-58109731D01*
X113484524Y-58103446D01*
X113389037Y-57938058D01*
X113375465Y-57922984D01*
X113265673Y-57801048D01*
X113265672Y-57801047D01*
X113261251Y-57796137D01*
X113255909Y-57792256D01*
X113255907Y-57792254D01*
X113112092Y-57687767D01*
X113112091Y-57687766D01*
X113106750Y-57683886D01*
X113100722Y-57681202D01*
X113100720Y-57681201D01*
X112938318Y-57608895D01*
X112938317Y-57608895D01*
X112932287Y-57606210D01*
X112838887Y-57586357D01*
X112751944Y-57567876D01*
X112751939Y-57567876D01*
X112745487Y-57566504D01*
X112554513Y-57566504D01*
X112548061Y-57567876D01*
X112548056Y-57567876D01*
X112461113Y-57586357D01*
X112367713Y-57606210D01*
X112361683Y-57608895D01*
X112361682Y-57608895D01*
X112199280Y-57681201D01*
X112199278Y-57681202D01*
X112193250Y-57683886D01*
X112187909Y-57687766D01*
X112187908Y-57687767D01*
X112044093Y-57792254D01*
X112044091Y-57792256D01*
X112038749Y-57796137D01*
X112034328Y-57801047D01*
X112034327Y-57801048D01*
X111924536Y-57922984D01*
X111910963Y-57938058D01*
X111815476Y-58103446D01*
X111813434Y-58109731D01*
X111760855Y-58271554D01*
X111756462Y-58285073D01*
X111755772Y-58291636D01*
X111755772Y-58291637D01*
X111752241Y-58325230D01*
X111736500Y-58475000D01*
X111756462Y-58664927D01*
X111758502Y-58671205D01*
X111758502Y-58671206D01*
X111764585Y-58689927D01*
X111815476Y-58846554D01*
X111818779Y-58852276D01*
X111818780Y-58852277D01*
X111910963Y-59011942D01*
X111908328Y-59013463D01*
X111927692Y-59068005D01*
X111911502Y-59137131D01*
X111910922Y-59138034D01*
X111910963Y-59138058D01*
X111824837Y-59287233D01*
X111815476Y-59303446D01*
X111810317Y-59319325D01*
X111772968Y-59434274D01*
X111756462Y-59485073D01*
X111736500Y-59675000D01*
X111756462Y-59864927D01*
X111758502Y-59871205D01*
X111758502Y-59871206D01*
X111767952Y-59900290D01*
X111815476Y-60046554D01*
X111872255Y-60144897D01*
X111877799Y-60154500D01*
X111894537Y-60223495D01*
X111871317Y-60290587D01*
X111815510Y-60334474D01*
X111768680Y-60343500D01*
X111041594Y-60343500D01*
X110973473Y-60323498D01*
X110952499Y-60306595D01*
X106778391Y-56132487D01*
X106771031Y-56124399D01*
X106766973Y-56118005D01*
X106718121Y-56072130D01*
X106715280Y-56069376D01*
X106694966Y-56049062D01*
X106691555Y-56046417D01*
X106682533Y-56038711D01*
X106656077Y-56013867D01*
X106650301Y-56008443D01*
X106643357Y-56004626D01*
X106643355Y-56004624D01*
X106632547Y-55998682D01*
X106616023Y-55987828D01*
X106606286Y-55980275D01*
X106606285Y-55980275D01*
X106600023Y-55975417D01*
X106559447Y-55957858D01*
X106548790Y-55952637D01*
X106510048Y-55931338D01*
X106502365Y-55929366D01*
X106502364Y-55929365D01*
X106490432Y-55926301D01*
X106471728Y-55919897D01*
X106460415Y-55915001D01*
X106460408Y-55914999D01*
X106453136Y-55911852D01*
X106445312Y-55910613D01*
X106445309Y-55910612D01*
X106409465Y-55904935D01*
X106397844Y-55902528D01*
X106360782Y-55893013D01*
X106360781Y-55893013D01*
X106355025Y-55891535D01*
X106354469Y-55891500D01*
X106334548Y-55891500D01*
X106314838Y-55889949D01*
X106302886Y-55888056D01*
X106302885Y-55888056D01*
X106295056Y-55886816D01*
X106287164Y-55887562D01*
X106251418Y-55890941D01*
X106239560Y-55891500D01*
X104883194Y-55891500D01*
X104815073Y-55871498D01*
X104795849Y-55855158D01*
X104795575Y-55855462D01*
X104790672Y-55851047D01*
X104786251Y-55846137D01*
X104780909Y-55842256D01*
X104780907Y-55842254D01*
X104637092Y-55737767D01*
X104637091Y-55737766D01*
X104631750Y-55733886D01*
X104625722Y-55731202D01*
X104625720Y-55731201D01*
X104463318Y-55658895D01*
X104463317Y-55658895D01*
X104457287Y-55656210D01*
X104352789Y-55633998D01*
X104276944Y-55617876D01*
X104276939Y-55617876D01*
X104270487Y-55616504D01*
X104079513Y-55616504D01*
X104073061Y-55617876D01*
X104073056Y-55617876D01*
X103997211Y-55633998D01*
X103892713Y-55656210D01*
X103886683Y-55658895D01*
X103886682Y-55658895D01*
X103724280Y-55731201D01*
X103724278Y-55731202D01*
X103718250Y-55733886D01*
X103712909Y-55737766D01*
X103712908Y-55737767D01*
X103569093Y-55842254D01*
X103569091Y-55842256D01*
X103563749Y-55846137D01*
X103559328Y-55851047D01*
X103559327Y-55851048D01*
X103450179Y-55972270D01*
X103435963Y-55988058D01*
X103402266Y-56046423D01*
X103360928Y-56118023D01*
X103340476Y-56153446D01*
X103334175Y-56172838D01*
X103287050Y-56317876D01*
X103281462Y-56335073D01*
X103280772Y-56341636D01*
X103280772Y-56341637D01*
X103268414Y-56459219D01*
X103261500Y-56525000D01*
X103262190Y-56531565D01*
X103280550Y-56706246D01*
X103281462Y-56714927D01*
X103283502Y-56721205D01*
X103283502Y-56721206D01*
X103289100Y-56738434D01*
X103340476Y-56896554D01*
X103343779Y-56902276D01*
X103343780Y-56902277D01*
X103369121Y-56946169D01*
X103435963Y-57061942D01*
X103563749Y-57203863D01*
X103569091Y-57207744D01*
X103569093Y-57207746D01*
X103712908Y-57312233D01*
X103718250Y-57316114D01*
X103724278Y-57318798D01*
X103724280Y-57318799D01*
X103869873Y-57383621D01*
X103892713Y-57393790D01*
X103986113Y-57413643D01*
X104073056Y-57432124D01*
X104073061Y-57432124D01*
X104079513Y-57433496D01*
X104270487Y-57433496D01*
X104276939Y-57432124D01*
X104276944Y-57432124D01*
X104363887Y-57413643D01*
X104457287Y-57393790D01*
X104480127Y-57383621D01*
X104625720Y-57318799D01*
X104625722Y-57318798D01*
X104631750Y-57316114D01*
X104637092Y-57312233D01*
X104780907Y-57207746D01*
X104780909Y-57207744D01*
X104786251Y-57203863D01*
X104790673Y-57198952D01*
X104795575Y-57194538D01*
X104796701Y-57195789D01*
X104850000Y-57162951D01*
X104883194Y-57158500D01*
X105960406Y-57158500D01*
X106028527Y-57178502D01*
X106049501Y-57195405D01*
X106400361Y-57546265D01*
X106434387Y-57608577D01*
X106429322Y-57679392D01*
X106385327Y-57737296D01*
X106344093Y-57767254D01*
X106344091Y-57767256D01*
X106338749Y-57771137D01*
X106334328Y-57776047D01*
X106329425Y-57780462D01*
X106328299Y-57779211D01*
X106275000Y-57812049D01*
X106241806Y-57816500D01*
X104028396Y-57816500D01*
X104017482Y-57815986D01*
X104010089Y-57814333D01*
X104002164Y-57814582D01*
X104002163Y-57814582D01*
X103943116Y-57816438D01*
X103939158Y-57816500D01*
X103910422Y-57816500D01*
X103906151Y-57817039D01*
X103894322Y-57817971D01*
X103850117Y-57819361D01*
X103842501Y-57821574D01*
X103842499Y-57821574D01*
X103830661Y-57825013D01*
X103811302Y-57829022D01*
X103799079Y-57830566D01*
X103799078Y-57830566D01*
X103791212Y-57831560D01*
X103783836Y-57834480D01*
X103783837Y-57834480D01*
X103750111Y-57847832D01*
X103738882Y-57851677D01*
X103704035Y-57861801D01*
X103704034Y-57861802D01*
X103696422Y-57864013D01*
X103689599Y-57868048D01*
X103678983Y-57874326D01*
X103661231Y-57883022D01*
X103642400Y-57890478D01*
X103620258Y-57906565D01*
X103606629Y-57916467D01*
X103596711Y-57922982D01*
X103558659Y-57945486D01*
X103558241Y-57945855D01*
X103544158Y-57959938D01*
X103529133Y-57972772D01*
X103512917Y-57984554D01*
X103484971Y-58018335D01*
X103476981Y-58027115D01*
X100174501Y-61329595D01*
X100112189Y-61363621D01*
X100085406Y-61366500D01*
X97311388Y-61366500D01*
X97243267Y-61346498D01*
X97196774Y-61292842D01*
X97186078Y-61253670D01*
X97186071Y-61253597D01*
X97168337Y-61084872D01*
X97158579Y-61054838D01*
X97111365Y-60909530D01*
X97109323Y-60903245D01*
X97090361Y-60870401D01*
X97017137Y-60743575D01*
X97013836Y-60737857D01*
X96938563Y-60654257D01*
X96890472Y-60600847D01*
X96890471Y-60600846D01*
X96886050Y-60595936D01*
X96880708Y-60592055D01*
X96880706Y-60592053D01*
X96736891Y-60487566D01*
X96736890Y-60487565D01*
X96731549Y-60483685D01*
X96725521Y-60481001D01*
X96725519Y-60481000D01*
X96563117Y-60408694D01*
X96563116Y-60408694D01*
X96557086Y-60406009D01*
X96463686Y-60386156D01*
X96376743Y-60367675D01*
X96376738Y-60367675D01*
X96370286Y-60366303D01*
X96316670Y-60366303D01*
X96248549Y-60346301D01*
X96230418Y-60332153D01*
X96193123Y-60297131D01*
X96190280Y-60294376D01*
X96169966Y-60274062D01*
X96166555Y-60271417D01*
X96157533Y-60263711D01*
X96131077Y-60238867D01*
X96125301Y-60233443D01*
X96118357Y-60229626D01*
X96118355Y-60229624D01*
X96107547Y-60223682D01*
X96091023Y-60212828D01*
X96081286Y-60205275D01*
X96081285Y-60205275D01*
X96075023Y-60200417D01*
X96034447Y-60182858D01*
X96023790Y-60177637D01*
X96022031Y-60176670D01*
X95985048Y-60156338D01*
X95977365Y-60154366D01*
X95977364Y-60154365D01*
X95965432Y-60151301D01*
X95946728Y-60144897D01*
X95935415Y-60140001D01*
X95935408Y-60139999D01*
X95928136Y-60136852D01*
X95920312Y-60135613D01*
X95920309Y-60135612D01*
X95884465Y-60129935D01*
X95872844Y-60127528D01*
X95835782Y-60118013D01*
X95835781Y-60118013D01*
X95830025Y-60116535D01*
X95829469Y-60116500D01*
X95809548Y-60116500D01*
X95789838Y-60114949D01*
X95777886Y-60113056D01*
X95777885Y-60113056D01*
X95770056Y-60111816D01*
X95762164Y-60112562D01*
X95726418Y-60115941D01*
X95714560Y-60116500D01*
X93464594Y-60116500D01*
X93396473Y-60096498D01*
X93375499Y-60079595D01*
X93272118Y-59976214D01*
X93238092Y-59913902D01*
X93235903Y-59900290D01*
X93219228Y-59741637D01*
X93219228Y-59741636D01*
X93218538Y-59735073D01*
X93213491Y-59719538D01*
X93166955Y-59576316D01*
X93159524Y-59553446D01*
X93138196Y-59516504D01*
X93093332Y-59438798D01*
X93064037Y-59388058D01*
X93058583Y-59382000D01*
X92940673Y-59251048D01*
X92940672Y-59251047D01*
X92936251Y-59246137D01*
X92930909Y-59242256D01*
X92930907Y-59242254D01*
X92787092Y-59137767D01*
X92787091Y-59137766D01*
X92781750Y-59133886D01*
X92775722Y-59131202D01*
X92775720Y-59131201D01*
X92613318Y-59058895D01*
X92613317Y-59058895D01*
X92607287Y-59056210D01*
X92513887Y-59036357D01*
X92426944Y-59017876D01*
X92426939Y-59017876D01*
X92420487Y-59016504D01*
X92229513Y-59016504D01*
X92223061Y-59017876D01*
X92223056Y-59017876D01*
X92136113Y-59036357D01*
X92042713Y-59056210D01*
X92036683Y-59058895D01*
X92036682Y-59058895D01*
X91874280Y-59131201D01*
X91874278Y-59131202D01*
X91868250Y-59133886D01*
X91862909Y-59137766D01*
X91862908Y-59137767D01*
X91719093Y-59242254D01*
X91719091Y-59242256D01*
X91713749Y-59246137D01*
X91709328Y-59251047D01*
X91709327Y-59251048D01*
X91591418Y-59382000D01*
X91585963Y-59388058D01*
X91556668Y-59438798D01*
X91511805Y-59516504D01*
X91490476Y-59553446D01*
X91483045Y-59576316D01*
X91436510Y-59719538D01*
X91431462Y-59735073D01*
X91430772Y-59741636D01*
X91430772Y-59741637D01*
X91419622Y-59847723D01*
X91411500Y-59925000D01*
X91431462Y-60114927D01*
X91433502Y-60121205D01*
X91433502Y-60121206D01*
X91444276Y-60154365D01*
X91490476Y-60296554D01*
X91493779Y-60302276D01*
X91493780Y-60302277D01*
X91522136Y-60351391D01*
X91585963Y-60461942D01*
X91590381Y-60466849D01*
X91590382Y-60466850D01*
X91709327Y-60598952D01*
X91713749Y-60603863D01*
X91719091Y-60607744D01*
X91719093Y-60607746D01*
X91862908Y-60712233D01*
X91868250Y-60716114D01*
X91874278Y-60718798D01*
X91874280Y-60718799D01*
X92036682Y-60791105D01*
X92042713Y-60793790D01*
X92120875Y-60810404D01*
X92223056Y-60832124D01*
X92223061Y-60832124D01*
X92229513Y-60833496D01*
X92285402Y-60833496D01*
X92353523Y-60853498D01*
X92374497Y-60870401D01*
X92646609Y-61142513D01*
X92653969Y-61150601D01*
X92658027Y-61156995D01*
X92662314Y-61161020D01*
X92689965Y-61225423D01*
X92678258Y-61295448D01*
X92630551Y-61348027D01*
X92564870Y-61366500D01*
X88231107Y-61366500D01*
X88220203Y-61365986D01*
X88212812Y-61364334D01*
X88204886Y-61364583D01*
X88204885Y-61364583D01*
X88145857Y-61366438D01*
X88141900Y-61366500D01*
X88113145Y-61366500D01*
X88108878Y-61367039D01*
X88097036Y-61367972D01*
X88065388Y-61368967D01*
X88060763Y-61369112D01*
X88052840Y-61369361D01*
X88033390Y-61375012D01*
X88014028Y-61379022D01*
X88011303Y-61379366D01*
X88001793Y-61380567D01*
X88001790Y-61380568D01*
X87993935Y-61381560D01*
X87986570Y-61384476D01*
X87986566Y-61384477D01*
X87952822Y-61397837D01*
X87941595Y-61401681D01*
X87899145Y-61414014D01*
X87892317Y-61418052D01*
X87881712Y-61424323D01*
X87863961Y-61433019D01*
X87852497Y-61437558D01*
X87852494Y-61437560D01*
X87845123Y-61440478D01*
X87824342Y-61455577D01*
X87809356Y-61466465D01*
X87799433Y-61472983D01*
X87761382Y-61495486D01*
X87760964Y-61495855D01*
X87746881Y-61509938D01*
X87731856Y-61522772D01*
X87715640Y-61534554D01*
X87688929Y-61566842D01*
X87687694Y-61568335D01*
X87679704Y-61577115D01*
X85982534Y-63274285D01*
X85920222Y-63308311D01*
X85849407Y-63303246D01*
X85792571Y-63260699D01*
X85784326Y-63248200D01*
X85764037Y-63213058D01*
X85665863Y-63104024D01*
X85635147Y-63040019D01*
X85633500Y-63019716D01*
X85633500Y-62742716D01*
X85653502Y-62674595D01*
X85685439Y-62640780D01*
X85730907Y-62607746D01*
X85730909Y-62607744D01*
X85736251Y-62603863D01*
X85750357Y-62588197D01*
X85859618Y-62466850D01*
X85859619Y-62466849D01*
X85864037Y-62461942D01*
X85959524Y-62296554D01*
X86018538Y-62114927D01*
X86030219Y-62003794D01*
X86037810Y-61931565D01*
X86038500Y-61925000D01*
X86018538Y-61735073D01*
X85989071Y-61644381D01*
X85964362Y-61568335D01*
X85959524Y-61553446D01*
X85938629Y-61517254D01*
X85902609Y-61454867D01*
X85864037Y-61388058D01*
X85852291Y-61375012D01*
X85740673Y-61251048D01*
X85740672Y-61251047D01*
X85736251Y-61246137D01*
X85730909Y-61242256D01*
X85730907Y-61242254D01*
X85587092Y-61137767D01*
X85587091Y-61137766D01*
X85581750Y-61133886D01*
X85575722Y-61131202D01*
X85575720Y-61131201D01*
X85413318Y-61058895D01*
X85413317Y-61058895D01*
X85407287Y-61056210D01*
X85313887Y-61036357D01*
X85226944Y-61017876D01*
X85226939Y-61017876D01*
X85220487Y-61016504D01*
X85029513Y-61016504D01*
X85023061Y-61017876D01*
X85023056Y-61017876D01*
X84936113Y-61036357D01*
X84842713Y-61056210D01*
X84836683Y-61058895D01*
X84836682Y-61058895D01*
X84674280Y-61131201D01*
X84674278Y-61131202D01*
X84668250Y-61133886D01*
X84662909Y-61137766D01*
X84662908Y-61137767D01*
X84519093Y-61242254D01*
X84519091Y-61242256D01*
X84513749Y-61246137D01*
X84509328Y-61251047D01*
X84509327Y-61251048D01*
X84397710Y-61375012D01*
X84385963Y-61388058D01*
X84347391Y-61454867D01*
X84311372Y-61517254D01*
X84290476Y-61553446D01*
X84285638Y-61568335D01*
X84260930Y-61644381D01*
X84231462Y-61735073D01*
X84211500Y-61925000D01*
X84212190Y-61931565D01*
X84219782Y-62003794D01*
X84231462Y-62114927D01*
X84290476Y-62296554D01*
X84293779Y-62302276D01*
X84293780Y-62302277D01*
X84382662Y-62456224D01*
X84385963Y-62461942D01*
X84390377Y-62466845D01*
X84392438Y-62469681D01*
X84416500Y-62543739D01*
X84416500Y-63019716D01*
X84396498Y-63087837D01*
X84384143Y-63104018D01*
X84285963Y-63213058D01*
X84190476Y-63378446D01*
X84188434Y-63384731D01*
X84187762Y-63386240D01*
X84141782Y-63440336D01*
X84073854Y-63460985D01*
X84005546Y-63441633D01*
X83958545Y-63388422D01*
X83947345Y-63321820D01*
X83951576Y-63281565D01*
X83952266Y-63275000D01*
X83932304Y-63085073D01*
X83927127Y-63069138D01*
X83875332Y-62909731D01*
X83873290Y-62903446D01*
X83861422Y-62882889D01*
X83834413Y-62836109D01*
X83777803Y-62738058D01*
X83704630Y-62656791D01*
X83673912Y-62592784D01*
X83672266Y-62572481D01*
X83672266Y-59487164D01*
X83692268Y-59419043D01*
X83704624Y-59402861D01*
X83779840Y-59319325D01*
X83875327Y-59153937D01*
X83909098Y-59050000D01*
X83932301Y-58978589D01*
X83932301Y-58978588D01*
X83934341Y-58972310D01*
X83940379Y-58914867D01*
X83953613Y-58788948D01*
X83954303Y-58782383D01*
X83951688Y-58757503D01*
X83935031Y-58599020D01*
X83935031Y-58599019D01*
X83934341Y-58592456D01*
X83929925Y-58578863D01*
X83877369Y-58417114D01*
X83875327Y-58410829D01*
X83779840Y-58245441D01*
X83680157Y-58134731D01*
X83656476Y-58108431D01*
X83656475Y-58108430D01*
X83652054Y-58103520D01*
X83646712Y-58099639D01*
X83646710Y-58099637D01*
X83502895Y-57995150D01*
X83502894Y-57995149D01*
X83497553Y-57991269D01*
X83491525Y-57988585D01*
X83491523Y-57988584D01*
X83329121Y-57916278D01*
X83329120Y-57916278D01*
X83323090Y-57913593D01*
X83214344Y-57890478D01*
X83142747Y-57875259D01*
X83142742Y-57875259D01*
X83136290Y-57873887D01*
X82945316Y-57873887D01*
X82938864Y-57875259D01*
X82938859Y-57875259D01*
X82867262Y-57890478D01*
X82758516Y-57913593D01*
X82752486Y-57916278D01*
X82752485Y-57916278D01*
X82590083Y-57988584D01*
X82590081Y-57988585D01*
X82584053Y-57991269D01*
X82578712Y-57995149D01*
X82578711Y-57995150D01*
X82434896Y-58099637D01*
X82434894Y-58099639D01*
X82429552Y-58103520D01*
X82425131Y-58108430D01*
X82425130Y-58108431D01*
X82401450Y-58134731D01*
X82301766Y-58245441D01*
X82275095Y-58291637D01*
X82243119Y-58347020D01*
X82191736Y-58396013D01*
X82122023Y-58409449D01*
X82056112Y-58383062D01*
X82014930Y-58325230D01*
X82008000Y-58284020D01*
X82008000Y-56459860D01*
X82008006Y-56458613D01*
X82008314Y-56427499D01*
X82028990Y-56359579D01*
X82056475Y-56329660D01*
X82155070Y-56252213D01*
X82163719Y-56243977D01*
X82297535Y-56089766D01*
X82304464Y-56080053D01*
X82406706Y-55903321D01*
X82411679Y-55892460D01*
X82478657Y-55699584D01*
X82479970Y-55694196D01*
X82478288Y-55682394D01*
X82464717Y-55678400D01*
X79789039Y-55678400D01*
X79775508Y-55682373D01*
X79774153Y-55691799D01*
X79797595Y-55789067D01*
X79798977Y-55793081D01*
X79802242Y-55864002D01*
X79766645Y-55925430D01*
X79703489Y-55957862D01*
X79679366Y-55960100D01*
X79261185Y-55958516D01*
X78807523Y-55956797D01*
X78739478Y-55936537D01*
X78693189Y-55882706D01*
X78683351Y-55812394D01*
X78688972Y-55789465D01*
X78728657Y-55675185D01*
X78729970Y-55669796D01*
X78728288Y-55657994D01*
X78714717Y-55654000D01*
X76997000Y-55654000D01*
X76928879Y-55633998D01*
X76882386Y-55580342D01*
X76871000Y-55528000D01*
X76871000Y-55154604D01*
X79770030Y-55154604D01*
X79771712Y-55166406D01*
X79785283Y-55170400D01*
X80852885Y-55170400D01*
X80868124Y-55165925D01*
X80869329Y-55164535D01*
X80871000Y-55156852D01*
X80871000Y-54309515D01*
X80869659Y-54304948D01*
X81379000Y-54304948D01*
X81379000Y-55152285D01*
X81383475Y-55167524D01*
X81384865Y-55168729D01*
X81392548Y-55170400D01*
X82460961Y-55170400D01*
X82474492Y-55166427D01*
X82475847Y-55157001D01*
X82452406Y-55059736D01*
X82448517Y-55048441D01*
X82364009Y-54862576D01*
X82358062Y-54852234D01*
X82239926Y-54685693D01*
X82232133Y-54676664D01*
X82084642Y-54535472D01*
X82075267Y-54528068D01*
X81903748Y-54417321D01*
X81893140Y-54411822D01*
X81703777Y-54335507D01*
X81692319Y-54332113D01*
X81490495Y-54292699D01*
X81481527Y-54291610D01*
X81478777Y-54291475D01*
X81475684Y-54291400D01*
X81397115Y-54291400D01*
X81381876Y-54295875D01*
X81380671Y-54297265D01*
X81379000Y-54304948D01*
X80869659Y-54304948D01*
X80866525Y-54294276D01*
X80865135Y-54293071D01*
X80857452Y-54291400D01*
X80825587Y-54291400D01*
X80819610Y-54291685D01*
X80665786Y-54306361D01*
X80654052Y-54308620D01*
X80458136Y-54366095D01*
X80447053Y-54370528D01*
X80265542Y-54464013D01*
X80255487Y-54470469D01*
X80094930Y-54596587D01*
X80086281Y-54604823D01*
X79952465Y-54759034D01*
X79945536Y-54768747D01*
X79843294Y-54945479D01*
X79838321Y-54956340D01*
X79771343Y-55149216D01*
X79770030Y-55154604D01*
X76871000Y-55154604D01*
X76871000Y-54285115D01*
X76869659Y-54280548D01*
X77379000Y-54280548D01*
X77379000Y-55127885D01*
X77383475Y-55143124D01*
X77384865Y-55144329D01*
X77392548Y-55146000D01*
X78710961Y-55146000D01*
X78724492Y-55142027D01*
X78725847Y-55132601D01*
X78702406Y-55035336D01*
X78698517Y-55024041D01*
X78614009Y-54838176D01*
X78608062Y-54827834D01*
X78489926Y-54661293D01*
X78482133Y-54652264D01*
X78334642Y-54511072D01*
X78325267Y-54503668D01*
X78153748Y-54392921D01*
X78143140Y-54387422D01*
X77953777Y-54311107D01*
X77942319Y-54307713D01*
X77740495Y-54268299D01*
X77731527Y-54267210D01*
X77728777Y-54267075D01*
X77725684Y-54267000D01*
X77397115Y-54267000D01*
X77381876Y-54271475D01*
X77380671Y-54272865D01*
X77379000Y-54280548D01*
X76869659Y-54280548D01*
X76866525Y-54269876D01*
X76865135Y-54268671D01*
X76857452Y-54267000D01*
X76575587Y-54267000D01*
X76569610Y-54267285D01*
X76415786Y-54281961D01*
X76404052Y-54284220D01*
X76208136Y-54341695D01*
X76197053Y-54346128D01*
X76015542Y-54439613D01*
X76005487Y-54446069D01*
X75844930Y-54572187D01*
X75836281Y-54580423D01*
X75702465Y-54734634D01*
X75695536Y-54744347D01*
X75643064Y-54835048D01*
X75591638Y-54883996D01*
X75521913Y-54897371D01*
X75456025Y-54870926D01*
X75414894Y-54813058D01*
X75408000Y-54771952D01*
X75408000Y-52516851D01*
X75428002Y-52448730D01*
X75481658Y-52402237D01*
X75551932Y-52392133D01*
X75616512Y-52421627D01*
X75653968Y-52478333D01*
X75725700Y-52701750D01*
X75835911Y-52918053D01*
X75838901Y-52922138D01*
X75975132Y-53108273D01*
X75979288Y-53113952D01*
X76152141Y-53284408D01*
X76156266Y-53287340D01*
X76156269Y-53287342D01*
X76345898Y-53422105D01*
X76345902Y-53422108D01*
X76350023Y-53425036D01*
X76354561Y-53427269D01*
X76354566Y-53427272D01*
X76512602Y-53505035D01*
X76567843Y-53532217D01*
X76572678Y-53533695D01*
X76572680Y-53533696D01*
X76651295Y-53557730D01*
X76799998Y-53603193D01*
X76805017Y-53603880D01*
X76805019Y-53603881D01*
X76890066Y-53615531D01*
X77040514Y-53636140D01*
X77109858Y-53634445D01*
X77278143Y-53630333D01*
X77278147Y-53630333D01*
X77283204Y-53630209D01*
X77521823Y-53585552D01*
X77559033Y-53572156D01*
X77669968Y-53532217D01*
X77750234Y-53503320D01*
X77775758Y-53489172D01*
X77891461Y-53425036D01*
X77962558Y-53385626D01*
X77966536Y-53382496D01*
X77966540Y-53382493D01*
X78149358Y-53238629D01*
X78149359Y-53238628D01*
X78153334Y-53235500D01*
X78183195Y-53203027D01*
X78314231Y-53060527D01*
X78314234Y-53060523D01*
X78317654Y-53056804D01*
X78341828Y-53020143D01*
X78404737Y-52924735D01*
X78451290Y-52854134D01*
X78466228Y-52820895D01*
X78548730Y-52637322D01*
X78548732Y-52637316D01*
X78550804Y-52632706D01*
X78552113Y-52627821D01*
X78612327Y-52403098D01*
X78612327Y-52403097D01*
X78613635Y-52398216D01*
X78638168Y-52156696D01*
X78638500Y-52125000D01*
X78628885Y-52005494D01*
X78619437Y-51888061D01*
X78619436Y-51888056D01*
X78619031Y-51883020D01*
X78593513Y-51779127D01*
X78562331Y-51652179D01*
X78561124Y-51647265D01*
X78546563Y-51612960D01*
X78468245Y-51428456D01*
X78468245Y-51428455D01*
X78466269Y-51423801D01*
X78336907Y-51218378D01*
X78176365Y-51036279D01*
X77988775Y-50882191D01*
X77778962Y-50760076D01*
X77774235Y-50758262D01*
X77774232Y-50758260D01*
X77557048Y-50674891D01*
X77557044Y-50674890D01*
X77552324Y-50673078D01*
X77513076Y-50664879D01*
X77476977Y-50657337D01*
X77414386Y-50623828D01*
X77379848Y-50561798D01*
X77384328Y-50490943D01*
X77426404Y-50433758D01*
X77492718Y-50408399D01*
X77502743Y-50408000D01*
X89477877Y-50408000D01*
X89545998Y-50428002D01*
G37*
%TD.AperFunction*%
%TD*%
M02*
