%FSLAX45Y45*%
G04 Gerber Fmt 4.5, Leading zero omitted, Abs format (unit mm)*
G04 Created by KiCad (PCBNEW 5.99.0-unknown-ed66c0f14d~128~ubuntu20.04.1) date 2021-06-03 22:12:49*
%MOMM*%
%LPD*%
G01*
G04 APERTURE LIST*
%TA.AperFunction,Profile*%
%ADD10C,0.100000*%
%TD*%
%ADD11C,0.200000*%
G04 APERTURE END LIST*
D10*
X13490000Y-7010000D02*
G75*
G02*
X13290000Y-7210000I-200000J0D01*
G01*
X8150000Y-5647500D02*
X8150000Y-6547500D01*
X7490000Y-5645000D02*
X8150000Y-5647500D01*
X8150000Y-6547500D02*
X7490000Y-6547500D01*
X7690000Y-4990000D02*
X13290000Y-4990000D01*
X13290000Y-7210000D02*
X7690000Y-7210000D01*
X13490000Y-5190000D02*
X13490000Y-7010000D01*
X7690000Y-4990000D02*
G75*
G03*
X7490000Y-5190000I0J-200000D01*
G01*
X13290000Y-4990000D02*
G75*
G02*
X13490000Y-5190000I0J-200000D01*
G01*
X7490000Y-5645000D02*
X7490000Y-5190000D01*
X7490000Y-6547500D02*
X7490000Y-7010000D01*
X7490000Y-7010000D02*
G75*
G03*
X7690000Y-7210000I200000J0D01*
G01*
D11*
X7612500Y-5112500D02*
X7812500Y-5312500D01*
X7812500Y-5112500D02*
X7612500Y-5312500D01*
X7612500Y-6887500D02*
X7812500Y-7087500D01*
X7812500Y-6887500D02*
X7612500Y-7087500D01*
X13167500Y-5112500D02*
X13367500Y-5312500D01*
X13367500Y-5112500D02*
X13167500Y-5312500D01*
X13167500Y-6887500D02*
X13367500Y-7087500D01*
X13367500Y-6887500D02*
X13167500Y-7087500D01*
X7732619Y-7535476D02*
X7732619Y-7335476D01*
X7780238Y-7335476D01*
X7808809Y-7345000D01*
X7827857Y-7364048D01*
X7837381Y-7383095D01*
X7846905Y-7421190D01*
X7846905Y-7449762D01*
X7837381Y-7487857D01*
X7827857Y-7506905D01*
X7808809Y-7525952D01*
X7780238Y-7535476D01*
X7732619Y-7535476D01*
X7932619Y-7535476D02*
X7932619Y-7402143D01*
X7932619Y-7440238D02*
X7942143Y-7421190D01*
X7951667Y-7411667D01*
X7970714Y-7402143D01*
X7989762Y-7402143D01*
X8056428Y-7535476D02*
X8056428Y-7402143D01*
X8056428Y-7335476D02*
X8046905Y-7345000D01*
X8056428Y-7354524D01*
X8065952Y-7345000D01*
X8056428Y-7335476D01*
X8056428Y-7354524D01*
X8180238Y-7535476D02*
X8161190Y-7525952D01*
X8151667Y-7506905D01*
X8151667Y-7335476D01*
X8285000Y-7535476D02*
X8265952Y-7525952D01*
X8256428Y-7506905D01*
X8256428Y-7335476D01*
X8513571Y-7535476D02*
X8513571Y-7335476D01*
X8580238Y-7478333D01*
X8646905Y-7335476D01*
X8646905Y-7535476D01*
X8827857Y-7535476D02*
X8827857Y-7430714D01*
X8818333Y-7411667D01*
X8799286Y-7402143D01*
X8761190Y-7402143D01*
X8742143Y-7411667D01*
X8827857Y-7525952D02*
X8808810Y-7535476D01*
X8761190Y-7535476D01*
X8742143Y-7525952D01*
X8732619Y-7506905D01*
X8732619Y-7487857D01*
X8742143Y-7468809D01*
X8761190Y-7459286D01*
X8808810Y-7459286D01*
X8827857Y-7449762D01*
X8923095Y-7402143D02*
X8923095Y-7602143D01*
X8923095Y-7411667D02*
X8942143Y-7402143D01*
X8980238Y-7402143D01*
X8999286Y-7411667D01*
X9008810Y-7421190D01*
X9018333Y-7440238D01*
X9018333Y-7497381D01*
X9008810Y-7516428D01*
X8999286Y-7525952D01*
X8980238Y-7535476D01*
X8942143Y-7535476D01*
X8923095Y-7525952D01*
X9104048Y-7516428D02*
X9113571Y-7525952D01*
X9104048Y-7535476D01*
X9094524Y-7525952D01*
X9104048Y-7516428D01*
X9104048Y-7535476D01*
X9104048Y-7411667D02*
X9113571Y-7421190D01*
X9104048Y-7430714D01*
X9094524Y-7421190D01*
X9104048Y-7411667D01*
X9104048Y-7430714D01*
X7275000Y-7765000D02*
X7475000Y-7965000D01*
X7475000Y-7765000D02*
X7275000Y-7965000D01*
X7723095Y-7774524D02*
X7732619Y-7765000D01*
X7751667Y-7755476D01*
X7799286Y-7755476D01*
X7818333Y-7765000D01*
X7827857Y-7774524D01*
X7837381Y-7793571D01*
X7837381Y-7812619D01*
X7827857Y-7841190D01*
X7713571Y-7955476D01*
X7837381Y-7955476D01*
X7923095Y-7936428D02*
X7932619Y-7945952D01*
X7923095Y-7955476D01*
X7913571Y-7945952D01*
X7923095Y-7936428D01*
X7923095Y-7955476D01*
X8056428Y-7755476D02*
X8075476Y-7755476D01*
X8094524Y-7765000D01*
X8104048Y-7774524D01*
X8113571Y-7793571D01*
X8123095Y-7831667D01*
X8123095Y-7879286D01*
X8113571Y-7917381D01*
X8104048Y-7936428D01*
X8094524Y-7945952D01*
X8075476Y-7955476D01*
X8056428Y-7955476D01*
X8037381Y-7945952D01*
X8027857Y-7936428D01*
X8018333Y-7917381D01*
X8008809Y-7879286D01*
X8008809Y-7831667D01*
X8018333Y-7793571D01*
X8027857Y-7774524D01*
X8037381Y-7765000D01*
X8056428Y-7755476D01*
X8246905Y-7755476D02*
X8265952Y-7755476D01*
X8285000Y-7765000D01*
X8294524Y-7774524D01*
X8304048Y-7793571D01*
X8313571Y-7831667D01*
X8313571Y-7879286D01*
X8304048Y-7917381D01*
X8294524Y-7936428D01*
X8285000Y-7945952D01*
X8265952Y-7955476D01*
X8246905Y-7955476D01*
X8227857Y-7945952D01*
X8218333Y-7936428D01*
X8208809Y-7917381D01*
X8199286Y-7879286D01*
X8199286Y-7831667D01*
X8208809Y-7793571D01*
X8218333Y-7774524D01*
X8227857Y-7765000D01*
X8246905Y-7755476D01*
X8437381Y-7755476D02*
X8456429Y-7755476D01*
X8475476Y-7765000D01*
X8485000Y-7774524D01*
X8494524Y-7793571D01*
X8504048Y-7831667D01*
X8504048Y-7879286D01*
X8494524Y-7917381D01*
X8485000Y-7936428D01*
X8475476Y-7945952D01*
X8456429Y-7955476D01*
X8437381Y-7955476D01*
X8418333Y-7945952D01*
X8408810Y-7936428D01*
X8399286Y-7917381D01*
X8389762Y-7879286D01*
X8389762Y-7831667D01*
X8399286Y-7793571D01*
X8408810Y-7774524D01*
X8418333Y-7765000D01*
X8437381Y-7755476D01*
X8589762Y-7955476D02*
X8589762Y-7822143D01*
X8589762Y-7841190D02*
X8599286Y-7831667D01*
X8618333Y-7822143D01*
X8646905Y-7822143D01*
X8665952Y-7831667D01*
X8675476Y-7850714D01*
X8675476Y-7955476D01*
X8675476Y-7850714D02*
X8685000Y-7831667D01*
X8704048Y-7822143D01*
X8732619Y-7822143D01*
X8751667Y-7831667D01*
X8761190Y-7850714D01*
X8761190Y-7955476D01*
X8856429Y-7955476D02*
X8856429Y-7822143D01*
X8856429Y-7841190D02*
X8865952Y-7831667D01*
X8885000Y-7822143D01*
X8913571Y-7822143D01*
X8932619Y-7831667D01*
X8942143Y-7850714D01*
X8942143Y-7955476D01*
X8942143Y-7850714D02*
X8951667Y-7831667D01*
X8970714Y-7822143D01*
X8999286Y-7822143D01*
X9018333Y-7831667D01*
X9027857Y-7850714D01*
X9027857Y-7955476D01*
X9418333Y-7745952D02*
X9246905Y-8003095D01*
X9675476Y-7755476D02*
X9694524Y-7755476D01*
X9713571Y-7765000D01*
X9723095Y-7774524D01*
X9732619Y-7793571D01*
X9742143Y-7831667D01*
X9742143Y-7879286D01*
X9732619Y-7917381D01*
X9723095Y-7936428D01*
X9713571Y-7945952D01*
X9694524Y-7955476D01*
X9675476Y-7955476D01*
X9656429Y-7945952D01*
X9646905Y-7936428D01*
X9637381Y-7917381D01*
X9627857Y-7879286D01*
X9627857Y-7831667D01*
X9637381Y-7793571D01*
X9646905Y-7774524D01*
X9656429Y-7765000D01*
X9675476Y-7755476D01*
X9827857Y-7936428D02*
X9837381Y-7945952D01*
X9827857Y-7955476D01*
X9818333Y-7945952D01*
X9827857Y-7936428D01*
X9827857Y-7955476D01*
X9961190Y-7755476D02*
X9980238Y-7755476D01*
X9999286Y-7765000D01*
X10008810Y-7774524D01*
X10018333Y-7793571D01*
X10027857Y-7831667D01*
X10027857Y-7879286D01*
X10018333Y-7917381D01*
X10008810Y-7936428D01*
X9999286Y-7945952D01*
X9980238Y-7955476D01*
X9961190Y-7955476D01*
X9942143Y-7945952D01*
X9932619Y-7936428D01*
X9923095Y-7917381D01*
X9913571Y-7879286D01*
X9913571Y-7831667D01*
X9923095Y-7793571D01*
X9932619Y-7774524D01*
X9942143Y-7765000D01*
X9961190Y-7755476D01*
X10094524Y-7755476D02*
X10227857Y-7755476D01*
X10142143Y-7955476D01*
X10332619Y-7841190D02*
X10313571Y-7831667D01*
X10304048Y-7822143D01*
X10294524Y-7803095D01*
X10294524Y-7793571D01*
X10304048Y-7774524D01*
X10313571Y-7765000D01*
X10332619Y-7755476D01*
X10370714Y-7755476D01*
X10389762Y-7765000D01*
X10399286Y-7774524D01*
X10408810Y-7793571D01*
X10408810Y-7803095D01*
X10399286Y-7822143D01*
X10389762Y-7831667D01*
X10370714Y-7841190D01*
X10332619Y-7841190D01*
X10313571Y-7850714D01*
X10304048Y-7860238D01*
X10294524Y-7879286D01*
X10294524Y-7917381D01*
X10304048Y-7936428D01*
X10313571Y-7945952D01*
X10332619Y-7955476D01*
X10370714Y-7955476D01*
X10389762Y-7945952D01*
X10399286Y-7936428D01*
X10408810Y-7917381D01*
X10408810Y-7879286D01*
X10399286Y-7860238D01*
X10389762Y-7850714D01*
X10370714Y-7841190D01*
X10475476Y-7755476D02*
X10608810Y-7755476D01*
X10523095Y-7955476D01*
X10675476Y-7755476D02*
X10675476Y-7793571D01*
X10751667Y-7755476D02*
X10751667Y-7793571D01*
X11046905Y-8031667D02*
X11037381Y-8022143D01*
X11018333Y-7993571D01*
X11008810Y-7974524D01*
X10999286Y-7945952D01*
X10989762Y-7898333D01*
X10989762Y-7860238D01*
X10999286Y-7812619D01*
X11008810Y-7784048D01*
X11018333Y-7765000D01*
X11037381Y-7736428D01*
X11046905Y-7726905D01*
X11208809Y-7822143D02*
X11208809Y-7955476D01*
X11161190Y-7745952D02*
X11113571Y-7888809D01*
X11237381Y-7888809D01*
X11465952Y-7955476D02*
X11465952Y-7755476D01*
X11551667Y-7955476D02*
X11551667Y-7850714D01*
X11542143Y-7831667D01*
X11523095Y-7822143D01*
X11494524Y-7822143D01*
X11475476Y-7831667D01*
X11465952Y-7841190D01*
X11675476Y-7955476D02*
X11656428Y-7945952D01*
X11646905Y-7936428D01*
X11637381Y-7917381D01*
X11637381Y-7860238D01*
X11646905Y-7841190D01*
X11656428Y-7831667D01*
X11675476Y-7822143D01*
X11704048Y-7822143D01*
X11723095Y-7831667D01*
X11732619Y-7841190D01*
X11742143Y-7860238D01*
X11742143Y-7917381D01*
X11732619Y-7936428D01*
X11723095Y-7945952D01*
X11704048Y-7955476D01*
X11675476Y-7955476D01*
X11856428Y-7955476D02*
X11837381Y-7945952D01*
X11827857Y-7926905D01*
X11827857Y-7755476D01*
X12008809Y-7945952D02*
X11989762Y-7955476D01*
X11951667Y-7955476D01*
X11932619Y-7945952D01*
X11923095Y-7926905D01*
X11923095Y-7850714D01*
X11932619Y-7831667D01*
X11951667Y-7822143D01*
X11989762Y-7822143D01*
X12008809Y-7831667D01*
X12018333Y-7850714D01*
X12018333Y-7869762D01*
X11923095Y-7888809D01*
X12094524Y-7945952D02*
X12113571Y-7955476D01*
X12151667Y-7955476D01*
X12170714Y-7945952D01*
X12180238Y-7926905D01*
X12180238Y-7917381D01*
X12170714Y-7898333D01*
X12151667Y-7888809D01*
X12123095Y-7888809D01*
X12104048Y-7879286D01*
X12094524Y-7860238D01*
X12094524Y-7850714D01*
X12104048Y-7831667D01*
X12123095Y-7822143D01*
X12151667Y-7822143D01*
X12170714Y-7831667D01*
X12246905Y-8031667D02*
X12256428Y-8022143D01*
X12275476Y-7993571D01*
X12285000Y-7974524D01*
X12294524Y-7945952D01*
X12304048Y-7898333D01*
X12304048Y-7860238D01*
X12294524Y-7812619D01*
X12285000Y-7784048D01*
X12275476Y-7765000D01*
X12256428Y-7736428D01*
X12246905Y-7726905D01*
X12608809Y-8031667D02*
X12599286Y-8022143D01*
X12580238Y-7993571D01*
X12570714Y-7974524D01*
X12561190Y-7945952D01*
X12551667Y-7898333D01*
X12551667Y-7860238D01*
X12561190Y-7812619D01*
X12570714Y-7784048D01*
X12580238Y-7765000D01*
X12599286Y-7736428D01*
X12608809Y-7726905D01*
X12685000Y-7822143D02*
X12685000Y-7955476D01*
X12685000Y-7841190D02*
X12694524Y-7831667D01*
X12713571Y-7822143D01*
X12742143Y-7822143D01*
X12761190Y-7831667D01*
X12770714Y-7850714D01*
X12770714Y-7955476D01*
X12894524Y-7955476D02*
X12875476Y-7945952D01*
X12865952Y-7936428D01*
X12856428Y-7917381D01*
X12856428Y-7860238D01*
X12865952Y-7841190D01*
X12875476Y-7831667D01*
X12894524Y-7822143D01*
X12923095Y-7822143D01*
X12942143Y-7831667D01*
X12951667Y-7841190D01*
X12961190Y-7860238D01*
X12961190Y-7917381D01*
X12951667Y-7936428D01*
X12942143Y-7945952D01*
X12923095Y-7955476D01*
X12894524Y-7955476D01*
X13018333Y-7822143D02*
X13094524Y-7822143D01*
X13046905Y-7755476D02*
X13046905Y-7926905D01*
X13056428Y-7945952D01*
X13075476Y-7955476D01*
X13094524Y-7955476D01*
X13313571Y-7822143D02*
X13313571Y-8022143D01*
X13313571Y-7831667D02*
X13332619Y-7822143D01*
X13370714Y-7822143D01*
X13389762Y-7831667D01*
X13399286Y-7841190D01*
X13408809Y-7860238D01*
X13408809Y-7917381D01*
X13399286Y-7936428D01*
X13389762Y-7945952D01*
X13370714Y-7955476D01*
X13332619Y-7955476D01*
X13313571Y-7945952D01*
X13523095Y-7955476D02*
X13504048Y-7945952D01*
X13494524Y-7926905D01*
X13494524Y-7755476D01*
X13685000Y-7955476D02*
X13685000Y-7850714D01*
X13675476Y-7831667D01*
X13656428Y-7822143D01*
X13618333Y-7822143D01*
X13599286Y-7831667D01*
X13685000Y-7945952D02*
X13665952Y-7955476D01*
X13618333Y-7955476D01*
X13599286Y-7945952D01*
X13589762Y-7926905D01*
X13589762Y-7907857D01*
X13599286Y-7888809D01*
X13618333Y-7879286D01*
X13665952Y-7879286D01*
X13685000Y-7869762D01*
X13751667Y-7822143D02*
X13827857Y-7822143D01*
X13780238Y-7755476D02*
X13780238Y-7926905D01*
X13789762Y-7945952D01*
X13808809Y-7955476D01*
X13827857Y-7955476D01*
X13970714Y-7945952D02*
X13951667Y-7955476D01*
X13913571Y-7955476D01*
X13894524Y-7945952D01*
X13885000Y-7926905D01*
X13885000Y-7850714D01*
X13894524Y-7831667D01*
X13913571Y-7822143D01*
X13951667Y-7822143D01*
X13970714Y-7831667D01*
X13980238Y-7850714D01*
X13980238Y-7869762D01*
X13885000Y-7888809D01*
X14151667Y-7955476D02*
X14151667Y-7755476D01*
X14151667Y-7945952D02*
X14132619Y-7955476D01*
X14094524Y-7955476D01*
X14075476Y-7945952D01*
X14065952Y-7936428D01*
X14056428Y-7917381D01*
X14056428Y-7860238D01*
X14065952Y-7841190D01*
X14075476Y-7831667D01*
X14094524Y-7822143D01*
X14132619Y-7822143D01*
X14151667Y-7831667D01*
X14227857Y-8031667D02*
X14237381Y-8022143D01*
X14256428Y-7993571D01*
X14265952Y-7974524D01*
X14275476Y-7945952D01*
X14285000Y-7898333D01*
X14285000Y-7860238D01*
X14275476Y-7812619D01*
X14265952Y-7784048D01*
X14256428Y-7765000D01*
X14237381Y-7736428D01*
X14227857Y-7726905D01*
M02*
