%TF.GenerationSoftware,KiCad,Pcbnew,5.99.0-unknown-d946d6e68f~129~ubuntu20.04.1*%
%TF.CreationDate,2021-06-09T18:53:32+01:00*%
%TF.ProjectId,nRF52840-BBoard,6e524635-3238-4343-902d-42426f617264,v2*%
%TF.SameCoordinates,Original*%
%TF.FileFunction,Soldermask,Top*%
%TF.FilePolarity,Negative*%
%FSLAX46Y46*%
G04 Gerber Fmt 4.6, Leading zero omitted, Abs format (unit mm)*
G04 Created by KiCad (PCBNEW 5.99.0-unknown-d946d6e68f~129~ubuntu20.04.1) date 2021-06-09 18:53:32*
%MOMM*%
%LPD*%
G01*
G04 APERTURE LIST*
G04 Aperture macros list*
%AMRoundRect*
0 Rectangle with rounded corners*
0 $1 Rounding radius*
0 $2 $3 $4 $5 $6 $7 $8 $9 X,Y pos of 4 corners*
0 Add a 4 corners polygon primitive as box body*
4,1,4,$2,$3,$4,$5,$6,$7,$8,$9,$2,$3,0*
0 Add four circle primitives for the rounded corners*
1,1,$1+$1,$2,$3*
1,1,$1+$1,$4,$5*
1,1,$1+$1,$6,$7*
1,1,$1+$1,$8,$9*
0 Add four rect primitives between the rounded corners*
20,1,$1+$1,$2,$3,$4,$5,0*
20,1,$1+$1,$4,$5,$6,$7,0*
20,1,$1+$1,$6,$7,$8,$9,0*
20,1,$1+$1,$8,$9,$2,$3,0*%
G04 Aperture macros list end*
%ADD10C,0.120000*%
%ADD11RoundRect,0.200000X0.200000X0.275000X-0.200000X0.275000X-0.200000X-0.275000X0.200000X-0.275000X0*%
%ADD12RoundRect,0.237500X0.287500X0.237500X-0.287500X0.237500X-0.287500X-0.237500X0.287500X-0.237500X0*%
%ADD13R,1.000000X1.000000*%
%ADD14C,2.000000*%
%ADD15R,0.600000X1.100000*%
%ADD16R,0.650000X1.000000*%
%ADD17R,1.000000X0.650000*%
%ADD18RoundRect,0.155000X-0.212500X-0.155000X0.212500X-0.155000X0.212500X0.155000X-0.212500X0.155000X0*%
%ADD19RoundRect,0.200000X-0.275000X0.200000X-0.275000X-0.200000X0.275000X-0.200000X0.275000X0.200000X0*%
%ADD20R,0.900000X0.800000*%
%ADD21R,0.850000X1.200000*%
%ADD22RoundRect,0.237500X-0.287500X-0.237500X0.287500X-0.237500X0.287500X0.237500X-0.287500X0.237500X0*%
%ADD23RoundRect,0.200000X-0.200000X-0.275000X0.200000X-0.275000X0.200000X0.275000X-0.200000X0.275000X0*%
%ADD24RoundRect,0.150000X0.150000X0.700000X-0.150000X0.700000X-0.150000X-0.700000X0.150000X-0.700000X0*%
%ADD25RoundRect,0.250000X0.250000X1.100000X-0.250000X1.100000X-0.250000X-1.100000X0.250000X-1.100000X0*%
%ADD26R,1.220000X0.650000*%
%ADD27RoundRect,0.155000X0.212500X0.155000X-0.212500X0.155000X-0.212500X-0.155000X0.212500X-0.155000X0*%
%ADD28R,1.060000X0.650000*%
%ADD29R,0.800000X0.540000*%
%ADD30R,0.800000X0.300000*%
%ADD31O,2.250000X1.250000*%
%ADD32O,1.750000X1.250000*%
%ADD33R,2.400000X0.740000*%
%ADD34R,1.700000X1.700000*%
%ADD35O,1.700000X1.700000*%
G04 APERTURE END LIST*
D10*
%TO.C,SW1*%
X102200000Y-63175000D02*
X102200000Y-63975000D01*
X102200000Y-58775000D02*
X102200000Y-57975000D01*
X102200000Y-63975000D02*
X102800000Y-63975000D01*
X105600000Y-57975000D02*
X105000000Y-57975000D01*
X105600000Y-63975000D02*
X105000000Y-63975000D01*
X102200000Y-57975000D02*
X102800000Y-57975000D01*
X105600000Y-63175000D02*
X105600000Y-63975000D01*
X105600000Y-58825000D02*
X105600000Y-57975000D01*
%TD*%
D11*
%TO.C,R4*%
X84925000Y-66600000D03*
X83275000Y-66600000D03*
%TD*%
D12*
%TO.C,L1*%
X114900000Y-66850000D03*
X113150000Y-66850000D03*
%TD*%
D11*
%TO.C,R5*%
X92550000Y-66600000D03*
X90900000Y-66600000D03*
%TD*%
D13*
%TO.C,D3*%
X88275000Y-60300000D03*
X88275000Y-57800000D03*
%TD*%
D14*
%TO.C,H3*%
X132675000Y-52125000D03*
%TD*%
D15*
%TO.C,Y1*%
X113450000Y-55225000D03*
X114850000Y-55225000D03*
%TD*%
D11*
%TO.C,R6*%
X92325000Y-58825000D03*
X90675000Y-58825000D03*
%TD*%
%TO.C,R3*%
X102725000Y-54925000D03*
X101075000Y-54925000D03*
%TD*%
D16*
%TO.C,U1*%
X130850500Y-54881000D03*
X129580500Y-54881000D03*
X128310500Y-54881000D03*
X127040500Y-54881000D03*
X125770500Y-54881000D03*
X124500500Y-54881000D03*
X123230500Y-54881000D03*
X121960500Y-54881000D03*
X120690500Y-54881000D03*
X119420500Y-54881000D03*
D17*
X117201500Y-56530000D03*
X118912500Y-57167000D03*
X117201500Y-57800000D03*
X118912500Y-58437000D03*
X117201500Y-59070000D03*
X118912500Y-59707000D03*
X117201500Y-60340000D03*
X118912500Y-60977000D03*
X117201500Y-61610000D03*
X118912500Y-62247000D03*
X117201500Y-62880000D03*
X118912500Y-63517000D03*
X117201500Y-64150000D03*
X118912500Y-64787000D03*
X117201500Y-65420000D03*
D16*
X119420500Y-67119000D03*
X120690500Y-67119000D03*
X121452500Y-65041000D03*
X121960500Y-67119000D03*
X122722500Y-65041000D03*
X123230500Y-67119000D03*
X123992500Y-65041000D03*
X124500500Y-67119000D03*
X125262500Y-65041000D03*
X125770500Y-67119000D03*
X126532500Y-65041000D03*
X127040500Y-67119000D03*
X127802500Y-65041000D03*
X128310500Y-67119000D03*
X129072500Y-65041000D03*
X129580500Y-67119000D03*
X130342500Y-65041000D03*
X130850500Y-67119000D03*
%TD*%
D18*
%TO.C,C1*%
X89807500Y-54950000D03*
X90942500Y-54950000D03*
%TD*%
D19*
%TO.C,R8*%
X89050000Y-62325000D03*
X89050000Y-63975000D03*
%TD*%
D20*
%TO.C,Q1*%
X97600000Y-58100000D03*
X97600000Y-60000000D03*
X99600000Y-59050000D03*
%TD*%
D21*
%TO.C,SW1*%
X102840000Y-63175000D03*
X102840000Y-58775000D03*
X104980000Y-63175000D03*
X104980000Y-58835000D03*
%TD*%
D22*
%TO.C,D1*%
X86525000Y-66600000D03*
X88275000Y-66600000D03*
%TD*%
D23*
%TO.C,R1*%
X101075000Y-56525000D03*
X102725000Y-56525000D03*
%TD*%
%TO.C,R2*%
X84275000Y-59750000D03*
X85925000Y-59750000D03*
%TD*%
D24*
%TO.C,J3*%
X86375000Y-55000000D03*
X85125000Y-55000000D03*
D25*
X83275000Y-51800000D03*
X88225000Y-51800000D03*
%TD*%
D26*
%TO.C,U2*%
X100410000Y-63750000D03*
X100410000Y-62800000D03*
X100410000Y-61850000D03*
X97790000Y-61850000D03*
X97790000Y-63750000D03*
%TD*%
D22*
%TO.C,D2*%
X90625000Y-57225000D03*
X92375000Y-57225000D03*
%TD*%
D14*
%TO.C,H4*%
X77125000Y-69875000D03*
%TD*%
D27*
%TO.C,C3*%
X95492500Y-60000000D03*
X94357500Y-60000000D03*
%TD*%
D28*
%TO.C,U3*%
X90875000Y-62250000D03*
X90875000Y-63200000D03*
X90875000Y-64150000D03*
X93075000Y-64150000D03*
X93075000Y-62250000D03*
%TD*%
D29*
%TO.C,J2*%
X82025000Y-57800000D03*
X82025000Y-64200000D03*
X82025000Y-58600000D03*
X82025000Y-63400000D03*
D30*
X82025000Y-59750000D03*
X82025000Y-60750000D03*
X82025000Y-61250000D03*
X82025000Y-62250000D03*
X82025000Y-62750000D03*
X82025000Y-61750000D03*
X82025000Y-60250000D03*
X82025000Y-59242000D03*
D31*
X77125000Y-66550000D03*
D32*
X81125000Y-66600000D03*
X81125000Y-55424400D03*
D31*
X77125000Y-55400000D03*
%TD*%
D33*
%TO.C,J1*%
X108750000Y-58460000D03*
X112650000Y-58460000D03*
X108750000Y-59730000D03*
X112650000Y-59730000D03*
X108750000Y-61000000D03*
X112650000Y-61000000D03*
X108750000Y-62270000D03*
X112650000Y-62270000D03*
X108750000Y-63540000D03*
X112650000Y-63540000D03*
%TD*%
D18*
%TO.C,C2*%
X96407500Y-54925000D03*
X97542500Y-54925000D03*
%TD*%
D19*
%TO.C,R7*%
X94875000Y-63225000D03*
X94875000Y-64875000D03*
%TD*%
D34*
%TO.C,J5*%
X90850000Y-51750000D03*
D35*
X93390000Y-51750000D03*
X95930000Y-51750000D03*
X98470000Y-51750000D03*
X101010000Y-51750000D03*
X103550000Y-51750000D03*
X106090000Y-51750000D03*
X108630000Y-51750000D03*
X111170000Y-51750000D03*
X113710000Y-51750000D03*
X116250000Y-51750000D03*
X118790000Y-51750000D03*
X121330000Y-51750000D03*
X123870000Y-51750000D03*
X126410000Y-51750000D03*
X128950000Y-51750000D03*
%TD*%
D34*
%TO.C,J4*%
X80750000Y-70225000D03*
D35*
X83290000Y-70225000D03*
X85830000Y-70225000D03*
X88370000Y-70225000D03*
X90910000Y-70225000D03*
X93450000Y-70225000D03*
X95990000Y-70225000D03*
X98530000Y-70225000D03*
X101070000Y-70225000D03*
X103610000Y-70225000D03*
X106150000Y-70225000D03*
X108690000Y-70225000D03*
X111230000Y-70225000D03*
X113770000Y-70225000D03*
X116310000Y-70225000D03*
X118850000Y-70225000D03*
X121390000Y-70225000D03*
X123930000Y-70225000D03*
X126470000Y-70225000D03*
X129010000Y-70225000D03*
%TD*%
D14*
%TO.C,H2*%
X77125000Y-52125000D03*
%TD*%
%TO.C,H1*%
X132675000Y-69875000D03*
%TD*%
D11*
%TO.C,R9*%
X86450000Y-57800000D03*
X84800000Y-57800000D03*
%TD*%
M02*
