%TF.GenerationSoftware,KiCad,Pcbnew,5.99.0-unknown-ed66c0f14d~128~ubuntu20.04.1*%
%TF.CreationDate,2021-06-03T22:12:58+01:00*%
%TF.ProjectId,nRF52840-BBoard,6e524635-3238-4343-902d-42426f617264,v2*%
%TF.SameCoordinates,Original*%
%TF.FileFunction,Soldermask,Bot*%
%TF.FilePolarity,Negative*%
%FSLAX46Y46*%
G04 Gerber Fmt 4.6, Leading zero omitted, Abs format (unit mm)*
G04 Created by KiCad (PCBNEW 5.99.0-unknown-ed66c0f14d~128~ubuntu20.04.1) date 2021-06-03 22:12:58*
%MOMM*%
%LPD*%
G01*
G04 APERTURE LIST*
%ADD10C,2.000000*%
%ADD11R,0.650000X1.000000*%
%ADD12R,1.000000X0.650000*%
%ADD13O,2.250000X1.250000*%
%ADD14O,1.750000X1.250000*%
%ADD15R,1.700000X1.700000*%
%ADD16O,1.700000X1.700000*%
G04 APERTURE END LIST*
D10*
%TO.C,H3*%
X132675000Y-52125000D03*
%TD*%
D11*
%TO.C,U1*%
X130342500Y-65041000D03*
X129072500Y-65041000D03*
X127802500Y-65041000D03*
X126532500Y-65041000D03*
X125262500Y-65041000D03*
X123992500Y-65041000D03*
X122722500Y-65041000D03*
X121452500Y-65041000D03*
D12*
X118912500Y-64787000D03*
X118912500Y-63517000D03*
X118912500Y-62247000D03*
X118912500Y-60977000D03*
X118912500Y-59707000D03*
X118912500Y-58437000D03*
X118912500Y-57167000D03*
%TD*%
D10*
%TO.C,H4*%
X77125000Y-69875000D03*
%TD*%
D13*
%TO.C,J2*%
X77125000Y-55400000D03*
D14*
X81125000Y-55424400D03*
X81125000Y-66600000D03*
D13*
X77125000Y-66550000D03*
%TD*%
D15*
%TO.C,J5*%
X90850000Y-51750000D03*
D16*
X93390000Y-51750000D03*
X95930000Y-51750000D03*
X98470000Y-51750000D03*
X101010000Y-51750000D03*
X103550000Y-51750000D03*
X106090000Y-51750000D03*
X108630000Y-51750000D03*
X111170000Y-51750000D03*
X113710000Y-51750000D03*
X116250000Y-51750000D03*
X118790000Y-51750000D03*
X121330000Y-51750000D03*
X123870000Y-51750000D03*
X126410000Y-51750000D03*
X128950000Y-51750000D03*
%TD*%
%TO.C,J4*%
X129010000Y-70225000D03*
X126470000Y-70225000D03*
X123930000Y-70225000D03*
X121390000Y-70225000D03*
X118850000Y-70225000D03*
X116310000Y-70225000D03*
X113770000Y-70225000D03*
X111230000Y-70225000D03*
X108690000Y-70225000D03*
X106150000Y-70225000D03*
X103610000Y-70225000D03*
X101070000Y-70225000D03*
X98530000Y-70225000D03*
X95990000Y-70225000D03*
X93450000Y-70225000D03*
X90910000Y-70225000D03*
X88370000Y-70225000D03*
X85830000Y-70225000D03*
X83290000Y-70225000D03*
D15*
X80750000Y-70225000D03*
%TD*%
D10*
%TO.C,H2*%
X77125000Y-52125000D03*
%TD*%
%TO.C,H1*%
X132675000Y-69875000D03*
%TD*%
M02*
