M48
; DRILL file {KiCad 5.99.0-unknown-ed66c0f14d~128~ubuntu20.04.1} date Thu Jun  3 22:12:47 2021
; FORMAT={-:-/ absolute / metric / decimal}
; #@! TF.CreationDate,2021-06-03T22:12:47+01:00
; #@! TF.GenerationSoftware,Kicad,Pcbnew,5.99.0-unknown-ed66c0f14d~128~ubuntu20.04.1
; #@! TF.FileFunction,Plated,1,4,PTH
FMAT,2
METRIC
; #@! TA.AperFunction,Plated,PTH,ViaDrill
T1C0.400
; #@! TA.AperFunction,Plated,PTH,ComponentDrill
T2C0.400
; #@! TA.AperFunction,Plated,PTH,ComponentDrill
T3C0.750
; #@! TA.AperFunction,Plated,PTH,ComponentDrill
T4C1.000
%
G90
G05
T1
X80.75Y-68.4
X83.039Y-63.275
X83.041Y-58.782
X83.225Y-57.8
X83.275Y-67.675
X83.3Y-65.225
X85.025Y-63.75
X85.125Y-61.925
X86.2Y-65.05
X86.525Y-67.55
X86.85Y-59.75
X87.325Y-65.075
X88.525Y-54.95
X89.775Y-68.4
X91.8Y-54.95
X92.025Y-63.225
X92.325Y-59.925
X93.525Y-57.225
X93.65Y-59.55
X94.875Y-62.0
X96.15Y-63.225
X96.275Y-61.275
X96.525Y-58.075
X99.075Y-54.925
X99.875Y-67.65
X100.7Y-59.05
X101.8Y-62.8
X101.85Y-57.9
X102.6Y-67.5
X103.225Y-57.925
X103.3Y-66.6
X103.925Y-62.2
X104.175Y-56.525
X105.0Y-59.675
X106.65Y-59.75
X106.95Y-58.45
X112.65Y-58.475
X112.65Y-59.675
X115.425Y-60.225
X115.675Y-58.5
X119.425Y-55.975
X120.525Y-62.9
X120.7Y-55.975
X121.975Y-55.975
X122.0Y-68.225
X123.225Y-68.225
X123.25Y-55.975
X124.475Y-68.25
X125.775Y-56.0
X126.425Y-68.35
X127.05Y-60.425
X127.774Y-68.349
T2
X118.912Y-57.167
X118.912Y-58.437
X118.912Y-59.707
X118.912Y-60.977
X118.912Y-62.247
X118.912Y-63.517
X118.912Y-64.787
X121.453Y-65.041
X122.722Y-65.041
X123.992Y-65.041
X125.262Y-65.041
X126.532Y-65.041
X127.802Y-65.041
X129.072Y-65.041
X130.343Y-65.041
T4
X80.75Y-70.225
X83.29Y-70.225
X85.83Y-70.225
X88.37Y-70.225
X90.85Y-51.75
X90.91Y-70.225
X93.39Y-51.75
X93.45Y-70.225
X95.93Y-51.75
X95.99Y-70.225
X98.47Y-51.75
X98.53Y-70.225
X101.01Y-51.75
X101.07Y-70.225
X103.55Y-51.75
X103.61Y-70.225
X106.09Y-51.75
X106.15Y-70.225
X108.63Y-51.75
X108.69Y-70.225
X111.17Y-51.75
X111.23Y-70.225
X113.71Y-51.75
X113.77Y-70.225
X116.25Y-51.75
X116.31Y-70.225
X118.79Y-51.75
X118.85Y-70.225
X121.33Y-51.75
X121.39Y-70.225
X123.87Y-51.75
X123.93Y-70.225
X126.41Y-51.75
X126.47Y-70.225
X128.95Y-51.75
X129.01Y-70.225
T3
X76.625Y-55.4G85X77.625Y-55.4
G05
X76.625Y-66.55G85X77.625Y-66.55
G05
X80.85Y-55.424G85X81.4Y-55.424
G05
X80.85Y-66.6G85X81.4Y-66.6
G05
T0
M30
